<svg xmlns="http://www.w3.org/2000/svg" xmlns:xlink="http://www.w3.org/1999/xlink" viewBox="0 0 28.83 299.42"><defs><style>.cls-1{fill:url(#linear-gradient);}.cls-10,.cls-2,.cls-5{fill:#fff;}.cls-2{opacity:0.4;}.cls-3,.cls-6{fill:#002886;}.cls-3{opacity:0.3;}.cls-4{opacity:0.5;}.cls-7{fill:url(#linear-gradient-2);}.cls-8{fill:#00166d;}.cls-9{fill:#000a4a;}.cls-10{opacity:0.13;}.cls-11{fill:url(#linear-gradient-3);}.cls-12{fill:url(#linear-gradient-4);}.cls-13{fill:url(#linear-gradient-5);}.cls-14{fill:url(#linear-gradient-6);}.cls-15{fill:url(#linear-gradient-7);}.cls-16{fill:url(#linear-gradient-8);}.cls-17{fill:url(#linear-gradient-9);}.cls-18{fill:url(#linear-gradient-10);}.cls-19{fill:url(#linear-gradient-11);}.cls-20{fill:url(#linear-gradient-12);}.cls-21{fill:url(#linear-gradient-13);}.cls-22{fill:url(#linear-gradient-14);}.cls-23{fill:url(#linear-gradient-15);}.cls-24{fill:url(#linear-gradient-16);}.cls-25{fill:url(#linear-gradient-17);}.cls-26{fill:url(#linear-gradient-18);}.cls-27{fill:url(#linear-gradient-19);}.cls-28{fill:url(#linear-gradient-20);}</style><linearGradient id="linear-gradient" x1="7.99" y1="267.11" x2="20.84" y2="267.11" gradientUnits="userSpaceOnUse"><stop offset="0" stop-color="#1387f2"/><stop offset="0.02" stop-color="#1181ee"/><stop offset="0.1" stop-color="#0e76e5"/><stop offset="0.21" stop-color="#0c6fdf"/><stop offset="0.5" stop-color="#0b6dde"/><stop offset="0.77" stop-color="#0b6bdd"/><stop offset="0.86" stop-color="#0964d7"/><stop offset="0.93" stop-color="#0659ce"/><stop offset="0.98" stop-color="#0248c0"/><stop offset="1" stop-color="#0041bb"/></linearGradient><linearGradient id="linear-gradient-2" x1="0" y1="284.41" x2="28.83" y2="284.41" xlink:href="#linear-gradient"/><linearGradient id="linear-gradient-3" x1="7.99" y1="237.75" x2="20.84" y2="237.75" xlink:href="#linear-gradient"/><linearGradient id="linear-gradient-4" x1="0" y1="255.06" x2="28.83" y2="255.06" xlink:href="#linear-gradient"/><linearGradient id="linear-gradient-5" x1="7.99" y1="208.39" x2="20.84" y2="208.39" xlink:href="#linear-gradient"/><linearGradient id="linear-gradient-6" x1="0" y1="225.7" x2="28.83" y2="225.7" xlink:href="#linear-gradient"/><linearGradient id="linear-gradient-7" x1="7.99" y1="179.03" x2="20.84" y2="179.03" xlink:href="#linear-gradient"/><linearGradient id="linear-gradient-8" x1="0" y1="196.34" x2="28.83" y2="196.34" xlink:href="#linear-gradient"/><linearGradient id="linear-gradient-9" x1="7.99" y1="149.68" x2="20.84" y2="149.68" xlink:href="#linear-gradient"/><linearGradient id="linear-gradient-10" x1="0" y1="166.99" x2="28.83" y2="166.99" xlink:href="#linear-gradient"/><linearGradient id="linear-gradient-11" x1="7.99" y1="120.32" x2="20.84" y2="120.32" xlink:href="#linear-gradient"/><linearGradient id="linear-gradient-12" x1="0" y1="137.63" x2="28.83" y2="137.63" xlink:href="#linear-gradient"/><linearGradient id="linear-gradient-13" x1="7.99" y1="90.96" x2="20.84" y2="90.96" xlink:href="#linear-gradient"/><linearGradient id="linear-gradient-14" x1="0" y1="108.27" x2="28.83" y2="108.27" xlink:href="#linear-gradient"/><linearGradient id="linear-gradient-15" x1="7.99" y1="61.61" x2="20.84" y2="61.61" xlink:href="#linear-gradient"/><linearGradient id="linear-gradient-16" x1="0" y1="78.91" x2="28.83" y2="78.91" xlink:href="#linear-gradient"/><linearGradient id="linear-gradient-17" x1="7.99" y1="32.25" x2="20.84" y2="32.25" xlink:href="#linear-gradient"/><linearGradient id="linear-gradient-18" x1="0" y1="49.56" x2="28.83" y2="49.56" xlink:href="#linear-gradient"/><linearGradient id="linear-gradient-19" x1="7.99" y1="2.89" x2="20.84" y2="2.89" xlink:href="#linear-gradient"/><linearGradient id="linear-gradient-20" x1="0" y1="20.2" x2="28.83" y2="20.2" xlink:href="#linear-gradient"/></defs><g id="Layer_2" data-name="Layer 2"><g id="Layer_1-2" data-name="Layer 1"><rect class="cls-1" x="7.99" y="264.21" width="12.85" height="5.78"/><rect class="cls-2" x="9.35" y="264.21" width="1.2" height="5.78"/><rect class="cls-3" x="19.64" y="264.21" width="1.2" height="5.78"/><g class="cls-4"><rect class="cls-5" x="7.99" y="269.85" width="12.85" height="0.29"/></g><rect class="cls-6" y="270.1" width="28.83" height="29.32"/><rect class="cls-7" y="270" width="28.83" height="28.83"/><circle class="cls-8" cx="14.42" cy="284.41" r="6.42"/><path class="cls-9" d="M9,284.67a6.41,6.41,0,0,1,6.42-6.42,7.07,7.07,0,0,1,1,.08,6.42,6.42,0,1,0-3.1,12.42A6.41,6.41,0,0,1,9,284.67Z"/><g class="cls-4"><path class="cls-5" d="M14.42,291A6.58,6.58,0,1,1,21,284.41,6.59,6.59,0,0,1,14.42,291Zm0-12.85a6.28,6.28,0,1,0,6.27,6.27A6.28,6.28,0,0,0,14.42,278.14Z"/></g><rect class="cls-10" y="270" width="1.78" height="28.83"/><rect class="cls-3" x="27.06" y="270" width="1.78" height="28.83"/><rect class="cls-11" x="7.99" y="234.86" width="12.85" height="5.78"/><rect class="cls-2" x="9.35" y="234.86" width="1.2" height="5.78"/><rect class="cls-3" x="19.64" y="234.86" width="1.2" height="5.78"/><g class="cls-4"><rect class="cls-5" x="7.99" y="240.49" width="12.85" height="0.29"/></g><rect class="cls-6" y="240.74" width="28.83" height="29.32"/><rect class="cls-12" y="240.64" width="28.83" height="28.83"/><circle class="cls-8" cx="14.42" cy="255.06" r="6.42"/><path class="cls-9" d="M9,255.31a6.41,6.41,0,0,1,6.42-6.42,7.07,7.07,0,0,1,1,.08,6.43,6.43,0,1,0-3.1,12.43A6.42,6.42,0,0,1,9,255.31Z"/><g class="cls-4"><path class="cls-5" d="M14.42,261.63A6.57,6.57,0,1,1,21,255.06,6.58,6.58,0,0,1,14.42,261.63Zm0-12.85a6.28,6.28,0,1,0,6.27,6.28A6.28,6.28,0,0,0,14.42,248.78Z"/></g><rect class="cls-10" y="240.64" width="1.78" height="28.83"/><rect class="cls-3" x="27.06" y="240.64" width="1.78" height="28.83"/><rect class="cls-13" x="7.99" y="205.5" width="12.85" height="5.78"/><rect class="cls-2" x="9.35" y="205.5" width="1.2" height="5.78"/><rect class="cls-3" x="19.64" y="205.5" width="1.2" height="5.78"/><g class="cls-4"><rect class="cls-5" x="7.99" y="211.14" width="12.85" height="0.29"/></g><rect class="cls-6" y="211.38" width="28.83" height="29.32"/><rect class="cls-14" y="211.28" width="28.83" height="28.83"/><circle class="cls-8" cx="14.42" cy="225.7" r="6.42"/><path class="cls-9" d="M9,226a6.42,6.42,0,0,1,6.42-6.43,5.92,5.92,0,0,1,1,.09A6.42,6.42,0,1,0,13.38,232,6.42,6.42,0,0,1,9,226Z"/><g class="cls-4"><path class="cls-5" d="M14.42,232.27A6.57,6.57,0,1,1,21,225.7,6.58,6.58,0,0,1,14.42,232.27Zm0-12.85a6.28,6.28,0,1,0,6.27,6.28A6.28,6.28,0,0,0,14.42,219.42Z"/></g><rect class="cls-10" y="211.28" width="1.78" height="28.83"/><rect class="cls-3" x="27.06" y="211.28" width="1.78" height="28.83"/><rect class="cls-15" x="7.99" y="176.14" width="12.85" height="5.78"/><rect class="cls-2" x="9.35" y="176.14" width="1.2" height="5.78"/><rect class="cls-3" x="19.64" y="176.14" width="1.2" height="5.78"/><g class="cls-4"><rect class="cls-5" x="7.99" y="181.78" width="12.85" height="0.29"/></g><rect class="cls-6" y="182.03" width="28.83" height="29.32"/><rect class="cls-16" y="181.93" width="28.83" height="28.83"/><circle class="cls-8" cx="14.42" cy="196.34" r="6.42"/><path class="cls-9" d="M9,196.6a6.42,6.42,0,0,1,6.42-6.43,5.92,5.92,0,0,1,1,.09,6.42,6.42,0,1,0-3.1,12.42A6.42,6.42,0,0,1,9,196.6Z"/><g class="cls-4"><path class="cls-5" d="M14.42,202.91A6.57,6.57,0,1,1,21,196.34,6.58,6.58,0,0,1,14.42,202.91Zm0-12.85a6.28,6.28,0,1,0,6.27,6.28A6.28,6.28,0,0,0,14.42,190.06Z"/></g><rect class="cls-10" y="181.93" width="1.78" height="28.83"/><rect class="cls-3" x="27.06" y="181.93" width="1.78" height="28.83"/><rect class="cls-17" x="7.99" y="146.79" width="12.85" height="5.78"/><rect class="cls-2" x="9.35" y="146.79" width="1.2" height="5.78"/><rect class="cls-3" x="19.64" y="146.79" width="1.2" height="5.78"/><g class="cls-4"><rect class="cls-5" x="7.99" y="152.42" width="12.85" height="0.29"/></g><rect class="cls-6" y="152.67" width="28.83" height="29.32"/><rect class="cls-18" y="152.57" width="28.83" height="28.83"/><circle class="cls-8" cx="14.42" cy="166.99" r="6.42"/><path class="cls-9" d="M9,167.24a6.41,6.41,0,0,1,6.42-6.42,7.07,7.07,0,0,1,1,.08,6.43,6.43,0,1,0-3.1,12.43A6.43,6.43,0,0,1,9,167.24Z"/><g class="cls-4"><path class="cls-5" d="M14.42,173.56A6.58,6.58,0,1,1,21,167,6.58,6.58,0,0,1,14.42,173.56Zm0-12.85A6.28,6.28,0,1,0,20.69,167,6.28,6.28,0,0,0,14.42,160.71Z"/></g><rect class="cls-10" y="152.57" width="1.78" height="28.83"/><rect class="cls-3" x="27.06" y="152.57" width="1.78" height="28.83"/><rect class="cls-19" x="7.99" y="117.43" width="12.85" height="5.78"/><rect class="cls-2" x="9.35" y="117.43" width="1.2" height="5.78"/><rect class="cls-3" x="19.64" y="117.43" width="1.2" height="5.78"/><g class="cls-4"><rect class="cls-5" x="7.99" y="123.07" width="12.85" height="0.29"/></g><rect class="cls-6" y="123.31" width="28.83" height="29.32"/><rect class="cls-20" y="123.21" width="28.83" height="28.83"/><circle class="cls-8" cx="14.42" cy="137.63" r="6.42"/><path class="cls-9" d="M9,137.88a6.42,6.42,0,0,1,6.42-6.42,5.92,5.92,0,0,1,1,.09A6.42,6.42,0,1,0,13.38,144,6.42,6.42,0,0,1,9,137.88Z"/><g class="cls-4"><path class="cls-5" d="M14.42,144.2A6.57,6.57,0,1,1,21,137.63,6.58,6.58,0,0,1,14.42,144.2Zm0-12.85a6.28,6.28,0,1,0,6.27,6.28A6.28,6.28,0,0,0,14.42,131.35Z"/></g><rect class="cls-10" y="123.21" width="1.78" height="28.83"/><rect class="cls-3" x="27.06" y="123.21" width="1.78" height="28.83"/><rect class="cls-21" x="7.99" y="88.07" width="12.85" height="5.78"/><rect class="cls-2" x="9.35" y="88.07" width="1.2" height="5.78"/><rect class="cls-3" x="19.64" y="88.07" width="1.2" height="5.78"/><g class="cls-4"><rect class="cls-5" x="7.99" y="93.71" width="12.85" height="0.29"/></g><rect class="cls-6" y="93.95" width="28.83" height="29.32"/><rect class="cls-22" y="93.86" width="28.83" height="28.83"/><circle class="cls-8" cx="14.42" cy="108.27" r="6.42"/><path class="cls-9" d="M9,108.53a6.42,6.42,0,0,1,6.42-6.43,5.92,5.92,0,0,1,1,.09,6.42,6.42,0,1,0-3.1,12.42A6.42,6.42,0,0,1,9,108.53Z"/><g class="cls-4"><path class="cls-5" d="M14.42,114.84A6.57,6.57,0,1,1,21,108.27,6.58,6.58,0,0,1,14.42,114.84Zm0-12.85a6.28,6.28,0,1,0,6.27,6.28A6.28,6.28,0,0,0,14.42,102Z"/></g><rect class="cls-10" y="93.86" width="1.78" height="28.83"/><rect class="cls-3" x="27.06" y="93.86" width="1.78" height="28.83"/><rect class="cls-23" x="7.99" y="58.71" width="12.85" height="5.78"/><rect class="cls-2" x="9.35" y="58.71" width="1.2" height="5.78"/><rect class="cls-3" x="19.64" y="58.71" width="1.2" height="5.78"/><g class="cls-4"><rect class="cls-5" x="7.99" y="64.35" width="12.85" height="0.29"/></g><rect class="cls-6" y="64.6" width="28.83" height="29.32"/><rect class="cls-24" y="64.5" width="28.83" height="28.83"/><circle class="cls-8" cx="14.42" cy="78.91" r="6.42"/><path class="cls-9" d="M9,79.17a6.41,6.41,0,0,1,6.42-6.42,7.07,7.07,0,0,1,1,.08,6.42,6.42,0,1,0-3.1,12.42A6.41,6.41,0,0,1,9,79.17Z"/><g class="cls-4"><path class="cls-5" d="M14.42,85.49A6.58,6.58,0,1,1,21,78.91,6.59,6.59,0,0,1,14.42,85.49Zm0-12.85a6.28,6.28,0,1,0,6.27,6.27A6.28,6.28,0,0,0,14.42,72.64Z"/></g><rect class="cls-10" y="64.5" width="1.78" height="28.83"/><rect class="cls-3" x="27.06" y="64.5" width="1.78" height="28.83"/><rect class="cls-25" x="7.99" y="29.36" width="12.85" height="5.78"/><rect class="cls-2" x="9.35" y="29.36" width="1.2" height="5.78"/><rect class="cls-3" x="19.64" y="29.36" width="1.2" height="5.78"/><g class="cls-4"><rect class="cls-5" x="7.99" y="34.99" width="12.85" height="0.29"/></g><rect class="cls-6" y="35.24" width="28.83" height="29.32"/><rect class="cls-26" y="35.14" width="28.83" height="28.83"/><circle class="cls-8" cx="14.42" cy="49.56" r="6.42"/><path class="cls-9" d="M9,49.81a6.42,6.42,0,0,1,6.42-6.42,7.07,7.07,0,0,1,1,.08,6.43,6.43,0,1,0-3.1,12.43A6.42,6.42,0,0,1,9,49.81Z"/><g class="cls-4"><path class="cls-5" d="M14.42,56.13A6.57,6.57,0,1,1,21,49.56,6.58,6.58,0,0,1,14.42,56.13Zm0-12.85a6.28,6.28,0,1,0,6.27,6.28A6.28,6.28,0,0,0,14.42,43.28Z"/></g><rect class="cls-10" y="35.14" width="1.78" height="28.83"/><rect class="cls-3" x="27.06" y="35.14" width="1.78" height="28.83"/><rect class="cls-27" x="7.99" width="12.85" height="5.78"/><rect class="cls-2" x="9.35" width="1.2" height="5.78"/><rect class="cls-3" x="19.64" width="1.2" height="5.78"/><g class="cls-4"><rect class="cls-5" x="7.99" y="5.64" width="12.85" height="0.29"/></g><rect class="cls-6" y="5.88" width="28.83" height="29.32"/><rect class="cls-28" y="5.78" width="28.83" height="28.83"/><circle class="cls-8" cx="14.42" cy="20.2" r="6.42"/><path class="cls-9" d="M9,20.46A6.42,6.42,0,0,1,15.44,14a5.92,5.92,0,0,1,1,.09,6.42,6.42,0,1,0-3.1,12.42A6.42,6.42,0,0,1,9,20.46Z"/><g class="cls-4"><path class="cls-5" d="M14.42,26.77A6.57,6.57,0,1,1,21,20.2,6.58,6.58,0,0,1,14.42,26.77Zm0-12.85a6.28,6.28,0,1,0,6.27,6.28A6.28,6.28,0,0,0,14.42,13.92Z"/></g><rect class="cls-10" y="5.78" width="1.78" height="28.83"/><rect class="cls-3" x="27.06" y="5.78" width="1.78" height="28.83"/></g></g></svg>