<svg xmlns="http://www.w3.org/2000/svg" xmlns:xlink="http://www.w3.org/1999/xlink" viewBox="0 0 192.47 187.36"><defs><style>.cls-1,.cls-10,.cls-12,.cls-13,.cls-16,.cls-7,.cls-9{fill:none;}.cls-2{fill:url(#linear-gradient);}.cls-3{fill:url(#linear-gradient-2);}.cls-4{fill:url(#linear-gradient-3);}.cls-5{fill:url(#linear-gradient-4);}.cls-6{opacity:0.3;}.cls-7{stroke:#fff;}.cls-10,.cls-12,.cls-13,.cls-16,.cls-7,.cls-9{stroke-miterlimit:10;}.cls-12,.cls-7,.cls-9{stroke-width:2px;}.cls-8{opacity:0.5;}.cls-9{stroke:#75d028;}.cls-10{stroke:#309b00;stroke-width:1.5px;}.cls-11{clip-path:url(#clip-path);}.cls-12{stroke:#278000;}.cls-13{stroke:#1a5e00;stroke-width:1.3px;}.cls-14{clip-path:url(#clip-path-2);}.cls-15{opacity:0.4;}.cls-16{stroke:#5cb119;}</style><linearGradient id="linear-gradient" x1="183.65" y1="11.08" x2="0.45" y2="182.69" gradientUnits="userSpaceOnUse"><stop offset="0" stop-color="#75d028"/><stop offset="0.63" stop-color="#55bd16"/><stop offset="1" stop-color="#48b50e"/></linearGradient><linearGradient id="linear-gradient-2" x1="205.6" y1="94.5" x2="167.97" y2="94.5" gradientUnits="userSpaceOnUse"><stop offset="0" stop-color="#33a80f"/><stop offset="1" stop-color="#007c00"/></linearGradient><linearGradient id="linear-gradient-3" x1="95.9" y1="12.4" x2="96.52" y2="0.23" gradientUnits="userSpaceOnUse"><stop offset="0" stop-color="#b3eb5c"/><stop offset="1" stop-color="#82dd40"/></linearGradient><linearGradient id="linear-gradient-4" x1="185.01" y1="6.96" x2="21.32" y2="3.84" gradientUnits="userSpaceOnUse"><stop offset="0" stop-color="#ffb300" stop-opacity="0.2"/><stop offset="1" stop-color="#ff7965" stop-opacity="0"/></linearGradient><clipPath id="clip-path" transform="translate(2.08 2.2)"><polygon id="SVGID" class="cls-1" points="188.37 178.47 178.47 184.61 178.47 6.14 188.37 0 188.37 178.47"/></clipPath><clipPath id="clip-path-2" transform="translate(2.08 2.2)"><polygon id="SVGID-2" data-name="SVGID" class="cls-1" points="188.37 0 178.47 6.14 0 6.14 9.9 0 188.37 0"/></clipPath></defs><g id="Layer_2" data-name="Layer 2"><g id="Layer_1-2" data-name="Layer 1"><rect class="cls-2" x="2.08" y="8.34" width="178.47" height="178.47"/><polygon class="cls-3" points="190.45 180.67 180.55 186.81 180.55 8.34 190.45 2.2 190.45 180.67"/><polygon class="cls-4" points="190.45 2.2 180.55 8.34 2.08 8.34 11.98 2.2 190.45 2.2"/><polygon class="cls-5" points="190.45 2.2 180.55 8.34 2.08 8.34 11.98 2.2 190.45 2.2"/><g class="cls-6"><line class="cls-7" x1="2.08" y1="27.39" x2="180.55" y2="27.39"/><line class="cls-7" x1="2.08" y1="9.2" x2="180.55" y2="9.2"/><line class="cls-7" x1="2.08" y1="45.24" x2="180.55" y2="45.24"/><line class="cls-7" x1="2.08" y1="63.08" x2="180.55" y2="63.08"/><line class="cls-7" x1="2.08" y1="80.93" x2="180.55" y2="80.93"/><line class="cls-7" x1="2.08" y1="98.78" x2="180.55" y2="98.78"/><line class="cls-7" x1="2.08" y1="116.62" x2="180.55" y2="116.62"/><line class="cls-7" x1="2.08" y1="134.47" x2="180.55" y2="134.47"/><line class="cls-7" x1="2.08" y1="152.32" x2="180.55" y2="152.32"/><line class="cls-7" x1="2.08" y1="170.16" x2="180.55" y2="170.16"/></g><g class="cls-8"><line class="cls-9" x1="2.08" y1="42.75" x2="180.55" y2="42.75"/><line class="cls-9" x1="2.08" y1="25" x2="180.55" y2="25"/><line class="cls-9" x1="2.08" y1="60.6" x2="180.55" y2="60.6"/><line class="cls-9" x1="2.08" y1="78.45" x2="180.55" y2="78.45"/><line class="cls-9" x1="2.08" y1="96.29" x2="180.55" y2="96.29"/><line class="cls-9" x1="2.08" y1="114.14" x2="180.55" y2="114.14"/><line class="cls-9" x1="2.08" y1="131.99" x2="180.55" y2="131.99"/><line class="cls-9" x1="2.08" y1="149.84" x2="180.55" y2="149.84"/><line class="cls-9" x1="2.08" y1="167.68" x2="180.55" y2="167.68"/><line class="cls-9" x1="2.08" y1="186.1" x2="180.55" y2="186.1"/></g><line class="cls-10" x1="2.08" y1="26.19" x2="180.55" y2="26.19"/><line class="cls-10" x1="2.08" y1="44.03" x2="180.55" y2="44.03"/><line class="cls-10" x1="2.08" y1="61.88" x2="180.55" y2="61.88"/><line class="cls-10" x1="2.08" y1="79.73" x2="180.55" y2="79.73"/><line class="cls-10" x1="2.08" y1="97.58" x2="180.55" y2="97.58"/><line class="cls-10" x1="2.08" y1="115.42" x2="180.55" y2="115.42"/><line class="cls-10" x1="2.08" y1="133.27" x2="180.55" y2="133.27"/><line class="cls-10" x1="2.08" y1="151.12" x2="180.55" y2="151.12"/><line class="cls-10" x1="2.08" y1="168.96" x2="180.55" y2="168.96"/><line class="cls-10" x1="19.93" y1="8.34" x2="19.93" y2="186.81"/><line class="cls-10" x1="37.77" y1="8.34" x2="37.77" y2="186.81"/><line class="cls-10" x1="55.62" y1="8.34" x2="55.62" y2="186.81"/><line class="cls-10" x1="73.47" y1="8.34" x2="73.47" y2="186.81"/><line class="cls-10" x1="91.32" y1="8.34" x2="91.32" y2="186.81"/><line class="cls-10" x1="109.16" y1="8.34" x2="109.16" y2="186.81"/><line class="cls-10" x1="127.01" y1="8.34" x2="127.01" y2="186.81"/><line class="cls-10" x1="144.86" y1="8.34" x2="144.86" y2="186.81"/><line class="cls-10" x1="162.7" y1="8.34" x2="162.7" y2="186.81"/><g class="cls-11"><g class="cls-8"><line class="cls-12" x1="179.92" y1="25.28" x2="191.08" y2="18.23"/><line class="cls-12" x1="179.92" y1="43.13" x2="191.08" y2="36.08"/><line class="cls-12" x1="179.92" y1="60.97" x2="191.08" y2="53.92"/><line class="cls-12" x1="179.92" y1="78.82" x2="191.08" y2="71.77"/><line class="cls-12" x1="179.92" y1="96.67" x2="191.08" y2="89.62"/><line class="cls-12" x1="179.92" y1="114.51" x2="191.08" y2="107.46"/><line class="cls-12" x1="179.92" y1="132.36" x2="191.08" y2="125.31"/><line class="cls-12" x1="179.92" y1="150.21" x2="191.08" y2="143.16"/><line class="cls-12" x1="179.92" y1="168.06" x2="191.08" y2="161"/><line class="cls-12" x1="179.92" y1="186.51" x2="191.08" y2="179.46"/></g><g class="cls-6"><line class="cls-7" x1="179.92" y1="27.51" x2="191.08" y2="20.46"/><line class="cls-7" x1="179.92" y1="9.42" x2="191.08" y2="2.37"/><line class="cls-7" x1="179.92" y1="45.36" x2="191.08" y2="38.3"/><line class="cls-7" x1="179.92" y1="63.2" x2="191.08" y2="56.15"/><line class="cls-7" x1="179.92" y1="81.05" x2="191.08" y2="74"/><line class="cls-7" x1="179.92" y1="98.9" x2="191.08" y2="91.85"/><line class="cls-7" x1="179.92" y1="116.74" x2="191.08" y2="109.69"/><line class="cls-7" x1="179.92" y1="134.59" x2="191.08" y2="127.54"/><line class="cls-7" x1="179.92" y1="152.44" x2="191.08" y2="145.39"/><line class="cls-7" x1="179.92" y1="170.28" x2="191.08" y2="163.23"/></g><line class="cls-13" x1="179.92" y1="26.64" x2="191.08" y2="19.59"/><line class="cls-13" x1="179.92" y1="44.49" x2="191.08" y2="37.44"/><line class="cls-13" x1="179.92" y1="62.34" x2="191.08" y2="55.29"/><line class="cls-13" x1="179.92" y1="80.18" x2="191.08" y2="73.13"/><line class="cls-13" x1="179.92" y1="98.03" x2="191.08" y2="90.98"/><line class="cls-13" x1="179.92" y1="115.88" x2="191.08" y2="108.83"/><line class="cls-13" x1="179.92" y1="133.73" x2="191.08" y2="126.67"/><line class="cls-13" x1="179.92" y1="151.57" x2="191.08" y2="144.52"/><line class="cls-13" x1="179.92" y1="169.42" x2="191.08" y2="162.37"/></g><g class="cls-14"><line class="cls-9" x1="30.48" y1="0.84" x2="16.76" y2="9.7"/><line class="cls-9" x1="48.33" y1="0.84" x2="34.61" y2="9.7"/><line class="cls-9" x1="66.17" y1="0.84" x2="52.46" y2="9.7"/><line class="cls-9" x1="84.02" y1="0.84" x2="70.3" y2="9.7"/><line class="cls-9" x1="101.87" y1="0.84" x2="88.15" y2="9.7"/><line class="cls-9" x1="119.72" y1="0.84" x2="106" y2="9.7"/><line class="cls-9" x1="137.56" y1="0.84" x2="123.84" y2="9.7"/><line class="cls-9" x1="155.41" y1="0.84" x2="141.69" y2="9.7"/><line class="cls-9" x1="173.26" y1="0.84" x2="159.54" y2="9.7"/><line class="cls-9" x1="191.93" y1="0.84" x2="178.21" y2="9.7"/><g class="cls-15"><line class="cls-7" x1="33.06" y1="0.84" x2="19.34" y2="9.7"/><line class="cls-7" x1="14.26" y1="0.84" x2="0.54" y2="9.7"/><line class="cls-7" x1="50.91" y1="0.84" x2="37.19" y2="9.7"/><line class="cls-7" x1="68.75" y1="0.84" x2="55.04" y2="9.7"/><line class="cls-7" x1="86.6" y1="0.84" x2="72.88" y2="9.7"/><line class="cls-7" x1="104.45" y1="0.84" x2="90.73" y2="9.7"/><line class="cls-7" x1="122.29" y1="0.84" x2="108.58" y2="9.7"/><line class="cls-7" x1="140.14" y1="0.84" x2="126.42" y2="9.7"/><line class="cls-7" x1="157.99" y1="0.84" x2="144.27" y2="9.7"/><line class="cls-7" x1="175.83" y1="0.84" x2="162.12" y2="9.7"/></g><line class="cls-16" x1="31.69" y1="0.84" x2="17.97" y2="9.7"/><line class="cls-16" x1="49.54" y1="0.84" x2="35.82" y2="9.7"/><line class="cls-16" x1="67.38" y1="0.84" x2="53.67" y2="9.7"/><line class="cls-16" x1="85.23" y1="0.84" x2="71.51" y2="9.7"/><line class="cls-16" x1="103.08" y1="0.84" x2="89.36" y2="9.7"/><line class="cls-16" x1="120.92" y1="0.84" x2="107.21" y2="9.7"/><line class="cls-16" x1="138.77" y1="0.84" x2="125.05" y2="9.7"/><line class="cls-16" x1="156.62" y1="0.84" x2="142.9" y2="9.7"/><line class="cls-16" x1="174.46" y1="0.84" x2="160.75" y2="9.7"/></g></g></g></svg>