<svg xmlns="http://www.w3.org/2000/svg" xmlns:xlink="http://www.w3.org/1999/xlink" viewBox="0 0 221.59 396.04"><defs><style>.cls-1{fill:#f1b07d;}.cls-2{fill:url(#무제_그라디언트_30);}.cls-14,.cls-19,.cls-22,.cls-3{fill:none;stroke-linejoin:round;}.cls-3{stroke:#ffd6cc;}.cls-14,.cls-19,.cls-3{stroke-linecap:round;}.cls-4{fill:#f98a8a;}.cls-5{fill:#475ec1;}.cls-6{fill:#0b2775;}.cls-7{fill:#69b8ad;}.cls-8{fill:#937967;}.cls-9{fill:#ffa6a6;stroke:#ed9696;stroke-miterlimit:10;}.cls-10{fill:url(#무제_그라디언트_28);}.cls-11{fill:url(#무제_그라디언트_28-2);}.cls-12{fill:url(#무제_그라디언트_28-3);}.cls-13{fill:#fc8383;}.cls-14{stroke:#db7272;}.cls-15{fill:#6b9bfc;}.cls-16{fill:#f9dac2;}.cls-17{fill:#f9bbbb;}.cls-18{fill:#e87067;}.cls-19{stroke:#a5534c;stroke-width:0.5px;}.cls-20{fill:#c6cbeb;opacity:0.28;}.cls-21{fill:#ffec7d;}.cls-22{stroke:#8e79fe;stroke-width:4px;}</style><linearGradient id="무제_그라디언트_30" x1="111.03" y1="199.89" x2="111.03" y2="231.01" gradientUnits="userSpaceOnUse"><stop offset="0" stop-color="#485cc7"/><stop offset="1" stop-color="#0d2679"/></linearGradient><linearGradient id="무제_그라디언트_28" x1="110.22" y1="32.5" x2="110.22" y2="40.79" gradientUnits="userSpaceOnUse"><stop offset="0" stop-color="#ffe9e3"/><stop offset="1" stop-color="#ffa6a6"/></linearGradient><linearGradient id="무제_그라디언트_28-2" x1="109.35" y1="20.42" x2="109.35" y2="30.02" xlink:href="#무제_그라디언트_28"/><linearGradient id="무제_그라디언트_28-3" x1="106.16" y1="2.89" x2="109.2" y2="17.96" xlink:href="#무제_그라디언트_28"/></defs><g id="Layer_2" data-name="Layer 2"><g id="dreamie"><path class="cls-1" d="M33.18,273.42a6.47,6.47,0,0,0,4.62,6.2l-.42-2a1.33,1.33,0,0,1,2.62-.46l.57,2.64a4.41,4.41,0,0,0,.82-.16,6,6,0,0,0,1.72-.79,1.67,1.67,0,0,0,.28-.18,6.82,6.82,0,0,0,1.22-1.12c.13-.17.27-.35.39-.54a6.5,6.5,0,0,0,.59-1.07,6,6,0,0,0,.23-.64,6.37,6.37,0,0,0,.26-1.58,1.51,1.51,0,0,0,0-.3,6.46,6.46,0,0,0-12.92,0Z"/><path class="cls-2" d="M178.41,180.82a67.4,67.4,0,0,1-41.34,61,66.53,66.53,0,0,1-22.6,5.13c-1.14.07-2.29.09-3.44.09a67.39,67.39,0,0,1-67.39-66.24c3.9,4.92,32.58,8.73,67.39,8.73S174.51,185.74,178.41,180.82Z"/><path class="cls-1" d="M156,68.69a5.84,5.84,0,0,1-10.06,4,35.76,35.76,0,0,0-.09-8A5.83,5.83,0,0,1,156,68.69Z"/><path class="cls-3" d="M150.11,71.84a3.15,3.15,0,0,0,3.15-3.15"/><path class="cls-1" d="M76,69.14a35.37,35.37,0,0,0,.18,3.59,5.85,5.85,0,1,1,.09-8A35.28,35.28,0,0,0,76,69.14Z"/><path class="cls-3" d="M71.94,71.84a3.15,3.15,0,0,1-3.15-3.15"/><path class="cls-4" d="M128.1,111.38c-1.37,1.36-4.34,1.74-5.7,1.85h0a68.34,68.34,0,0,0-22.71,0h0c-1.36-.11-4.33-.49-5.7-1.85a4.84,4.84,0,0,1,3.6-8.09h5.56a35.25,35.25,0,0,0,15.83,0h5.56A4.84,4.84,0,0,1,128.1,111.38Z"/><path class="cls-5" d="M178.42,179.67c0,.39,0,.76,0,1.15-3.9,4.92-32.58,8.73-67.38,8.73s-63.49-3.81-67.39-8.73c0-.39,0-.76,0-1.15s0-.77,0-1.15c3.9-4.93,32.58-8.74,67.39-8.74s63.48,3.81,67.38,8.74C178.42,178.9,178.42,179.28,178.42,179.67Z"/><path class="cls-4" d="M71.34,136.81a10.38,10.38,0,0,1-7.14,9.87l-1.59.39-.08,0a52.34,52.34,0,0,0-13.27,5.58c-.21.11-.41.24-.62.37-18,10.94-30.29,32.55-30.29,57.42,0,17.54,6.1,33.46,16,45.16h0c.29.34.58.68.89,1l0,0s3.38-.68,3.88,2.15-1.7,3.55-2.21,5.92a.19.19,0,0,0,0,.07l0,.12c-.44,2.38.26,4.43-2.31,6.24-2,1.45-3.66.76-5.76,1a2.1,2.1,0,0,1-.37,0,8.2,8.2,0,0,0-1.49.41c-7.74,3.4-6.52-3.34-6.52-3.34-.36-.43-.71-.87-1.06-1.31l0,0C7.33,252.71,0,232.57,0,210.46c0-36.75,20.28-68.11,48.8-80.39a68.15,68.15,0,0,1,8.81-3.1c.46-.14.91-.25,1.37-.37a10.69,10.69,0,0,1,2-.18,10.38,10.38,0,0,1,6,1.89c.08.06.16.11.24.18A10.39,10.39,0,0,1,71.34,136.81Z"/><path class="cls-1" d="M37.38,277.62l.42,2,.55,2.56a1.34,1.34,0,0,0,2.63-.47l-.41-1.91L40,277.16a1.33,1.33,0,0,0-2.62.46Z"/><path class="cls-1" d="M42.19,281.51l6,3.67a1.45,1.45,0,1,0,1.49-2.43l-3.47-2.13-2.52-1.53-.08,0a2,2,0,0,0-.48-.19,6,6,0,0,1-1.72.79A1.61,1.61,0,0,0,42.19,281.51Z"/><path class="cls-1" d="M43.39,278.67a2.24,2.24,0,0,0,.2.37l.08,0,2.52,1.53,5.25,2.61a1.69,1.69,0,0,0,2.3-.44,1.48,1.48,0,0,0-.47-1.72,2.36,2.36,0,0,0-.57-.38l-7-3.46A2.16,2.16,0,0,0,45,277c-.12.19-.26.37-.39.54A6.82,6.82,0,0,1,43.39,278.67Z"/><path class="cls-1" d="M45,277a2.16,2.16,0,0,1,.71.22l7,3.46a2.36,2.36,0,0,1,.57.38,1.27,1.27,0,0,0,.82-.68,1.61,1.61,0,0,0-1-2l-6.62-2.91a2.11,2.11,0,0,0-.63-.17,6,6,0,0,1-.23.64A6.5,6.5,0,0,1,45,277Z"/><path class="cls-1" d="M45.82,275.3a2.11,2.11,0,0,1,.63.17l6.62,2.91a1.24,1.24,0,0,0,.28-.42,1.41,1.41,0,0,0-.72-1.87l-5.4-2.38a1.32,1.32,0,0,0-1.15,0A6.37,6.37,0,0,1,45.82,275.3Z"/><path class="cls-6" d="M137.07,241.84V389a8.57,8.57,0,0,0-8.53-8.54H123a8.57,8.57,0,0,0-8.53,8.54V247A66.53,66.53,0,0,0,137.07,241.84Z"/><path class="cls-7" d="M137.07,388.78v1.49A5.79,5.79,0,0,1,131.3,396H120.24a5.79,5.79,0,0,1-5.77-5.77v-1.49a8.56,8.56,0,0,1,8.53-8.53h5.54A8.56,8.56,0,0,1,137.07,388.78Z"/><path class="cls-6" d="M85.15,241.84V389a8.57,8.57,0,0,1,8.54-8.54h5.53a8.57,8.57,0,0,1,8.54,8.54V247A66.64,66.64,0,0,1,85.15,241.84Z"/><path class="cls-7" d="M85.15,388.46V390a5.79,5.79,0,0,0,5.78,5.77h11a5.79,5.79,0,0,0,5.78-5.77v-1.49a8.57,8.57,0,0,0-8.54-8.53H93.69A8.57,8.57,0,0,0,85.15,388.46Z"/><path class="cls-4" d="M145.66,63.23a42.21,42.21,0,0,0-9.6-9.82,10.55,10.55,0,0,0,2.3-4.47,38.25,38.25,0,0,1,3.46,3.28A35.23,35.23,0,0,1,145.66,63.23Z"/><path class="cls-4" d="M85.91,53.45a42.74,42.74,0,0,0-9.52,9.79,34.65,34.65,0,0,1,3.38-10.13c.1-.23.22-.44.33-.65l.11-.22A43,43,0,0,1,83.59,49,10.41,10.41,0,0,0,85.91,53.45Z"/><path class="cls-1" d="M146.16,69.15a35.13,35.13,0,1,1-69.77-5.91,42.74,42.74,0,0,1,9.52-9.79,10.62,10.62,0,0,0,15.18.78c.11-.11.22-.24.34-.34a13.86,13.86,0,0,1,9.52-3.8h0a13.86,13.86,0,0,1,9.52,3.8l.34.34a10.63,10.63,0,0,0,15.22-.82,42.21,42.21,0,0,1,9.6,9.82A36,36,0,0,1,146.16,69.15Z"/><rect class="cls-8" x="122.82" y="60.01" width="7.88" height="2.85" rx="0.98"/><rect class="cls-8" x="91.35" y="60.01" width="7.88" height="2.85" rx="0.98"/><path class="cls-9" d="M138.6,47.39a8.93,8.93,0,0,1-.24,1.55,10.61,10.61,0,0,1-17.52,5.29l-.34-.34a13.86,13.86,0,0,0-9.52-3.8h0a13.86,13.86,0,0,0-9.52,3.8c-.12.1-.23.23-.34.34a10.62,10.62,0,0,1-15.18-.78A10.41,10.41,0,0,1,83.59,49a9,9,0,0,1-.26-1.48,11.16,11.16,0,0,1,.11-2.93c.91-5.38,6-8.9,11.4-8.69.33,0,.57,0,1,.05.83.07,1.5.09,2.3.22.15,0,.33,0,.49.09A75.23,75.23,0,0,0,111,37.2h0a74,74,0,0,0,12.41-1l.42-.07c.79-.13,1.46-.15,2.29-.22.42,0,.67,0,1-.05,5.44-.21,10.49,3.31,11.4,8.69A10.53,10.53,0,0,1,138.6,47.39Z"/><path class="cls-10" d="M141.82,52.22a38.25,38.25,0,0,0-3.46-3.28,8.93,8.93,0,0,0,.24-1.55,10.53,10.53,0,0,0-.11-2.79c-.91-5.38-6-8.9-11.4-8.69-.32,0-.57,0-1,.05-.83.07-1.5.09-2.29.22l-.42.07a74,74,0,0,1-12.41,1h0a75.23,75.23,0,0,1-12.33-.93c-.16,0-.34-.06-.49-.09-.8-.13-1.47-.15-2.3-.22-.42,0-.66,0-1-.05-5.44-.21-10.49,3.31-11.4,8.69a11.16,11.16,0,0,0-.11,2.93A10.64,10.64,0,0,0,83.58,49a42.73,42.73,0,0,0-3.2,3.05c-.09.06-.17.3-.29.29s-.48-.64-.59-.91c-.81-2.47-4.13-14,10.37-21.08,7.56-3.59,12.32-.17,17.72-.4s9.62-3.5,16.2-2.23A22.39,22.39,0,0,1,130,30C135.71,33,142.32,40.9,141.82,52.22Z"/><path class="cls-11" d="M130,30a22.39,22.39,0,0,0-6.24-2.23c-6.58-1.27-10.8,2-16.2,2.23s-10.16-3.19-17.72.4c0,0-5.9-11,4.94-13.45,6.6-1.21,9.18,2.41,14.22,2.29s9.58-2.81,13.6-1.49S131.94,21.55,130,30Z"/><path class="cls-12" d="M122.63,17.71c-4-1.32-8.55,1.38-13.6,1.49s-7.62-3.49-14.22-2.28c0,0-4.18-7.69,7.8-9.64,7.32-1.15.81-7.28.81-7.28S125.2,2.86,122.63,17.71Z"/><path class="cls-13" d="M151.31,168.65a11,11,0,0,1-18.93,7.59,11,11,0,0,0,11.5-18A11,11,0,0,1,151.31,168.65Z"/><path class="cls-14" d="M20.47,269.27s6.62,1.58,11.18-2.57"/><path class="cls-14" d="M35.3,256.69s-.46,5.7-1.73,7.47"/><path class="cls-1" d="M188.41,273.42a6.46,6.46,0,0,1-4.63,6.2l.43-2a1.34,1.34,0,0,0-2.63-.46L181,279.8a4.41,4.41,0,0,1-.82-.16,6,6,0,0,1-1.73-.79l-.27-.18a6.82,6.82,0,0,1-1.22-1.12c-.13-.17-.27-.35-.39-.54a5.88,5.88,0,0,1-.6-1.07,6,6,0,0,1-.22-.64,6.37,6.37,0,0,1-.26-1.58,1.51,1.51,0,0,1,0-.3,6.46,6.46,0,0,1,12.92,0Z"/><path class="cls-4" d="M150.25,136.81a10.38,10.38,0,0,0,7.13,9.87l1.59.39.09,0a52.34,52.34,0,0,1,13.27,5.58l.62.37c18,10.94,30.29,32.55,30.29,57.42,0,17.54-6.1,33.46-16,45.16h0l-.89,1,0,0s-3.39-.68-3.88,2.15,1.7,3.55,2.21,5.92a.19.19,0,0,1,0,.07l0,.12c.44,2.38-.27,4.43,2.3,6.24,2.05,1.45,3.67.76,5.76,1a2.33,2.33,0,0,0,.37,0,8,8,0,0,1,1.49.41c7.75,3.4,6.53-3.34,6.53-3.34.36-.43.71-.87,1.06-1.31l0,0c12-15.22,19.38-35.36,19.38-57.47,0-36.75-20.28-68.11-48.8-80.39A68.15,68.15,0,0,0,164,127c-.46-.14-.92-.25-1.37-.37a10.69,10.69,0,0,0-2-.18,10.38,10.38,0,0,0-6,1.89c-.08.06-.16.11-.24.18A10.39,10.39,0,0,0,150.25,136.81Z"/><path class="cls-1" d="M184.21,277.62l-.43,2-.54,2.56a1.34,1.34,0,0,1-2.63-.47l.41-1.91.56-2.64a1.34,1.34,0,0,1,2.63.46Z"/><path class="cls-1" d="M179.4,281.51l-6,3.67a1.44,1.44,0,1,1-1.48-2.43l3.47-2.13,2.52-1.53.08,0a2.11,2.11,0,0,1,.47-.19,6,6,0,0,0,1.73.79A1.61,1.61,0,0,1,179.4,281.51Z"/><path class="cls-1" d="M178.2,278.67a2.24,2.24,0,0,1-.2.37l-.08,0-2.52,1.53-5.26,2.61a1.69,1.69,0,0,1-2.3-.44,1.48,1.48,0,0,1,.48-1.72,2.36,2.36,0,0,1,.57-.38l7-3.46a2.09,2.09,0,0,1,.71-.22c.12.19.26.37.39.54A6.82,6.82,0,0,0,178.2,278.67Z"/><path class="cls-1" d="M176.59,277a2.09,2.09,0,0,0-.71.22l-7,3.46a2.36,2.36,0,0,0-.57.38,1.27,1.27,0,0,1-.82-.68,1.61,1.61,0,0,1,1-2l6.62-2.91a2.11,2.11,0,0,1,.63-.17,6,6,0,0,0,.22.64A5.88,5.88,0,0,0,176.59,277Z"/><path class="cls-1" d="M175.77,275.3a2.11,2.11,0,0,0-.63.17l-6.62,2.91a1.24,1.24,0,0,1-.28-.42,1.41,1.41,0,0,1,.72-1.87l5.4-2.38a1.32,1.32,0,0,1,1.15,0A6.37,6.37,0,0,0,175.77,275.3Z"/><path class="cls-14" d="M201.12,269.27s-6.63,1.58-11.18-2.57"/><path class="cls-14" d="M186.29,256.69s.46,5.7,1.72,7.47"/><polygon class="cls-15" points="68.79 153.31 73.66 150.76 72.73 156.17 76.66 160.01 71.22 160.8 68.79 165.72 66.36 160.8 60.92 160.01 64.86 156.17 63.93 150.76 68.79 153.31"/><polygon class="cls-15" points="144.31 138.96 147.85 137.1 147.18 141.04 150.04 143.83 146.08 144.41 144.31 147.99 142.55 144.41 138.59 143.83 141.45 141.04 140.78 137.1 144.31 138.96"/><polygon class="cls-13" points="126.76 124.81 129.18 123.53 128.72 126.23 130.68 128.14 127.97 128.53 126.76 130.99 125.55 128.53 122.84 128.14 124.8 126.23 124.34 123.53 126.76 124.81"/><ellipse cx="96.09" cy="71.09" rx="3.15" ry="1.67"/><ellipse cx="125.96" cy="71.09" rx="3.15" ry="1.67"/><rect class="cls-16" x="110.97" y="67.35" width="2.7" height="8.99" rx="0.88"/><ellipse class="cls-17" cx="134.05" cy="81.59" rx="4.94" ry="3.15"/><ellipse class="cls-17" cx="88" cy="81.59" rx="4.94" ry="3.15"/><path class="cls-18" d="M122.85,83.29a4.66,4.66,0,0,1-2.55,3.85,0,0,0,0,1,0,0c-.27.12-.54.22-.81.32h0a20.89,20.89,0,0,1-14.29,0h0c-.27-.1-.54-.2-.81-.32h0a4.7,4.7,0,0,1,3.89-8.55,11.41,11.41,0,0,0,8.19,0,4.65,4.65,0,0,1,2.08-.33A4.71,4.71,0,0,1,122.85,83.29Z"/><path class="cls-19" d="M105.7,82.51s1.66,1.35,6.56,1.24"/><path class="cls-20" d="M178.42,179.67c0,.39,0,.76,0,1.15-3.9,4.93-32.59,8.73-67.38,8.73s-63.49-3.8-67.39-8.73c0-.39,0-.76,0-1.15s0-.77,0-1.16a67.14,67.14,0,0,1,5.62-25.84,52.39,52.39,0,0,1,13.27-5.58l.08,0,1.59-.39a10.38,10.38,0,0,0,3-18.18,67.12,67.12,0,0,1,32.48-15.27h0a67.69,67.69,0,0,1,22.72,0h0a67.25,67.25,0,0,1,27.54,11.41c1.62,1.15,3.2,2.37,4.71,3.67a10.4,10.4,0,0,0,2.73,18.37c.53.12,1.07.25,1.6.39l.08,0A53,53,0,0,1,172.94,153a66.91,66.91,0,0,1,5.47,25.48C178.42,178.9,178.42,179.28,178.42,179.67Z"/><path class="cls-19" d="M118.82,82.51s-1.66,1.35-6.56,1.24"/><circle class="cls-21" cx="111.83" cy="159.08" r="20.22"/><path class="cls-22" d="M92,163.1s-25.73,11.83,19.81-2.19,18.74-9.41,18.74-9.41"/></g></g></svg>