<svg xmlns="http://www.w3.org/2000/svg" xmlns:xlink="http://www.w3.org/1999/xlink" viewBox="0 0 30.9 187.36"><defs><style>.cls-1,.cls-12,.cls-13,.cls-5,.cls-7,.cls-8{fill:none;}.cls-2{fill:url(#linear-gradient);}.cls-3{clip-path:url(#clip-path);}.cls-4{opacity:0.5;}.cls-5{stroke:#278000;}.cls-12,.cls-13,.cls-5,.cls-7,.cls-8{stroke-miterlimit:10;}.cls-12,.cls-5,.cls-7{stroke-width:2px;}.cls-6{opacity:0.3;}.cls-7{stroke:#fff;}.cls-8{stroke:#1a5e00;stroke-width:1.3px;}.cls-9{fill:url(#linear-gradient-2);}.cls-10{fill:url(#linear-gradient-3);}.cls-11{fill:url(#linear-gradient-4);}.cls-12{stroke:#75d028;}.cls-13{stroke:#309b00;stroke-width:1.5px;}.cls-14{clip-path:url(#clip-path-2);}.cls-15{opacity:0.4;}</style><linearGradient id="linear-gradient" x1="44.02" y1="94.5" x2="6.39" y2="94.5" gradientUnits="userSpaceOnUse"><stop offset="0" stop-color="#33a80f"/><stop offset="1" stop-color="#007c00"/></linearGradient><clipPath id="clip-path" transform="translate(1.13 2.2)"><polygon id="SVGID" class="cls-1" points="27.75 178.47 17.85 184.61 17.85 6.14 27.75 0 27.75 178.47"/></clipPath><linearGradient id="linear-gradient-2" x1="9.86" y1="0.47" x2="18.84" y2="8.85" gradientUnits="userSpaceOnUse"><stop offset="0" stop-color="#b3eb5c"/><stop offset="1" stop-color="#82dd40"/></linearGradient><linearGradient id="linear-gradient-3" x1="11.73" y1="1.21" x2="18.01" y2="9" gradientUnits="userSpaceOnUse"><stop offset="0" stop-color="#ffb300" stop-opacity="0.2"/><stop offset="1" stop-color="#ff7965" stop-opacity="0"/></linearGradient><linearGradient id="linear-gradient-4" x1="18.32" y1="9.16" x2="1.86" y2="185.21" gradientUnits="userSpaceOnUse"><stop offset="0" stop-color="#75d028"/><stop offset="0.63" stop-color="#55bd16"/><stop offset="1" stop-color="#48b50e"/></linearGradient><clipPath id="clip-path-2" transform="translate(1.13 2.2)"><polygon id="SVGID-2" data-name="SVGID" class="cls-1" points="27.75 0 17.85 6.14 0 6.14 9.66 0 27.75 0"/></clipPath></defs><g id="Layer_2" data-name="Layer 2"><g id="Layer_1-2" data-name="Layer 1"><polygon class="cls-2" points="28.87 180.67 18.98 186.81 18.98 8.34 28.87 2.2 28.87 180.67"/><g class="cls-3"><g class="cls-4"><line class="cls-5" x1="18.35" y1="25.28" x2="29.51" y2="18.23"/><line class="cls-5" x1="18.35" y1="43.13" x2="29.51" y2="36.08"/><line class="cls-5" x1="18.35" y1="60.97" x2="29.51" y2="53.92"/><line class="cls-5" x1="18.35" y1="78.82" x2="29.51" y2="71.77"/><line class="cls-5" x1="18.35" y1="96.67" x2="29.51" y2="89.62"/><line class="cls-5" x1="18.35" y1="114.51" x2="29.51" y2="107.46"/><line class="cls-5" x1="18.35" y1="132.36" x2="29.51" y2="125.31"/><line class="cls-5" x1="18.35" y1="150.21" x2="29.51" y2="143.16"/><line class="cls-5" x1="18.35" y1="168.06" x2="29.51" y2="161"/><line class="cls-5" x1="18.35" y1="186.51" x2="29.51" y2="179.46"/></g><g class="cls-6"><line class="cls-7" x1="18.35" y1="27.51" x2="29.51" y2="20.46"/><line class="cls-7" x1="18.35" y1="9.42" x2="29.51" y2="2.37"/><line class="cls-7" x1="18.35" y1="45.36" x2="29.51" y2="38.3"/><line class="cls-7" x1="18.35" y1="63.2" x2="29.51" y2="56.15"/><line class="cls-7" x1="18.35" y1="81.05" x2="29.51" y2="74"/><line class="cls-7" x1="18.35" y1="98.9" x2="29.51" y2="91.85"/><line class="cls-7" x1="18.35" y1="116.74" x2="29.51" y2="109.69"/><line class="cls-7" x1="18.35" y1="134.59" x2="29.51" y2="127.54"/><line class="cls-7" x1="18.35" y1="152.44" x2="29.51" y2="145.39"/><line class="cls-7" x1="18.35" y1="170.28" x2="29.51" y2="163.23"/></g><line class="cls-8" x1="18.35" y1="26.64" x2="29.51" y2="19.59"/><line class="cls-8" x1="18.35" y1="44.49" x2="29.51" y2="37.44"/><line class="cls-8" x1="18.35" y1="62.34" x2="29.51" y2="55.29"/><line class="cls-8" x1="18.35" y1="80.18" x2="29.51" y2="73.13"/><line class="cls-8" x1="18.35" y1="98.03" x2="29.51" y2="90.98"/><line class="cls-8" x1="18.35" y1="115.88" x2="29.51" y2="108.83"/><line class="cls-8" x1="18.35" y1="133.73" x2="29.51" y2="126.67"/><line class="cls-8" x1="18.35" y1="151.57" x2="29.51" y2="144.52"/><line class="cls-8" x1="18.35" y1="169.42" x2="29.51" y2="162.37"/></g><polygon class="cls-9" points="10.79 2.2 28.87 2.2 18.98 8.34 1.13 8.34 10.79 2.2"/><polygon class="cls-10" points="10.79 2.2 28.87 2.2 18.98 8.34 1.13 8.34 10.79 2.2"/><rect class="cls-11" x="1.13" y="8.34" width="17.85" height="178.47"/><g class="cls-6"><line class="cls-7" x1="1.13" y1="27.39" x2="18.98" y2="27.39"/><line class="cls-7" x1="1.13" y1="9.2" x2="18.98" y2="9.2"/><line class="cls-7" x1="1.13" y1="45.24" x2="18.98" y2="45.24"/><line class="cls-7" x1="1.13" y1="63.08" x2="18.98" y2="63.08"/><line class="cls-7" x1="1.13" y1="80.93" x2="18.98" y2="80.93"/><line class="cls-7" x1="1.13" y1="98.78" x2="18.98" y2="98.78"/><line class="cls-7" x1="1.13" y1="116.62" x2="18.98" y2="116.62"/><line class="cls-7" x1="1.13" y1="134.47" x2="18.98" y2="134.47"/><line class="cls-7" x1="1.13" y1="152.32" x2="18.98" y2="152.32"/><line class="cls-7" x1="1.13" y1="170.16" x2="18.98" y2="170.16"/></g><g class="cls-4"><line class="cls-12" x1="1.13" y1="25" x2="18.98" y2="25"/><line class="cls-12" x1="1.13" y1="42.75" x2="18.98" y2="42.75"/><line class="cls-12" x1="1.13" y1="60.6" x2="18.98" y2="60.6"/><line class="cls-12" x1="1.13" y1="78.45" x2="18.98" y2="78.45"/><line class="cls-12" x1="1.13" y1="96.29" x2="18.98" y2="96.29"/><line class="cls-12" x1="1.13" y1="114.14" x2="18.98" y2="114.14"/><line class="cls-12" x1="1.13" y1="131.99" x2="18.98" y2="131.99"/><line class="cls-12" x1="1.13" y1="149.84" x2="18.98" y2="149.84"/><line class="cls-12" x1="1.13" y1="167.68" x2="18.98" y2="167.68"/><line class="cls-12" x1="1.13" y1="186.1" x2="18.98" y2="186.1"/></g><line class="cls-13" x1="1.13" y1="26.19" x2="18.98" y2="26.19"/><line class="cls-13" x1="1.13" y1="44.03" x2="18.98" y2="44.03"/><line class="cls-13" x1="1.13" y1="61.88" x2="18.98" y2="61.88"/><line class="cls-13" x1="1.13" y1="79.73" x2="18.98" y2="79.73"/><line class="cls-13" x1="1.13" y1="97.58" x2="18.98" y2="97.58"/><line class="cls-13" x1="1.13" y1="115.42" x2="18.98" y2="115.42"/><line class="cls-13" x1="1.13" y1="133.27" x2="18.98" y2="133.27"/><line class="cls-13" x1="1.13" y1="151.12" x2="18.98" y2="151.12"/><line class="cls-13" x1="1.13" y1="168.96" x2="18.98" y2="168.96"/><g class="cls-14"><line class="cls-12" x1="30.35" y1="0.84" x2="16.64" y2="9.7"/><g class="cls-15"><line class="cls-7" x1="14.26" y1="0.84" x2="0.54" y2="9.7"/></g></g></g></g></svg>