<svg xmlns="http://www.w3.org/2000/svg" xmlns:xlink="http://www.w3.org/1999/xlink" viewBox="0 0 100.34 122.51"><defs><style>.cls-1{fill:url(#linear-gradient);}.cls-2,.cls-5,.cls-9{fill:#fff;}.cls-2{opacity:0.4;}.cls-3,.cls-6{fill:#a21f1a;}.cls-3{opacity:0.3;}.cls-4{opacity:0.5;}.cls-7{fill:url(#linear-gradient-2);}.cls-8{fill:#80100b;}.cls-9{opacity:0.13;}</style><linearGradient id="linear-gradient" x1="27.81" y1="10.06" x2="72.53" y2="10.06" gradientUnits="userSpaceOnUse"><stop offset="0" stop-color="#ff6f54"/><stop offset="0.02" stop-color="#ff644d"/><stop offset="0.06" stop-color="#ff4e3f"/><stop offset="0.11" stop-color="#ff3d33"/><stop offset="0.17" stop-color="#ff322c"/><stop offset="0.26" stop-color="#ff2b27"/><stop offset="0.5" stop-color="#ff2926"/><stop offset="0.79" stop-color="#fe2724"/><stop offset="0.9" stop-color="#fc201e"/><stop offset="0.98" stop-color="#f81514"/><stop offset="1" stop-color="#f60f0f"/></linearGradient><linearGradient id="linear-gradient-2" x1="0" y1="70.3" x2="100.34" y2="70.3" xlink:href="#linear-gradient"/></defs><g id="Layer_2" data-name="Layer 2"><g id="Layer_1-2" data-name="Layer 1"><rect class="cls-1" x="27.81" width="44.72" height="20.13"/><rect class="cls-2" x="32.54" width="4.18" height="20.13"/><rect class="cls-3" x="68.35" width="4.18" height="20.13"/><g class="cls-4"><rect class="cls-5" x="19.63" y="19.62" width="61.08" height="1.02"/></g><rect class="cls-6" y="20.47" width="100.34" height="102.04"/><rect class="cls-7" y="20.13" width="100.34" height="100.34"/><circle class="cls-6" cx="50.17" cy="70.3" r="22.36"/><path class="cls-8" d="M31.38,71.19A22.36,22.36,0,0,1,53.74,48.83a22.77,22.77,0,0,1,3.62.3A22.36,22.36,0,1,0,46.55,92.36,22.35,22.35,0,0,1,31.38,71.19Z"/><g class="cls-4"><path class="cls-5" d="M50.17,93.17A22.87,22.87,0,1,1,73,70.3,22.9,22.9,0,0,1,50.17,93.17Zm0-44.72A21.85,21.85,0,1,0,72,70.3,21.87,21.87,0,0,0,50.17,48.45Z"/></g><rect class="cls-9" y="20.13" width="6.18" height="100.34"/><rect class="cls-3" x="94.16" y="20.13" width="6.18" height="100.34"/></g></g></svg>