<svg xmlns="http://www.w3.org/2000/svg" xmlns:xlink="http://www.w3.org/1999/xlink" viewBox="0 0 196.04 257.92"><defs><style>.cls-1{fill:#f7cf6e;}.cls-2{fill:#c5ccec;}.cls-13,.cls-3{fill:#d3e9e6;}.cls-12,.cls-3{opacity:0.35;}.cls-4{fill:url(#무제_그라디언트_41);}.cls-5{fill:#4460bf;}.cls-6{fill:#532ab1;}.cls-7{fill:#dadfef;}.cls-8{fill:#8a93d8;}.cls-9{fill:none;stroke:#ff7f32;stroke-linecap:round;stroke-linejoin:round;}.cls-10{fill:#ffd473;}.cls-11{fill:#8a93d6;}.cls-14{fill:#ffe529;}.cls-15{fill:#ff7f32;}.cls-16{fill:#ff9e94;}</style><linearGradient id="무제_그라디언트_41" x1="98.23" y1="202.86" x2="98.23" y2="142.8" gradientUnits="userSpaceOnUse"><stop offset="0" stop-color="#40c1ac"/><stop offset="1" stop-color="#5e1eb7"/></linearGradient></defs><g id="Layer_2" data-name="Layer 2"><g id="keepin"><circle class="cls-1" cx="97.94" cy="237.54" r="20.38"/><polygon class="cls-2" points="118.6 242.89 77.25 242.89 67.8 177.65 128.05 177.65 118.6 242.89"/><path class="cls-3" d="M158,130.29c0,.35,0,.68,0,1-3.15,4-24.66,7.15-51.89,7.66V133.9a2.4,2.4,0,0,0-2.4-2.39H93.45a2.39,2.39,0,0,0-2.4,2.39V139c-27.39-.47-49.09-3.65-52.26-7.66,0-.34,0-.67,0-1s0-.68,0-1a59.38,59.38,0,0,1,5-22.87,46.44,46.44,0,0,1,11.74-4.94h.07c.48-.13.94-.24,1.41-.35A9.2,9.2,0,0,0,59.61,85a59.48,59.48,0,0,1,28.73-13.5h0a59.78,59.78,0,0,1,20.09,0h0a59.06,59.06,0,0,1,24.36,10.1c1.44,1,2.84,2.09,4.17,3.23a9.21,9.21,0,0,0,2.42,16.26c.47.11.93.22,1.41.35h.07a46.61,46.61,0,0,1,12.29,5.27A59.19,59.19,0,0,1,158,129.28C158,129.61,158,130,158,130.29Z"/><path class="cls-4" d="M157.84,131.31a59.65,59.65,0,0,1-36.57,54,59.05,59.05,0,0,1-20,4.54c-1,.06-2,.08-3,.08a59.63,59.63,0,0,1-59.62-58.61c3.17,4,24.87,7.18,52.26,7.66v5.21a2.4,2.4,0,0,0,2.4,2.4h10.27a2.41,2.41,0,0,0,2.4-2.4V139C133.17,138.46,154.68,135.3,157.84,131.31Z"/><path class="cls-5" d="M113.33,69.88c-1.21,1.21-3.84,1.54-5,1.64h0a59.84,59.84,0,0,0-20.1,0h0c-1.2-.1-3.83-.43-5-1.64a4.29,4.29,0,0,1,3.18-7.16h4.92a31.07,31.07,0,0,0,14,0h4.92A4.28,4.28,0,0,1,113.33,69.88Z"/><path class="cls-6" d="M157.85,130.3c0,.34,0,.67,0,1-3.16,4-24.67,7.15-51.9,7.66v-5.06a2.41,2.41,0,0,0-2.4-2.41H93.27a2.4,2.4,0,0,0-2.4,2.41V139c-27.39-.48-49.09-3.65-52.26-7.66,0-.34,0-.67,0-1s0-.69,0-1c3.45-4.36,28.83-7.73,59.62-7.73s56.16,3.37,59.61,7.73C157.85,129.61,157.85,130,157.85,130.3Z"/><path class="cls-5" d="M196,157.54a81.81,81.81,0,0,1-17.15,50.84l0,0c-.31.39-.62.77-.94,1.15a8.62,8.62,0,0,1-13.12-11.13l0,0,.79-.9h0a61.69,61.69,0,0,0,14.18-40c0-22-10.85-41.12-26.8-50.81a46.58,46.58,0,0,0-12.29-5.26l-.07,0-1.41-.34a9.2,9.2,0,0,1,4.62-17.76c.4.1.81.2,1.21.32C174.32,91.76,196,121.77,196,157.54Z"/><path class="cls-5" d="M63.11,92.38a9.19,9.19,0,0,1-6.31,8.73l-1.41.34-.07,0a46.65,46.65,0,0,0-11.74,4.94l-.55.32c-16,9.69-26.8,28.81-26.8,50.81a61.69,61.69,0,0,0,14.18,40h0q.38.45.78.9l0,0a8.62,8.62,0,0,1-13.12,11.13c-.32-.38-.63-.76-.94-1.15l0,0A81.81,81.81,0,0,1,0,157.54C0,125,17.94,97.28,43.18,86.41A59.9,59.9,0,0,1,51,83.67c.4-.12.81-.22,1.21-.32a9.31,9.31,0,0,1,7,1.51l.21.16A9.16,9.16,0,0,1,63.11,92.38Z"/><path class="cls-2" d="M130,31.77a31.59,31.59,0,0,1-.93,7.64,29.08,29.08,0,0,1-1,3.33A31.77,31.77,0,1,1,128.78,23a33.29,33.29,0,0,1,.8,3.62A32.06,32.06,0,0,1,130,31.77Z"/><rect class="cls-7" x="71.24" y="24.14" width="53.97" height="18.07"/><path class="cls-8" d="M132.93,25.5V40.85a2.82,2.82,0,0,1-2.82,2.8,2.79,2.79,0,0,1-2.06-.91,29.08,29.08,0,0,0,1-3.33,31.59,31.59,0,0,0,.93-7.64,32.06,32.06,0,0,0-.41-5.12,33.29,33.29,0,0,0-.8-3.62,2.79,2.79,0,0,1,3.32.49A2.76,2.76,0,0,1,132.93,25.5Z"/><path class="cls-1" d="M140.26,33.17a7.33,7.33,0,0,1-7.33,7.33V25.84A7.34,7.34,0,0,1,140.26,33.17Z"/><path class="cls-8" d="M63.51,25.5V40.85a2.8,2.8,0,0,0,4.87,1.89,29.08,29.08,0,0,1-1-3.33,31.59,31.59,0,0,1-.93-7.64,32.06,32.06,0,0,1,.41-5.12A31.12,31.12,0,0,1,67.66,23a2.9,2.9,0,0,0-1.34-.34,2.82,2.82,0,0,0-2,.83A2.75,2.75,0,0,0,63.51,25.5Z"/><path class="cls-1" d="M56.18,33.17a7.33,7.33,0,0,0,7.33,7.33V25.84A7.33,7.33,0,0,0,56.18,33.17Z"/><path class="cls-9" d="M147.25,103.75s8.53-.46,10.88-14.77"/><path class="cls-9" d="M167.81,120.33s9.89,1.48,13.13-10.92"/><path class="cls-9" d="M178.56,144.76s9.74,4.88,15.81-4.17"/><path class="cls-9" d="M177.58,174.49s.94,8.93,15.48,5.57"/><path class="cls-9" d="M48.8,103.75S40.28,103.29,37.92,89"/><path class="cls-9" d="M28.24,120.33s-9.89,1.48-13.13-10.92"/><path class="cls-9" d="M17.5,144.76s-9.75,4.88-15.82-4.17"/><path class="cls-9" d="M18.47,174.49s-.94,8.93-15.48,5.57"/><rect class="cls-10" x="90.87" y="131.5" width="15.07" height="15.07" rx="2.4"/><circle cx="98.41" cy="141.66" r="1.73"/><rect x="97.92" y="134.55" width="0.96" height="6.85" rx="0.48"/><rect x="97.94" y="135.61" width="2.99" height="0.91" rx="0.46"/><rect x="97.94" y="137.19" width="2.99" height="0.91" rx="0.46"/><circle class="cls-10" cx="92.22" cy="116.55" r="6.85"/><rect class="cls-10" x="99.48" y="91.69" width="3.81" height="27.11" rx="0.49" transform="translate(88.87 -40.35) rotate(39.02)"/><rect class="cls-10" x="103.41" y="100.13" width="11.85" height="3.6" rx="0.46" transform="translate(88.56 -46.09) rotate(39.02)"/><rect class="cls-10" x="99.48" y="104.98" width="11.85" height="3.6" rx="0.46" transform="translate(90.73 -42.54) rotate(39.02)"/><rect class="cls-11" x="128.44" y="112.93" width="8.96" height="8.96" rx="1.54" transform="translate(19.86 -19.23) rotate(8.94)"/><g class="cls-12"><circle class="cls-13" cx="130.54" cy="113.92" r="0.45"/><circle class="cls-13" cx="129.58" cy="120.02" r="0.45"/><circle class="cls-13" cx="136.47" cy="114.85" r="0.45"/><circle class="cls-13" cx="135.51" cy="120.95" r="0.45"/></g><rect class="cls-11" x="82.52" y="84.5" width="8.96" height="8.96" rx="1.54" transform="translate(-2.92 2.96) rotate(-1.91)"/><circle class="cls-14" cx="84" cy="86" r="0.45"/><circle class="cls-14" cx="84.21" cy="92.17" r="0.45"/><circle class="cls-14" cx="90" cy="85.8" r="0.45"/><circle class="cls-14" cx="90.21" cy="91.96" r="0.45"/><rect class="cls-11" x="62.44" y="110.61" width="11.88" height="11.88" rx="1.54" transform="translate(-38.34 33.66) rotate(-21.76)"/><g class="cls-12"><circle class="cls-13" cx="63.29" cy="114.18" r="0.59"/><circle class="cls-13" cx="66.33" cy="121.78" r="0.59"/><circle class="cls-13" cx="70.68" cy="111.23" r="0.59"/><circle class="cls-13" cx="73.71" cy="118.83" r="0.59"/></g><path class="cls-15" d="M168.77,216.48a8.84,8.84,0,0,1-8.39,8.83h0l-.43,0-.43,0h0a2.19,2.19,0,0,1-1.72-2.14,2.16,2.16,0,0,1,1.87-2.15h.14a1.05,1.05,0,0,0,.31,0,2.32,2.32,0,1,0-2.41-3.29,2,2,0,0,0-.17.47,3.35,3.35,0,0,1-6.37-.85c0-.2,0-.41,0-.62a1.62,1.62,0,0,1,0-.22,8.85,8.85,0,1,1,17.69,0Z"/><path class="cls-15" d="M27.11,216.48a8.84,8.84,0,0,0,8.39,8.83h0l.43,0,.44,0h0a2.19,2.19,0,0,0,1.73-2.14A2.16,2.16,0,0,0,36.26,221h-.13a1.12,1.12,0,0,1-.32,0,2.32,2.32,0,1,1,2.42-3.29,2,2,0,0,1,.16.47,3.35,3.35,0,0,0,6.37-.85c0-.2,0-.41,0-.62a1.62,1.62,0,0,0,0-.22,8.85,8.85,0,1,0-17.69,0Z"/><circle cx="116.68" cy="33.17" r="5.16"/><circle cx="80.14" cy="33.17" r="5.16"/><rect x="85.3" y="32.82" width="26.72" height="0.84"/><ellipse class="cls-16" cx="118.29" cy="43.53" rx="4.37" ry="2.78"/><ellipse class="cls-16" cx="77.55" cy="43.53" rx="4.37" ry="2.78"/></g></g></svg>