<svg xmlns="http://www.w3.org/2000/svg" xmlns:xlink="http://www.w3.org/1999/xlink" viewBox="0 0 89.43 76.18"><defs><style>.cls-1{fill:none;}.cls-2{fill:url(#linear-gradient);}.cls-3{clip-path:url(#clip-path);}.cls-4{opacity:0.5;}.cls-5{fill:#278000;}.cls-6{opacity:0.3;}.cls-7{fill:#fff;}.cls-8{fill:url(#linear-gradient-2);}.cls-9{fill:url(#linear-gradient-3);}.cls-10{fill:url(#linear-gradient-4);}.cls-11{fill:#75d028;}.cls-12{clip-path:url(#clip-path-2);}.cls-13{opacity:0.4;}</style><linearGradient id="linear-gradient" x1="127.9" y1="40.92" x2="18.36" y2="40.92" gradientUnits="userSpaceOnUse"><stop offset="0" stop-color="#33a80f"/><stop offset="1" stop-color="#007c00"/></linearGradient><clipPath id="clip-path" transform="translate(3.03 6.01)"><polygon id="SVGID" class="cls-1" points="80.77 51.95 51.95 69.83 51.95 17.88 80.77 0 80.77 51.95"/></clipPath><linearGradient id="linear-gradient-2" x1="28.44" y1="0.97" x2="54.59" y2="25.37" gradientUnits="userSpaceOnUse"><stop offset="0" stop-color="#b3eb5c"/><stop offset="1" stop-color="#82dd40"/></linearGradient><linearGradient id="linear-gradient-3" x1="33.88" y1="3.14" x2="52.18" y2="25.8" gradientUnits="userSpaceOnUse"><stop offset="0" stop-color="#ffb300" stop-opacity="0.2"/><stop offset="1" stop-color="#ff7965" stop-opacity="0"/></linearGradient><linearGradient id="linear-gradient-4" x1="31.62" y1="21.98" x2="26.43" y2="77.5" gradientUnits="userSpaceOnUse"><stop offset="0" stop-color="#75d028"/><stop offset="0.63" stop-color="#55bd16"/><stop offset="1" stop-color="#48b50e"/></linearGradient><clipPath id="clip-path-2" transform="translate(3.03 6.01)"><polygon id="SVGID-2" data-name="SVGID" class="cls-1" points="80.77 0 51.95 17.88 0 17.88 28.12 0 80.77 0"/></clipPath></defs><g id="Layer_2" data-name="Layer 2"><g id="Layer_1-2" data-name="Layer 1"><polygon class="cls-2" points="83.8 57.96 54.99 75.84 54.99 23.89 83.8 6.01 83.8 57.96"/><g class="cls-3"><g class="cls-4"><rect class="cls-5" x="47.23" y="55.54" width="38.35" height="4.89" transform="translate(-17.56 49.75) rotate(-31.83)"/></g><g class="cls-6"><rect class="cls-7" x="47.15" y="8.32" width="38.44" height="4.89" transform="translate(7.55 43.13) rotate(-32.29)"/></g></g><polygon class="cls-8" points="31.16 6.01 83.8 6.01 54.99 23.89 3.03 23.89 31.16 6.01"/><polygon class="cls-9" points="31.16 6.01 83.8 6.01 54.99 23.89 3.03 23.89 31.16 6.01"/><rect class="cls-10" x="3.03" y="23.89" width="51.95" height="51.95"/><g class="cls-6"><rect class="cls-7" x="3.04" y="23.95" width="51.95" height="4.89"/></g><g class="cls-4"><rect class="cls-11" x="3.04" y="70.87" width="51.95" height="4.89"/></g><g class="cls-12"><rect class="cls-11" x="41.34" y="6.5" width="47.54" height="4.89" transform="translate(8.61 42.79) rotate(-32.88)"/><g class="cls-13"><rect class="cls-7" x="-5.51" y="6.5" width="47.54" height="4.89" transform="translate(1.1 17.35) rotate(-32.88)"/></g></g></g></g></svg>