<svg xmlns="http://www.w3.org/2000/svg" xmlns:xlink="http://www.w3.org/1999/xlink" viewBox="0 0 209.71 374.15"><defs><style>.cls-1{fill:#d6713a;}.cls-2{fill:#ed8a76;}.cls-3{fill:#e1c3fc;}.cls-4{fill:url(#무제_그라디언트_50);}.cls-5{fill:#532ab1;}.cls-6{fill:#7fb337;}.cls-7{fill:#e6d8ee;}.cls-8{fill:#e93994;}.cls-20,.cls-22,.cls-26,.cls-29,.cls-30,.cls-9{fill:none;stroke-linecap:round;}.cls-9{stroke:#000;stroke-width:0.75px;}.cls-20,.cls-30,.cls-9{stroke-miterlimit:10;}.cls-10{fill:#c6cbe9;}.cls-11{fill:#8993d6;}.cls-12{fill:#69b8ad;}.cls-13{fill:#cf3014;}.cls-14{fill:#f4b73a;}.cls-15{fill:#e6d8ef;opacity:0.35;}.cls-16{fill:#c9b0dc;}.cls-17{fill:#b590d2;}.cls-18{fill:#f98073;}.cls-19{fill:#c16634;}.cls-20{stroke:#af2571;stroke-width:0.25px;}.cls-21{fill:#f2b5a3;}.cls-22{stroke:#b590d2;}.cls-22,.cls-26,.cls-29{stroke-linejoin:round;}.cls-23{fill:#fc6;}.cls-24{fill:#fc907e;}.cls-25{fill:url(#무제_그라디언트_31);}.cls-26{stroke:#fc907e;}.cls-27{fill:#f7bd61;}.cls-28{fill:#f95035;}.cls-29{stroke:#b5ea3f;}.cls-30{stroke:#7fb337;}.cls-31{fill:#ef8640;}</style><linearGradient id="무제_그라디언트_50" x1="105.07" y1="222.62" x2="105.07" y2="184.11" gradientUnits="userSpaceOnUse"><stop offset="0" stop-color="#e10098"/><stop offset="1" stop-color="#5e1eb7"/></linearGradient><linearGradient id="무제_그라디언트_31" x1="106.34" y1="3.47" x2="104.94" y2="55.86" gradientUnits="userSpaceOnUse"><stop offset="0" stop-color="#ff8674"/><stop offset="0.04" stop-color="#ff8977"/><stop offset="0.37" stop-color="#ff9e8a"/><stop offset="0.7" stop-color="#ffac95"/><stop offset="1" stop-color="#ffb099"/></linearGradient></defs><g id="Layer_2" data-name="Layer 2"><g id="happy.f"><path class="cls-1" d="M178.14,246.82s8.36,1.78,2.37,14.79c-1.34,3.35-.34,4.5-.34,4.5S169.6,256.67,178.14,246.82Z"/><path class="cls-1" d="M31.87,246.82s-8.36,1.78-2.37,14.79c1.34,3.35.34,4.5.34,4.5S40.41,256.67,31.87,246.82Z"/><path class="cls-2" d="M75.09,51.58a11.24,11.24,0,0,1-2.36-.32c-.57-.75-1,1.31.36,1.63"/><path class="cls-2" d="M135.18,52.2a11.24,11.24,0,0,0,2.36-.32c.57-.75,1,1.31-.36,1.63"/><circle class="cls-3" cx="105.02" cy="65.72" r="31.24"/><path class="cls-4" d="M168.85,168.87a63.82,63.82,0,0,1-39.12,57.75,63.13,63.13,0,0,1-21.4,4.85c-1.08.06-2.17.09-3.26.09A63.79,63.79,0,0,1,41.3,168.87c3.69,4.66,30.84,8.26,63.77,8.26S165.15,173.53,168.85,168.87Z"/><path class="cls-5" d="M168.85,167.78v1.09c-3.7,4.66-30.84,8.26-63.78,8.26S45,173.53,41.3,168.87v-2.18c3.69-4.66,30.84-8.27,63.77-8.27s60.08,3.61,63.78,8.27Z"/><path class="cls-6" d="M209.71,196.92c0,20.92-6.94,40-18.35,54.38l0,0c-.33.41-.66.82-1,1.23a9.22,9.22,0,0,1-14-11.9l0,0c.29-.32.57-.65.84-1h0a66,66,0,0,0,15.16-42.73c0-23.54-11.61-44-28.66-54.35a50.35,50.35,0,0,0-13.15-5.63h-.08c-.5-.13-1-.26-1.5-.37A9.84,9.84,0,0,1,152,117.38a10.49,10.49,0,0,1,1.87.17c.43.11.86.22,1.3.35C186.47,126.56,209.71,158.65,209.71,196.92Z"/><path class="cls-7" d="M178.31,256.5a6.12,6.12,0,0,1-4.38,5.87l.4-1.89a1.26,1.26,0,0,0-2.48-.44l-.54,2.5a3.9,3.9,0,0,1-.77-.16,5.35,5.35,0,0,1-1.63-.74,2.46,2.46,0,0,1-.27-.17,6.41,6.41,0,0,1-1.15-1.06c-.12-.16-.25-.33-.37-.51a5.81,5.81,0,0,1-.56-1,4.39,4.39,0,0,1-.21-.61,5.67,5.67,0,0,1-.25-1.49,1.46,1.46,0,0,1,0-.29,6.12,6.12,0,0,1,12.23,0Z"/><path class="cls-7" d="M174.33,260.48l-.4,1.89-.52,2.42a1.26,1.26,0,0,1-2.48-.44l.38-1.81.54-2.5a1.26,1.26,0,0,1,2.48.44Z"/><path class="cls-7" d="M169.78,264.16l-5.66,3.47a1.37,1.37,0,1,1-1.41-2.3l3.29-2,2.38-1.45.07-.05a2.58,2.58,0,0,1,.46-.18,5.35,5.35,0,0,0,1.63.74A1.54,1.54,0,0,1,169.78,264.16Z"/><path class="cls-7" d="M168.64,261.47a1.74,1.74,0,0,1-.19.35l-.07.05L166,263.32l-5,2.47a1.62,1.62,0,0,1-2.18-.42,1.42,1.42,0,0,1,.46-1.63,2.25,2.25,0,0,1,.53-.36l6.62-3.27a1.93,1.93,0,0,1,.67-.21c.12.18.25.35.37.51A6.41,6.41,0,0,0,168.64,261.47Z"/><path class="cls-7" d="M167.12,259.9a1.93,1.93,0,0,0-.67.21l-6.62,3.27a2.25,2.25,0,0,0-.53.36,1.23,1.23,0,0,1-.78-.64,1.53,1.53,0,0,1,1-1.91l6.27-2.75a1.91,1.91,0,0,1,.6-.16,4.39,4.39,0,0,0,.21.61A5.81,5.81,0,0,0,167.12,259.9Z"/><path class="cls-7" d="M166.35,258.28a1.91,1.91,0,0,0-.6.16l-6.27,2.75a1.21,1.21,0,0,1-.26-.39,1.32,1.32,0,0,1,.68-1.77l5.11-2.26a1.29,1.29,0,0,1,1.09,0A5.67,5.67,0,0,0,166.35,258.28Z"/><path class="cls-6" d="M67.51,127.21a9.83,9.83,0,0,1-6.75,9.35c-.5.11-1,.24-1.5.37h-.08a50.1,50.1,0,0,0-12.56,5.28l-.59.35C29,152.93,17.37,173.38,17.37,196.92a66,66,0,0,0,15.16,42.73h0c.27.32.55.65.84,1,0,0,0,0,0,0a9.22,9.22,0,0,1-14,11.9l-1-1.23,0,0C6.94,236.91,0,217.84,0,196.92c0-34.78,19.19-64.46,46.18-76.08a64.45,64.45,0,0,1,8.34-2.94c.43-.13.87-.24,1.3-.35a10.29,10.29,0,0,1,1.86-.17,9.87,9.87,0,0,1,5.67,1.79l.23.18A9.82,9.82,0,0,1,67.51,127.21Z"/><path class="cls-7" d="M31.4,256.5a6.13,6.13,0,0,0,4.38,5.87l-.4-1.89a1.26,1.26,0,0,1,2.48-.44l.54,2.5a3.9,3.9,0,0,0,.77-.16,5.52,5.52,0,0,0,1.64-.74l.26-.17a6.41,6.41,0,0,0,1.15-1.06c.12-.16.25-.33.37-.51a5.81,5.81,0,0,0,.56-1,4.39,4.39,0,0,0,.21-.61,5.67,5.67,0,0,0,.25-1.49,1.46,1.46,0,0,0,0-.29,6.12,6.12,0,0,0-12.23,0Z"/><path class="cls-7" d="M35.38,260.48l.4,1.89.52,2.42a1.26,1.26,0,0,0,2.48-.44l-.38-1.81-.54-2.5a1.26,1.26,0,0,0-2.48.44Z"/><path class="cls-7" d="M39.93,264.16l5.66,3.47a1.37,1.37,0,1,0,1.41-2.3l-3.29-2-2.38-1.45-.07-.05a2.82,2.82,0,0,0-.45-.18,5.52,5.52,0,0,1-1.64.74A1.54,1.54,0,0,0,39.93,264.16Z"/><path class="cls-7" d="M41.07,261.47a1.74,1.74,0,0,0,.19.35l.07.05,2.38,1.45,5,2.47a1.62,1.62,0,0,0,2.18-.42,1.42,1.42,0,0,0-.46-1.63,2.25,2.25,0,0,0-.53-.36l-6.62-3.27a1.93,1.93,0,0,0-.67-.21c-.12.18-.25.35-.37.51A6.41,6.41,0,0,1,41.07,261.47Z"/><path class="cls-7" d="M42.59,259.9a1.93,1.93,0,0,1,.67.21l6.62,3.27a2.25,2.25,0,0,1,.53.36,1.23,1.23,0,0,0,.78-.64,1.53,1.53,0,0,0-1-1.91L44,258.44a1.91,1.91,0,0,0-.6-.16,4.39,4.39,0,0,1-.21.61A5.81,5.81,0,0,1,42.59,259.9Z"/><path class="cls-7" d="M43.36,258.28a1.91,1.91,0,0,1,.6.16l6.27,2.75a1.21,1.21,0,0,0,.26-.39,1.32,1.32,0,0,0-.68-1.77l-5.11-2.26a1.29,1.29,0,0,0-1.09,0A5.67,5.67,0,0,1,43.36,258.28Z"/><path class="cls-8" d="M129.73,226.62V367.4a8.11,8.11,0,0,0-8.08-8.08h-5.24a8.11,8.11,0,0,0-8.08,8.08V231.47A63.13,63.13,0,0,0,129.73,226.62Z"/><path class="cls-8" d="M80.42,226.62V367.4a8.11,8.11,0,0,1,8.08-8.08h5.24a8.11,8.11,0,0,1,8.08,8.08V231.47A63.13,63.13,0,0,1,80.42,226.62Z"/><path class="cls-9" d="M125.09,141.33s0,0,0,0,0,0,0,0Z"/><path class="cls-9" d="M125.09,141.33s0,0,0,0,0,0,0,0Z"/><circle class="cls-10" cx="130.06" cy="123.53" r="3.22"/><circle class="cls-10" cx="127.35" cy="124.16" r="2.2"/><circle class="cls-10" cx="132.97" cy="124.57" r="2.2"/><circle class="cls-10" cx="132.49" cy="122.36" r="1.59"/><circle class="cls-11" cx="63.89" cy="151.5" r="4.41"/><circle class="cls-11" cx="68.79" cy="152.66" r="2.87"/><circle class="cls-11" cx="60.35" cy="152.66" r="2.87"/><circle class="cls-11" cx="67.37" cy="150.63" r="2.32"/><circle class="cls-11" cx="149.6" cy="158.41" r="4.97"/><circle class="cls-11" cx="146.25" cy="159.1" r="3.78"/><circle class="cls-11" cx="144.63" cy="156.2" r="3.78"/><circle class="cls-11" cx="141.33" cy="158.41" r="3.08"/><circle class="cls-11" cx="152.69" cy="158.12" r="3.08"/><circle class="cls-11" cx="84.84" cy="161.17" r="2.83"/><circle class="cls-11" cx="86.55" cy="159.6" r="2.83"/><circle class="cls-11" cx="88.68" cy="160.95" r="2.83"/><circle class="cls-11" cx="91.08" cy="161.17" r="1.79"/><path class="cls-12" d="M105.6,124.81c15.89.28,28.56,12.08,28.3,26.34h0a.56.56,0,0,1,0,.13,1.93,1.93,0,0,1-2.11,1.74,1.9,1.9,0,0,1-1.72-1.94h0c.22-12.35-10.74-22.55-24.51-22.8s-25.09,9.54-25.32,21.89a.57.57,0,0,1,0,.13A1.92,1.92,0,0,1,78.1,152a1.89,1.89,0,0,1-1.73-1.93h0C76.62,135.83,89.7,124.51,105.6,124.81Z"/><path class="cls-13" d="M105.47,131.73c11.63.21,20.9,8.84,20.71,19.27h0a.66.66,0,0,1,0,.14,1.71,1.71,0,0,1-3.42-.21h0c.16-8.72-7.58-15.93-17.32-16.11s-17.74,6.74-17.9,15.47a.48.48,0,0,1,0,.12,1.73,1.73,0,0,1-3.44,0,.65.65,0,0,1,0-.14h0s0,0,0,0a.16.16,0,0,0,0-.07v-.05C84.36,139.71,93.91,131.53,105.47,131.73Z"/><path class="cls-14" d="M105.53,128.27c13.77.25,24.73,10.45,24.51,22.8h0a.43.43,0,0,1,0,.16,1.94,1.94,0,0,1-2.1,1.74,1.91,1.91,0,0,1-1.73-2h0c.19-10.43-9.08-19.06-20.71-19.27s-21.11,8-21.4,18.34v.05a.16.16,0,0,1,0,.07s0,0,0,0h0a.65.65,0,0,0,0,.14A2,2,0,0,1,82,152.11a1.9,1.9,0,0,1-1.73-2h0C80.44,137.81,91.78,128,105.53,128.27Z"/><path class="cls-15" d="M163.67,142.56a50.45,50.45,0,0,0-13.14-5.62h-.08c-.5-.13-1-.26-1.51-.37a9.85,9.85,0,0,1-2.58-17.39c-1.42-1.23-2.92-2.38-4.46-3.48A63.34,63.34,0,0,0,116.38,105c-5.11-.8-6.75-1.3-11.25-1.3A53.83,53.83,0,0,0,93.77,105a63.24,63.24,0,0,0-30.19,14.34,9.84,9.84,0,0,1-2.81,17.21c-.51.11-1,.24-1.52.37h-.07a50.13,50.13,0,0,0-12.56,5.29,63.76,63.76,0,0,0-5.32,24.46c0,.36,0,.72,0,1.09s0,.72,0,1.09c3.7,4.66,30.84,8.26,63.77,8.26s60.08-3.6,63.78-8.26v-2.18A63.7,63.7,0,0,0,163.67,142.56ZM46.31,164a65.26,65.26,0,0,1,9-2.14A68.7,68.7,0,0,0,46.31,164Zm9.92-2.3c1.24-.22,2.54-.42,3.91-.61C58.78,161.29,57.47,161.49,56.23,161.7Zm7.46-1.08c1.7-.21,3.46-.4,5.3-.58C67.15,160.22,65.38,160.42,63.69,160.62Zm41.38-2.2H102l3.07,0c2.58,0,5.11,0,7.61.07C110.18,158.44,107.65,158.42,105.07,158.42Zm19.21.42c9.79.44,18.58,1.22,25.73,2.25C142.86,160.07,134.07,159.29,124.28,158.84Z"/><path class="cls-16" d="M76.51,42l.15-.21Z"/><circle cx="118.5" cy="67.28" r="2.66"/><circle cx="93.21" cy="67.28" r="2.66"/><rect class="cls-17" x="104.71" y="63.72" width="2.28" height="7.61" rx="0.75"/><ellipse class="cls-18" cx="125.34" cy="76.3" rx="4.18" ry="2.66"/><ellipse class="cls-18" cx="86.36" cy="76.3" rx="4.18" ry="2.66"/><rect class="cls-19" x="115.83" y="57.92" width="6.36" height="1.75" rx="0.41"/><rect class="cls-19" x="89.51" y="57.92" width="6.36" height="1.75" rx="0.41"/><path class="cls-8" d="M116.76,76.21a1.39,1.39,0,0,1-.4,1,1.06,1.06,0,0,1-.26.2c-1.84,1.29-5.74,2.17-10.25,2.17s-8.4-.88-10.25-2.17a1.28,1.28,0,0,1-.26-.2,1.43,1.43,0,0,1-.4-1,1.39,1.39,0,0,1,1.39-1.39,1.27,1.27,0,0,1,.52.1l.23.1a24.27,24.27,0,0,0,8.77,1.4,24.33,24.33,0,0,0,8.78-1.4l.23-.1a1.25,1.25,0,0,1,.51-.1A1.38,1.38,0,0,1,116.76,76.21Z"/><path class="cls-20" d="M105.85,77.9s6,.16,8.4-1.26"/><path class="cls-20" d="M105.85,77.9s-6,.16-8.4-1.26"/><path class="cls-6" d="M119.2,102.81c-1.13,1.12-3.58,1.43-4.7,1.52h0a56.55,56.55,0,0,0-18.72,0h0c-1.12-.09-3.57-.4-4.69-1.52a4,4,0,0,1,3-6.67H98.6a29.14,29.14,0,0,0,13.05,0h4.59A4,4,0,0,1,119.2,102.81Z"/><path class="cls-21" d="M94.55,45.51a2.25,2.25,0,0,1-.08.24l-.09-.34Z"/><path class="cls-21" d="M94.55,45.51a2.25,2.25,0,0,1-.08.24l-.09-.34Z"/><path class="cls-3" d="M144.82,64.79a5.26,5.26,0,0,1-9.07,3.63,31.32,31.32,0,0,0,.17-3.23,32.1,32.1,0,0,0-.25-3.95,5.26,5.26,0,0,1,9.15,3.55Z"/><path class="cls-22" d="M139.56,67.62a2.83,2.83,0,0,0,2.83-2.83"/><path class="cls-3" d="M73.87,66.13A31.33,31.33,0,0,0,74,69.36a5.27,5.27,0,1,1,.08-7.18A32.1,32.1,0,0,0,73.87,66.13Z"/><path class="cls-22" d="M70.22,68.56a2.84,2.84,0,0,1-2.83-2.84"/><circle class="cls-23" cx="71.95" cy="76.04" r="1.22"/><circle class="cls-23" cx="116.5" cy="51.39" r="0.57"/><circle class="cls-23" cx="137.1" cy="74.88" r="0.84"/><circle class="cls-23" cx="111.87" cy="54.11" r="0.48"/><circle class="cls-23" cx="94.55" cy="52.41" r="0.83"/><rect class="cls-23" x="71.74" y="69.1" width="0.56" height="6.48" transform="translate(0.61 -0.61) rotate(0.48)"/><rect class="cls-23" x="94.93" y="45.68" width="0.56" height="6.48" transform="translate(8.94 -14.45) rotate(9.1)"/><rect class="cls-23" x="136.88" y="68.1" width="0.56" height="6.48" transform="translate(2.17 -4.03) rotate(1.7)"/><rect class="cls-23" x="115.43" y="45.5" width="0.28" height="5.82" transform="translate(-8.81 33.23) rotate(-15.77)"/><rect class="cls-23" x="111.84" y="48.06" width="0.28" height="5.82" transform="translate(1.49 -3.15) rotate(1.62)"/><path class="cls-2" d="M104.67,4.63S102.35,1.37,103.4.48c.82-.71,2.43,1.72,2.43,1.72s1.9-2.85,3-2.06-2.54,4.49-2.54,4.49"/><path class="cls-24" d="M108.34,55a28.79,28.79,0,0,1-11.7-1.72c1.34.3,3.81-5.9,4.76-4.49.53.79,1.16-.07,1.64,0s.91,1.1,1.61.64C106.14,48.35,106.72,54.76,108.34,55Z"/><path class="cls-25" d="M138.81,53.36c-2.24,5-21,2.13-23.35-7.71,0-.09,0-.19-.07-.29-.07.15-.16.3-.24.45a60.25,60.25,0,0,1-5.94,8.59c-.36.44-.68.61-1,.57-1.58-.18-2.14-6.41-3.6-5.45-.68.45-1.15-.6-1.56-.62s-1.08.81-1.6,0c-.92-1.38-3.33,4.65-4.63,4.36h0l-.1,0,0,0a1.26,1.26,0,0,1-.37-.63c-.75-2.32-1.43-4.77-2-6.86a2.25,2.25,0,0,0,.08-.24l-.17-.1.09.34c-3.13,9.24-21,11.84-23.12,6.93a.48.48,0,0,1,.4-.64C81,50.94,82.56,31.38,82.79,27.58a17.14,17.14,0,0,1-.08-1.76,22.38,22.38,0,1,1,44.76,0,20.14,20.14,0,0,1-.19,2.82v0c.31,4.61,2.09,23,11.12,24A.48.48,0,0,1,138.81,53.36Z"/><path class="cls-26" d="M94.38,45.41s11.26-16.62,10.08-28.22"/><path class="cls-26" d="M105.22,3.82s-5.47,20.9,10.13,41.86"/><path class="cls-14" d="M106.33,335.79S112.13,347,119.87,347c3.93,0,8.36-5.75,12.79-11.22-2.19,10.78-2.93,31.22-2.93,31.22h-21.4A194.42,194.42,0,0,0,106.33,335.79Z"/><path class="cls-27" d="M129.73,367v1.4a5.49,5.49,0,0,1-5.47,5.47H113.8a5.49,5.49,0,0,1-5.47-5.47V367c0-4.44,9.42-8.08,10.08-8.08h1.24C120.71,358.93,129.73,362.57,129.73,367Z"/><circle class="cls-28" cx="119.03" cy="358.93" r="2.03"/><path class="cls-29" d="M108.29,358.48s19-4.33,22.7-10.47"/><path class="cls-30" d="M130.3,356.54s-21.42-4.87-22.8-11"/><path class="cls-14" d="M78.37,336.07s5.8,11.15,13.55,11.22c3.92,0,8.36-5.76,12.79-11.22-2.2,10.78-2.94,31.21-2.94,31.21H80.37A193,193,0,0,0,78.37,336.07Z"/><path class="cls-27" d="M101.77,367.28v1.4a5.48,5.48,0,0,1-5.47,5.47H85.84a5.48,5.48,0,0,1-5.47-5.47v-1.4c0-4.44,9.42-8.08,10.08-8.08h1.24C92.75,359.2,101.77,362.84,101.77,367.28Z"/><circle class="cls-28" cx="91.07" cy="359.2" r="2.03"/><path class="cls-29" d="M102.24,358.75s-19-4.32-22.7-10.46"/><path class="cls-30" d="M80.24,356.81s21.41-4.87,22.79-11"/><path class="cls-31" d="M181.31,246.54s8.76.3,5.05,14.41c-.76,3.6.46,4.57.46,4.57S174.46,258,181.31,246.54Z"/><path class="cls-31" d="M181.85,246.54s4.74,7.11-8.62,12.26c-3.29,1.46-3.38,3-3.38,3S168.86,247.65,181.85,246.54Z"/><path class="cls-31" d="M181.58,246.43s-.15,8.54-14.06,5.16c-3.55-.67-4.49.53-4.49.53S170.27,239.94,181.58,246.43Z"/><path class="cls-31" d="M29.2,246.54s-8.75.3-5,14.41c.75,3.6-.46,4.57-.46,4.57S36.06,258,29.2,246.54Z"/><path class="cls-31" d="M28.66,246.54s-4.74,7.11,8.62,12.26c3.3,1.46,3.39,3,3.39,3S41.65,247.65,28.66,246.54Z"/><path class="cls-31" d="M28.93,246.43S29.08,255,43,251.59c3.54-.67,4.48.53,4.48.53S40.25,239.94,28.93,246.43Z"/><path class="cls-6" d="M131,347.41S129.39,336.5,145,335.82c0,0,6.42.39,7.68-2.05S150.32,358.32,131,347.41Z"/><path class="cls-6" d="M79.49,347.41s1.65-10.91-13.91-11.59c0,0-6.43.39-7.69-2.05S60.21,358.32,79.49,347.41Z"/></g></g></svg>