<svg xmlns="http://www.w3.org/2000/svg" xmlns:xlink="http://www.w3.org/1999/xlink" viewBox="0 0 298.85 250.52"><defs><style>.cls-1,.cls-10,.cls-12,.cls-13,.cls-15,.cls-7,.cls-9{fill:none;}.cls-2{fill:url(#linear-gradient);}.cls-3{opacity:0.7;fill:url(#linear-gradient-2);}.cls-4{fill:url(#linear-gradient-3);}.cls-5{fill:url(#linear-gradient-4);}.cls-6{opacity:0.3;}.cls-7{stroke:#fff;}.cls-10,.cls-12,.cls-13,.cls-15,.cls-7,.cls-9{stroke-miterlimit:10;}.cls-12,.cls-7,.cls-9{stroke-width:2px;}.cls-8{opacity:0.5;}.cls-9{stroke:#75d028;}.cls-10{stroke:#309b00;}.cls-10,.cls-13{stroke-width:1.5px;}.cls-11{clip-path:url(#clip-path);}.cls-12{stroke:#278000;}.cls-13{stroke:#1a5e00;}.cls-14{clip-path:url(#clip-path-2);}.cls-15{stroke:#5cb119;}</style><linearGradient id="linear-gradient" x1="181.87" y1="67.04" x2="104.43" y2="5.16" gradientUnits="userSpaceOnUse"><stop offset="0" stop-color="#b3eb5c"/><stop offset="1" stop-color="#82dd40"/></linearGradient><linearGradient id="linear-gradient-2" x1="145.53" y1="68.38" x2="140.34" y2="-7.87" gradientUnits="userSpaceOnUse"><stop offset="0" stop-color="#ffb300" stop-opacity="0.2"/><stop offset="1" stop-color="#ff7965" stop-opacity="0"/></linearGradient><linearGradient id="linear-gradient-3" x1="280.96" y1="185.74" x2="189.94" y2="72.37" gradientUnits="userSpaceOnUse"><stop offset="0" stop-color="#33a80f"/><stop offset="1" stop-color="#007c00"/></linearGradient><linearGradient id="linear-gradient-4" x1="186.19" y1="69.71" x2="2.99" y2="241.32" gradientUnits="userSpaceOnUse"><stop offset="0" stop-color="#75d028"/><stop offset="0.63" stop-color="#55bd16"/><stop offset="1" stop-color="#48b50e"/></linearGradient><clipPath id="clip-path" transform="translate(4.62 5.54)"><polygon id="SVGID" class="cls-1" points="178.47 61.43 178.47 239.9 277.45 178.47 277.45 0 178.47 61.43"/></clipPath><clipPath id="clip-path-2" transform="translate(4.62 5.54)"><polygon id="SVGID-2" data-name="SVGID" class="cls-1" points="0 61.43 178.47 61.43 277.45 0 98.98 0 0 61.43"/></clipPath></defs><g id="Layer_2" data-name="Layer 2"><g id="Layer_1-2" data-name="Layer 1"><polygon class="cls-2" points="4.62 66.97 183.09 66.97 282.07 5.54 103.6 5.54 4.62 66.97"/><polygon class="cls-3" points="4.62 66.97 183.09 66.97 282.07 5.54 103.6 5.54 4.62 66.97"/><polygon class="cls-4" points="183.09 66.97 183.09 245.44 282.07 184.01 282.07 5.54 183.09 66.97"/><rect class="cls-5" x="4.62" y="66.97" width="178.47" height="178.47"/><g class="cls-6"><line class="cls-7" x1="4.62" y1="86.02" x2="183.09" y2="86.02"/><line class="cls-7" x1="4.62" y1="67.83" x2="183.09" y2="67.83"/><line class="cls-7" x1="4.62" y1="103.86" x2="183.09" y2="103.86"/><line class="cls-7" x1="4.62" y1="121.71" x2="183.09" y2="121.71"/><line class="cls-7" x1="4.62" y1="139.56" x2="183.09" y2="139.56"/><line class="cls-7" x1="4.62" y1="157.4" x2="183.09" y2="157.4"/><line class="cls-7" x1="4.62" y1="175.25" x2="183.09" y2="175.25"/><line class="cls-7" x1="4.62" y1="193.1" x2="183.09" y2="193.1"/><line class="cls-7" x1="4.62" y1="210.94" x2="183.09" y2="210.94"/><line class="cls-7" x1="4.62" y1="228.79" x2="183.09" y2="228.79"/></g><g class="cls-8"><line class="cls-9" x1="4.62" y1="101.38" x2="183.09" y2="101.38"/><line class="cls-9" x1="4.62" y1="83.63" x2="183.09" y2="83.63"/><line class="cls-9" x1="4.62" y1="119.23" x2="183.09" y2="119.23"/><line class="cls-9" x1="4.62" y1="137.07" x2="183.09" y2="137.07"/><line class="cls-9" x1="4.62" y1="154.92" x2="183.09" y2="154.92"/><line class="cls-9" x1="4.62" y1="172.77" x2="183.09" y2="172.77"/><line class="cls-9" x1="4.62" y1="190.61" x2="183.09" y2="190.61"/><line class="cls-9" x1="4.62" y1="208.46" x2="183.09" y2="208.46"/><line class="cls-9" x1="4.62" y1="226.31" x2="183.09" y2="226.31"/><line class="cls-9" x1="4.62" y1="244.73" x2="183.09" y2="244.73"/></g><line class="cls-10" x1="4.62" y1="84.81" x2="183.09" y2="84.81"/><line class="cls-10" x1="4.62" y1="102.66" x2="183.09" y2="102.66"/><line class="cls-10" x1="4.62" y1="120.51" x2="183.09" y2="120.51"/><line class="cls-10" x1="4.62" y1="138.35" x2="183.09" y2="138.35"/><line class="cls-10" x1="4.62" y1="156.2" x2="183.09" y2="156.2"/><line class="cls-10" x1="4.62" y1="174.05" x2="183.09" y2="174.05"/><line class="cls-10" x1="4.62" y1="191.9" x2="183.09" y2="191.9"/><line class="cls-10" x1="4.62" y1="209.74" x2="183.09" y2="209.74"/><line class="cls-10" x1="4.62" y1="227.59" x2="183.09" y2="227.59"/><line class="cls-10" x1="22.47" y1="66.97" x2="22.47" y2="245.44"/><line class="cls-10" x1="40.31" y1="66.97" x2="40.31" y2="245.44"/><line class="cls-10" x1="58.16" y1="66.97" x2="58.16" y2="245.44"/><line class="cls-10" x1="76.01" y1="66.97" x2="76.01" y2="245.44"/><line class="cls-10" x1="93.85" y1="66.97" x2="93.85" y2="245.44"/><line class="cls-10" x1="111.7" y1="66.97" x2="111.7" y2="245.44"/><line class="cls-10" x1="129.55" y1="66.97" x2="129.55" y2="245.44"/><line class="cls-10" x1="147.4" y1="66.97" x2="147.4" y2="245.44"/><line class="cls-10" x1="165.24" y1="66.97" x2="165.24" y2="245.44"/><g class="cls-11"><g class="cls-8"><line class="cls-12" x1="176.26" y1="87.97" x2="295.58" y2="13.86"/><line class="cls-12" x1="176.26" y1="105.82" x2="295.58" y2="31.7"/><line class="cls-12" x1="176.26" y1="123.66" x2="295.58" y2="49.55"/><line class="cls-12" x1="176.26" y1="141.51" x2="295.58" y2="67.4"/><line class="cls-12" x1="176.26" y1="159.36" x2="295.58" y2="85.25"/><line class="cls-12" x1="176.26" y1="177.2" x2="295.58" y2="103.09"/><line class="cls-12" x1="176.26" y1="195.05" x2="295.58" y2="120.94"/><line class="cls-12" x1="176.26" y1="212.9" x2="295.58" y2="138.79"/><line class="cls-12" x1="176.26" y1="230.75" x2="295.58" y2="156.63"/><line class="cls-12" x1="176.26" y1="249.17" x2="295.58" y2="175.05"/></g><g class="cls-6"><line class="cls-7" x1="176.77" y1="89.92" x2="298.33" y2="14.63"/><line class="cls-7" x1="179.77" y1="69.89" x2="290.93" y2="0.85"/><line class="cls-7" x1="176.77" y1="107.77" x2="298.33" y2="32.48"/><line class="cls-7" x1="176.77" y1="125.62" x2="298.33" y2="50.32"/><line class="cls-7" x1="176.77" y1="143.47" x2="298.33" y2="68.17"/><line class="cls-7" x1="176.77" y1="161.31" x2="298.33" y2="86.02"/><line class="cls-7" x1="176.77" y1="179.16" x2="298.33" y2="103.86"/><line class="cls-7" x1="176.77" y1="197.01" x2="298.33" y2="121.71"/><line class="cls-7" x1="176.77" y1="214.85" x2="298.33" y2="139.56"/><line class="cls-7" x1="176.77" y1="232.7" x2="298.33" y2="157.4"/></g><line class="cls-13" x1="192.99" y1="250.52" x2="192.99" y2="55.32"/><line class="cls-13" x1="202.89" y1="243.77" x2="202.89" y2="48.57"/><line class="cls-13" x1="212.78" y1="237.02" x2="212.78" y2="41.82"/><line class="cls-13" x1="222.68" y1="230.27" x2="222.68" y2="35.07"/><line class="cls-13" x1="232.58" y1="223.52" x2="232.58" y2="28.32"/><line class="cls-13" x1="242.48" y1="216.77" x2="242.48" y2="21.57"/><line class="cls-13" x1="252.38" y1="210.02" x2="252.38" y2="14.81"/><line class="cls-13" x1="262.28" y1="203.26" x2="262.28" y2="8.06"/><line class="cls-13" x1="272.17" y1="196.51" x2="272.17" y2="1.31"/><line class="cls-13" x1="180.16" y1="86.61" x2="286.15" y2="20.87"/><line class="cls-13" x1="180.16" y1="104.46" x2="286.15" y2="38.72"/><line class="cls-13" x1="180.16" y1="122.31" x2="286.15" y2="56.57"/><line class="cls-13" x1="180.16" y1="140.15" x2="286.15" y2="74.41"/><line class="cls-13" x1="180.16" y1="158" x2="286.15" y2="92.26"/><line class="cls-13" x1="180.16" y1="175.85" x2="286.15" y2="110.11"/><line class="cls-13" x1="180.16" y1="193.69" x2="286.15" y2="127.95"/><line class="cls-13" x1="180.16" y1="211.54" x2="286.15" y2="145.8"/><line class="cls-13" x1="180.16" y1="229.39" x2="286.15" y2="163.65"/></g><g class="cls-14"><line class="cls-9" x1="142.5" y1="69.38" x2="248.24" y2="3.51"/><line class="cls-9" x1="124.65" y1="69.38" x2="230.4" y2="3.51"/><line class="cls-9" x1="106.81" y1="69.38" x2="212.55" y2="3.51"/><line class="cls-9" x1="88.96" y1="69.38" x2="194.7" y2="3.51"/><line class="cls-9" x1="71.11" y1="69.38" x2="176.86" y2="3.51"/><line class="cls-9" x1="53.27" y1="69.38" x2="159.01" y2="3.51"/><line class="cls-9" x1="35.42" y1="69.38" x2="141.16" y2="3.51"/><line class="cls-9" x1="17.57" y1="69.38" x2="123.32" y2="3.51"/><line class="cls-9" x1="160.35" y1="69.38" x2="266.09" y2="3.51"/><line class="cls-9" x1="177.98" y1="69.38" x2="283.72" y2="3.51"/><g class="cls-6"><line class="cls-7" x1="164.77" y1="68.23" x2="268.09" y2="3.96"/><line class="cls-7" x1="146.92" y1="68.23" x2="250.24" y2="3.96"/><line class="cls-7" x1="129.08" y1="68.23" x2="232.39" y2="3.96"/><line class="cls-7" x1="111.23" y1="68.23" x2="214.55" y2="3.96"/><line class="cls-7" x1="93.38" y1="68.23" x2="196.7" y2="3.96"/><line class="cls-7" x1="75.54" y1="68.23" x2="178.85" y2="3.96"/><line class="cls-7" x1="57.69" y1="68.23" x2="161.01" y2="3.96"/><line class="cls-7" x1="39.84" y1="68.23" x2="143.16" y2="3.96"/><line class="cls-7" x1="22" y1="68.23" x2="125.31" y2="3.96"/><line class="cls-7" x1="4.25" y1="67.86" x2="107.57" y2="3.59"/></g><line class="cls-15" x1="162.58" y1="68.58" x2="266.52" y2="3.96"/><line class="cls-15" x1="144.73" y1="68.58" x2="248.67" y2="3.96"/><line class="cls-15" x1="126.88" y1="68.58" x2="230.83" y2="3.96"/><line class="cls-15" x1="109.04" y1="68.58" x2="212.98" y2="3.96"/><line class="cls-15" x1="91.19" y1="68.58" x2="195.13" y2="3.96"/><line class="cls-15" x1="73.34" y1="68.58" x2="177.29" y2="3.96"/><line class="cls-15" x1="55.49" y1="68.58" x2="159.44" y2="3.96"/><line class="cls-15" x1="37.65" y1="68.58" x2="141.59" y2="3.96"/><line class="cls-15" x1="19.8" y1="68.58" x2="123.74" y2="3.96"/><line class="cls-15" x1="88.11" y1="11.68" x2="286.69" y2="11.68"/><line class="cls-15" x1="77.1" y1="17.82" x2="275.68" y2="17.82"/><line class="cls-15" x1="66.08" y1="23.97" x2="264.67" y2="23.97"/><line class="cls-15" x1="55.07" y1="30.11" x2="253.65" y2="30.11"/><line class="cls-15" x1="44.06" y1="36.25" x2="242.64" y2="36.25"/><line class="cls-15" x1="33.04" y1="42.4" x2="231.62" y2="42.4"/><line class="cls-15" x1="22.03" y1="48.54" x2="220.61" y2="48.54"/><line class="cls-15" x1="11.01" y1="54.68" x2="209.6" y2="54.68"/><line class="cls-15" y1="60.82" x2="198.58" y2="60.82"/></g></g></g></svg>