<svg xmlns="http://www.w3.org/2000/svg" xmlns:xlink="http://www.w3.org/1999/xlink" viewBox="0 0 100.34 122.51"><defs><style>.cls-1{fill:url(#linear-gradient);}.cls-10,.cls-2,.cls-5{fill:#fff;}.cls-2{opacity:0.4;}.cls-3,.cls-6{fill:#002886;}.cls-3{opacity:0.3;}.cls-4{opacity:0.5;}.cls-7{fill:url(#linear-gradient-2);}.cls-8{fill:#00166d;}.cls-9{fill:#000a4a;}.cls-10{opacity:0.13;}</style><linearGradient id="linear-gradient" x1="27.81" y1="10.06" x2="72.53" y2="10.06" gradientUnits="userSpaceOnUse"><stop offset="0" stop-color="#1387f2"/><stop offset="0.02" stop-color="#1181ee"/><stop offset="0.1" stop-color="#0e76e5"/><stop offset="0.21" stop-color="#0c6fdf"/><stop offset="0.5" stop-color="#0b6dde"/><stop offset="0.77" stop-color="#0b6bdd"/><stop offset="0.86" stop-color="#0964d7"/><stop offset="0.93" stop-color="#0659ce"/><stop offset="0.98" stop-color="#0248c0"/><stop offset="1" stop-color="#0041bb"/></linearGradient><linearGradient id="linear-gradient-2" x1="0" y1="70.3" x2="100.34" y2="70.3" xlink:href="#linear-gradient"/></defs><g id="Layer_2" data-name="Layer 2"><g id="Layer_1-2" data-name="Layer 1"><rect class="cls-1" x="27.81" width="44.72" height="20.13"/><rect class="cls-2" x="32.54" width="4.18" height="20.13"/><rect class="cls-3" x="68.35" width="4.18" height="20.13"/><g class="cls-4"><rect class="cls-5" x="19.63" y="19.62" width="61.08" height="1.02"/></g><rect class="cls-6" y="20.47" width="100.34" height="102.04"/><rect class="cls-7" y="20.13" width="100.34" height="100.34"/><circle class="cls-8" cx="50.17" cy="70.3" r="22.36"/><path class="cls-9" d="M31.38,71.19A22.36,22.36,0,0,1,53.74,48.83a22.77,22.77,0,0,1,3.62.3A22.36,22.36,0,1,0,46.55,92.36,22.35,22.35,0,0,1,31.38,71.19Z"/><g class="cls-4"><path class="cls-5" d="M50.17,93.17A22.87,22.87,0,1,1,73,70.3,22.9,22.9,0,0,1,50.17,93.17Zm0-44.72A21.85,21.85,0,1,0,72,70.3,21.87,21.87,0,0,0,50.17,48.45Z"/></g><rect class="cls-10" y="20.13" width="6.18" height="100.34"/><rect class="cls-3" x="94.16" y="20.13" width="6.18" height="100.34"/></g></g></svg>