<svg xmlns="http://www.w3.org/2000/svg" xmlns:xlink="http://www.w3.org/1999/xlink" viewBox="0 0 237.37 416.24"><defs><style>.cls-1{fill:#cf3014;}.cls-2{fill:#ba2411;}.cls-3{fill:#e9543d;}.cls-4{fill:#fc8b8b;}.cls-5{fill:url(#무제_그라디언트_54);}.cls-6{fill:#e24242;}.cls-7{fill:#ef8640;}.cls-8{fill:#e6d8ef;opacity:0.35;}.cls-9{fill:#c9b0dc;}.cls-10{fill:#845332;}.cls-11{fill:#d35953;}.cls-12{fill:#3691bf;}.cls-13{fill:#db5f3e;}.cls-14,.cls-16{fill:none;stroke-linecap:round;}.cls-14{stroke:#af2571;stroke-miterlimit:10;stroke-width:0.25px;}.cls-15{fill:#f2b5a3;}.cls-16{stroke:#d35953;stroke-linejoin:round;}.cls-17{fill:url(#무제_그라디언트_31);}.cls-18{fill:#f3e248;}.cls-19{fill:#69b8ad;}.cls-20{fill:#fcc854;}</style><linearGradient id="무제_그라디언트_54" x1="118.93" y1="244.57" x2="118.93" y2="200.98" gradientUnits="userSpaceOnUse"><stop offset="0" stop-color="#ff7f32"/><stop offset="1" stop-color="#fe4337"/></linearGradient><linearGradient id="무제_그라디언트_31" x1="98.27" y1="39.61" x2="98.38" y2="39.61" gradientUnits="userSpaceOnUse"><stop offset="0" stop-color="#ff8674"/><stop offset="0.04" stop-color="#ff8977"/><stop offset="0.37" stop-color="#ff9e8a"/><stop offset="0.7" stop-color="#ffac95"/><stop offset="1" stop-color="#ffb099"/></linearGradient></defs><g id="Layer_2" data-name="Layer 2"><g id="hoggy"><path class="cls-1" d="M142.54,150.52s0,.08,0,.24a10,10,0,0,1-.1,1.05c-.05.38-.11.82-.21,1.33a5.54,5.54,0,0,0-2.49-.41c-2,.16-3.65,2-5.39,3.85-1.58,1.7-3.21,3.47-4.7,3.51-1.17,0-2.81-1.44-4.37-2.89-2-1.82-4-3.7-6.27-3.7s-4.32,1.88-6.28,3.7c-1.52,1.42-3.12,2.89-4.31,2.89h0c-1.48,0-3.12-1.81-4.7-3.51-1.75-1.9-3.4-3.69-5.39-3.85h-.39a6,6,0,0,0-2.1.42c-.1-.51-.17-1-.22-1.34s-.09-.82-.09-1,0-.24,0-.24c0-.41,0-.82.06-1.23a11.77,11.77,0,0,1,23.41,0,10.53,10.53,0,0,1,.07,1.26c0-.43,0-.84.07-1.26a11.78,11.78,0,0,1,23.42,0C142.52,149.69,142.54,150.11,142.54,150.52Z"/><path class="cls-2" d="M118.93,149.26a10.53,10.53,0,0,1,.07,1.26c0-.43,0-.84.07-1.26Z"/><path class="cls-2" d="M157.87,152.32v.39c0,4.47-2.16,7.09-6.58,7.8-1.89.31-3.79-1.15-5.83-2.7a19.06,19.06,0,0,0-3.8-2.47,3.68,3.68,0,0,0-1.75-.35c-1.11.08-2.54,1.63-3.92,3.12-1.89,2-3.84,4.17-6.27,4.25h-.13c-2.09,0-4-1.78-5.86-3.51-1.64-1.52-3.34-3.09-4.73-3.09s-3.1,1.57-4.73,3.1c-1.9,1.75-3.82,3.62-6,3.5-2.43-.08-4.39-2.2-6.28-4.25-1.38-1.49-2.8-3-3.91-3.12a3.94,3.94,0,0,0-1.75.34,20.59,20.59,0,0,0-3.81,2.48c-2,1.55-4,3-5.81,2.7-4.42-.71-6.64-3.33-6.6-7.8v-.4c0-4.47,2.18-7.09,6.59-7.8,1.87-.31,3.8,1.16,5.82,2.7a25.11,25.11,0,0,0,3,2.08c0,.41-.06.82-.06,1.23,0,0,0,.08,0,.24s0,.57.09,1a20.14,20.14,0,0,1-4.4-2.79c-1.49-1.13-3.17-2.41-4.09-2.26-4.73.75-4.7,4-4.68,5.54v.44c0,1.55,0,4.78,4.68,5.54.92.15,2.61-1.13,4.09-2.26a19,19,0,0,1,4.62-2.87,6,6,0,0,1,2.1-.42h.39c2,.16,3.64,2,5.39,3.85,1.58,1.7,3.22,3.47,4.7,3.51h0c1.19,0,2.79-1.47,4.31-2.89,2-1.82,4-3.7,6.28-3.7s4.31,1.88,6.27,3.7c1.56,1.45,3.2,2.93,4.37,2.89,1.49,0,3.12-1.81,4.7-3.51,1.74-1.9,3.41-3.69,5.39-3.85a5.54,5.54,0,0,1,2.49.41,18.94,18.94,0,0,1,4.61,2.87c1.49,1.13,3.19,2.41,4.11,2.26,4.73-.76,4.69-4,4.67-5.54v-.44c0-1.55.06-4.79-4.68-5.54-.93-.16-2.61,1.13-4.1,2.26a21,21,0,0,1-4.4,2.8,10,10,0,0,0,.1-1.05c0-.16,0-.24,0-.24,0-.41,0-.83,0-1.24a24.47,24.47,0,0,0,3-2.07c2-1.54,3.95-3,5.83-2.7C155.7,145.22,157.92,147.84,157.87,152.32Z"/><path class="cls-3" d="M191.13,182.49c0,.41,0,.82,0,1.23-4.18,5.28-34.9,9.36-72.18,9.36s-68-4.08-72.18-9.36c0-.41,0-.82,0-1.23s0-.83,0-1.23c4.17-5.28,34.9-9.36,72.18-9.36s68,4.08,72.18,9.36C191.13,181.66,191.13,182.08,191.13,182.49Z"/><path class="cls-1" d="M141.66,155.34c-1.45,4.67-5.28,11.73-15.47,16.27a42.23,42.23,0,0,1-7.19,2.45,42.54,42.54,0,0,1-7.19-2.45c-10.19-4.54-14-11.61-15.47-16.28a3.94,3.94,0,0,1,1.75-.34c1.11.08,2.53,1.63,3.91,3.12,1.89,2,3.85,4.17,6.28,4.25,2.17.12,4.09-1.75,6-3.5,1.63-1.53,3.33-3.1,4.73-3.1s3.09,1.57,4.73,3.09c1.86,1.73,3.77,3.52,5.86,3.51h.13c2.43-.08,4.38-2.2,6.27-4.25,1.38-1.49,2.81-3,3.92-3.12A3.68,3.68,0,0,1,141.66,155.34Z"/><circle class="cls-4" cx="118.87" cy="68.1" r="35.36"/><path class="cls-5" d="M191.12,183.72a72.1,72.1,0,0,1-68.5,70.86c-1.22.07-2.45.11-3.69.11a72.16,72.16,0,0,1-72.18-71c4.19,5.28,34.91,9.36,72.18,9.36S186.94,189,191.12,183.72Z"/><path class="cls-6" d="M237.37,215.48c0,23.67-7.85,45.26-20.76,61.56l0,0c-.37.48-.75.94-1.13,1.39A10.43,10.43,0,0,1,199.57,265l0,0,.95-1.1h0c10.63-12.54,17.16-29.58,17.16-48.37,0-26.64-13.13-49.8-32.44-61.52a57.08,57.08,0,0,0-14.89-6.38h-.08c-.56-.15-1.14-.29-1.71-.42a11.13,11.13,0,0,1,3.49-21.7,11.34,11.34,0,0,1,2.11.19q.74.18,1.47.39c30.23,8.36,53.82,36.07,60.07,70.94A104.2,104.2,0,0,1,237.37,215.48Z"/><path class="cls-4" d="M201.83,282.91a6.93,6.93,0,0,1-5,6.65l.45-2.14a1.43,1.43,0,0,0-2.81-.5l-.61,2.83a5,5,0,0,1-.87-.17,6.74,6.74,0,0,1-1.85-.84,3.13,3.13,0,0,1-.3-.2,7,7,0,0,1-1.3-1.2c-.14-.18-.29-.37-.42-.57a7.18,7.18,0,0,1-.64-1.15c-.08-.22-.17-.45-.24-.69a6.71,6.71,0,0,1-.28-1.69,1.77,1.77,0,0,1,0-.33,6.92,6.92,0,0,1,13.84,0Z"/><path class="cls-4" d="M197.33,287.42l-.45,2.14-.59,2.74a1.43,1.43,0,0,1-2.81-.5l.43-2.05.61-2.83a1.43,1.43,0,0,1,2.81.5Z"/><path class="cls-4" d="M192.18,291.59l-6.41,3.92a1.54,1.54,0,1,1-1.59-2.59l3.72-2.29,2.69-1.64.09-.05a2,2,0,0,1,.51-.2,6.74,6.74,0,0,0,1.85.84A1.73,1.73,0,0,1,192.18,291.59Z"/><path class="cls-4" d="M190.89,288.54a1.93,1.93,0,0,1-.21.4l-.09.05-2.69,1.64-5.63,2.8a1.81,1.81,0,0,1-2.47-.48,1.57,1.57,0,0,1,.51-1.83,2.44,2.44,0,0,1,.61-.42l7.49-3.7a2,2,0,0,1,.76-.23c.13.2.28.39.42.57A7,7,0,0,0,190.89,288.54Z"/><path class="cls-4" d="M189.17,286.77a2,2,0,0,0-.76.23l-7.49,3.7a2.44,2.44,0,0,0-.61.42,1.37,1.37,0,0,1-.87-.74,1.71,1.71,0,0,1,1.08-2.15l7.1-3.12a2.38,2.38,0,0,1,.67-.18c.07.24.16.47.24.69A7.18,7.18,0,0,0,189.17,286.77Z"/><path class="cls-4" d="M188.29,284.93a2.38,2.38,0,0,0-.67.18l-7.1,3.12a1.46,1.46,0,0,1-.29-.44,1.52,1.52,0,0,1,.77-2l5.78-2.55a1.47,1.47,0,0,1,1.23,0A6.71,6.71,0,0,0,188.29,284.93Z"/><path class="cls-6" d="M76.42,136.58a11.14,11.14,0,0,1-7.64,10.57c-.57.13-1.13.27-1.7.42H67a56.33,56.33,0,0,0-14.22,6c-.23.12-.44.26-.67.39-19.31,11.72-32.44,34.88-32.44,61.52,0,18.79,6.54,35.83,17.16,48.37h0l1,1.1,0,0a10.43,10.43,0,0,1-15.89,13.47c-.38-.45-.77-.91-1.14-1.39,0,0,0,0,0,0C7.86,260.74,0,239.15,0,215.48H0A105.22,105.22,0,0,1,1.63,197c5.58-31.18,25-56.63,50.65-67.67A73.34,73.34,0,0,1,61.72,126q.72-.21,1.47-.39a11.32,11.32,0,0,1,8.52,1.83c.08.07.17.12.26.2A11.1,11.1,0,0,1,76.42,136.58Z"/><path class="cls-4" d="M35.54,282.91a6.94,6.94,0,0,0,5,6.65l-.45-2.14a1.43,1.43,0,0,1,2.81-.5l.61,2.83a5,5,0,0,0,.87-.17,6.74,6.74,0,0,0,1.85-.84,3.13,3.13,0,0,0,.3-.2,7,7,0,0,0,1.3-1.2c.14-.18.29-.37.42-.57a8,8,0,0,0,.64-1.15c.08-.22.17-.45.24-.69a6.71,6.71,0,0,0,.28-1.69,1.77,1.77,0,0,0,0-.33,6.93,6.93,0,0,0-13.85,0Z"/><path class="cls-4" d="M40.05,287.42l.45,2.14.59,2.74a1.43,1.43,0,0,0,2.81-.5l-.43-2.05-.61-2.83a1.43,1.43,0,0,0-2.81.5Z"/><path class="cls-4" d="M45.2,291.59l6.41,3.92a1.54,1.54,0,1,0,1.59-2.59l-3.72-2.29L46.79,289l-.09-.05a2,2,0,0,0-.51-.2,6.74,6.74,0,0,1-1.85.84A1.73,1.73,0,0,0,45.2,291.59Z"/><path class="cls-4" d="M46.49,288.54a1.93,1.93,0,0,0,.21.4l.09.05,2.69,1.64,5.63,2.8a1.81,1.81,0,0,0,2.47-.48,1.57,1.57,0,0,0-.51-1.83,2.64,2.64,0,0,0-.61-.42L49,287a2,2,0,0,0-.76-.23c-.13.2-.28.39-.42.57A7,7,0,0,1,46.49,288.54Z"/><path class="cls-4" d="M48.21,286.77A2,2,0,0,1,49,287l7.49,3.7a2.64,2.64,0,0,1,.61.42,1.37,1.37,0,0,0,.87-.74,1.71,1.71,0,0,0-1.08-2.15l-7.1-3.12a2.38,2.38,0,0,0-.67-.18c-.07.24-.16.47-.24.69A8,8,0,0,1,48.21,286.77Z"/><path class="cls-4" d="M49.09,284.93a2.38,2.38,0,0,1,.67.18l7.1,3.12a1.46,1.46,0,0,0,.29-.44,1.52,1.52,0,0,0-.77-2l-5.78-2.55a1.47,1.47,0,0,0-1.23,0A6.71,6.71,0,0,1,49.09,284.93Z"/><path class="cls-7" d="M146.84,249.09V408.45a9.18,9.18,0,0,0-9.14-9.15h-5.93a9.18,9.18,0,0,0-9.15,9.15V254.59A71.62,71.62,0,0,0,146.84,249.09Z"/><path class="cls-7" d="M91,249.09V408.45a9.18,9.18,0,0,1,9.15-9.15h5.93a9.18,9.18,0,0,1,9.14,9.15V254.59A71.67,71.67,0,0,1,91,249.09Z"/><path class="cls-8" d="M185.21,154a56.8,56.8,0,0,0-14.88-6.37h-.09q-.86-.23-1.71-.42a11.15,11.15,0,0,1-2.92-19.68c-1.61-1.39-3.31-2.69-5.05-3.94a71.78,71.78,0,0,0-28.88-12.09c-5.79-.91-7.65-1.47-12.74-1.47a60.73,60.73,0,0,0-12.86,1.47A71.75,71.75,0,0,0,71.9,127.67a11.13,11.13,0,0,1-3.17,19.48c-.58.13-1.15.27-1.72.42h-.08a57,57,0,0,0-14.22,6,72.22,72.22,0,0,0-6,27.69c0,.41,0,.81,0,1.23s0,.82,0,1.23c4.19,5.28,34.91,9.36,72.18,9.36s68-4.08,72.2-9.36v-2.46A72.12,72.12,0,0,0,185.21,154ZM52.36,178.22a73.2,73.2,0,0,1,10.2-2.43A76.94,76.94,0,0,0,52.36,178.22Zm11.23-2.61c1.4-.25,2.87-.47,4.42-.69C66.48,175.15,65,175.38,63.59,175.61ZM72,174.39c1.92-.24,3.92-.45,6-.65C76,173.94,73.94,174.17,72,174.39Zm46.84-2.49H115.4l3.47,0c2.92,0,5.78,0,8.61.08C124.65,171.93,121.79,171.9,118.87,171.9Zm21.74.48c11.09.5,21,1.38,29.13,2.54C161.64,173.77,151.7,172.89,140.61,172.38Z"/><path class="cls-9" d="M86.6,41.21s.08-.11.17-.24Z"/><circle cx="134.13" cy="69.87" r="3.01"/><circle cx="105.51" cy="69.87" r="3.01"/><rect class="cls-10" x="118.53" y="65.84" width="2.58" height="8.61" rx="0.84"/><ellipse class="cls-11" cx="141.88" cy="80.07" rx="4.73" ry="3.01"/><ellipse class="cls-11" cx="97.76" cy="80.07" rx="4.73" ry="3.01"/><rect class="cls-12" x="131.12" y="59.27" width="7.2" height="1.98" rx="0.41"/><rect class="cls-12" x="101.32" y="59.27" width="7.2" height="1.98" rx="0.41"/><path class="cls-13" d="M132.17,80a1.57,1.57,0,0,1-.46,1.12,1,1,0,0,1-.29.23c-2.09,1.46-6.5,2.46-11.6,2.46s-9.51-1-11.6-2.46a1.14,1.14,0,0,1-.3-.23,1.6,1.6,0,0,1-.45-1.12A1.57,1.57,0,0,1,109,78.4a1.3,1.3,0,0,1,.59.12l.26.11a27.56,27.56,0,0,0,9.93,1.59,27.56,27.56,0,0,0,9.93-1.59l.26-.11a1.3,1.3,0,0,1,.59-.12A1.57,1.57,0,0,1,132.17,80Z"/><path class="cls-14" d="M119.82,81.89s6.74.18,9.51-1.43"/><path class="cls-14" d="M119.82,81.89s-6.75.18-9.51-1.43"/><path class="cls-6" d="M134.93,109c-1.28,1.27-4.05,1.62-5.32,1.72h0a63.57,63.57,0,0,0-21.2,0h0c-1.27-.1-4-.45-5.32-1.72-2.51-2.52-7.24-10.73-3-10.73l11.59,3.18c2.38.55,4.85,1.93,7.39,1.93s5-1.38,7.39-1.93l12.72-3.18C143.31,98.22,137.44,106.43,134.93,109Z"/><path class="cls-15" d="M107,45.22c0,.09-.06.18-.09.27,0-.13-.07-.26-.1-.38Z"/><path class="cls-15" d="M107,45.22c0,.09-.06.18-.09.27,0-.13-.07-.26-.1-.38Z"/><path class="cls-4" d="M163.93,67a6,6,0,0,1-10.27,4.12c.12-1.2.19-2.42.19-3.66a34.84,34.84,0,0,0-.28-4.47,6,6,0,0,1,10.36,4Z"/><path class="cls-16" d="M158,70.25A3.21,3.21,0,0,0,161.18,67"/><path class="cls-4" d="M83.61,68.56c0,1.24.07,2.46.19,3.66a6,6,0,1,1,.09-8.13A36.62,36.62,0,0,0,83.61,68.56Z"/><path class="cls-16" d="M79.49,71.31a3.21,3.21,0,0,1-3.21-3.21"/><path class="cls-17" d="M98.38,39.51l0,.2-.08,0C98.3,39.63,98.35,39.56,98.38,39.51Z"/><path class="cls-18" d="M160.64,170.89a56.91,56.91,0,0,1-1.26-11.38A87.64,87.64,0,0,0,160.64,170.89Z"/><path class="cls-19" d="M115.17,49.44c.67.16,1.45.33,2.37.47A16.84,16.84,0,0,1,115.17,49.44Z"/><path class="cls-19" d="M122.65,15.66c-1.2-.13-2.05-.19-2.48-.22A16.81,16.81,0,0,1,122.65,15.66Z"/><path class="cls-19" d="M115.12,49.43a8.19,8.19,0,0,1-3.33-1.33A17.53,17.53,0,0,0,115.12,49.43Z"/><path class="cls-20" d="M90,63.66A4,4,0,0,1,82.91,61c.52-13.1,3.4-58.83,18.5-60.91,17.64-2.43,14,33.14,27.92,33.47,8.3.2,12.55-2.07,16.36-15C151.53-1.33,170,40,128.24,53.8c-11.78,2.43-15.31-18.45-25.75-15.54C94.86,40.4,94.55,57.61,90,63.66Z"/><path class="cls-3" d="M122.65,407.78s-8-13.64-3.17-16.56,3.72,10.75,7.83,8.1,3.42-13,7.42-12.75,2.28,11.56,5.87,11.82,5.45-10.36,9-8.76-2.8,18.15-2.8,18.15"/><path class="cls-3" d="M114.83,407.78s8-13.64,3.17-16.56-3.72,10.75-7.83,8.1-3.42-13-7.42-12.75-2.28,11.56-5.87,11.82-5.45-10.36-9-8.76,2.8,18.15,2.8,18.15"/><path class="cls-18" d="M146.84,408.46v1.59a6.21,6.21,0,0,1-6.19,6.19H128.81a6.21,6.21,0,0,1-6.19-6.19v-1.59a9.18,9.18,0,0,1,9.15-9.14h5.93A9.18,9.18,0,0,1,146.84,408.46Z"/><path class="cls-18" d="M115.25,408.46v1.59a6.21,6.21,0,0,1-6.19,6.19H97.22A6.21,6.21,0,0,1,91,410.05v-1.59a9.18,9.18,0,0,1,9.15-9.14h5.93A9.18,9.18,0,0,1,115.25,408.46Z"/></g></g></svg>