<svg xmlns="http://www.w3.org/2000/svg" xmlns:xlink="http://www.w3.org/1999/xlink" viewBox="0 0 244.16 353.12"><defs><style>.cls-1,.cls-12{fill:#faf2bc;}.cls-11,.cls-15,.cls-2,.cls-5{fill:none;stroke-linecap:round;}.cls-2{stroke:#f9be78;}.cls-11,.cls-2{stroke-linejoin:round;}.cls-3{fill:url(#무제_그라디언트_40);}.cls-4{fill:#63a89e;}.cls-15,.cls-5{stroke:#000;}.cls-12,.cls-15,.cls-20,.cls-5{stroke-miterlimit:10;}.cls-11,.cls-5{stroke-width:0.5px;}.cls-6{fill:#d5f467;}.cls-7{fill:url(#무제_그라디언트_21);}.cls-8{fill:#f7dac3;}.cls-9{fill:#d8eea7;}.cls-10{fill:#f2aba8;}.cls-11{stroke:#ef8b8b;}.cls-12{stroke:#fc9;}.cls-13{fill:#69b8ad;}.cls-14{fill:#77bfb6;}.cls-16{fill:#d3e9e6;opacity:0.55;}.cls-17{fill:#cfebe6;}.cls-18{fill:#ffc31e;}.cls-19,.cls-20{fill:#475ec1;}.cls-20{stroke:#3b54a3;}</style><linearGradient id="무제_그라디언트_40" x1="144.1" y1="209.66" x2="144.67" y2="177.42" gradientUnits="userSpaceOnUse"><stop offset="0" stop-color="#74c1b6"/><stop offset="1" stop-color="#ffb500"/></linearGradient><linearGradient id="무제_그라디언트_21" x1="84.38" y1="159.42" x2="205.58" y2="159.42" gradientUnits="userSpaceOnUse"><stop offset="0" stop-color="#fae91d"/><stop offset="1" stop-color="#ffb500"/></linearGradient></defs><g id="Layer_2" data-name="Layer 2"><g id="fairy"><path class="cls-1" d="M185.38,59.64a5.25,5.25,0,0,1-5.26,5.25,5.18,5.18,0,0,1-3.79-1.63c.1-1,.16-2.13.16-3.22a32.06,32.06,0,0,0-.24-3.94,5.25,5.25,0,0,1,9.13,3.54Z"/><path class="cls-2" d="M180.12,62.46A2.82,2.82,0,0,0,183,59.64"/><path class="cls-1" d="M113.47,60a31,31,0,0,0,.16,3.22,5.26,5.26,0,1,1,.08-7.16A32.06,32.06,0,0,0,113.47,60Z"/><path class="cls-2" d="M109.83,62.46A2.83,2.83,0,0,1,107,59.64"/><path class="cls-1" d="M176.24,60a31.32,31.32,0,1,1-62.1-5.74,33.89,33.89,0,0,1,61.56,0A29.71,29.71,0,0,1,176.24,60Z"/><path class="cls-3" d="M205.57,160.46a60.53,60.53,0,0,1-57.5,59.48c-1,.06-2.06.08-3.09.08a60.6,60.6,0,0,1-60.59-59.56c3.5,4.42,29.29,7.85,60.59,7.85S202.06,164.88,205.57,160.46Z"/><path class="cls-4" d="M159.72,14.79a14.55,14.55,0,0,1-10.61,14L148,28.67h0c-1-.09-2-.14-3-.14s-1.77,0-2.64.1h0l-1.19.13h0A14.54,14.54,0,0,1,145,.26h.2A14.54,14.54,0,0,1,159.72,14.79Z"/><path class="cls-5" d="M154.47,14.79c0,6.51-2.73,12-6.49,13.88h0c-1-.09-2-.14-3-.14s-1.77,0-2.64.1h0c-3.74-1.88-6.44-7.36-6.44-13.84,0-7.92,4.05-14.37,9.09-14.53h.2C150.31.25,154.47,6.76,154.47,14.79Z"/><polyline class="cls-5" points="144.98 28.53 144.98 0.26 144.98 0.25"/><path class="cls-6" d="M160.33,98c-1.23,1.22-3.9,1.56-5.12,1.66h0a61.1,61.1,0,0,0-20.43,0h0c-1.22-.1-3.9-.44-5.12-1.66a4.36,4.36,0,0,1,3.23-7.28h5a31.7,31.7,0,0,0,14.24,0h5A4.36,4.36,0,0,1,160.33,98Z"/><path class="cls-7" d="M205.58,159.42c0,.35,0,.69,0,1-3.51,4.42-29.3,7.85-60.59,7.85s-57.09-3.43-60.59-7.85c0-.35,0-.69,0-1s0-.69,0-1c3.5-4.43,29.29-7.86,60.59-7.86s57.08,3.43,60.59,7.86C205.58,158.73,205.58,159.07,205.58,159.42Z"/><circle cx="131.55" cy="61.66" r="2.83"/><circle cx="158.41" cy="61.66" r="2.83"/><rect class="cls-8" x="143.77" y="58.42" width="2.42" height="8.08" rx="0.79"/><ellipse class="cls-9" cx="165.68" cy="71.23" rx="4.44" ry="2.83"/><ellipse class="cls-9" cx="124.27" cy="71.23" rx="4.44" ry="2.83"/><path class="cls-10" d="M151.82,72.24h0a4.59,4.59,0,0,1-.24.5h0a7.53,7.53,0,0,1-13.3,0,0,0,0,0,0,0,0,4.59,4.59,0,0,1-.24-.5h0a1.85,1.85,0,0,1-.07-.75,1.9,1.9,0,0,1,1.42-1.64,1.81,1.81,0,0,1,2,.78l.21.44a3.79,3.79,0,0,0,6.6,0l.21-.44a1.8,1.8,0,0,1,2-.78,1.9,1.9,0,0,1,1.42,1.64A1.69,1.69,0,0,1,151.82,72.24Z"/><path class="cls-11" d="M150.13,71.23c0,2-2.31,3.69-5.15,3.69s-5.15-1.65-5.15-3.69"/><path class="cls-6" d="M244.16,187.11c0,19.88-6.58,38-17.42,51.67l0,0-1,1.18a8.76,8.76,0,0,1-13.33-11.32s0,0,0,0l.8-.92h0a62.71,62.71,0,0,0,14.4-40.6c0-22.37-11-41.79-27.23-51.63a47.21,47.21,0,0,0-12.5-5.36h-.07c-.47-.12-1-.25-1.44-.35a9.35,9.35,0,0,1,4.7-18.06c.42.1.83.21,1.24.33a62.11,62.11,0,0,1,8.84,3.2C226.37,126.55,244.16,154.46,244.16,187.11Z"/><path class="cls-12" d="M214.56,243.72a5.81,5.81,0,0,1-4.16,5.57l.38-1.79a1.2,1.2,0,0,0-2.36-.42l-.51,2.37a3.49,3.49,0,0,1-.73-.14,5.49,5.49,0,0,1-1.56-.7l-.25-.17a6.5,6.5,0,0,1-1.09-1,5.92,5.92,0,0,1-.35-.48,6.41,6.41,0,0,1-.54-1c-.07-.19-.14-.38-.2-.58A5.55,5.55,0,0,1,203,244a1.23,1.23,0,0,1,0-.27,5.81,5.81,0,0,1,11.62,0Z"/><path class="cls-12" d="M206.46,251l-5.38,3.29a1.3,1.3,0,1,1-1.34-2.18l3.12-1.91,2.26-1.38.08,0a1.38,1.38,0,0,1,.42-.17,5.49,5.49,0,0,0,1.56.7A1.48,1.48,0,0,1,206.46,251Z"/><path class="cls-12" d="M205.37,248.44a2.15,2.15,0,0,1-.17.34l-.08,0-2.26,1.38-4.73,2.34a1.51,1.51,0,0,1-2.06-.39,1.33,1.33,0,0,1,.42-1.55,2.3,2.3,0,0,1,.51-.35l6.29-3.11a2,2,0,0,1,.64-.19,5.92,5.92,0,0,0,.35.48A6.5,6.5,0,0,0,205.37,248.44Z"/><path class="cls-12" d="M203.93,247a2,2,0,0,0-.64.19L197,250.25a2.3,2.3,0,0,0-.51.35,1.12,1.12,0,0,1-.73-.61,1.45,1.45,0,0,1,.91-1.81l6-2.62a1.94,1.94,0,0,1,.56-.15c.06.2.13.39.2.58A6.41,6.41,0,0,0,203.93,247Z"/><path class="cls-12" d="M203.19,245.41a1.94,1.94,0,0,0-.56.15l-6,2.62a1.6,1.6,0,0,1-.25-.37,1.27,1.27,0,0,1,.65-1.69l4.85-2.14a1.22,1.22,0,0,1,1,0A5.55,5.55,0,0,0,203.19,245.41Z"/><path class="cls-6" d="M109.29,120.88a9.34,9.34,0,0,1-6.42,8.88l-1.43.35h-.07a47.63,47.63,0,0,0-11.93,5l-.56.33c-16.21,9.84-27.24,29.28-27.24,51.64a62.72,62.72,0,0,0,14.41,40.6h0c.26.31.52.61.8.92,0,0,0,0,0,0A8.76,8.76,0,0,1,63.55,240c-.32-.39-.64-.78-.95-1.18l0,0C51.74,225.1,45.14,207,45.14,187.11c0-33.05,18.24-61.24,43.89-72.29A62.33,62.33,0,0,1,96.94,112l1.24-.33a10.22,10.22,0,0,1,1.77-.16,9.32,9.32,0,0,1,5.38,1.7,1.63,1.63,0,0,1,.22.17A9.31,9.31,0,0,1,109.29,120.88Z"/><path class="cls-12" d="M75,243.72a5.81,5.81,0,0,0,4.16,5.57l-.38-1.79a1.2,1.2,0,0,1,2.36-.42l.51,2.37a3.49,3.49,0,0,0,.73-.14,5.31,5.31,0,0,0,1.55-.7,2.2,2.2,0,0,0,.25-.17,6.2,6.2,0,0,0,1.1-1,5.92,5.92,0,0,0,.35-.48,5.59,5.59,0,0,0,.53-1,5.71,5.71,0,0,0,.21-.58,6,6,0,0,0,.23-1.42,1.23,1.23,0,0,0,0-.27,5.81,5.81,0,0,0-11.62,0Z"/><path class="cls-12" d="M78.76,247.5l.38,1.79.49,2.31a1.2,1.2,0,0,0,2.36-.42l-.36-1.73-.51-2.37a1.2,1.2,0,0,0-2.36.42Z"/><path class="cls-12" d="M83.08,251l5.38,3.29a1.3,1.3,0,1,0,1.34-2.18l-3.12-1.91-2.27-1.38-.07,0a1.43,1.43,0,0,0-.43-.17,5.31,5.31,0,0,1-1.55.7A1.47,1.47,0,0,0,83.08,251Z"/><path class="cls-12" d="M84.16,248.44a2.26,2.26,0,0,0,.18.34l.07,0,2.27,1.38,4.72,2.34a1.52,1.52,0,0,0,2.07-.39A1.33,1.33,0,0,0,93,250.6a2,2,0,0,0-.5-.35l-6.29-3.11a2,2,0,0,0-.64-.19,5.92,5.92,0,0,1-.35.48A6.2,6.2,0,0,1,84.16,248.44Z"/><path class="cls-12" d="M85.61,247a2,2,0,0,1,.64.19l6.29,3.11a2,2,0,0,1,.5.35,1.11,1.11,0,0,0,.74-.61,1.45,1.45,0,0,0-.91-1.81l-6-2.62a1.94,1.94,0,0,0-.56-.15,5.71,5.71,0,0,1-.21.58A5.59,5.59,0,0,1,85.61,247Z"/><path class="cls-12" d="M86.35,245.41a1.94,1.94,0,0,1,.56.15l6,2.62a1.6,1.6,0,0,0,.25-.37,1.27,1.27,0,0,0-.65-1.69L87.61,244a1.2,1.2,0,0,0-1,0A6,6,0,0,1,86.35,245.41Z"/><path class="cls-13" d="M168.4,215.33V346.21a7.71,7.71,0,0,0-7.67-7.68h-5a7.71,7.71,0,0,0-7.68,7.68V219.94A60.16,60.16,0,0,0,168.4,215.33Z"/><path class="cls-13" d="M121.55,215.33V346.21a7.7,7.7,0,0,1,7.67-7.68h5a7.7,7.7,0,0,1,7.67,7.68V219.94A60.16,60.16,0,0,1,121.55,215.33Z"/><circle class="cls-14" cx="3.45" cy="174.04" r="2.63"/><path class="cls-15" d="M7.06,183.55a1.45,1.45,0,1,1-2-.56A1.46,1.46,0,0,1,7.06,183.55Z"/><path class="cls-15" d="M9.61,182.14a1.46,1.46,0,1,1-2-.56A1.45,1.45,0,0,1,9.61,182.14Z"/><path class="cls-15" d="M12.15,180.73a1.45,1.45,0,1,1-2-.56A1.45,1.45,0,0,1,12.15,180.73Z"/><path class="cls-6" d="M15.44,177.67a1.45,1.45,0,0,1-.57,2,1.12,1.12,0,0,1-.25.11,1.46,1.46,0,0,0-.17-.88,1.47,1.47,0,0,0-1.17-.74c-.12-.15-.26-.31-.4-.46a1.54,1.54,0,0,1,.58-.58A1.46,1.46,0,0,1,15.44,177.67Z"/><path class="cls-6" d="M1.55,184a4.91,4.91,0,0,0,.18.58,1.44,1.44,0,0,0,0,1.38,1.39,1.39,0,0,0,.66.61,1.25,1.25,0,0,1-.24.16,1.46,1.46,0,0,1-2-.56,1.47,1.47,0,0,1,.57-2A1.52,1.52,0,0,1,1.55,184Z"/><path class="cls-6" d="M4.28,184.52A1.45,1.45,0,0,1,3,186.68a1.26,1.26,0,0,1-.57-.14,1.39,1.39,0,0,1-.66-.61,1.44,1.44,0,0,1,0-1.38,1.48,1.48,0,0,1,.35-.44,1.5,1.5,0,0,1,.23-.15A1.46,1.46,0,0,1,4.28,184.52Z"/><path class="cls-6" d="M14.45,178.88a1.46,1.46,0,0,1,.17.88,1.67,1.67,0,0,1-.19.57,1.48,1.48,0,0,1-.55.53,1.45,1.45,0,0,1-1.41-2.54,1.12,1.12,0,0,1,.25-.11,1.54,1.54,0,0,1,.56-.07A1.47,1.47,0,0,1,14.45,178.88Z"/><path class="cls-1" d="M11.91,180.29a1.45,1.45,0,0,1,.56-2,1.12,1.12,0,0,1,.25-.11,1.54,1.54,0,0,1,.56-.07c-.12-.15-.26-.31-.4-.46A6.69,6.69,0,0,0,1.55,184a4.91,4.91,0,0,0,.18.58,1.48,1.48,0,0,1,.35-.44,1.5,1.5,0,0,1,.23-.15A1.45,1.45,0,1,1,3,186.68a6.73,6.73,0,0,0,7,2,6.92,6.92,0,0,0,1.35-.57,6.48,6.48,0,0,0,1.2-.85,6.71,6.71,0,0,0,2-7,1.48,1.48,0,0,1-.55.53A1.45,1.45,0,0,1,11.91,180.29Zm-.33,2.42a1.45,1.45,0,0,1-2-.57,1.46,1.46,0,1,1-2.55,1.41,1.45,1.45,0,1,1-2-.56,1.46,1.46,0,0,1,2,.56,1.46,1.46,0,0,1,2.55-1.41,1.45,1.45,0,1,1,2,.57Z"/><path class="cls-6" d="M7.06,183.55a1.45,1.45,0,1,1-2-.56A1.46,1.46,0,0,1,7.06,183.55Z"/><path class="cls-6" d="M9.61,182.14a1.46,1.46,0,1,1-2-.56A1.45,1.45,0,0,1,9.61,182.14Z"/><path class="cls-6" d="M12.15,180.73a1.45,1.45,0,1,1-2-.56A1.45,1.45,0,0,1,12.15,180.73Z"/><path class="cls-1" d="M12.47,187.29,70.94,292.68a1.48,1.48,0,1,1-2.55,1.41L9.92,188.71a6.4,6.4,0,0,0,1.37-.54A6.47,6.47,0,0,0,12.47,187.29Z"/><path class="cls-4" d="M175.7,54.21a33.89,33.89,0,0,0-61.56,0,31.31,31.31,0,0,1,61.56,0Z"/><path class="cls-6" d="M123.16,49.54A6.46,6.46,0,0,1,116.7,56a6.33,6.33,0,0,1-2.88-.68,6.46,6.46,0,0,1,2.88-12.25,6.92,6.92,0,0,1,1.59.2A6.46,6.46,0,0,1,123.16,49.54Z"/><path class="cls-6" d="M132.86,40.65a6.46,6.46,0,0,1-12.92.25,2.09,2.09,0,0,1,0-.25,6.46,6.46,0,0,1,6.46-6.46,4.87,4.87,0,0,1,.54,0A6.46,6.46,0,0,1,132.86,40.65Z"/><path class="cls-6" d="M145,35.8a6.47,6.47,0,1,1-8.78-6c.46-.13.93-.26,1.4-.37a7,7,0,0,1,.91-.06A6.46,6.46,0,0,1,145,35.8Z"/><path class="cls-6" d="M179.72,49.54a6.44,6.44,0,0,1-3.59,5.78,6.29,6.29,0,0,1-2.87.68,6.46,6.46,0,0,1-1.59-12.73,6.85,6.85,0,0,1,1.59-.2A6.47,6.47,0,0,1,179.72,49.54Z"/><path class="cls-6" d="M170,40.65a2.09,2.09,0,0,1,0,.25,6.46,6.46,0,1,1-7-6.69,4.7,4.7,0,0,1,.53,0A6.47,6.47,0,0,1,170,40.65Z"/><path class="cls-6" d="M157.91,35.8a6.47,6.47,0,1,1-6.47-6.46,6.73,6.73,0,0,1,.91.06c.47.11.94.24,1.41.37A6.46,6.46,0,0,1,157.91,35.8Z"/><path class="cls-16" d="M205.39,158.18a1.81,1.81,0,0,1,.18.21,60.52,60.52,0,0,0-4.91-22.91,47.37,47.37,0,0,0-12.5-5.35.08.08,0,0,0-.07,0c-.47-.12-1-.25-1.43-.35a9.35,9.35,0,0,1-2.45-16.52c-1.36-1.16-2.78-2.26-4.24-3.3a60.67,60.67,0,0,0-13.82-7.31,58.78,58.78,0,0,0-10.94-2.94h0a61.1,61.1,0,0,0-20.43,0h0a60.32,60.32,0,0,0-29.2,13.72,9.35,9.35,0,0,1-2.67,16.35c-.48.1-1,.23-1.43.35a.08.08,0,0,0-.07,0,47.31,47.31,0,0,0-11.94,5,60.51,60.51,0,0,0-5,23.24,2.59,2.59,0,0,1,.56-.53,4.09,4.09,0,0,0-.56.53h0v2.07c3.52,4.42,29.3,7.85,60.6,7.85s57.08-3.43,60.58-7.85c0-.36,0-.69,0-1s0-.7,0-1Z"/><path class="cls-17" d="M201.4,115.22a60.17,60.17,0,0,0-8.84-3.2c-.42-.13-.82-.23-1.24-.34a10.23,10.23,0,0,0-1.77-.15,9.26,9.26,0,0,0-5.37,1.69c-1.36-1.16-2.79-2.26-4.25-3.29a60.42,60.42,0,0,0-13.81-7.31c.8-8.92,4.16-23.58,17.54-23.58a8.45,8.45,0,0,1,8.38,6c1.33,5-.16,11.28,2.25,13.26,3.63,3,11.59,2.84,12,8.88C206.46,110.15,204,113,201.4,115.22Z"/><path class="cls-17" d="M88.31,115.22a60.17,60.17,0,0,1,8.84-3.2c.42-.13.83-.23,1.24-.34a10.23,10.23,0,0,1,1.77-.15,9.32,9.32,0,0,1,5.38,1.69c1.35-1.16,2.78-2.26,4.24-3.29a60.42,60.42,0,0,1,13.81-7.31C122.79,93.7,119.43,79,106.05,79a8.46,8.46,0,0,0-8.38,6c-1.33,5,.16,11.28-2.25,13.26-3.62,3-11.59,2.84-12,8.88C83.25,110.15,85.73,113,88.31,115.22Z"/><polygon class="cls-18" points="151.42 129.32 167.21 133.57 151.42 137.82 147.17 153.61 142.92 137.82 127.13 133.57 142.92 129.32 147.17 113.53 151.42 129.32"/><polygon class="cls-18" points="151.57 133.57 157.54 143.94 147.17 137.97 136.79 143.94 142.77 133.57 136.79 123.2 147.17 129.17 157.54 123.2 151.57 133.57"/><polygon class="cls-18" points="111.89 149.05 112.75 150.54 111.26 149.68 109.76 150.54 110.62 149.05 109.76 147.55 111.26 148.41 112.75 147.55 111.89 149.05"/><polygon class="cls-18" points="174.19 118.04 175.61 119.02 173.89 118.88 172.9 120.3 173.04 118.58 171.63 117.59 173.35 117.73 174.33 116.32 174.19 118.04"/><polygon class="cls-18" points="182.11 153.34 183.53 154.32 181.81 154.18 180.82 155.6 180.97 153.88 179.55 152.9 181.27 153.04 182.25 151.62 182.11 153.34"/><circle class="cls-18" cx="160.04" cy="146.12" r="0.65"/><circle class="cls-18" cx="160.04" cy="121.46" r="0.65"/><circle class="cls-18" cx="134.89" cy="146.12" r="0.65"/><circle class="cls-18" cx="134.89" cy="121.46" r="0.65"/><circle class="cls-18" cx="147.17" cy="109.83" r="1.31"/><circle class="cls-18" cx="147.17" cy="157.03" r="1.31"/><circle class="cls-18" cx="170.77" cy="133.43" r="1.31"/><circle class="cls-18" cx="123.57" cy="133.43" r="1.31"/><rect class="cls-19" x="121.55" y="323.61" width="20.33" height="25.48" rx="1.29"/><path class="cls-20" d="M121.55,346.09v1.34a5.2,5.2,0,0,0,5.19,5.19h9.94a5.2,5.2,0,0,0,5.19-5.19v-1.34a7.7,7.7,0,0,0-7.67-7.67h-5A7.7,7.7,0,0,0,121.55,346.09Z"/><rect class="cls-19" x="120.05" y="322.35" width="23.13" height="2.54" rx="1.21"/><rect class="cls-19" x="148.17" y="323.61" width="20.33" height="25.48" rx="1.29"/><rect class="cls-19" x="146.67" y="322.35" width="23.13" height="2.54" rx="1.21"/><path class="cls-20" d="M168.4,346.09v1.34a5.2,5.2,0,0,1-5.19,5.19h-9.94a5.21,5.21,0,0,1-5.2-5.19v-1.34a7.71,7.71,0,0,1,7.68-7.67h5A7.7,7.7,0,0,1,168.4,346.09Z"/></g></g></svg>