<svg xmlns="http://www.w3.org/2000/svg" xmlns:xlink="http://www.w3.org/1999/xlink" viewBox="0 0 536.8 246.11"><defs><style>.cls-1{fill:url(#linear-gradient);}.cls-2{fill:#fff;}.cls-3{fill:#3eaa00;}.cls-4{fill:#4bbb00;}.cls-5{fill:#35b100;}.cls-6{fill:#57c012;}</style><linearGradient id="linear-gradient" x1="268.4" y1="1.2" x2="268.4" y2="246.18" gradientUnits="userSpaceOnUse"><stop offset="0" stop-color="#88da4a"/><stop offset="0.28" stop-color="#75d328"/><stop offset="1" stop-color="#4ac707"/></linearGradient></defs><g id="Layer_2" data-name="Layer 2"><g id="Layer_1-2" data-name="Layer 1"><path class="cls-1" d="M25.93,0H510.87A25.93,25.93,0,0,1,536.8,25.93V243.39a0,0,0,0,1,0,0H0a0,0,0,0,1,0,0V25.93A25.93,25.93,0,0,1,25.93,0Z"/><rect class="cls-2" x="187.03" y="68.47" width="162.76" height="164.85"/><path class="cls-3" d="M350.29,233.82H186.53V68H350.29Zm-162.76-1H349.28V69H187.53Z"/><rect class="cls-2" x="11.45" y="68.47" width="162.76" height="164.85"/><path class="cls-3" d="M174.71,233.82H11V68H174.71ZM12,232.81H173.71V69H12Z"/><rect class="cls-2" x="362.61" y="68.47" width="162.76" height="164.85"/><path class="cls-3" d="M525.87,233.82H362.1V68H525.87Zm-162.76-1H524.86V69H363.11Z"/><rect class="cls-4" x="187.03" y="10.08" width="162.76" height="49.78"/><path class="cls-4" d="M33.18,10.08h141a0,0,0,0,1,0,0V59.85a0,0,0,0,1,0,0H11.45a0,0,0,0,1,0,0V31.8A21.73,21.73,0,0,1,33.18,10.08Z"/><path class="cls-4" d="M362.59,10.08H525.34a0,0,0,0,1,0,0V59.85a0,0,0,0,1,0,0h-141a21.73,21.73,0,0,1-21.73-21.73V10.08A0,0,0,0,1,362.59,10.08Z" transform="translate(887.93 69.93) rotate(-180)"/><path class="cls-2" d="M247,37.74c-.12,2.72-.28,5-.48,6.89a2.5,2.5,0,0,1-.77,1.52,2.37,2.37,0,0,1-1.8.5,1.87,1.87,0,0,1-1.48-.63,3,3,0,0,1-.48-1.6c0-1.15-.07-2.39-.08-3.71s0-2.65,0-4,0-2.68,0-4,0-2.56.08-3.73l-2.24,0h-2.09a1.76,1.76,0,0,1-1.33-.5,2.51,2.51,0,0,1-.51-1.7,2.22,2.22,0,0,1,.48-1.62,1.86,1.86,0,0,1,1.21-.62c2.54-.16,5-.26,7.39-.3s4.76-.06,7.12-.06a1.33,1.33,0,0,1,1,.4,2,2,0,0,1,.39,1.41,2.82,2.82,0,0,1-.41,1.77,1.51,1.51,0,0,1-1.07.56c-.74.08-1.5.15-2.25.21s-1.57.11-2.43.15C247.17,32,247.08,35,247,37.74Z"/><path class="cls-2" d="M265.34,40.85a3.15,3.15,0,0,1,1.06.48,2.74,2.74,0,0,1,.91,1.08,1.38,1.38,0,0,1-.13,1.31,5.34,5.34,0,0,1-2.61,2.12,11.43,11.43,0,0,1-4.37.81q-4.35,0-6.45-2a7.76,7.76,0,0,1-2.1-5.81,11.52,11.52,0,0,1,.51-3.5,7.47,7.47,0,0,1,1.54-2.75,7.57,7.57,0,0,1,2.51-1.83,9.31,9.31,0,0,1,3.45-.77,8.15,8.15,0,0,1,3.67.63,8,8,0,0,1,2.74,1.95,7.32,7.32,0,0,1,1.55,2.83,7.57,7.57,0,0,1,.2,3.32,2.07,2.07,0,0,1-.27.79.73.73,0,0,1-.58.3l-5.3.39c-1.74.13-3.51.24-5.31.34a1.77,1.77,0,0,0,1,1.77,6.84,6.84,0,0,0,3,.49,6.11,6.11,0,0,0,2.27-.42,6,6,0,0,0,1.78-1.06A1.41,1.41,0,0,1,265.34,40.85Zm-3.87-4.05,1.54-.15a2.29,2.29,0,0,0-.78-2,3.84,3.84,0,0,0-2.72-.59,3.32,3.32,0,0,0-2.51,1,3,3,0,0,0-.67,2.05c.26,0,.69,0,1.27-.06l1.89-.13Z"/><path class="cls-2" d="M274.56,40.4q0,1.73-.06,4a3.27,3.27,0,0,1-.44,1.6,1.72,1.72,0,0,1-1.43.63,2.43,2.43,0,0,1-1.79-.48,2.23,2.23,0,0,1-.69-1.51c-.18-2-.34-4.07-.46-6.17s-.18-4.33-.18-6.71a2.48,2.48,0,0,1,.09-.68,1.17,1.17,0,0,1,.37-.56,2,2,0,0,1,.75-.39,6,6,0,0,1,1.27-.21,6.06,6.06,0,0,1,1.3,0,1.53,1.53,0,0,1,.74.31,1.16,1.16,0,0,1,.35.61,8.63,8.63,0,0,1,.15,1,4.15,4.15,0,0,1,1.86-1.34,8.21,8.21,0,0,1,2.4-.56,7.83,7.83,0,0,1,2.46.2,5.09,5.09,0,0,1,2,.95,4.48,4.48,0,0,1,1.3,1.71,5.88,5.88,0,0,1,.47,2.43c0,1.29,0,2.43-.05,3.43s-.07,1.89-.12,2.67-.12,1.49-.2,2.1a16,16,0,0,1-.3,1.68,1.73,1.73,0,0,1-.92,1.21,2.76,2.76,0,0,1-1.53.33,2,2,0,0,1-1-.4,1.71,1.71,0,0,1-.52-1.32c0-.56-.06-1.18-.07-1.86s0-1.36,0-2.05V37.13a2.68,2.68,0,0,0-.87-2.14,3,3,0,0,0-2.12-.64,2.81,2.81,0,0,0-2,.77,2.57,2.57,0,0,0-.68,1.83Q274.59,38.64,274.56,40.4Z"/><path class="cls-2" d="M288.71,45.47a3.23,3.23,0,0,1-1-.75,2.15,2.15,0,0,1-.7-1.36,1.91,1.91,0,0,1,.52-1.42,1.75,1.75,0,0,1,1.1-.74,1.48,1.48,0,0,1,.92.19,9.72,9.72,0,0,0,5.65,1.27,1.12,1.12,0,0,0,.5-.18.67.67,0,0,0-.1-1.18c-.85-.34-1.78-.67-2.78-1s-2-.67-3-1.07a6,6,0,0,1-2.49-1.81,4.07,4.07,0,0,1-.77-2.94,4.17,4.17,0,0,1,2-3.2A8.85,8.85,0,0,1,293.24,30a13.5,13.5,0,0,1,2,.09,12.71,12.71,0,0,1,1.95.38,10.92,10.92,0,0,1,1.7.62,4.71,4.71,0,0,1,1.19.75,2.56,2.56,0,0,1,.73,1.33,2.18,2.18,0,0,1-.28,1.42,2.39,2.39,0,0,1-1.15,1,1.23,1.23,0,0,1-1.08,0,12.72,12.72,0,0,0-2.71-1.18A11.07,11.07,0,0,0,293,34a2.38,2.38,0,0,0-1,.12.93.93,0,0,0-.48.57,1,1,0,0,0,.57,1.3,24.71,24.71,0,0,0,2.72,1c1,.33,2,.67,3,1a4.9,4.9,0,0,1,2.59,1.84,3.88,3.88,0,0,1,.47,2.78,4,4,0,0,1-2.18,3.06,11.82,11.82,0,0,1-5.14.9,11.45,11.45,0,0,1-1.75-.13,9.37,9.37,0,0,1-1.66-.4A9.14,9.14,0,0,1,288.71,45.47Z"/><path class="cls-2" d="M428.71,40a10.73,10.73,0,0,1-2.38,3.51,10.48,10.48,0,0,1-3.49,2.25,12,12,0,0,1-4.23.86,11.54,11.54,0,0,1-4.26-.66,9.55,9.55,0,0,1-3.48-2.18,10.66,10.66,0,0,1-2.34-3.55,13.62,13.62,0,0,1-.09-9.28,10.48,10.48,0,0,1,5.64-6,13,13,0,0,1,4.53-1.06,10.67,10.67,0,0,1,4.47.62,9.37,9.37,0,0,1,3.48,2.3,10.51,10.51,0,0,1,2.24,3.72,14.48,14.48,0,0,1,.78,4.88A11.66,11.66,0,0,1,428.71,40Zm-7.8,1.67a6.13,6.13,0,0,0,2-1.43,6.43,6.43,0,0,0,1.3-2.19,8.36,8.36,0,0,0,.47-2.88,8.56,8.56,0,0,0-.49-3A6.37,6.37,0,0,0,422.86,30a5.27,5.27,0,0,0-1.94-1.3,6,6,0,0,0-2.31-.39,6.38,6.38,0,0,0-2.43.57,5.35,5.35,0,0,0-1.89,1.44,6.74,6.74,0,0,0-1.24,2.2,8.53,8.53,0,0,0-.45,2.83,8.32,8.32,0,0,0,.48,2.92,6.81,6.81,0,0,0,1.28,2.17,5.31,5.31,0,0,0,1.88,1.35,5.37,5.37,0,0,0,2.25.42A6.12,6.12,0,0,0,420.91,41.7Z"/><path class="cls-2" d="M436.29,40.4q0,1.73-.06,4a3.17,3.17,0,0,1-.44,1.6,1.72,1.72,0,0,1-1.43.63,2.43,2.43,0,0,1-1.79-.48,2.23,2.23,0,0,1-.69-1.51c-.18-2-.33-4.07-.45-6.17s-.18-4.33-.18-6.71a2.48,2.48,0,0,1,.09-.68,1.23,1.23,0,0,1,.36-.56,2,2,0,0,1,.75-.39A7.55,7.55,0,0,1,435,30a1.49,1.49,0,0,1,.74.31,1.16,1.16,0,0,1,.35.61,8.63,8.63,0,0,1,.15,1,4.26,4.26,0,0,1,1.86-1.34,8.36,8.36,0,0,1,2.4-.56,7.92,7.92,0,0,1,2.47.2,5.12,5.12,0,0,1,2,.95,4.38,4.38,0,0,1,1.3,1.71,5.88,5.88,0,0,1,.47,2.43c0,1.29,0,2.43-.05,3.43s-.07,1.89-.12,2.67-.11,1.49-.19,2.1a16,16,0,0,1-.3,1.68,1.71,1.71,0,0,1-.93,1.21,2.75,2.75,0,0,1-1.52.33,2,2,0,0,1-1-.4,1.75,1.75,0,0,1-.51-1.32c0-.56-.07-1.18-.08-1.86s0-1.36,0-2.05V37.13A2.65,2.65,0,0,0,441.1,35a3,3,0,0,0-2.12-.64,2.84,2.84,0,0,0-2,.77,2.57,2.57,0,0,0-.68,1.83Q436.32,38.64,436.29,40.4Z"/><path class="cls-2" d="M462,40.85a3,3,0,0,1,1.06.48,2.58,2.58,0,0,1,.91,1.08,1.41,1.41,0,0,1-.12,1.31,5.41,5.41,0,0,1-2.62,2.12,11.42,11.42,0,0,1-4.36.81q-4.37,0-6.46-2a7.76,7.76,0,0,1-2.1-5.81,11.22,11.22,0,0,1,.52-3.5,7.33,7.33,0,0,1,4.05-4.58A9.21,9.21,0,0,1,456.3,30a8.12,8.12,0,0,1,3.67.63,8,8,0,0,1,2.74,1.95,7.48,7.48,0,0,1,1.56,2.83,7.57,7.57,0,0,1,.19,3.32,2.07,2.07,0,0,1-.27.79.71.71,0,0,1-.57.3l-5.31.39c-1.74.13-3.51.24-5.3.34a1.76,1.76,0,0,0,.95,1.77,6.9,6.9,0,0,0,3,.49A6.27,6.27,0,0,0,461,41.3,1.37,1.37,0,0,1,462,40.85Zm-3.86-4.05,1.54-.15a2.27,2.27,0,0,0-.79-2,3.83,3.83,0,0,0-2.72-.59,3.34,3.34,0,0,0-2.51,1,3.08,3.08,0,0,0-.66,2.05c.26,0,.68,0,1.27-.06l1.89-.13Z"/><path class="cls-2" d="M468.09,45.47a3.35,3.35,0,0,1-1-.75,2.18,2.18,0,0,1-.69-1.36,1.94,1.94,0,0,1,.51-1.42,1.75,1.75,0,0,1,1.1-.74,1.51,1.51,0,0,1,.93.19,9.52,9.52,0,0,0,2.84,1.09,9.62,9.62,0,0,0,2.81.18,1.12,1.12,0,0,0,.5-.18.64.64,0,0,0,.28-.39.66.66,0,0,0-.39-.79c-.85-.34-1.77-.67-2.78-1s-2-.67-3-1.07a6,6,0,0,1-2.5-1.81A4.07,4.07,0,0,1,466,34.5a4.18,4.18,0,0,1,2-3.2A8.84,8.84,0,0,1,472.62,30a13.63,13.63,0,0,1,2,.09,13.2,13.2,0,0,1,1.95.38,10.79,10.79,0,0,1,1.69.62,4.71,4.71,0,0,1,1.19.75,2.43,2.43,0,0,1,.73,1.33,2.11,2.11,0,0,1-.27,1.42,2.48,2.48,0,0,1-1.15,1,1.25,1.25,0,0,1-1.09,0A12.72,12.72,0,0,0,475,34.44a10.88,10.88,0,0,0-2.55-.48,2.4,2.4,0,0,0-1,.12.93.93,0,0,0-.48.57,1,1,0,0,0,.57,1.3,25.52,25.52,0,0,0,2.72,1c1,.33,2,.67,3,1a4.83,4.83,0,0,1,2.58,1.84,3.88,3.88,0,0,1,.47,2.78,4,4,0,0,1-2.18,3.06,11.8,11.8,0,0,1-5.13.9,11.58,11.58,0,0,1-1.76-.13,10.92,10.92,0,0,1-3.11-1Z"/><rect class="cls-5" y="243.39" width="536.8" height="2.72"/><rect class="cls-6" x="180.12" y="10.08" width="1.01" height="223.24"/><rect class="cls-6" x="355.68" y="10.08" width="1.01" height="223.24"/><path class="cls-2" d="M37.51,46a2.52,2.52,0,0,1-.49-1.6q0-1.64-.06-3.3c0-1.11-.05-2.25,0-3.44-1.29.08-2.62.14-4,.19L29,38c0,1.21,0,2.35,0,3.41s0,2.07-.05,3A2.64,2.64,0,0,1,28.38,46a2.09,2.09,0,0,1-1.6.62,2.12,2.12,0,0,1-1.7-.48,2.48,2.48,0,0,1-.6-1.51c-.1-1-.19-2.31-.27-3.86s-.15-3.17-.2-4.91-.09-3.48-.12-5.26-.05-3.4-.05-4.89A2.4,2.4,0,0,1,24,25a1.23,1.23,0,0,1,.39-.59,2.43,2.43,0,0,1,.79-.4,4.53,4.53,0,0,1,1.28-.15,3.81,3.81,0,0,1,1.18.15,2.28,2.28,0,0,1,.73.4,1.39,1.39,0,0,1,.39.59,3,3,0,0,1,.15.74c0,.5,0,1.07.05,1.69s0,1.28,0,1.95,0,1.36,0,2.06v2c1.29-.07,2.62-.14,4-.19l4-.14c0-1.27,0-2.56,0-3.88s0-2.48.07-3.49a2,2,0,0,1,.53-1.33,2.54,2.54,0,0,1,1.92-.55,4.53,4.53,0,0,1,1.28.15,2.33,2.33,0,0,1,.79.4,1.23,1.23,0,0,1,.39.59,2.4,2.4,0,0,1,.11.71c0,1.45,0,3.05,0,4.8s-.07,3.5-.13,5.23-.13,3.38-.21,4.94-.17,2.88-.24,3.95a2.38,2.38,0,0,1-.67,1.49,2.17,2.17,0,0,1-1.72.5A2,2,0,0,1,37.51,46Z"/><path class="cls-2" d="M55.1,46.26a2.25,2.25,0,0,1-.67-1.63,3.72,3.72,0,0,1-1.8,1.46,7.56,7.56,0,0,1-2.49.59,5.38,5.38,0,0,1-4.08-1.13,5.78,5.78,0,0,1-1.75-4c-.15-1.63-.25-3.31-.31-5s-.06-3.45,0-5.14a1.26,1.26,0,0,1,.5-1A3.36,3.36,0,0,1,46.33,30a2.92,2.92,0,0,1,1.83.35,1.39,1.39,0,0,1,.5,1.07c0,.18,0,.48,0,.91s0,.9,0,1.45,0,1.12,0,1.74,0,1.21,0,1.79,0,1.12,0,1.61,0,.85,0,1.11a2.54,2.54,0,0,0,.68,1.92,2.81,2.81,0,0,0,2.28.5,3.47,3.47,0,0,0,2-.84,2.3,2.3,0,0,0,.74-1.76c0-1.25,0-2.63,0-4.15s0-2.94,0-4.25a1.15,1.15,0,0,1,.65-1.18A4.54,4.54,0,0,1,57,30a5.77,5.77,0,0,1,1.69.18c.37.12.57.47.61,1,.06,1,.09,2.13.09,3.31s0,2.36,0,3.55-.07,2.34-.13,3.46-.12,2.12-.18,3a7,7,0,0,1-.11.78,1.94,1.94,0,0,1-.29.71,1.56,1.56,0,0,1-.6.53,2.27,2.27,0,0,1-1.06.21A2.91,2.91,0,0,1,55.1,46.26Z"/><path class="cls-2" d="M66.22,40.4q0,1.73-.06,4a3.27,3.27,0,0,1-.44,1.6,1.73,1.73,0,0,1-1.44.63,2.4,2.4,0,0,1-1.78-.48,2.23,2.23,0,0,1-.69-1.51c-.19-2-.34-4.07-.46-6.17s-.18-4.33-.18-6.71a2.48,2.48,0,0,1,.09-.68,1.23,1.23,0,0,1,.36-.56,2.17,2.17,0,0,1,.76-.39,6,6,0,0,1,1.27-.21A6.06,6.06,0,0,1,65,30a1.53,1.53,0,0,1,.74.31,1.16,1.16,0,0,1,.35.61,8.63,8.63,0,0,1,.15,1,4.15,4.15,0,0,1,1.86-1.34,8.21,8.21,0,0,1,2.4-.56,7.83,7.83,0,0,1,2.46.2,5.17,5.17,0,0,1,2,.95,4.58,4.58,0,0,1,1.3,1.71,5.88,5.88,0,0,1,.47,2.43c0,1.29,0,2.43-.05,3.43s-.07,1.89-.12,2.67-.12,1.49-.2,2.1a16,16,0,0,1-.3,1.68,1.73,1.73,0,0,1-.92,1.21,2.76,2.76,0,0,1-1.53.33,2,2,0,0,1-1-.4A1.71,1.71,0,0,1,72,45c0-.56-.06-1.18-.07-1.86s0-1.36,0-2.05V37.13A2.66,2.66,0,0,0,71,35a3,3,0,0,0-2.11-.64,2.81,2.81,0,0,0-2,.77A2.57,2.57,0,0,0,66.25,37Q66.25,38.64,66.22,40.4Z"/><path class="cls-2" d="M88.83,30.6a3.13,3.13,0,0,1,1.63,1.46c0-1.6,0-3,.05-4.24s0-2.09,0-2.6a2.15,2.15,0,0,1,.57-1.33,2.73,2.73,0,0,1,2-.54,4.41,4.41,0,0,1,1.27.15,2,2,0,0,1,.75.39,1.12,1.12,0,0,1,.37.59,2.88,2.88,0,0,1,.09.71c0,1,0,2,0,3.13s0,2.27-.06,3.46-.06,2.38-.1,3.58-.09,2.36-.14,3.46S95.15,41,95.1,42s-.11,1.83-.17,2.56a2.12,2.12,0,0,1-.56,1.39,1.66,1.66,0,0,1-1.31.48h-.62c-.21,0-.42,0-.62,0a.94.94,0,0,1-.88-.69c-.06-.19-.11-.39-.16-.62s-.1-.52-.14-.87a2.78,2.78,0,0,1-.68,1,5,5,0,0,1-1.1.77,7.42,7.42,0,0,1-1.39.53,7.33,7.33,0,0,1-1.54.22,7.83,7.83,0,0,1-3.07-.48,6.53,6.53,0,0,1-2.48-1.66,7.76,7.76,0,0,1-1.62-2.8,11.1,11.1,0,0,1-.51-3.88A8.67,8.67,0,0,1,79,34.61a8,8,0,0,1,1.72-2.51,7.54,7.54,0,0,1,2.44-1.6A7,7,0,0,1,86,30,6.84,6.84,0,0,1,88.83,30.6Zm.75,10.85a3.47,3.47,0,0,0,.91-1.27,4.65,4.65,0,0,0,.36-1.75,4.16,4.16,0,0,0-.86-3,4,4,0,0,0-2.61-1.27,4.55,4.55,0,0,0-1.65.12,4,4,0,0,0-1.44.71,4,4,0,0,0-1,1.27,4.05,4.05,0,0,0-.44,1.8A4.78,4.78,0,0,0,83,39.94a3.79,3.79,0,0,0,.83,1.39,3.47,3.47,0,0,0,1.29.87,4,4,0,0,0,1.61.25,5.46,5.46,0,0,0,1.54-.27A3.41,3.41,0,0,0,89.58,41.45Z"/><path class="cls-2" d="M102.55,38c0,1.21-.08,2.38-.11,3.5s-.06,2.12-.1,3a2.42,2.42,0,0,1-.61,1.6,2.25,2.25,0,0,1-1.57.63,2,2,0,0,1-1.66-.5,2.49,2.49,0,0,1-.6-1.49c-.05-.38-.08-.9-.11-1.56s-.06-1.38-.09-2.19-.06-1.65-.09-2.52-.06-1.73-.08-2.56,0-1.59,0-2.29,0-1.28,0-1.73a2.5,2.5,0,0,1,.11-.71,1.21,1.21,0,0,1,.38-.59,2,2,0,0,1,.77-.39A4.53,4.53,0,0,1,100,30a2.76,2.76,0,0,1,2,.54,2,2,0,0,1,.56,1.33v.73a2.28,2.28,0,0,0,0,.3,1.15,1.15,0,0,1,0,.14v.19a6.54,6.54,0,0,1,1-1.09,7.21,7.21,0,0,1,1.32-1,10.17,10.17,0,0,1,1.52-.74A6.43,6.43,0,0,1,108,30a3,3,0,0,1,1.62.2,1.7,1.7,0,0,1,1,1.34,8.21,8.21,0,0,1,.11,1.07,3.7,3.7,0,0,1-.14,1.12,2.09,2.09,0,0,1-.48.88,1.27,1.27,0,0,1-.94.35,11.5,11.5,0,0,0-3.66.81,7.33,7.33,0,0,0-2.9,2.18Z"/><path class="cls-2" d="M124.76,40.85a3,3,0,0,1,1.06.48,2.58,2.58,0,0,1,.91,1.08,1.41,1.41,0,0,1-.12,1.31A5.41,5.41,0,0,1,124,45.84a11.42,11.42,0,0,1-4.36.81q-4.36,0-6.46-2a7.76,7.76,0,0,1-2.1-5.81,11.22,11.22,0,0,1,.52-3.5,7.33,7.33,0,0,1,4-4.58,9.21,9.21,0,0,1,3.44-.77,8.12,8.12,0,0,1,3.67.63,8,8,0,0,1,2.74,1.95,7.35,7.35,0,0,1,1.56,2.83,7.57,7.57,0,0,1,.19,3.32,2.07,2.07,0,0,1-.27.79.71.71,0,0,1-.57.3l-5.31.39c-1.74.13-3.51.24-5.3.34a1.78,1.78,0,0,0,.95,1.77,6.9,6.9,0,0,0,3,.49,6.27,6.27,0,0,0,4-1.48A1.37,1.37,0,0,1,124.76,40.85ZM120.9,36.8l1.54-.15a2.27,2.27,0,0,0-.79-2,3.83,3.83,0,0,0-2.72-.59,3.34,3.34,0,0,0-2.51,1,3.08,3.08,0,0,0-.66,2.05c.26,0,.68,0,1.27-.06l1.89-.13Z"/><path class="cls-2" d="M139.33,30.6A3.09,3.09,0,0,1,141,32.06c0-1.6,0-3,0-4.24s0-2.09.05-2.6a2.15,2.15,0,0,1,.57-1.33,2.7,2.7,0,0,1,2-.54,4.36,4.36,0,0,1,1.27.15,2,2,0,0,1,.76.39,1.17,1.17,0,0,1,.36.59,2.88,2.88,0,0,1,.09.71c0,1,0,2,0,3.13s0,2.27-.06,3.46-.07,2.38-.11,3.58-.08,2.36-.13,3.46S145.65,41,145.6,42s-.1,1.83-.16,2.56a2.17,2.17,0,0,1-.56,1.39,1.66,1.66,0,0,1-1.32.48h-.62a6.08,6.08,0,0,1-.61,0,.93.93,0,0,1-.88-.69c-.06-.19-.12-.39-.17-.62s-.09-.52-.13-.87a2.78,2.78,0,0,1-.68,1,5.08,5.08,0,0,1-1.11.77,6.92,6.92,0,0,1-1.39.53,7.24,7.24,0,0,1-1.54.22,7.83,7.83,0,0,1-3.07-.48,6.61,6.61,0,0,1-2.48-1.66,7.75,7.75,0,0,1-1.61-2.8,10.86,10.86,0,0,1-.52-3.88,8.67,8.67,0,0,1,.71-3.22,8,8,0,0,1,1.73-2.51,7.39,7.39,0,0,1,2.43-1.6,7.06,7.06,0,0,1,2.84-.53A6.77,6.77,0,0,1,139.33,30.6Zm.76,10.85a3.72,3.72,0,0,0,.91-1.27,4.65,4.65,0,0,0,.36-1.75,4.21,4.21,0,0,0-.86-3,4,4,0,0,0-2.62-1.27,4.58,4.58,0,0,0-1.65.12,3.91,3.91,0,0,0-2.91,3.78,4.79,4.79,0,0,0,.22,1.87,3.81,3.81,0,0,0,.84,1.39,3.51,3.51,0,0,0,1.28.87,4.06,4.06,0,0,0,1.62.25,5.52,5.52,0,0,0,1.54-.27A3.49,3.49,0,0,0,140.09,41.45Z"/><path class="cls-2" d="M149.91,45.47a3.49,3.49,0,0,1-1-.75,2.18,2.18,0,0,1-.69-1.36,1.94,1.94,0,0,1,.51-1.42,1.77,1.77,0,0,1,1.11-.74,1.48,1.48,0,0,1,.92.19,9.72,9.72,0,0,0,5.65,1.27,1.12,1.12,0,0,0,.5-.18.66.66,0,0,0-.11-1.18c-.84-.34-1.77-.67-2.78-1s-2-.67-3-1.07a5.92,5.92,0,0,1-2.49-1.81,4,4,0,0,1-.77-2.94,4.17,4.17,0,0,1,2-3.2A8.85,8.85,0,0,1,154.45,30a13.5,13.5,0,0,1,2,.09,12.71,12.71,0,0,1,1.95.38,10.79,10.79,0,0,1,1.69.62,4.79,4.79,0,0,1,1.2.75,2.48,2.48,0,0,1,.72,1.33,2.11,2.11,0,0,1-.27,1.42,2.43,2.43,0,0,1-1.15,1,1.25,1.25,0,0,1-1.09,0,12.43,12.43,0,0,0-2.7-1.18,11.05,11.05,0,0,0-2.56-.48,2.35,2.35,0,0,0-1,.12.91.91,0,0,0-.49.57,1,1,0,0,0,.58,1.3A24,24,0,0,0,156,37c1,.33,2,.67,3,1a4.83,4.83,0,0,1,2.58,1.84,3.83,3.83,0,0,1,.47,2.78,3.94,3.94,0,0,1-2.17,3.06,11.85,11.85,0,0,1-5.14.9,11.36,11.36,0,0,1-1.75-.13,9.7,9.7,0,0,1-1.67-.4A9.54,9.54,0,0,1,149.91,45.47Z"/></g></g></svg>