<svg xmlns="http://www.w3.org/2000/svg" xmlns:xlink="http://www.w3.org/1999/xlink" viewBox="0 0 221.99 303.32"><defs><style>.cls-1,.cls-15,.cls-18,.cls-26,.cls-27,.cls-32,.cls-34,.cls-42{opacity:0.4;}.cls-1{fill:url(#linear-gradient);}.cls-2,.cls-21{fill:#a8a8a8;}.cls-16,.cls-2,.cls-29{opacity:0.8;}.cls-3{fill:#686868;}.cls-31,.cls-33,.cls-4,.cls-44,.cls-49{opacity:0.6;}.cls-4{fill:url(#radial-gradient);}.cls-5{fill:#636363;}.cls-11,.cls-40,.cls-42,.cls-6{fill:#fff;}.cls-25,.cls-30,.cls-43,.cls-45,.cls-6{opacity:0.5;}.cls-10,.cls-11,.cls-12,.cls-19,.cls-20,.cls-28,.cls-46,.cls-7{opacity:0.3;}.cls-7{fill:url(#linear-gradient-2);}.cls-8{fill:#a1a1a1;}.cls-9{fill:#757575;}.cls-10{fill:url(#linear-gradient-3);}.cls-12{fill:#f2f2f2;}.cls-13{fill:#c5c5c5;opacity:0.45;}.cls-14{fill:#d0d0d0;}.cls-15,.cls-28,.cls-43{fill:#d7d7d7;}.cls-16{fill:#9e9e9e;}.cls-17{fill:#949494;}.cls-18{fill:#c6c6c6;}.cls-19{fill:url(#linear-gradient-4);}.cls-20,.cls-41{fill:#dcdcdc;}.cls-22{fill:#777;}.cls-23{opacity:0.7;}.cls-24{fill:#c1c1c1;}.cls-26{fill:url(#linear-gradient-5);}.cls-27{fill:url(#linear-gradient-6);}.cls-29{fill:#7d7d7d;}.cls-30{fill:#e1e1e1;}.cls-31{fill:url(#linear-gradient-7);}.cls-32{fill:url(#linear-gradient-8);}.cls-33{fill:url(#linear-gradient-9);}.cls-34{fill:url(#linear-gradient-10);}.cls-35{fill:#4c4c4c;opacity:0.65;}.cls-36{fill:#bbb;}.cls-37{fill:#7b7b7b;}.cls-38{fill:#a9a9a9;}.cls-39{fill:#646464;}.cls-41{opacity:0.35;}.cls-44{fill:#d6d6d6;}.cls-45{fill:#5f5f5f;}.cls-47{opacity:0.25;}.cls-48{opacity:0.1;}.cls-49{fill:#555;}</style><linearGradient id="linear-gradient" y1="149.99" x2="221.99" y2="149.99" gradientUnits="userSpaceOnUse"><stop offset="0" stop-color="#bfbfbf"/><stop offset="0.49" stop-color="#e9e9e9"/><stop offset="1" stop-color="#b6b6b6"/></linearGradient><radialGradient id="radial-gradient" cx="105.34" cy="291.17" r="93.72" gradientTransform="translate(21.71 220.04) scale(0.94 0.24)" gradientUnits="userSpaceOnUse"><stop offset="0" stop-color="#bebebe"/><stop offset="1" stop-color="#8f8f8f"/></radialGradient><linearGradient id="linear-gradient-2" x1="113.35" y1="4.99" x2="113.35" y2="52.73" gradientUnits="userSpaceOnUse"><stop offset="0" stop-color="#7a7a7a"/><stop offset="1" stop-color="#afafaf"/></linearGradient><linearGradient id="linear-gradient-3" x1="120.31" y1="270.39" x2="120.31" y2="296.52" gradientUnits="userSpaceOnUse"><stop offset="0" stop-color="#c6c6c6"/><stop offset="1" stop-color="#bebebe"/></linearGradient><linearGradient id="linear-gradient-4" x1="9.42" y1="59.23" x2="26.46" y2="59.23" gradientUnits="userSpaceOnUse"><stop offset="0" stop-color="#d7d7d7"/><stop offset="1" stop-color="#afafaf"/></linearGradient><linearGradient id="linear-gradient-5" y1="28.52" x2="221.74" y2="28.52" gradientUnits="userSpaceOnUse"><stop offset="0" stop-color="#434343"/><stop offset="1" stop-color="#636363"/></linearGradient><linearGradient id="linear-gradient-6" x1="210.87" y1="36.31" x2="221.74" y2="36.31" xlink:href="#linear-gradient-5"/><linearGradient id="linear-gradient-7" x1="106.51" y1="45.08" x2="106.51" y2="53.56" xlink:href="#linear-gradient-5"/><linearGradient id="linear-gradient-8" x1="5.04" y1="40.82" x2="47.21" y2="40.82" xlink:href="#linear-gradient-5"/><linearGradient id="linear-gradient-9" x1="100.08" y1="54.8" x2="142.74" y2="54.8" xlink:href="#linear-gradient-5"/><linearGradient id="linear-gradient-10" x1="171.04" y1="52.71" x2="192.35" y2="52.71" xlink:href="#linear-gradient-5"/></defs><g id="Layer_2" data-name="Layer 2"><g id="Layer_1-2" data-name="Layer 1"><path class="cls-1" d="M122.51.42C84.12.42,50.83,6.55,34.36,15.51h0C34.23,15.58-.07,34.82,0,41.4c.05,4.83,2.86,6.83,7,9.1C11.5,53,17.6,55.79,23.38,63V271.73c0,15.37,44.38,27.83,99.13,27.83s95-12.46,95-27.83V48.88l3.19-8.7.09-.49c.75-4,1.63-6.8.91-10.83,0-.23-.07-.44-.09-.61C219.92,13,177.25.42,122.51.42Z"/><path class="cls-2" d="M122.49,298.25c-54.74,0-95.91-11.57-95.91-26.94,0,0,10.68,23.95,96.36,24,86.57-1.31,92.27-25.13,92.27-25.13,0,15.37-37.07,28.07-91.82,28.07"/><path class="cls-3" d="M26.58,271.31a10.11,10.11,0,0,0,2.29,5.88,20.3,20.3,0,0,0,4.7,4.31,52.91,52.91,0,0,0,11.49,5.66A138.22,138.22,0,0,0,70,293.43a312.48,312.48,0,0,0,51.32,3.94,284.11,284.11,0,0,0,51.3-3.86,126.66,126.66,0,0,0,24.78-6.74,48.72,48.72,0,0,0,11.25-6.08,20.1,20.1,0,0,0,4.48-4.54,10.94,10.94,0,0,0,2.1-6,11.11,11.11,0,0,1-1.88,6.12,20.57,20.57,0,0,1-4.41,4.76,49,49,0,0,1-11.21,6.51,127.22,127.22,0,0,1-24.86,7.27,226.65,226.65,0,0,1-25.68,3.36q-12.91,1-25.88.93c-8.63-.07-17.26-.39-25.86-1.08q-6.47-.51-12.89-1.31c-4.29-.51-8.56-1.18-12.8-2a138.7,138.7,0,0,1-25-6.8,53.53,53.53,0,0,1-11.45-6.09,20.31,20.31,0,0,1-4.64-4.52A10.24,10.24,0,0,1,26.58,271.31Z"/><path class="cls-4" d="M122.51,299.14c-44.08,0-81.44-8.08-94.32-19.25.8,12.49,41.73,22.55,92.12,22.55,49.42,0,89.76-9.68,92-21.84C199.8,291.4,165.65,299.14,122.51,299.14Z"/><path class="cls-5" d="M42.78,291.91a132.37,132.37,0,0,0,19,4.87c6.42,1.22,12.9,2.13,19.41,2.82a360.71,360.71,0,0,0,39.16,2,360.78,360.78,0,0,0,39.17-2c6.5-.68,13-1.59,19.41-2.82a131.8,131.8,0,0,0,19-4.89,118.56,118.56,0,0,1-18.83,5.73c-6.42,1.41-12.91,2.47-19.42,3.32s-13.07,1.39-19.63,1.78-13.13.58-19.7.62-13.13-.24-19.69-.61-13.12-.9-19.63-1.78S68,299,61.61,297.62A120,120,0,0,1,42.78,291.91Z"/><path class="cls-6" d="M217.52,40.63c-29.85,20.2-81.43,18.44-97.76,18.59s-64.3-6.89-76.33-11.28-38.82.62-38.82.62C2,46.5.05,45.81,0,41c-.07-6.59,34.23-25.83,34.36-25.9h0C50.83,6.13,84.12,0,122.51,0c54.74,0,97.41,12.57,99.12,27.83,0,.17.05.38.09.61A12.92,12.92,0,0,1,217.52,40.63Z"/><path class="cls-7" d="M124.27,6.15C89.35,6.15,59,11.09,43.43,18.37h0S22,28.67,11.47,36.58a2.33,2.33,0,0,0,1.3,4.18c7.5-.22,21.56-5.47,34.44,1.41A99.94,99.94,0,0,0,58.7,45.8h0c16.67,4.3,39.88,7,65.56,7,50.75,0,91.89-10.44,91.89-23.32S175,6.15,124.27,6.15Z"/><path class="cls-8" d="M216.16,29.47a7.93,7.93,0,0,0-2.31-5A19.09,19.09,0,0,0,209.48,21a52,52,0,0,0-10.25-4.57,139.77,139.77,0,0,0-21.87-5.32,304,304,0,0,0-44.89-4A360.91,360.91,0,0,0,87.39,8.78c-7.48.76-14.94,1.81-22.31,3.31l-2.77.55-2.75.63c-1.84.4-3.64.92-5.47,1.39a94,94,0,0,0-10.66,3.71A102.88,102.88,0,0,1,64.9,11.24a225,225,0,0,1,22.34-3.8c7.5-.94,15.05-1.46,22.6-1.8S125,5.22,132.5,5.37,147.61,6,155.14,6.7c3.76.36,7.52.77,11.27,1.28,1.87.24,3.74.53,5.61.82s3.73.63,5.58,1a137.28,137.28,0,0,1,21.92,5.84,52.43,52.43,0,0,1,10.21,5,19.29,19.29,0,0,1,4.32,3.69A8.06,8.06,0,0,1,216.16,29.47Z"/><path class="cls-9" d="M152.58,6.39a237.1,237.1,0,0,1,34.82,5.69,100.84,100.84,0,0,1,16.73,5.6,38.23,38.23,0,0,1,7.6,4.48,14.66,14.66,0,0,1,3.05,3.19,7.3,7.3,0,0,1,1.38,4.12,7.28,7.28,0,0,0-1.47-4.06,14.56,14.56,0,0,0-3.1-3.07A36.82,36.82,0,0,0,204,18.09a98.73,98.73,0,0,0-16.76-5.16,235.1,235.1,0,0,0-34.76-4.78Z"/><ellipse class="cls-10" cx="120.31" cy="270.18" rx="87.83" ry="28.22"/><path class="cls-11" d="M207.66,267.21c-19.93-9-53.76-4.34-53.76-4.34s-4.89-13-33-13.17-34.58,14.21-34.58,14.21c-17.34-7.73-53.6,8.38-53.6,8.38l-.25-2.11C32.47,254.6,71.8,242,120.31,242s87.83,12.64,87.83,28.22"/><ellipse class="cls-12" cx="120.31" cy="265.17" rx="29.54" ry="12.33"/><path class="cls-13" d="M131,265.54c0,1.84-4.8,3.34-10.73,3.34s-10.74-1.5-10.74-3.34l.09,0a42.21,42.21,0,0,0,21.38,0Z"/><path class="cls-14" d="M32.47,270.18a10.82,10.82,0,0,1,1.59-5.86,20.47,20.47,0,0,1,4-4.69A45.85,45.85,0,0,1,48.44,253a113.24,113.24,0,0,1,23.26-7.74,224.44,224.44,0,0,1,48.61-5.08,223.89,223.89,0,0,1,48.61,5.08A112.56,112.56,0,0,1,192.17,253a45.08,45.08,0,0,1,10.37,6.61,20.51,20.51,0,0,1,4,4.69,10.9,10.9,0,0,1,1.58,5.86,10.61,10.61,0,0,0-2-5.58,20,20,0,0,0-4.19-4.22,45.83,45.83,0,0,0-10.46-5.79,92.38,92.38,0,0,0-11.38-3.87c-3.87-1.07-7.79-2-11.73-2.76a221.13,221.13,0,0,0-23.91-3.24c-8-.7-16.08-1-24.13-1s-16.11.3-24.13,1A220.46,220.46,0,0,0,72.27,248c-4,.76-7.87,1.69-11.74,2.75a94.14,94.14,0,0,0-11.38,3.88,45.45,45.45,0,0,0-10.46,5.79,20.19,20.19,0,0,0-4.19,4.22A10.61,10.61,0,0,0,32.47,270.18Z"/><path class="cls-15" d="M23.76,64V267.21s2.07-8.94,20.84-18.34Z"/><path class="cls-16" d="M21.72,59.23s6.35-.32,6.35,4.21L25.14,221.59V63Z"/><path class="cls-17" d="M218,42.82s-3.59,5.27-4.54,6.68l-1,122.7,3.27,39.05V48.88s.49-1.29,1.07-2.93C217.2,44.93,217.64,43.78,218,42.82Z"/><path class="cls-18" d="M217.52,144.48V272s.26,9.45-19.59,16.53c0,0,11.38-3.49,11.68-26.06S212.34,176.77,217.52,144.48Z"/><path class="cls-19" d="M9.42,51a50.6,50.6,0,0,1,13.9-.28c4.14.59,3,17.38,3,17.38V63.44s.13-4.6-8.37-6.44a57,57,0,0,0-5.72-4A9.44,9.44,0,0,1,9.42,51Z"/><path class="cls-20" d="M32.47,193.49v62.58s16.65-15.77,59.28-17.44C91.75,238.63,33,239,32.47,193.49Z"/><path class="cls-21" d="M8.22,49.78a87,87,0,0,1,9-1.2c3-.27,6-.38,9-.36a52.68,52.68,0,0,1,9,.83,25.85,25.85,0,0,1,4.39,1.25,10,10,0,0,1,3.77,2.49,10.55,10.55,0,0,0-3.92-2.09,25.61,25.61,0,0,0-4.35-1,71.92,71.92,0,0,0-8.94-.62c-3-.05-6,0-9,.15q-2.25.09-4.5.24C11.23,49.56,9.73,49.68,8.22,49.78Z"/><path class="cls-22" d="M8.22,49.78c3.12-.48,6.26-.84,9.41-1.11s6.31-.42,9.48-.43l0,.88c-3.13-.14-6.28-.13-9.43,0S11.36,49.44,8.22,49.78Z"/><g class="cls-23"><path class="cls-24" d="M48.71,53.89c6.71,1.86,13.54,3.3,20.39,4.55s13.74,2.31,20.66,3.13a322.52,322.52,0,0,0,41.68,2.29A270.62,270.62,0,0,0,173,60.37c3.45-.49,6.85-1.24,10.27-1.87l5.1-1.15,2.54-.57,2.53-.66,5.06-1.31,5-1.48,2.5-.75,2.48-.84,4.95-1.67a215.37,215.37,0,0,1-40.33,11,263.33,263.33,0,0,1-41.68,3.7c-7,.09-14-.15-20.92-.55s-13.93-1-20.85-2A269.16,269.16,0,0,1,48.71,53.89Z"/></g><g class="cls-25"><path class="cls-22" d="M130.11,64a263.36,263.36,0,0,0,56.59-6,263.33,263.33,0,0,1-56.59,6.63Z"/></g><path class="cls-26" d="M221.72,28.44c-.42-9.11-15-14.89-15-14.89,13,6.05,9.42,15.92,9.42,15.92,0,8.18-16.3,15.22-41.4,19.38a314.83,314.83,0,0,1-50.49,3.94c-25.68,0-48.89-2.68-65.56-7h0a99.94,99.94,0,0,1-11.49-3.63c-12.88-6.88-26.94-1.63-34.44-1.41a16.09,16.09,0,0,0-6.26.75,29.82,29.82,0,0,1-3.27,1A2,2,0,0,1,.83,40.15c.12-.47.32-.47.32-.47C7,31.09,35.23,15.81,35.23,15.81,51.21,6.72,87.57,3,87.57,3c43.58-4.86,85,.93,85,.93a303.55,303.55,0,0,0-50-3.89C84.12,0,50.83,6.13,34.36,15.09h0c-.12.06-30.43,17.07-34,24.58A1.89,1.89,0,0,0,0,41,9.68,9.68,0,0,0,.32,43.7a7.48,7.48,0,0,0,.84,1.89h0c1.54,2.62,3.45,3,3.45,3s28.2-6.76,40-1.77C66.05,55.88,100.08,57.15,116.41,57c15.55-.15,64.9,2.17,96.45-13.79a16,16,0,0,0,8.88-13.87C221.74,29,221.74,28.73,221.72,28.44Z"/><path class="cls-27" d="M212.86,43.21a16,16,0,0,0,8.88-13.87c0-.31,0-.61,0-.9,0,0-3.65,12-10.85,15.74Z"/><path class="cls-28" d="M76.94,51.87s11.41.38,14-.44,4.09,2.08-1,2.46-8.3.55-8.3.55L75.3,53.19S72.14,51.79,76.94,51.87Z"/><path class="cls-29" d="M11.42,43.62a10.11,10.11,0,0,0,4.37,0s1.76,2,1.16,2.17S9.11,45.12,11.42,43.62Z"/><path class="cls-29" d="M4.73,45.36s-1.65,1.4,0,2a4.19,4.19,0,0,0,3,0S5.47,44.07,4.73,45.36Z"/><path class="cls-29" d="M10.27,45.24s1.35,1,1.57,1.19-1.66.3-2.32.53-.29-1.42-1-1.72S8.69,44,10.27,45.24Z"/><path class="cls-30" d="M42.75,40.1S47,42.54,49.41,43s-2,3.85-4.57,1.42-3.87-4.52-5.33-5S42.75,40.1,42.75,40.1Z"/><path class="cls-31" d="M58.71,45.81c16.67,4.3,39.88,7,65.56,7,11.25,0,22-.52,32-1.46,0,0-57.21,7.91-99.53-6Z"/><path class="cls-32" d="M47.21,42.17a39,39,0,0,0-16.53-1.76c-8.78,1.1-26.85,4-25.57,1.76l1.4-.66a16.09,16.09,0,0,1,6.26-.75c7.5-.22,21.56-5.47,34.44,1.41"/><path class="cls-21" d="M221.19,37.76a15.2,15.2,0,0,1-3.57,4.79,33.65,33.65,0,0,1-4.83,3.57,42.1,42.1,0,0,1-11,4.8c-1,.26-1.95.48-2.94.67s-2,.31-3,.49a9,9,0,0,0-1.4.39,3.1,3.1,0,0,0-.63.32c-.18.13-.31.3-.29.42s.21.27.41.37a3.73,3.73,0,0,0,.67.21,7.76,7.76,0,0,0,1.45.16A18.29,18.29,0,0,0,202,53a29.19,29.19,0,0,0,5.49-2.35,23.21,23.21,0,0,1-11.34,3.66,7.93,7.93,0,0,1-1.53-.15,3.63,3.63,0,0,1-.75-.24,1,1,0,0,1-.62-.64.83.83,0,0,1,.44-.8,3,3,0,0,1,.7-.37,8.78,8.78,0,0,1,1.47-.43c1-.2,2-.31,3-.51s1.94-.42,2.9-.67a43.21,43.21,0,0,0,11-4.66,34.48,34.48,0,0,0,4.86-3.45A15,15,0,0,0,221.19,37.76Z"/><path class="cls-11" d="M21.75,43.62s7.68-2.34,10.34-1.36,7.21,2.05,4.55,2.37-6-1.11-11.76,0S21.75,43.62,21.75,43.62Z"/><path class="cls-33" d="M113.35,52.79a60.41,60.41,0,0,1-13.27,3.49S117,58,128,57c0,0,11.6-1,14.73-4.63l-15.83.46-9.09.08Z"/><path class="cls-34" d="M171.37,54.71s-1.88-1.56,3.35-1.92,12.8-.72,17.63-2.07A171.65,171.65,0,0,1,171.37,54.71Z"/><path class="cls-2" d="M16.62,54.85s3.61-.07,4-1.56,3.68,1.57,3.06,2.62-5.05.76-5.05.76Z"/><path class="cls-17" d="M7,50.5c1.58.71,3.15,1.45,4.68,2.28a36.89,36.89,0,0,1,4.43,2.77,30,30,0,0,1,4,3.42,31.08,31.08,0,0,1,3.33,4c-1.2-1.26-2.41-2.49-3.68-3.65a49.77,49.77,0,0,0-4-3.25c-1.38-1-2.83-1.95-4.29-2.87S8.43,51.45,7,50.5Z"/><path class="cls-35" d="M217.08,30a10.54,10.54,0,0,1-1.53,4.48A23.12,23.12,0,0,1,205,44a81.79,81.79,0,0,1-24.14,6.72c-24.24,3.34-24.56.61-24.56.61s24.66-2.52,37.83-6.72,19.54-8,21.55-12.79c.23-.57.29-2,.46-2.35C216.79,28.06,217.13,28.84,217.08,30Z"/><path class="cls-20" d="M100.08,237s81.55-7.52,110.57,22.57l.44-137.46S171.92,235.28,100.08,237Z"/><path class="cls-36" d="M100.08,278.54c4.12.67,8.24,1.13,12.37,1.42a102,102,0,0,0,12.36.14A69.56,69.56,0,0,0,137,278.43a56.35,56.35,0,0,0,5.91-1.76,54,54,0,0,0,5.68-2.52,34,34,0,0,1-5.34,3.31,43,43,0,0,1-5.89,2.3,50.55,50.55,0,0,1-6.17,1.42c-2.09.33-4.19.55-6.29.68a71.53,71.53,0,0,1-12.59-.54A62.13,62.13,0,0,1,100.08,278.54Z"/><path d="M109.81,185.24a5.1,5.1,0,0,1,2.22.47,3.69,3.69,0,0,1,1.53,1.4,4.28,4.28,0,0,1,.56,2.26,4.47,4.47,0,0,1-1.37,3.48,5.76,5.76,0,0,1-4.06,1.27,9.94,9.94,0,0,1-2-.19,6.52,6.52,0,0,1-1.65-.55V190.9a8.12,8.12,0,0,0,1.7.62,7.49,7.49,0,0,0,1.86.26,3.16,3.16,0,0,0,2-.53,1.93,1.93,0,0,0,.67-1.63c0-1.37-.9-2.06-2.72-2.06a6.14,6.14,0,0,0-1.11.11l-1,.2-1.14-.61.51-6.94h7.38v2.44h-4.86l-.25,2.67.69-.13A7,7,0,0,1,109.81,185.24Z"/><path d="M125.2,187.12a13.25,13.25,0,0,1-.47,3.76,4.67,4.67,0,0,1-1.51,2.4,4.34,4.34,0,0,1-2.79.84,3.91,3.91,0,0,1-3.6-1.85,9.81,9.81,0,0,1-1.14-5.15,13.78,13.78,0,0,1,.45-3.76,4.66,4.66,0,0,1,1.51-2.41,4.33,4.33,0,0,1,2.78-.84A4,4,0,0,1,124,182,9.72,9.72,0,0,1,125.2,187.12Zm-6.65,0a11.37,11.37,0,0,0,.4,3.5,1.49,1.49,0,0,0,1.48,1.18,1.51,1.51,0,0,0,1.49-1.17,14.84,14.84,0,0,0,0-7,1.52,1.52,0,0,0-1.49-1.19,1.5,1.5,0,0,0-1.48,1.19A11.42,11.42,0,0,0,118.55,187.12Z"/><path d="M136.11,187.12a13.25,13.25,0,0,1-.47,3.76,4.69,4.69,0,0,1-1.52,2.4,4.31,4.31,0,0,1-2.78.84,3.91,3.91,0,0,1-3.6-1.85,9.71,9.71,0,0,1-1.15-5.15,13.38,13.38,0,0,1,.46-3.76,4.6,4.6,0,0,1,1.51-2.41,4.29,4.29,0,0,1,2.78-.84,3.93,3.93,0,0,1,3.6,1.85A9.62,9.62,0,0,1,136.11,187.12Zm-6.66,0a11.69,11.69,0,0,0,.4,3.5,1.5,1.5,0,0,0,1.49,1.18,1.52,1.52,0,0,0,1.49-1.17,14.84,14.84,0,0,0,0-7,1.53,1.53,0,0,0-1.49-1.19,1.51,1.51,0,0,0-1.49,1.19A11.74,11.74,0,0,0,129.45,187.12Z"/><path d="M150.52,183.33a3.63,3.63,0,0,1,2.68.91,4,4,0,0,1,.9,2.9v6.79h-2.84v-6.08q0-2.25-1.56-2.25a1.72,1.72,0,0,0-1.6.8,4.52,4.52,0,0,0-.48,2.31v5.22h-2.84v-6.08q0-2.25-1.56-2.25a1.66,1.66,0,0,0-1.63.89,5.75,5.75,0,0,0-.45,2.54v4.9H138.3V183.52h2.17l.38,1.34H141a2.73,2.73,0,0,1,1.3-1.17,4.33,4.33,0,0,1,1.73-.36,4.49,4.49,0,0,1,1.93.37,2.66,2.66,0,0,1,1.23,1.16h.25a2.75,2.75,0,0,1,1.33-1.17A4.37,4.37,0,0,1,150.52,183.33Z"/><path d="M157.25,193.93V180.32h2.88v11.23h5.53v2.38Z"/><path d="M113.09,96.05h-2.88V88.17c0-.31,0-.74,0-1.28s0-1,.06-1.42c-.06.07-.2.21-.41.41s-.4.37-.58.52l-1.56,1.26-1.4-1.74,4.39-3.49h2.36Z"/><path d="M117.84,96.05V82.43h2.88V93.66h5.53v2.39Z"/><path class="cls-37" d="M67.29,127.32l-.17,0c-11.56-2.31-21.43-5.37-28.56-8.82a.88.88,0,0,1-.4-1.18.87.87,0,0,1,1.17-.4c7,3.39,16.72,6.39,28.13,8.68a.88.88,0,0,1-.17,1.74Z"/><path class="cls-37" d="M67.29,146.6l-.17,0c-11.56-2.32-21.43-5.37-28.56-8.83a.88.88,0,0,1,.77-1.58c7,3.4,16.72,6.4,28.13,8.68a.88.88,0,0,1-.17,1.75Z"/><path class="cls-37" d="M67.29,165.87h-.17c-11.56-2.32-21.43-5.37-28.56-8.83a.88.88,0,0,1,.77-1.58c7,3.39,16.72,6.39,28.13,8.68a.88.88,0,0,1-.17,1.74Z"/><path class="cls-38" d="M60.46,250.9a80.41,80.41,0,0,0-16.8,6.26,30.59,30.59,0,0,0-7.27,5.17,15.56,15.56,0,0,0-2.71,3.54,10.9,10.9,0,0,0-1.21,4.31,11.21,11.21,0,0,1,.91-4.45,15.83,15.83,0,0,1,2.53-3.85A31.58,31.58,0,0,1,43,256a81.3,81.3,0,0,1,16.7-7.65Z"/><path class="cls-37" d="M67.29,204.43l-.17,0c-11.56-2.32-21.43-5.37-28.56-8.82a.88.88,0,0,1-.4-1.18.87.87,0,0,1,1.17-.41c7,3.39,16.72,6.4,28.13,8.68a.88.88,0,0,1-.17,1.75Z"/><path class="cls-37" d="M67.29,223.7h-.17c-11.56-2.32-21.43-5.37-28.56-8.83a.88.88,0,0,1,.77-1.58c7,3.39,16.72,6.39,28.13,8.68a.88.88,0,0,1-.17,1.74Z"/><path class="cls-37" d="M67.29,243l-.17,0c-11.56-2.31-21.43-5.36-28.56-8.82a.88.88,0,0,1-.4-1.18.87.87,0,0,1,1.17-.4c7,3.39,16.72,6.39,28.13,8.68a.88.88,0,0,1-.17,1.74Z"/><path class="cls-37" d="M67.29,262.26l-.17,0c-11.56-2.32-21.43-5.37-28.56-8.82a.88.88,0,0,1-.4-1.18.87.87,0,0,1,1.17-.41c7,3.39,16.72,6.4,28.13,8.68a.88.88,0,0,1-.17,1.75Z"/><path class="cls-39" d="M95.64,189.31h-.1c-24.08-2.08-44.35-6.62-57.07-12.79a1.1,1.1,0,1,1,1-2c12.48,6.06,32.48,10.53,56.3,12.58a1.1,1.1,0,0,1-.09,2.2Z"/><rect class="cls-40" x="210.43" y="57.76" width="0.88" height="58.92"/><rect class="cls-40" x="28.85" y="57.76" width="0.88" height="195.08"/><path class="cls-41" d="M34.18,62.56s22,7.46,33.11,6.92L34.18,107.16Z"/><path class="cls-39" d="M95.64,92.92h-.1c-24.09-2.08-44.35-6.63-57.07-12.8A1.09,1.09,0,0,1,38,78.65a1.11,1.11,0,0,1,1.47-.51C51.91,84.2,71.9,88.67,95.73,90.73a1.1,1.1,0,0,1-.09,2.19Z"/><path class="cls-37" d="M67.29,108h-.17c-11.56-2.32-21.43-5.37-28.56-8.83a.88.88,0,0,1,.77-1.58c7,3.39,16.72,6.39,28.13,8.68a.88.88,0,0,1-.17,1.74Z"/><path class="cls-42" d="M181.69,64.2v67.43a2.64,2.64,0,0,0,5.28,0V62.9Z"/><path class="cls-6" d="M173.68,66.19l-5.28,1.3v5.27h0v87.86a2.64,2.64,0,0,0,5.28,0v-31h0Z"/><path class="cls-43" d="M71.77,3.92s8.69-1.34,12-1.72c0,0,5,.07,2.82.86,0,0-13.24,1.84-15.89,2.31S69.14,4.41,71.77,3.92Z"/><path class="cls-44" d="M67.26,277.32a12.21,12.21,0,0,1,16.08.86c3.42,3.26,9.34,6.86,19.28,8,19.43,2.19,11.29,7.8-14.42,5C68.92,289.06,60.58,282.8,67.26,277.32Z"/><path class="cls-45" d="M220.66,24.55a11.2,11.2,0,0,1,1,6.38s-.9-6.3-1.32-7"/><path class="cls-42" d="M37.45,199.17c3.7,17.32,4.21,25.43,6.3,33.83C48,250.08,59.69,283,87,286.48c37,4.7,12.6,6.24-4.36,3.9s-49.15-6.15-48.41-29,0-81.27,0-81.27Z"/><path class="cls-38" d="M164.47,244.44A132.59,132.59,0,0,1,190,252.3,52.17,52.17,0,0,1,201.56,259a21.61,21.61,0,0,1,4.59,4.86,11,11,0,0,1,2,6.28,10.83,10.83,0,0,0-2.26-6.09,21.36,21.36,0,0,0-4.72-4.53,51.77,51.77,0,0,0-11.65-6.05A131.66,131.66,0,0,0,164,247Z"/><g class="cls-46"><path class="cls-40" d="M69.21,18.35a1.76,1.76,0,0,1-.37-3.48c.36-.08,36.2-7.54,71.58-3.86a1.76,1.76,0,0,1-.37,3.5c-34.81-3.62-70.13,3.73-70.48,3.8A1.47,1.47,0,0,1,69.21,18.35Z"/></g><g class="cls-47"><path class="cls-40" d="M188.93,21.59a1.89,1.89,0,0,1-.53-.08c-18.17-5.72-40.72-7-41-7a1.76,1.76,0,1,1,.2-3.51c.23,0,23.21,1.33,41.81,7.18a1.76,1.76,0,0,1-.53,3.44Z"/></g><g class="cls-48"><path class="cls-40" d="M115.85,56.15c-4.38,0-7.3,0-7.74,0a1.33,1.33,0,0,1-1.3-1.34,1.35,1.35,0,0,1,1.33-1.3c.43,0,42.72.39,59.2-2a1.32,1.32,0,0,1,.38,2.61C155.22,55.91,129,56.15,115.85,56.15Z"/></g><path class="cls-49" d="M85.17,50.58s-21,3.87-35.76-7.59l3.6,1.2,3.74,1.09,6.55,1.63,6.59,1.35,5.17.9,5.49.82Z"/></g></g></svg>