<svg xmlns="http://www.w3.org/2000/svg" xmlns:xlink="http://www.w3.org/1999/xlink" viewBox="0 0 317.74 246.11"><defs><style>.cls-1{fill:url(#linear-gradient);}.cls-2{fill:#fff;}.cls-3{fill:#f59300;}.cls-4{fill:#ffa80d;}.cls-5{fill:#ff9200;}.cls-6{fill:#ffad0a;}</style><linearGradient id="linear-gradient" x1="158.87" y1="0.48" x2="158.87" y2="242.52" gradientUnits="userSpaceOnUse"><stop offset="0" stop-color="#ffcc3b"/><stop offset="0.28" stop-color="#ffcd27"/><stop offset="1" stop-color="#ffb200"/></linearGradient></defs><g id="Layer_2" data-name="Layer 2"><g id="Layer_1-2" data-name="Layer 1"><path class="cls-1" d="M21.73,0H296a21.73,21.73,0,0,1,21.73,21.73V243.39a0,0,0,0,1,0,0H0a0,0,0,0,1,0,0V21.73A21.73,21.73,0,0,1,21.73,0Z"/><rect class="cls-2" x="164.51" y="68.47" width="143.16" height="164.85"/><path class="cls-3" d="M308.17,233.82H164V68H308.17Zm-143.16-1H307.16V69H165Z"/><rect class="cls-2" x="10.08" y="68.47" width="143.16" height="164.85"/><path class="cls-3" d="M153.74,233.82H9.57V68H153.74Zm-143.16-1H152.73V69H10.58Z"/><path class="cls-4" d="M164.51,10.08H285.94A21.73,21.73,0,0,1,307.67,31.8V59.85a0,0,0,0,1,0,0H164.51a0,0,0,0,1,0,0V10.08A0,0,0,0,1,164.51,10.08Z"/><path class="cls-4" d="M31.8,10.08H153.23a0,0,0,0,1,0,0V59.85a0,0,0,0,1,0,0H10.08a0,0,0,0,1,0,0V31.8A21.73,21.73,0,0,1,31.8,10.08Z"/><path class="cls-2" d="M56.64,36.53c-.15,3.18-.33,5.86-.57,8a2.93,2.93,0,0,1-.9,1.78,2.81,2.81,0,0,1-2.1.59,2.15,2.15,0,0,1-1.72-.75,3.42,3.42,0,0,1-.57-1.86q-.08-2-.09-4.32c0-1.54,0-3.1,0-4.68s0-3.13,0-4.67,0-3,.09-4.35l-2.61,0H45.74a2,2,0,0,1-1.55-.58,2.89,2.89,0,0,1-.6-2,2.61,2.61,0,0,1,.56-1.89,2.15,2.15,0,0,1,1.41-.72q4.44-.29,8.63-.35t8.3-.07a1.52,1.52,0,0,1,1.16.47,2.33,2.33,0,0,1,.46,1.64,3.37,3.37,0,0,1-.47,2.06,1.79,1.79,0,0,1-1.26.66c-.87.09-1.74.17-2.62.24s-1.83.13-2.84.18C56.87,29.82,56.78,33.34,56.64,36.53Z"/><path class="cls-2" d="M78.07,40.17a3.4,3.4,0,0,1,1.24.56A3.14,3.14,0,0,1,80.37,42a1.68,1.68,0,0,1-.14,1.54,6.3,6.3,0,0,1-3,2.46,13.48,13.48,0,0,1-5.1,1c-3.39,0-5.89-.77-7.53-2.37A9,9,0,0,1,62.1,37.8a13.34,13.34,0,0,1,.6-4.09,8.56,8.56,0,0,1,4.72-5.34,10.81,10.81,0,0,1,4-.9,9.5,9.5,0,0,1,4.28.74,9,9,0,0,1,3.19,2.28,8.51,8.51,0,0,1,1.82,3.29A8.87,8.87,0,0,1,81,37.66a2.45,2.45,0,0,1-.32.92.83.83,0,0,1-.67.35c-2.09.17-4.16.32-6.19.46s-4.1.27-6.19.39a2.07,2.07,0,0,0,1.11,2.06,8,8,0,0,0,3.48.58,7.25,7.25,0,0,0,4.72-1.73A1.59,1.59,0,0,1,78.07,40.17Zm-4.51-4.73,1.8-.18A2.68,2.68,0,0,0,74.44,33a4.42,4.42,0,0,0-3.17-.68,3.9,3.9,0,0,0-2.93,1.16,3.55,3.55,0,0,0-.77,2.4c.3,0,.8,0,1.48-.07l2.2-.16Z"/><path class="cls-2" d="M88.83,39.64c0,1.34,0,2.9-.07,4.69a3.81,3.81,0,0,1-.51,1.86,2,2,0,0,1-1.68.75,2.85,2.85,0,0,1-2.08-.57,2.58,2.58,0,0,1-.81-1.76c-.21-2.35-.38-4.75-.53-7.2s-.21-5-.21-7.82a2.92,2.92,0,0,1,.11-.8,1.41,1.41,0,0,1,.42-.65,2.42,2.42,0,0,1,.88-.46,6.42,6.42,0,0,1,1.48-.24,6.8,6.8,0,0,1,1.52,0,1.66,1.66,0,0,1,.86.36,1.29,1.29,0,0,1,.41.72,8.37,8.37,0,0,1,.17,1.2A4.87,4.87,0,0,1,91,28.16a9.47,9.47,0,0,1,2.81-.65,9.23,9.23,0,0,1,2.87.22,6,6,0,0,1,2.29,1.12,5.24,5.24,0,0,1,1.52,2,7,7,0,0,1,.55,2.84c0,1.5,0,2.84-.06,4s-.08,2.2-.14,3.12-.13,1.73-.23,2.45a18.31,18.31,0,0,1-.35,2,2,2,0,0,1-1.07,1.41,3.37,3.37,0,0,1-1.79.39,2.42,2.42,0,0,1-1.2-.48A2,2,0,0,1,95.57,45c0-.66-.08-1.39-.09-2.17s0-1.59,0-2.4v-4.6a3.15,3.15,0,0,0-1-2.51A3.52,3.52,0,0,0,92,32.58a3.3,3.3,0,0,0-2.31.9,3,3,0,0,0-.79,2.14C88.87,36.93,88.85,38.27,88.83,39.64Z"/><path class="cls-2" d="M105.33,45.56a3.89,3.89,0,0,1-1.16-.88,2.55,2.55,0,0,1-.81-1.59,2.27,2.27,0,0,1,.6-1.66,2,2,0,0,1,1.28-.86,1.76,1.76,0,0,1,1.08.23,11.71,11.71,0,0,0,3.31,1.27,11.16,11.16,0,0,0,3.28.21,1.23,1.23,0,0,0,.59-.21.8.8,0,0,0,.33-.46.77.77,0,0,0-.46-.92q-1.49-.6-3.24-1.14c-1.18-.37-2.33-.78-3.46-1.25a6.93,6.93,0,0,1-2.91-2.12,4.77,4.77,0,0,1-.9-3.42,4.93,4.93,0,0,1,2.3-3.74,10.28,10.28,0,0,1,5.46-1.55,15.45,15.45,0,0,1,2.33.11,14.26,14.26,0,0,1,2.27.44,12.74,12.74,0,0,1,2,.72,5.57,5.57,0,0,1,1.39.88,2.9,2.9,0,0,1,.85,1.55,2.46,2.46,0,0,1-.32,1.66,2.82,2.82,0,0,1-1.34,1.22,1.44,1.44,0,0,1-1.27,0,15,15,0,0,0-3.16-1.37,12.28,12.28,0,0,0-3-.56,2.6,2.6,0,0,0-1.2.14,1.08,1.08,0,0,0-.57.67,1.13,1.13,0,0,0,.67,1.51,28,28,0,0,0,3.18,1.22c1.19.39,2.37.78,3.52,1.18A5.66,5.66,0,0,1,119,39a4.49,4.49,0,0,1,.54,3.25A4.58,4.58,0,0,1,117,45.81a13.78,13.78,0,0,1-6,1,14.24,14.24,0,0,1-2.05-.15,13.08,13.08,0,0,1-1.94-.46A12.41,12.41,0,0,1,105.33,45.56Z"/><path class="cls-2" d="M218.26,39.21a12.17,12.17,0,0,1-2.77,4.09,12.35,12.35,0,0,1-4.07,2.63,14.26,14.26,0,0,1-4.93,1,13.66,13.66,0,0,1-5-.78,11.08,11.08,0,0,1-4-2.54,12.42,12.42,0,0,1-2.74-4.14,15,15,0,0,1-1-5.63,14.6,14.6,0,0,1,.9-5.2,12.47,12.47,0,0,1,2.56-4.16,12.19,12.19,0,0,1,4-2.84,15.16,15.16,0,0,1,5.29-1.23,12.29,12.29,0,0,1,5.21.72,10.79,10.79,0,0,1,4.06,2.68,12.11,12.11,0,0,1,2.61,4.34,16.77,16.77,0,0,1,.92,5.69A13.52,13.52,0,0,1,218.26,39.21Zm-9.09,1.94a6.93,6.93,0,0,0,2.3-1.65A7.5,7.5,0,0,0,213,36.94a9.65,9.65,0,0,0,.55-3.37,9.86,9.86,0,0,0-.57-3.49,7.21,7.21,0,0,0-1.53-2.54A6.14,6.14,0,0,0,209.18,26a7,7,0,0,0-2.69-.45,7.27,7.27,0,0,0-2.84.67,6.38,6.38,0,0,0-2.21,1.67A8.07,8.07,0,0,0,200,30.49a9.62,9.62,0,0,0-.53,3.29,9.79,9.79,0,0,0,.56,3.41,8.08,8.08,0,0,0,1.5,2.53,5.94,5.94,0,0,0,2.19,1.57,6.18,6.18,0,0,0,2.62.5A7.19,7.19,0,0,0,209.17,41.15Z"/><path class="cls-2" d="M227.11,39.64c0,1.34,0,2.9-.07,4.69a3.61,3.61,0,0,1-.51,1.86,2,2,0,0,1-1.67.75,2.83,2.83,0,0,1-2.08-.57,2.58,2.58,0,0,1-.81-1.76c-.22-2.35-.39-4.75-.53-7.2s-.22-5-.22-7.82a2.92,2.92,0,0,1,.11-.8,1.41,1.41,0,0,1,.42-.65,2.48,2.48,0,0,1,.89-.46,6.23,6.23,0,0,1,1.48-.24,6.71,6.71,0,0,1,1.51,0,1.66,1.66,0,0,1,.87.36,1.28,1.28,0,0,1,.4.72,9.79,9.79,0,0,1,.18,1.2,4.87,4.87,0,0,1,2.17-1.57,9.41,9.41,0,0,1,2.8-.65,9.23,9.23,0,0,1,2.87.22,6,6,0,0,1,2.3,1.12,5.22,5.22,0,0,1,1.51,2,6.79,6.79,0,0,1,.55,2.84c0,1.5,0,2.84-.05,4s-.09,2.2-.14,3.12-.14,1.73-.23,2.45-.22,1.37-.36,2a2,2,0,0,1-1.07,1.41,3.33,3.33,0,0,1-1.78.39,2.35,2.35,0,0,1-1.2-.48,2,2,0,0,1-.6-1.53c0-.66-.08-1.39-.09-2.17s0-1.59,0-2.4v-4.6a3.15,3.15,0,0,0-1-2.51,3.52,3.52,0,0,0-2.47-.74,3.3,3.3,0,0,0-2.31.9,3,3,0,0,0-.79,2.14C227.15,36.93,227.14,38.27,227.11,39.64Z"/><path class="cls-2" d="M257.09,40.17a3.45,3.45,0,0,1,1.23.56A3.06,3.06,0,0,1,259.38,42a1.68,1.68,0,0,1-.14,1.54A6.25,6.25,0,0,1,256.19,46a13.44,13.44,0,0,1-5.1,1q-5.07,0-7.53-2.37a9,9,0,0,1-2.45-6.77,13.34,13.34,0,0,1,.6-4.09,8.53,8.53,0,0,1,4.73-5.34,10.71,10.71,0,0,1,4-.9,9.5,9.5,0,0,1,4.28.74,8.92,8.92,0,0,1,3.19,2.28,8.51,8.51,0,0,1,1.82,3.29,8.87,8.87,0,0,1,.23,3.88,2.45,2.45,0,0,1-.32.92.83.83,0,0,1-.67.35q-3.14.26-6.19.46t-6.19.39a2.07,2.07,0,0,0,1.11,2.06,8,8,0,0,0,3.48.58,7.25,7.25,0,0,0,4.72-1.73A1.59,1.59,0,0,1,257.09,40.17Zm-4.52-4.73,1.8-.18a2.68,2.68,0,0,0-.92-2.31,4.41,4.41,0,0,0-3.17-.68,3.9,3.9,0,0,0-2.93,1.16,3.55,3.55,0,0,0-.77,2.4c.3,0,.8,0,1.48-.07l2.2-.16Z"/><path class="cls-2" d="M264.21,45.56a3.89,3.89,0,0,1-1.16-.88,2.52,2.52,0,0,1-.82-1.59,2.36,2.36,0,0,1,.6-1.66,2.07,2.07,0,0,1,1.29-.86,1.76,1.76,0,0,1,1.08.23,11.59,11.59,0,0,0,3.31,1.27,11.14,11.14,0,0,0,3.28.21,1.2,1.2,0,0,0,.58-.21.78.78,0,0,0-.12-1.38q-1.49-.6-3.24-1.14c-1.18-.37-2.33-.78-3.46-1.25a6.93,6.93,0,0,1-2.91-2.12,4.68,4.68,0,0,1-.9-3.42A4.91,4.91,0,0,1,264,29a10.35,10.35,0,0,1,5.47-1.55,15.45,15.45,0,0,1,2.33.11,14.71,14.71,0,0,1,2.27.44,12.74,12.74,0,0,1,2,.72,5.76,5.76,0,0,1,1.39.88,2.9,2.9,0,0,1,.85,1.55,2.52,2.52,0,0,1-.32,1.66,2.86,2.86,0,0,1-1.34,1.22,1.44,1.44,0,0,1-1.27,0,15.19,15.19,0,0,0-3.16-1.37,12.35,12.35,0,0,0-3-.56,2.65,2.65,0,0,0-1.2.14,1.07,1.07,0,0,0-.56.67,1.13,1.13,0,0,0,.67,1.51,27.83,27.83,0,0,0,3.17,1.22c1.2.39,2.38.78,3.53,1.18a5.63,5.63,0,0,1,3,2.15,4.49,4.49,0,0,1,.55,3.25,4.61,4.61,0,0,1-2.54,3.56,13.78,13.78,0,0,1-6,1,14,14,0,0,1-2.05-.15,12.79,12.79,0,0,1-1.94-.46A12.41,12.41,0,0,1,264.21,45.56Z"/><rect class="cls-5" y="243.39" width="317.74" height="2.72"/><rect class="cls-6" x="158.37" y="10.08" width="1.01" height="223.24"/></g></g></svg>