<svg xmlns="http://www.w3.org/2000/svg" xmlns:xlink="http://www.w3.org/1999/xlink" viewBox="0 0 288.3 288.3"><defs><style>.cls-1{fill:url(#linear-gradient);}.cls-2{fill:#ffb90e;}.cls-3{fill:#ffad00;}.cls-4{fill:#fff;}.cls-5{fill:#e29200;}.cls-10,.cls-6{opacity:0.35;}.cls-7{opacity:0.5;}.cls-8{fill:#e78100;}.cls-9{fill:#ffb407;}.cls-10{fill:#ffff95;}.cls-11{fill:#ffffab;opacity:0.3;}.cls-12{fill:#f90;}.cls-13{fill:#ffc400;}.cls-14{fill:#ffb327;}</style><linearGradient id="linear-gradient" x1="144.15" y1="-1.3" x2="144.15" y2="288.45" gradientUnits="userSpaceOnUse"><stop offset="0" stop-color="#ffc93b"/><stop offset="0.28" stop-color="#ffca27"/><stop offset="1" stop-color="#ffaf00"/></linearGradient></defs><g id="Layer_2" data-name="Layer 2"><g id="Layer_1-2" data-name="Layer 1"><path class="cls-1" d="M1,144.15a143.06,143.06,0,1,1,.78,15A143.15,143.15,0,0,1,1,144.15Z"/><path class="cls-2" d="M1.79,159.16s180.31,30.3,261-95.16a143.15,143.15,0,1,1-261,95.16"/><path class="cls-3" d="M34.11,235.71A143.15,143.15,0,0,0,287.3,144.15S222.88,271.7,29.23,229.49Z"/><circle class="cls-4" cx="144.15" cy="144.15" r="121.6"/><path class="cls-5" d="M144.15,266.76A122.61,122.61,0,1,1,266.76,144.15,122.74,122.74,0,0,1,144.15,266.76Zm0-243.2A120.59,120.59,0,1,0,264.74,144.15,120.73,120.73,0,0,0,144.15,23.56Z"/><g class="cls-6"><path class="cls-4" d="M144,275.09a124.85,124.85,0,0,1-86.21-33.91,2,2,0,0,1,2.77-2.93A120.83,120.83,0,0,0,144,271.06c33.06,0,64.89-13.37,87.34-36.67a2,2,0,1,1,2.91,2.79C211,261.27,178.12,275.09,144,275.09Z"/></g><g class="cls-7"><path class="cls-4" d="M228.09,46.75a2,2,0,0,1-1.36-.53c-21.69-20-50.39-31.07-80.82-31.07a2,2,0,1,1,0-4c31.45,0,61.12,11.42,83.55,32.14a2,2,0,0,1,.11,2.85A2,2,0,0,1,228.09,46.75Z"/></g><circle class="cls-8" cx="144.54" cy="145.32" r="7.82"/><circle class="cls-9" cx="144.15" cy="144.15" r="7.82"/><ellipse class="cls-10" cx="46.68" cy="54.03" rx="25.75" ry="9.89" transform="translate(-24.53 48.83) rotate(-45)"/><ellipse class="cls-11" cx="82.23" cy="25.8" rx="14.11" ry="7.88" transform="translate(-1.88 44.57) rotate(-30)"/><path d="M142,65.77h-3.35V56.62q0-.55,0-1.5t.06-1.65a5.1,5.1,0,0,1-.48.48c-.24.23-.46.43-.67.61L135.73,56l-1.62-2,5.1-4.06H142Z"/><path d="M157.43,65.77H146.37V63.45l4-4c.8-.83,1.44-1.52,1.93-2.08a7.24,7.24,0,0,0,1.06-1.5,3.29,3.29,0,0,0,.33-1.46,1.78,1.78,0,0,0-.52-1.41,2.05,2.05,0,0,0-1.41-.47,4,4,0,0,0-1.77.42,9.46,9.46,0,0,0-1.82,1.2L146.33,52a13.63,13.63,0,0,1,1.44-1.1,6.66,6.66,0,0,1,1.78-.84,7.87,7.87,0,0,1,2.43-.32,6,6,0,0,1,2.67.56,4.31,4.31,0,0,1,1.73,1.53A4.05,4.05,0,0,1,157,54a5.54,5.54,0,0,1-.52,2.39A8.9,8.9,0,0,1,155,58.55c-.66.71-1.45,1.49-2.38,2.35l-2,1.9V63h6.89Z"/><path d="M138.38,231a17.31,17.31,0,0,1,.2-2.69,10.37,10.37,0,0,1,.69-2.53,6.77,6.77,0,0,1,1.4-2.1,6.16,6.16,0,0,1,2.28-1.45,9.8,9.8,0,0,1,3.36-.52c.31,0,.67,0,1.09,0a6.64,6.64,0,0,1,1,.12v2.68c-.28-.06-.59-.11-.92-.15a6.59,6.59,0,0,0-1-.07,6.23,6.23,0,0,0-3.05.62,3.38,3.38,0,0,0-1.51,1.74,7.78,7.78,0,0,0-.51,2.58h.13a3.86,3.86,0,0,1,1.27-1.31,4,4,0,0,1,2.17-.53,4.32,4.32,0,0,1,3.3,1.31,5.24,5.24,0,0,1,1.22,3.7,5.52,5.52,0,0,1-1.45,4,5.32,5.32,0,0,1-3.94,1.46,5.84,5.84,0,0,1-2.92-.74,5.25,5.25,0,0,1-2.09-2.29A8.62,8.62,0,0,1,138.38,231Zm5.71,4.26a2.08,2.08,0,0,0,1.6-.68,3,3,0,0,0,.62-2.09,2.86,2.86,0,0,0-.53-1.82,2,2,0,0,0-1.62-.67,2.4,2.4,0,0,0-1.3.34,2.5,2.5,0,0,0-.85.83,1.88,1.88,0,0,0-.31,1,4,4,0,0,0,.27,1.44,2.6,2.6,0,0,0,.81,1.16A1.94,1.94,0,0,0,144.09,235.28Z"/><path d="M236.69,139.58a3.53,3.53,0,0,1-1,2.61,5,5,0,0,1-2.43,1.33v.07a5,5,0,0,1,2.88,1.18,3.2,3.2,0,0,1,1,2.48,4.63,4.63,0,0,1-.68,2.47,4.52,4.52,0,0,1-2.08,1.73,8.94,8.94,0,0,1-3.62.63,11.5,11.5,0,0,1-4.57-.86v-2.84a9.52,9.52,0,0,0,2.13.77,8.8,8.8,0,0,0,2.08.27,3.93,3.93,0,0,0,2.52-.62,2.18,2.18,0,0,0,.72-1.75,1.81,1.81,0,0,0-.34-1.11,2.08,2.08,0,0,0-1.16-.7,9.27,9.27,0,0,0-2.32-.23h-1.19v-2.57h1.22a6.69,6.69,0,0,0,2.22-.28,1.89,1.89,0,0,0,1-.75,2.21,2.21,0,0,0,.27-1.1,1.7,1.7,0,0,0-.52-1.32,2.55,2.55,0,0,0-1.74-.47,4.65,4.65,0,0,0-2,.39,13.08,13.08,0,0,0-1.4.76l-1.55-2.31a8.73,8.73,0,0,1,2.18-1.1,8.88,8.88,0,0,1,3-.45,6.67,6.67,0,0,1,3.86,1A3.17,3.17,0,0,1,236.69,139.58Z"/><path d="M63.1,142.79a17.43,17.43,0,0,1-.2,2.7,10,10,0,0,1-.7,2.52,6.62,6.62,0,0,1-1.39,2.11,6.27,6.27,0,0,1-2.28,1.44,9.57,9.57,0,0,1-3.36.52l-1.09,0a10.43,10.43,0,0,1-1-.12v-2.69l.93.16a8.06,8.06,0,0,0,1,.06,6.05,6.05,0,0,0,3-.62,3.35,3.35,0,0,0,1.52-1.74,7.68,7.68,0,0,0,.51-2.58h-.13a4.15,4.15,0,0,1-1.23,1.31,4,4,0,0,1-2.27.53,4.18,4.18,0,0,1-3.24-1.31,5.22,5.22,0,0,1-1.22-3.7,5.49,5.49,0,0,1,1.45-4,5.28,5.28,0,0,1,3.94-1.46,5.74,5.74,0,0,1,2.92.74,5.23,5.23,0,0,1,2.09,2.28A8.78,8.78,0,0,1,63.1,142.79Zm-5.72-4.25a2,2,0,0,0-1.59.67,3,3,0,0,0-.62,2.1,2.82,2.82,0,0,0,.53,1.82,1.94,1.94,0,0,0,1.62.66,2.46,2.46,0,0,0,1.28-.33,2.57,2.57,0,0,0,.87-.83,2,2,0,0,0,.31-1,4,4,0,0,0-.27-1.44,2.78,2.78,0,0,0-.8-1.17A2,2,0,0,0,57.38,138.54Z"/><path d="M70.42,106.68H67.07V97.52c0-.36,0-.86,0-1.49s0-1.18.06-1.65a6.52,6.52,0,0,1-.47.47c-.25.23-.47.44-.68.61l-1.82,1.47-1.62-2,5.1-4.06h2.75Z"/><path d="M85.8,98.77a15.4,15.4,0,0,1-.54,4.36,5.48,5.48,0,0,1-1.76,2.8,5,5,0,0,1-3.24,1,4.58,4.58,0,0,1-4.19-2.15,11.42,11.42,0,0,1-1.33-6,16,16,0,0,1,.53-4.38A5.41,5.41,0,0,1,77,91.58a5,5,0,0,1,3.23-1,4.61,4.61,0,0,1,4.19,2.15A11.29,11.29,0,0,1,85.8,98.77Zm-7.73,0a13.38,13.38,0,0,0,.46,4.06,1.78,1.78,0,0,0,3.46,0,12.6,12.6,0,0,0,.49-4.07A12.71,12.71,0,0,0,82,94.69a1.77,1.77,0,0,0-3.46,0A13.48,13.48,0,0,0,78.07,98.77Z"/><path d="M69.35,177.74a7,7,0,0,1,2.51.43,4.09,4.09,0,0,1,1.84,1.27,3.21,3.21,0,0,1,.7,2.12,3.41,3.41,0,0,1-.81,2.35,6.62,6.62,0,0,1-2,1.5,11.77,11.77,0,0,1,1.6,1,5,5,0,0,1,1.24,1.39,3.48,3.48,0,0,1,.48,1.84,3.78,3.78,0,0,1-.7,2.28,4.47,4.47,0,0,1-2,1.51,7.41,7.41,0,0,1-2.89.53,6.59,6.59,0,0,1-4.11-1.13,3.71,3.71,0,0,1-1.46-3.1,3.84,3.84,0,0,1,.89-2.63,7,7,0,0,1,2.15-1.63,6.8,6.8,0,0,1-1.8-1.61,3.65,3.65,0,0,1-.75-2.36,3.19,3.19,0,0,1,.71-2.09,4.22,4.22,0,0,1,1.88-1.27A7,7,0,0,1,69.35,177.74Zm-2.46,11.82A1.83,1.83,0,0,0,67.5,191a2.59,2.59,0,0,0,1.8.55,2.86,2.86,0,0,0,1.87-.53,1.8,1.8,0,0,0,.62-1.42,1.63,1.63,0,0,0-.36-1.05,3.65,3.65,0,0,0-.88-.82c-.36-.25-.71-.47-1.07-.68l-.29-.15A5.62,5.62,0,0,0,67.52,188,2.13,2.13,0,0,0,66.89,189.56Zm2.44-9.38a2.2,2.2,0,0,0-1.37.43,1.45,1.45,0,0,0-.54,1.19,1.67,1.67,0,0,0,.58,1.33,5.75,5.75,0,0,0,1.35.89,5.84,5.84,0,0,0,1.33-.86,1.7,1.7,0,0,0,.57-1.36,1.43,1.43,0,0,0-.55-1.19A2.22,2.22,0,0,0,69.33,180.18Z"/><path d="M224.41,106.68H213.35v-2.33l4-4c.8-.83,1.44-1.52,1.93-2.07a7.24,7.24,0,0,0,1.07-1.51,3.25,3.25,0,0,0,.33-1.45,1.83,1.83,0,0,0-.52-1.42,2.05,2.05,0,0,0-1.41-.47,3.85,3.85,0,0,0-1.77.43A9.87,9.87,0,0,0,215.12,95l-1.82-2.15a16,16,0,0,1,1.44-1.09,7.06,7.06,0,0,1,1.79-.85,8.16,8.16,0,0,1,2.42-.32,5.78,5.78,0,0,1,2.67.57,4.11,4.11,0,0,1,1.73,1.53,4,4,0,0,1,.61,2.18,5.4,5.4,0,0,1-.52,2.39,8.65,8.65,0,0,1-1.5,2.15c-.66.71-1.46,1.5-2.39,2.35l-2,1.91v.15h6.9Z"/><path d="M225.1,190.49h-1.9v3.28h-3.26v-3.28h-6.76v-2.33l6.93-10.22h3.09v9.95h1.9Zm-5.16-2.6v-2.68c0-.34,0-.75,0-1.24s0-.94,0-1.36,0-.7.06-.83H220c-.13.29-.28.58-.43.86s-.33.57-.52.87l-2.91,4.38Z"/><path d="M102.79,75.17H99.45V66c0-.37,0-.87,0-1.5s0-1.18.06-1.65a6,6,0,0,1-.47.48l-.68.61-1.81,1.46L95,63.4l5.1-4h2.74Z"/><path d="M115.47,75.17h-3.35V66q0-.55,0-1.5t.06-1.65a6,6,0,0,1-.47.48l-.68.61-1.82,1.46-1.62-2,5.1-4h2.75Z"/><path d="M97.23,223.53l5.94-13H95.36V207.7h11.35v2.11l-6,13.72Z"/><path d="M193,77.19h-3.35V68c0-.37,0-.87,0-1.49s0-1.18.06-1.66a6,6,0,0,1-.47.48l-.68.61-1.82,1.46-1.61-2,5.09-4.06H193Z"/><path d="M188.47,214.43A5.75,5.75,0,0,1,191,215a4.16,4.16,0,0,1,1.79,1.61,5,5,0,0,1,.65,2.64,5.27,5.27,0,0,1-1.59,4,6.77,6.77,0,0,1-4.73,1.47,11.59,11.59,0,0,1-2.33-.22,7.46,7.46,0,0,1-1.92-.64V221a10.08,10.08,0,0,0,4.14,1,3.66,3.66,0,0,0,2.28-.61,2.23,2.23,0,0,0,.78-1.89c0-1.6-1.05-2.39-3.17-2.39a7.18,7.18,0,0,0-1.28.12c-.45.08-.82.16-1.11.23l-1.33-.71.6-8.07h8.58v2.84h-5.66l-.29,3.1.81-.14A7.49,7.49,0,0,1,188.47,214.43Z"/><path class="cls-12" d="M144.15,40.82a2,2,0,0,1-2-2V31.62a2,2,0,0,1,4,0v7.19A2,2,0,0,1,144.15,40.82Z"/><path class="cls-12" d="M91.48,54.94a2.05,2.05,0,0,1-1.75-1L86.14,47.7a2,2,0,1,1,3.49-2l3.59,6.22a2,2,0,0,1-.73,2.76A2.07,2.07,0,0,1,91.48,54.94Z"/><path class="cls-12" d="M52.92,93.49a2,2,0,0,1-1-.27l-6.22-3.59a2,2,0,0,1,2-3.49l6.23,3.59a2,2,0,0,1-1,3.76Z"/><path class="cls-12" d="M38.81,146.17H31.62a2,2,0,0,1,0-4h7.19a2,2,0,0,1,0,4Z"/><path class="cls-12" d="M46.7,202.43a2,2,0,0,1-1-3.76l6.22-3.59a2,2,0,1,1,2,3.49l-6.23,3.59A1.91,1.91,0,0,1,46.7,202.43Z"/><path class="cls-12" d="M87.88,243.62a2,2,0,0,1-1.74-3l3.59-6.22a2,2,0,1,1,3.49,2l-3.59,6.22A2,2,0,0,1,87.88,243.62Z"/><path class="cls-12" d="M144.15,258.7a2,2,0,0,1-2-2V249.5a2,2,0,1,1,4,0v7.18A2,2,0,0,1,144.15,258.7Z"/><path class="cls-12" d="M200.42,243.62a2,2,0,0,1-1.75-1l-3.59-6.22a2,2,0,1,1,3.49-2l3.59,6.22a2,2,0,0,1-1.74,3Z"/><path class="cls-12" d="M241.6,202.43a1.93,1.93,0,0,1-1-.27l-6.22-3.59a2,2,0,0,1,2-3.49l6.22,3.59a2,2,0,0,1-1,3.76Z"/><path class="cls-12" d="M256.68,146.17H249.5a2,2,0,1,1,0-4h7.18a2,2,0,1,1,0,4Z"/><path class="cls-12" d="M235.38,93.49a2,2,0,0,1-1-3.76l6.22-3.59a2,2,0,0,1,2,3.49l-6.22,3.59A1.94,1.94,0,0,1,235.38,93.49Z"/><path class="cls-12" d="M196.82,54.94a2,2,0,0,1-1.74-3l3.59-6.22a2,2,0,0,1,3.49,2l-3.59,6.23A2,2,0,0,1,196.82,54.94Z"/><path class="cls-13" d="M133.14,39.89a.51.51,0,0,1-.5-.45l-.75-7.15a.5.5,0,0,1,1-.11l.75,7.15a.51.51,0,0,1-.45.56Z"/><path class="cls-13" d="M122.25,41.61a.5.5,0,0,1-.49-.4l-1.5-7a.49.49,0,0,1,.39-.59.5.5,0,0,1,.6.39l1.49,7a.5.5,0,0,1-.39.6Z"/><path class="cls-13" d="M111.6,44.47a.51.51,0,0,1-.48-.35l-2.22-6.84a.5.5,0,0,1,.32-.63.51.51,0,0,1,.64.32l2.22,6.84a.5.5,0,0,1-.33.63A.4.4,0,0,1,111.6,44.47Z"/><path class="cls-13" d="M101.3,48.42a.51.51,0,0,1-.46-.3l-2.92-6.57a.5.5,0,0,1,.92-.41l2.92,6.57a.49.49,0,0,1-.25.66A.54.54,0,0,1,101.3,48.42Z"/><path class="cls-13" d="M82.23,59.43a.51.51,0,0,1-.41-.21L77.6,53.41a.52.52,0,0,1,.11-.71.51.51,0,0,1,.71.12l4.22,5.81a.51.51,0,0,1-.11.7A.47.47,0,0,1,82.23,59.43Z"/><path class="cls-13" d="M73.66,66.37a.51.51,0,0,1-.37-.17l-4.81-5.34a.5.5,0,1,1,.75-.67L74,65.53a.51.51,0,0,1-.38.84Z"/><path class="cls-13" d="M65.87,74.17a.55.55,0,0,1-.34-.13l-5.34-4.81a.5.5,0,0,1,.67-.75l5.34,4.81a.5.5,0,0,1,0,.71A.51.51,0,0,1,65.87,74.17Z"/><path class="cls-13" d="M58.93,82.74a.54.54,0,0,1-.3-.1l-5.81-4.23a.49.49,0,0,1-.11-.7.51.51,0,0,1,.7-.11l5.81,4.22a.51.51,0,0,1-.29.92Z"/><path class="cls-13" d="M47.91,101.81a.53.53,0,0,1-.2,0l-6.57-2.92a.5.5,0,0,1,.41-.92l6.57,2.92a.52.52,0,0,1,.26.67A.51.51,0,0,1,47.91,101.81Z"/><path class="cls-13" d="M44,112.1l-.15,0L37,109.86a.51.51,0,0,1-.32-.64.5.5,0,0,1,.63-.32l6.84,2.22a.5.5,0,0,1,.32.63A.49.49,0,0,1,44,112.1Z"/><path class="cls-13" d="M41.11,122.75H41l-7-1.49a.51.51,0,1,1,.21-1l7,1.5a.49.49,0,0,1,.39.59A.5.5,0,0,1,41.11,122.75Z"/><path class="cls-13" d="M39.39,133.64h-.06l-7.15-.75a.5.5,0,0,1-.44-.55.5.5,0,0,1,.55-.45l7.15.75a.52.52,0,0,1,.45.55A.51.51,0,0,1,39.39,133.64Z"/><path class="cls-13" d="M32.24,156.42a.49.49,0,0,1-.5-.45.51.51,0,0,1,.44-.56l7.15-.75a.51.51,0,0,1,.56.45.51.51,0,0,1-.45.55l-7.15.75Z"/><path class="cls-13" d="M34.08,168.05a.51.51,0,0,1-.1-1l7-1.49a.51.51,0,0,1,.6.39.5.5,0,0,1-.39.6l-7,1.49Z"/><path class="cls-13" d="M37.13,179.43a.51.51,0,0,1-.48-.35.5.5,0,0,1,.32-.63l6.84-2.22a.49.49,0,0,1,.63.32.5.5,0,0,1-.32.63l-6.84,2.22Z"/><path class="cls-13" d="M41.35,190.43a.52.52,0,0,1-.46-.3.51.51,0,0,1,.25-.67l6.57-2.92a.5.5,0,1,1,.41.92l-6.57,2.92A.46.46,0,0,1,41.35,190.43Z"/><path class="cls-13" d="M53.11,210.8a.48.48,0,0,1-.4-.21.49.49,0,0,1,.11-.7l5.81-4.23a.5.5,0,0,1,.7.12.49.49,0,0,1-.11.7l-5.81,4.22A.47.47,0,0,1,53.11,210.8Z"/><path class="cls-13" d="M60.53,220a.51.51,0,0,1-.38-.16.5.5,0,0,1,0-.71l5.34-4.81a.5.5,0,0,1,.71,0,.5.5,0,0,1,0,.71l-5.34,4.81A.46.46,0,0,1,60.53,220Z"/><path class="cls-13" d="M68.85,228.28a.46.46,0,0,1-.33-.13.5.5,0,0,1,0-.71l4.81-5.34a.5.5,0,0,1,.71,0,.52.52,0,0,1,0,.72l-4.81,5.34A.51.51,0,0,1,68.85,228.28Z"/><path class="cls-13" d="M78,235.69a.53.53,0,0,1-.3-.09.52.52,0,0,1-.11-.71l4.22-5.81a.51.51,0,0,1,.82.59l-4.22,5.82A.53.53,0,0,1,78,235.69Z"/><path class="cls-13" d="M98.38,247.46a.46.46,0,0,1-.2-.05.5.5,0,0,1-.26-.66l2.92-6.57a.51.51,0,0,1,.67-.25.49.49,0,0,1,.25.66l-2.92,6.57A.5.5,0,0,1,98.38,247.46Z"/><path class="cls-13" d="M109.38,251.68a.45.45,0,0,1-.16,0,.5.5,0,0,1-.32-.63l2.22-6.84a.51.51,0,0,1,1,.32l-2.22,6.83A.51.51,0,0,1,109.38,251.68Z"/><path class="cls-13" d="M120.76,254.73h-.11a.51.51,0,0,1-.39-.6l1.5-7a.51.51,0,0,1,.59-.39.5.5,0,0,1,.39.6l-1.49,7A.51.51,0,0,1,120.76,254.73Z"/><path class="cls-13" d="M132.39,256.57h0a.51.51,0,0,1-.45-.56l.75-7.14a.5.5,0,0,1,.55-.45.5.5,0,0,1,.45.55l-.75,7.15A.51.51,0,0,1,132.39,256.57Z"/><path class="cls-13" d="M155.91,256.57a.51.51,0,0,1-.5-.45l-.75-7.15a.5.5,0,0,1,.45-.55.49.49,0,0,1,.55.45l.76,7.14a.52.52,0,0,1-.45.56Z"/><path class="cls-13" d="M167.55,254.73a.51.51,0,0,1-.49-.4l-1.5-7a.51.51,0,0,1,.39-.6.52.52,0,0,1,.6.39l1.49,7a.5.5,0,0,1-.39.6Z"/><path class="cls-13" d="M178.93,251.68a.5.5,0,0,1-.48-.35l-2.22-6.83a.5.5,0,0,1,.32-.64.5.5,0,0,1,.63.32L179.4,251a.49.49,0,0,1-.32.63Z"/><path class="cls-13" d="M189.92,247.46a.51.51,0,0,1-.46-.3l-2.92-6.57a.5.5,0,0,1,.25-.66.51.51,0,0,1,.67.25l2.92,6.57a.49.49,0,0,1-.25.66A.54.54,0,0,1,189.92,247.46Z"/><path class="cls-13" d="M210.3,235.69a.51.51,0,0,1-.41-.2l-4.23-5.82a.51.51,0,0,1,.82-.59l4.22,5.81a.5.5,0,0,1-.11.71A.52.52,0,0,1,210.3,235.69Z"/><path class="cls-13" d="M219.45,228.28a.47.47,0,0,1-.37-.16l-4.81-5.34a.51.51,0,1,1,.75-.68l4.8,5.34a.5.5,0,0,1-.37.84Z"/><path class="cls-13" d="M227.78,220a.5.5,0,0,1-.34-.13L222.1,215a.5.5,0,1,1,.67-.74l5.35,4.81a.5.5,0,0,1,0,.71A.49.49,0,0,1,227.78,220Z"/><path class="cls-13" d="M235.19,210.8a.45.45,0,0,1-.29-.1l-5.82-4.22a.51.51,0,0,1-.11-.7.5.5,0,0,1,.7-.12l5.82,4.23a.51.51,0,0,1,.11.7A.49.49,0,0,1,235.19,210.8Z"/><path class="cls-13" d="M247,190.43a.53.53,0,0,1-.2-.05l-6.57-2.92a.51.51,0,0,1-.25-.67.5.5,0,0,1,.66-.25l6.57,2.92a.51.51,0,0,1-.21,1Z"/><path class="cls-13" d="M251.17,179.43l-.15,0-6.84-2.22a.5.5,0,1,1,.32-1l6.83,2.22a.49.49,0,0,1,.32.63A.5.5,0,0,1,251.17,179.43Z"/><path class="cls-13" d="M254.22,168.05h-.1l-7-1.49a.51.51,0,0,1-.39-.6.52.52,0,0,1,.6-.39l7,1.49a.52.52,0,0,1,.39.6A.5.5,0,0,1,254.22,168.05Z"/><path class="cls-13" d="M256.07,156.42H256l-7.14-.75a.49.49,0,0,1-.45-.55.5.5,0,0,1,.55-.45l7.15.75a.51.51,0,0,1-.05,1Z"/><path class="cls-13" d="M248.92,133.64a.5.5,0,0,1,0-1l7.14-.75a.5.5,0,1,1,.11,1l-7.15.75Z"/><path class="cls-13" d="M247.19,122.75a.5.5,0,0,1-.49-.4.49.49,0,0,1,.39-.59l7-1.5a.51.51,0,0,1,.6.39.52.52,0,0,1-.39.6l-7,1.49Z"/><path class="cls-13" d="M244.34,112.1a.5.5,0,0,1-.16-1L251,108.9a.5.5,0,0,1,.31,1l-6.83,2.22Z"/><path class="cls-13" d="M240.39,101.81a.5.5,0,0,1-.46-.3.52.52,0,0,1,.25-.67l6.57-2.92a.5.5,0,0,1,.41.92l-6.57,2.92A.46.46,0,0,1,240.39,101.81Z"/><path class="cls-13" d="M229.38,82.74a.51.51,0,0,1-.3-.92l5.82-4.22a.5.5,0,1,1,.59.81l-5.82,4.23A.53.53,0,0,1,229.38,82.74Z"/><path class="cls-13" d="M222.44,74.17a.52.52,0,0,1-.38-.17.5.5,0,0,1,0-.71l5.34-4.81a.5.5,0,0,1,.71,0,.5.5,0,0,1,0,.71L222.77,74A.51.51,0,0,1,222.44,74.17Z"/><path class="cls-13" d="M214.64,66.37a.5.5,0,0,1-.37-.84l4.81-5.34a.5.5,0,1,1,.74.67L215,66.2A.52.52,0,0,1,214.64,66.37Z"/><path class="cls-13" d="M206.07,59.43a.46.46,0,0,1-.29-.1.5.5,0,0,1-.12-.7l4.23-5.81a.5.5,0,1,1,.81.59l-4.22,5.81A.49.49,0,0,1,206.07,59.43Z"/><path class="cls-13" d="M187,48.42a.54.54,0,0,1-.21-.05.5.5,0,0,1-.25-.66l2.92-6.57a.51.51,0,0,1,.67-.25.49.49,0,0,1,.25.66l-2.92,6.57A.5.5,0,0,1,187,48.42Z"/><path class="cls-13" d="M176.71,44.47a.41.41,0,0,1-.16,0,.49.49,0,0,1-.32-.63L178.45,37a.5.5,0,1,1,1,.31l-2.22,6.84A.5.5,0,0,1,176.71,44.47Z"/><path class="cls-13" d="M166.05,41.61H166a.5.5,0,0,1-.39-.6l1.5-7a.5.5,0,0,1,1,.2l-1.49,7A.5.5,0,0,1,166.05,41.61Z"/><path class="cls-13" d="M155.16,39.89h0a.51.51,0,0,1-.45-.56l.75-7.15a.5.5,0,0,1,.56-.44.51.51,0,0,1,.45.55l-.76,7.15A.49.49,0,0,1,155.16,39.89Z"/><g class="cls-7"><path class="cls-4" d="M138.26,146.33a1,1,0,0,1-1-1,10.33,10.33,0,0,1,.3-2.56,7,7,0,0,1,6.12-5.33,1,1,0,0,1,.14,2,5,5,0,0,0-4.31,3.82,8.78,8.78,0,0,0-.23,2.06A1,1,0,0,1,138.26,146.33Z"/></g><path class="cls-14" d="M144.15,288.3A144.16,144.16,0,0,1,.78,159.27,146.5,146.5,0,0,1,0,144.15C0,64.67,64.67,0,144.15,0A144.11,144.11,0,0,1,288.3,144.15C288.3,223.64,223.64,288.3,144.15,288.3ZM144.15,2C65.78,2,2,65.78,2,144.15A142,142,0,0,0,144.15,286.29c78.38,0,142.14-63.76,142.14-142.14A142.11,142.11,0,0,0,144.15,2Z"/></g></g></svg>