<svg xmlns="http://www.w3.org/2000/svg" viewBox="0 0 500.57 205.31"><defs><style>.cls-1{fill:#f2f2f2;}.cls-2{fill:#fff;}.cls-3{opacity:0.07;}.cls-4{fill:#323232;}.cls-5{fill:#0046a1;}.cls-6{fill:#3b75d1;}</style></defs><g id="Layer_2" data-name="Layer 2"><g id="Layer_1-2" data-name="Layer 1"><rect class="cls-1" x="2.01" y="2.02" width="496.54" height="198.61" rx="20.57"/><rect class="cls-2" x="2.01" y="2.02" width="496.54" height="198.61" rx="16.83"/><g class="cls-3"><rect class="cls-4" x="2.01" y="102.59" width="496.54" height="7.55"/></g><g class="cls-3"><path class="cls-4" d="M12.73,3.32H487.84a5.76,5.76,0,0,1,5.76,5.76v1.79a0,0,0,0,1,0,0H7a0,0,0,0,1,0,0V9.09a5.76,5.76,0,0,1,5.76-5.76Z"/></g><rect class="cls-5" x="2.02" y="101.97" width="496.54" height="4.03"/><rect class="cls-6" x="99.31" y="2.01" width="4.03" height="198.61"/><rect class="cls-6" x="198.61" y="2.01" width="4.03" height="198.61"/><rect class="cls-6" x="297.92" y="2.01" width="4.03" height="198.61"/><rect class="cls-6" x="397.23" y="2.01" width="4.03" height="198.61"/><path class="cls-5" d="M484.12,205.31H16.45A16.47,16.47,0,0,1,0,188.86V19.11A16.46,16.46,0,0,1,16.45,2.67H484.12a16.46,16.46,0,0,1,16.45,16.44V188.86A16.47,16.47,0,0,1,484.12,205.31ZM16.45,6.7A12.43,12.43,0,0,0,4,19.11V188.86a12.43,12.43,0,0,0,12.42,12.42H484.12a12.43,12.43,0,0,0,12.42-12.42V19.11A12.43,12.43,0,0,0,484.12,6.7Z"/><path class="cls-6" d="M484.12,202.64H16.45A16.46,16.46,0,0,1,0,186.2V16.45A16.47,16.47,0,0,1,16.45,0H484.12a16.47,16.47,0,0,1,16.45,16.45V186.2A16.46,16.46,0,0,1,484.12,202.64ZM16.45,4A12.43,12.43,0,0,0,4,16.45V186.2a12.43,12.43,0,0,0,12.42,12.41H484.12a12.43,12.43,0,0,0,12.42-12.41V16.45A12.43,12.43,0,0,0,484.12,4Z"/><rect class="cls-6" x="2.02" y="99.31" width="496.54" height="4.03"/></g></g></svg>