<svg xmlns="http://www.w3.org/2000/svg" viewBox="0 0 300.72 200.27"><defs><style>.cls-1{fill:#ffad00;}.cls-2{fill:#fff;}.cls-3{fill:#de9600;}</style></defs><g id="Layer_2" data-name="Layer 2"><g id="Layer_1-2" data-name="Layer 1"><rect class="cls-1" width="300.72" height="194.77"/><rect class="cls-2" x="17.76" y="16.29" width="265.21" height="161.99" rx="15.48"/><path d="M267.85,179h-235A15.89,15.89,0,0,1,17,163.16V31.4A15.89,15.89,0,0,1,32.87,15.53h235A15.89,15.89,0,0,1,283.72,31.4V163.16A15.89,15.89,0,0,1,267.85,179ZM32.87,17A14.37,14.37,0,0,0,18.51,31.4V163.16a14.37,14.37,0,0,0,14.36,14.36h235a14.37,14.37,0,0,0,14.36-14.36V31.4A14.37,14.37,0,0,0,267.85,17Z"/><path d="M150.36,162a.74.74,0,0,1-.75-.75V33.36a.74.74,0,0,1,.75-.75.75.75,0,0,1,.76.75V161.2A.75.75,0,0,1,150.36,162Z"/><rect class="cls-3" y="194.77" width="300.72" height="5.5"/></g></g></svg>