<svg xmlns="http://www.w3.org/2000/svg" xmlns:xlink="http://www.w3.org/1999/xlink" viewBox="0 0 182.82 240.24"><defs><style>.cls-1{fill:url(#linear-gradient);}.cls-2{fill:url(#linear-gradient-2);}.cls-3{fill:url(#linear-gradient-3);}.cls-4{fill:url(#linear-gradient-4);}.cls-5{fill:url(#radial-gradient);}.cls-6{fill:url(#radial-gradient-2);}.cls-7{fill:url(#radial-gradient-3);}.cls-8{fill:url(#radial-gradient-4);}.cls-9{fill:url(#radial-gradient-5);}.cls-10{fill:url(#radial-gradient-6);}.cls-11{fill:url(#radial-gradient-7);}.cls-12{fill:url(#radial-gradient-8);}.cls-13{fill:url(#radial-gradient-9);}.cls-14{fill:url(#radial-gradient-10);}.cls-15{fill:url(#radial-gradient-11);}.cls-16{fill:url(#radial-gradient-12);}.cls-17{fill:url(#radial-gradient-13);}.cls-18{fill:url(#radial-gradient-14);}.cls-19{fill:url(#radial-gradient-15);}.cls-20{fill:url(#radial-gradient-16);}.cls-21{fill:url(#radial-gradient-17);}.cls-22{fill:url(#radial-gradient-18);}.cls-23{fill:#ffc500;}.cls-24{fill:#7a2f00;}.cls-25{fill:#632700;}.cls-26{fill:url(#linear-gradient-5);}.cls-27{fill:#177300;}</style><linearGradient id="linear-gradient" x1="56.01" y1="-104.27" x2="56.23" y2="-92.28" gradientTransform="translate(72.55 320.29) rotate(-14.9)" gradientUnits="userSpaceOnUse"><stop offset="0" stop-color="#03b302"/><stop offset="0.37" stop-color="#199402"/><stop offset="1" stop-color="#177600"/></linearGradient><linearGradient id="linear-gradient-2" x1="87.86" y1="-125.96" x2="88.44" y2="-94.62" xlink:href="#linear-gradient"/><linearGradient id="linear-gradient-3" x1="78.57" y1="208.77" x2="78.93" y2="228.01" gradientTransform="matrix(1, 0, 0, 1, 0, 0)" xlink:href="#linear-gradient"/><linearGradient id="linear-gradient-4" x1="89.47" y1="104.85" x2="91.96" y2="239.21" gradientTransform="matrix(1, 0, 0, 1, 0, 0)" xlink:href="#linear-gradient"/><radialGradient id="radial-gradient" cx="80.64" cy="-413.11" r="27.61" gradientTransform="translate(146.56 453.01) rotate(-21.39)" gradientUnits="userSpaceOnUse"><stop offset="0" stop-color="#ff9f00"/><stop offset="1" stop-color="#ffc200"/></radialGradient><radialGradient id="radial-gradient-2" cx="485.42" cy="-1133.47" r="27.61" gradientTransform="translate(804.4 1033.59) rotate(-61.39)" xlink:href="#radial-gradient"/><radialGradient id="radial-gradient-3" cx="1258.53" cy="-1425.12" r="27.61" gradientTransform="translate(1681.53 1055.49) rotate(-101.39)" xlink:href="#radial-gradient"/><radialGradient id="radial-gradient-4" cx="2038.24" cy="-1151.58" r="27.61" gradientTransform="matrix(-0.78, -0.62, 0.62, -0.78, 2367.52, 508.46)" xlink:href="#radial-gradient"/><radialGradient id="radial-gradient-5" cx="2459.7" cy="-440.85" r="27.61" gradientTransform="matrix(-1, 0.02, -0.02, -1, 2541.4, -351.54)" xlink:href="#radial-gradient"/><radialGradient id="radial-gradient-6" cx="2325.71" cy="374.51" r="27.61" gradientTransform="translate(2121.8 -1122.1) rotate(138.61)" xlink:href="#radial-gradient"/><radialGradient id="radial-gradient-7" cx="1698.96" cy="912.99" r="27.61" gradientTransform="translate(1305.07 -1442.68) rotate(98.61)" xlink:href="#radial-gradient"/><radialGradient id="radial-gradient-8" cx="872.72" cy="922.62" r="27.61" gradientTransform="matrix(0.52, 0.85, -0.85, 0.52, 473.35, -1163.26)" xlink:href="#radial-gradient"/><radialGradient id="radial-gradient-9" cx="233.6" cy="398.9" r="27.61" gradientTransform="translate(15.82 -414.6) rotate(18.61)" xlink:href="#radial-gradient"/><radialGradient id="radial-gradient-10" cx="90.72" cy="35.21" r="27.61" gradientUnits="userSpaceOnUse"><stop offset="0" stop-color="#fff000"/><stop offset="1" stop-color="#ffc200"/></radialGradient><radialGradient id="radial-gradient-11" cx="204.97" cy="-783.55" r="27.61" gradientTransform="translate(400.79 780.51) rotate(-40)" xlink:href="#radial-gradient-10"/><radialGradient id="radial-gradient-12" cx="818.77" cy="-1337.33" r="27.61" gradientTransform="translate(1209.51 1120.8) rotate(-80)" xlink:href="#radial-gradient-10"/><radialGradient id="radial-gradient-13" cx="1644.93" cy="-1367" r="27.61" gradientTransform="translate(2047.76 861.63) rotate(-120)" xlink:href="#radial-gradient-10"/><radialGradient id="radial-gradient-14" cx="2296.88" cy="-858.68" r="27.61" gradientTransform="translate(2523.31 124.29) rotate(-160)" xlink:href="#radial-gradient-10"/><radialGradient id="radial-gradient-15" cx="2469.57" cy="-50.22" r="27.61" gradientTransform="translate(2413.64 -746.23) rotate(160)" xlink:href="#radial-gradient-10"/><radialGradient id="radial-gradient-16" cx="2082.18" cy="680.09" r="27.61" gradientTransform="matrix(-0.5, 0.87, -0.87, -0.5, 1770.08, -1342.6)" xlink:href="#radial-gradient-10"/><radialGradient id="radial-gradient-17" cx="1315.99" cy="990.54" r="27.61" gradientTransform="translate(893.74 -1385.76) rotate(80)" xlink:href="#radial-gradient-10"/><radialGradient id="radial-gradient-18" cx="529.5" cy="735.85" r="27.61" gradientTransform="translate(194.68 -855.53) rotate(40)" xlink:href="#radial-gradient-10"/><linearGradient id="linear-gradient-5" x1="43.35" y1="185.3" x2="44" y2="220.43" gradientTransform="matrix(1, 0, 0, 1, 0, 0)" xlink:href="#linear-gradient"/></defs><g id="Layer_2" data-name="Layer 2"><g id="Layer_1-2" data-name="Layer 1"><path class="cls-1" d="M92.11,217.72s3.6-11.29,18.3-15.63l.54,2c-14.7,4.34-18.3,15.63-18.3,15.63Z"/><path class="cls-2" d="M107.41,203.13c1.62-12.94,1.89-32,43.19-29.28,0,0-12.73,49.93-43.14,31.52C107,205.08,107.34,203.69,107.41,203.13Z"/><path class="cls-3" d="M68.92,208.91c14.71,2.91,19.65,16.5,19.65,16.5V228s-4.94-13.59-19.65-16.5Z"/><rect class="cls-4" x="86.77" y="104.64" width="7.9" height="135.59"/><path class="cls-5" d="M58.14,6.15c49.17,21.5,25.68,65.57,25.68,65.57S36.64,55.33,58.14,6.15Z"/><path class="cls-6" d="M10.86,47.82C62.35,32.68,72.68,81.54,72.68,81.54S26,99.31,10.86,47.82Z"/><path class="cls-7" d="M1.43,110.12c29.71-44.69,69-13.9,69-13.9S46.12,139.83,1.43,110.12Z"/><path class="cls-8" d="M34.25,163.92c-6-53.34,43.94-55,43.94-55S87.59,158,34.25,163.92Z"/><path class="cls-9" d="M94,184c-38.86-37-1.71-70.4-1.71-70.4S131,145.17,94,184Z"/><path class="cls-10" d="M152.65,161.05c-53.57-3.38-46.56-52.84-46.56-52.84S156,107.48,152.65,161.05Z"/><path class="cls-11" d="M182.82,105.72c-43.2,31.84-69.62-10.54-69.62-10.54S151,62.52,182.82,105.72Z"/><path class="cls-12" d="M170.38,44c-12.63,52.16-60.12,36.68-60.12,36.68S118.22,31.32,170.38,44Z"/><path class="cls-13" d="M121.14,4.63C145,52.7,98.66,71.36,98.66,71.36S73.06,28.48,121.14,4.63Z"/><path class="cls-14" d="M90.72,0c37.95,38,0,70.42,0,70.42S52.77,38,90.72,0Z"/><path class="cls-15" d="M31.51,21.55c53.46,4.68,45.26,54,45.26,54S26.83,75,31.51,21.55Z"/><path class="cls-16" d="M0,76.13C44,45.34,69.35,88.35,69.35,88.35S30.78,120.09,0,76.13Z"/><path class="cls-17" d="M10.94,138.19c13.89-51.84,61-35.21,61-35.21S62.78,152.08,10.94,138.19Z"/><path class="cls-18" d="M59.22,178.69C36.53,130.05,83.3,112.52,83.3,112.52S107.86,156,59.22,178.69Z"/><path class="cls-19" d="M122.23,178.69C73.59,156,98.15,112.52,98.15,112.52S144.91,130.05,122.23,178.69Z"/><path class="cls-20" d="M170.5,138.19c-51.83,13.89-61-35.21-61-35.21S156.61,86.35,170.5,138.19Z"/><path class="cls-21" d="M181.45,76.13c-30.79,44-69.35,12.22-69.35,12.22S137.48,45.34,181.45,76.13Z"/><path class="cls-22" d="M149.94,21.55c4.68,53.47-45.27,54-45.27,54S96.48,26.23,149.94,21.55Z"/><path class="cls-23" d="M165.42,79c-4.38,1.14-8.8,2.09-13.22,3s-8.85,1.75-13.29,2.56S130,86,125.54,86.67l-6.7.93c-2.25.25-4.49.56-6.74.75,2.18-.58,4.39-1.06,6.59-1.59l6.62-1.42c4.42-.94,8.86-1.74,13.29-2.55s8.9-1.52,13.37-2.15S160.91,79.38,165.42,79Z"/><path class="cls-23" d="M139.48,34c-2.63,3.69-5.4,7.26-8.19,10.8s-5.66,7-8.54,10.5-5.84,6.89-8.86,10.24l-4.54,5c-1.56,1.63-3.07,3.31-4.68,4.91,1.3-1.86,2.69-3.64,4-5.46l4.16-5.34c2.78-3.56,5.66-7,8.54-10.5s5.84-6.89,8.86-10.24S136.3,37.25,139.48,34Z"/><path class="cls-23" d="M90.72,16.28c.36,4.51.53,9,.67,13.53s.19,9,.21,13.54,0,9-.2,13.53l-.25,6.77c-.14,2.26-.23,4.51-.43,6.77-.19-2.26-.28-4.51-.43-6.77l-.24-6.77c-.16-4.51-.18-9-.2-13.53s0-9,.2-13.54S90.36,20.79,90.72,16.28Z"/><path class="cls-23" d="M42,34c3.18,3.23,6.21,6.58,9.22,9.94S57.13,50.76,60,54.2s5.77,6.94,8.55,10.5L72.75,70c1.34,1.82,2.72,3.6,4,5.46-1.6-1.6-3.11-3.28-4.68-4.91l-4.53-5c-3-3.35-5.94-6.79-8.86-10.24s-5.76-6.94-8.54-10.5S44.6,37.71,42,34Z"/><path class="cls-23" d="M16,79c4.51.43,9,1,13.45,1.69S38.4,82,42.84,82.79s8.88,1.61,13.3,2.55l6.62,1.42c2.2.53,4.4,1,6.59,1.59-2.26-.19-4.49-.5-6.74-.75l-6.71-.93C51.43,86,47,85.28,42.54,84.52S33.66,82.9,29.25,82,20.41,80.09,16,79Z"/><path class="cls-23" d="M25,130.05c3.73-2.57,7.55-5,11.39-7.35s7.72-4.67,11.62-7,7.83-4.47,11.82-6.59l6-3.17c2-1,4-2.06,6.08-3-1.86,1.3-3.77,2.5-5.65,3.75l-5.74,3.6c-3.83,2.39-7.72,4.67-11.62,6.94s-7.83,4.47-11.82,6.59S29.13,128.1,25,130.05Z"/><path class="cls-23" d="M64.78,163.39c1.21-4.36,2.59-8.66,4-12.94s2.92-8.55,4.44-12.79S76.35,129.19,78,125l2.54-6.28c.91-2.07,1.76-4.16,2.72-6.21-.58,2.19-1.28,4.33-1.91,6.5l-2.09,6.45c-1.39,4.29-2.91,8.54-4.44,12.79S71.74,146.72,70,150.9,66.67,159.28,64.78,163.39Z"/><path class="cls-23" d="M116.66,163.39c-1.88-4.11-3.58-8.29-5.26-12.49s-3.25-8.41-4.82-12.64-3-8.5-4.44-12.79L100.06,119c-.64-2.17-1.33-4.31-1.91-6.5,1,2,1.81,4.14,2.71,6.21l2.55,6.28c1.69,4.18,3.26,8.41,4.82,12.65s3,8.49,4.43,12.79S115.46,159,116.66,163.39Z"/><path class="cls-23" d="M156.41,130.05c-4.09-2-8.08-4.06-12.06-6.19s-7.91-4.36-11.82-6.59-7.8-4.55-11.63-6.94l-5.73-3.6c-1.88-1.25-3.8-2.45-5.65-3.75,2,1,4,2,6.08,3l6,3.17c4,2.12,7.9,4.35,11.82,6.59s7.79,4.55,11.62,7S152.68,127.48,156.41,130.05Z"/><circle class="cls-24" cx="90.72" cy="92.12" r="42.24"/><circle class="cls-25" cx="90.72" cy="92.12" r="28.14"/><path class="cls-25" d="M90.72,56a22.44,22.44,0,0,1,.88,6.56,22,22,0,0,1-.88,6.55,22,22,0,0,1-.87-6.55A22.43,22.43,0,0,1,90.72,56Z"/><path class="cls-25" d="M84.46,56.59a22.43,22.43,0,0,1,2,6.3,22.43,22.43,0,0,1,.28,6.61,21.7,21.7,0,0,1-2-6.3A22.09,22.09,0,0,1,84.46,56.59Z"/><path class="cls-25" d="M78.38,58.22a24.92,24.92,0,0,1,4.49,12.32,22.22,22.22,0,0,1-3.07-5.86A22.46,22.46,0,0,1,78.38,58.22Z"/><path class="cls-25" d="M72.68,60.88a22.27,22.27,0,0,1,4,5.24,22,22,0,0,1,2.52,6.11,22.27,22.27,0,0,1-4-5.24A22.88,22.88,0,0,1,72.68,60.88Z"/><path class="cls-25" d="M67.53,64.48a22.68,22.68,0,0,1,4.89,4.46A22.2,22.2,0,0,1,76,74.53a22.2,22.2,0,0,1-4.89-4.46A22.67,22.67,0,0,1,67.53,64.48Z"/><path class="cls-25" d="M63.08,68.93a22.67,22.67,0,0,1,5.59,3.54,22.2,22.2,0,0,1,4.46,4.89,22,22,0,0,1-5.59-3.55A22.39,22.39,0,0,1,63.08,68.93Z"/><path class="cls-25" d="M59.48,74.08a22.88,22.88,0,0,1,6.11,2.52,22,22,0,0,1,5.24,4,22,22,0,0,1-6.11-2.52A22.27,22.27,0,0,1,59.48,74.08Z"/><path class="cls-25" d="M56.82,79.78a22.46,22.46,0,0,1,6.46,1.42,22.22,22.22,0,0,1,5.86,3.07,24.92,24.92,0,0,1-12.32-4.49Z"/><path class="cls-25" d="M55.19,85.86a22.43,22.43,0,0,1,6.61.27,22.33,22.33,0,0,1,6.3,2,22.09,22.09,0,0,1-6.61-.27A22.43,22.43,0,0,1,55.19,85.86Z"/><path class="cls-25" d="M54.64,92.12a22.43,22.43,0,0,1,6.56-.87,22,22,0,0,1,6.55.87A22,22,0,0,1,61.2,93,22.44,22.44,0,0,1,54.64,92.12Z"/><path class="cls-25" d="M55.19,98.39a22.43,22.43,0,0,1,6.3-2,22.09,22.09,0,0,1,6.61-.28,21.7,21.7,0,0,1-6.3,2A22.43,22.43,0,0,1,55.19,98.39Z"/><path class="cls-25" d="M56.82,104.46a22.48,22.48,0,0,1,5.86-3.06A22.06,22.06,0,0,1,69.14,100,22.18,22.18,0,0,1,63.28,103,22.13,22.13,0,0,1,56.82,104.46Z"/><path class="cls-25" d="M59.48,110.16a22.22,22.22,0,0,1,5.24-4,22,22,0,0,1,6.11-2.52,22,22,0,0,1-5.24,4A22.24,22.24,0,0,1,59.48,110.16Z"/><path class="cls-25" d="M63.08,115.32a22.45,22.45,0,0,1,4.46-4.89,22.2,22.2,0,0,1,5.59-3.54,22.15,22.15,0,0,1-4.46,4.88A22.7,22.7,0,0,1,63.08,115.32Z"/><path class="cls-25" d="M67.53,119.76a22.61,22.61,0,0,1,3.54-5.58A22.2,22.2,0,0,1,76,109.72a22.14,22.14,0,0,1-3.54,5.58A22.43,22.43,0,0,1,67.53,119.76Z"/><path class="cls-25" d="M72.68,123.37a22.61,22.61,0,0,1,2.52-6.11,22.27,22.27,0,0,1,4-5.24,22,22,0,0,1-2.52,6.11A22.47,22.47,0,0,1,72.68,123.37Z"/><path class="cls-25" d="M78.38,126a22.39,22.39,0,0,1,1.42-6.46,21.92,21.92,0,0,1,3.07-5.86A24.92,24.92,0,0,1,78.38,126Z"/><path class="cls-25" d="M84.46,127.66a22.09,22.09,0,0,1,.28-6.61,21.86,21.86,0,0,1,2-6.31,25.08,25.08,0,0,1-2.28,12.92Z"/><path class="cls-25" d="M90.72,128.21a22.47,22.47,0,0,1-.87-6.56,22.1,22.1,0,0,1,.87-6.56,22.11,22.11,0,0,1,.88,6.56A22.49,22.49,0,0,1,90.72,128.21Z"/><path class="cls-25" d="M97,127.66a25.08,25.08,0,0,1-2.28-12.92,21.86,21.86,0,0,1,2,6.31A22.43,22.43,0,0,1,97,127.66Z"/><path class="cls-25" d="M103.06,126a22.79,22.79,0,0,1-3.06-5.86,22.06,22.06,0,0,1-1.42-6.46A25,25,0,0,1,103.06,126Z"/><path class="cls-25" d="M108.76,123.37a22.43,22.43,0,0,1-4-5.24,22,22,0,0,1-2.52-6.11,25.07,25.07,0,0,1,6.55,11.35Z"/><path class="cls-25" d="M113.92,119.76a24.93,24.93,0,0,1-8.43-10,25.15,25.15,0,0,1,8.43,10Z"/><path class="cls-25" d="M118.36,115.32a22.64,22.64,0,0,1-5.58-3.55,22.15,22.15,0,0,1-4.46-4.88,24.93,24.93,0,0,1,10,8.43Z"/><path class="cls-25" d="M122,110.16a25.07,25.07,0,0,1-11.35-6.55,22,22,0,0,1,6.11,2.52A22.43,22.43,0,0,1,122,110.16Z"/><path class="cls-25" d="M124.63,104.46A25,25,0,0,1,112.31,100a22.06,22.06,0,0,1,6.46,1.42A22.48,22.48,0,0,1,124.63,104.46Z"/><path class="cls-25" d="M126.26,98.39a22.43,22.43,0,0,1-6.61-.28,21.86,21.86,0,0,1-6.31-2,22.06,22.06,0,0,1,6.61.28A22.39,22.39,0,0,1,126.26,98.39Z"/><path class="cls-25" d="M126.81,92.12a22.44,22.44,0,0,1-6.56.88,22.11,22.11,0,0,1-6.56-.88,22.1,22.1,0,0,1,6.56-.87A22.43,22.43,0,0,1,126.81,92.12Z"/><path class="cls-25" d="M126.26,85.86a22.39,22.39,0,0,1-6.31,2,22.07,22.07,0,0,1-6.61.27,24.94,24.94,0,0,1,12.92-2.27Z"/><path class="cls-25" d="M124.63,79.78a24.92,24.92,0,0,1-12.32,4.49,21.92,21.92,0,0,1,5.86-3.07A22.39,22.39,0,0,1,124.63,79.78Z"/><path class="cls-25" d="M122,74.08a22.47,22.47,0,0,1-5.24,4,22,22,0,0,1-6.11,2.52,22,22,0,0,1,5.24-4A22.61,22.61,0,0,1,122,74.08Z"/><path class="cls-25" d="M118.36,68.93a22.15,22.15,0,0,1-4.46,4.88,21.9,21.9,0,0,1-5.58,3.55,22.2,22.2,0,0,1,4.46-4.89A22.61,22.61,0,0,1,118.36,68.93Z"/><path class="cls-25" d="M113.92,64.48a22.41,22.41,0,0,1-3.55,5.59,22.15,22.15,0,0,1-4.88,4.46A22.2,22.2,0,0,1,109,68.94,22.45,22.45,0,0,1,113.92,64.48Z"/><path class="cls-25" d="M108.76,60.88A22.24,22.24,0,0,1,106.24,67a22,22,0,0,1-4,5.24,22,22,0,0,1,2.52-6.11A22.22,22.22,0,0,1,108.76,60.88Z"/><path class="cls-25" d="M103.06,58.22a22.13,22.13,0,0,1-1.42,6.46,22.18,22.18,0,0,1-3.06,5.86A22.06,22.06,0,0,1,100,64.08,22.63,22.63,0,0,1,103.06,58.22Z"/><path class="cls-25" d="M97,56.59a22.43,22.43,0,0,1-.28,6.61,21.7,21.7,0,0,1-2,6.3A22.43,22.43,0,0,1,95,62.89,22.43,22.43,0,0,1,97,56.59Z"/><circle class="cls-24" cx="90.72" cy="92.12" r="10.1"/><path class="cls-26" d="M68.92,208.91c2.33-20.21-7-27-51.12-22,0,0,32.28,54.67,51.12,24.62C69.27,210.93,68.85,209.55,68.92,208.91Z"/><path class="cls-27" d="M107.46,205.37a103.79,103.79,0,0,1,8.62-9.18,113.43,113.43,0,0,1,9.56-8.22A78.32,78.32,0,0,1,136.21,181a39,39,0,0,1,11.8-4.44c-1,.41-1.95.79-2.92,1.15s-1.87.92-2.81,1.37-1.82,1-2.73,1.47a29.94,29.94,0,0,0-2.66,1.62c-3.51,2.2-6.89,4.63-10.18,7.17s-6.53,5.17-9.74,7.83c-1.61,1.33-3.19,2.7-4.76,4.07Z"/><path class="cls-27" d="M68.92,211.48l-10.77-6c-3.61-1.94-7.18-3.93-10.82-5.79s-7.27-3.72-11-5.46c-1.86-.85-3.71-1.73-5.61-2.47S27,190.3,25,189.53A66.65,66.65,0,0,1,36.9,193a115.08,115.08,0,0,1,11.24,5.14c3.65,1.93,7.23,4,10.69,6.2A114.46,114.46,0,0,1,68.92,211.48Z"/><path class="cls-27" d="M132.63,183.15c2.31.13,4.68.17,7,.07a27.36,27.36,0,0,0,7-1,28,28,0,0,1-6.87,1.89c-2.36.39-4.71.65-7.12.81Z"/><path class="cls-27" d="M123.45,190.13a32.82,32.82,0,0,0,4.3,1,38.34,38.34,0,0,0,13.4-.13,36.67,36.67,0,0,1-9,1.49,41.2,41.2,0,0,1-4.58-.05,35.29,35.29,0,0,1-4.61-.6Z"/><path class="cls-27" d="M115.28,197.11a44.93,44.93,0,0,0,6.79,1.11A26,26,0,0,0,129,198a25.83,25.83,0,0,1-6.94,1.13,44.6,44.6,0,0,1-7.11-.27Z"/><path class="cls-27" d="M129.61,185.5a11.73,11.73,0,0,1,.62-2.85,11.25,11.25,0,0,1,1.25-2.56,9.29,9.29,0,0,1,1.86-2.09,9.75,9.75,0,0,1,2.35-1.42,9.26,9.26,0,0,0-2,1.74,8.22,8.22,0,0,0-1.4,2.2,9.84,9.84,0,0,0-.75,2.46,10.62,10.62,0,0,0-.14,2.49Z"/><path class="cls-27" d="M119.46,193.77a9.39,9.39,0,0,1-.37-3,12.08,12.08,0,0,1,.41-2.82,13,13,0,0,1,1-2.59,15.42,15.42,0,0,1,1.52-2.29,13.86,13.86,0,0,0-1.11,2.46,11.74,11.74,0,0,0-.59,2.58,11.2,11.2,0,0,0,0,2.59,7.81,7.81,0,0,0,.67,2.34Z"/><path class="cls-27" d="M59.71,206.09a30.83,30.83,0,0,1-3.58,1.81,29.83,29.83,0,0,1-3.74,1.35,15.05,15.05,0,0,1-7.81.41,14.58,14.58,0,0,0,7.52-1.24,27.41,27.41,0,0,0,3.44-1.69,31,31,0,0,0,3.17-2.08Z"/><path class="cls-27" d="M48.38,199.8a20.76,20.76,0,0,1-3.23,1.2,25.17,25.17,0,0,1-3.3.7,18.81,18.81,0,0,1-3.35.16,16.32,16.32,0,0,1-3.28-.47,16.25,16.25,0,0,0,3.27,0,17.82,17.82,0,0,0,3.18-.58,24.31,24.31,0,0,0,3-1.07,20.32,20.32,0,0,0,2.78-1.48Z"/><path class="cls-27" d="M36.5,194.22a17.73,17.73,0,0,1-2.73.71,19.58,19.58,0,0,1-2.75.29,11.57,11.57,0,0,1-5.32-1,11.16,11.16,0,0,0,5.23.14,17.77,17.77,0,0,0,2.5-.69,16.55,16.55,0,0,0,2.34-1Z"/><path class="cls-27" d="M40.57,195.69a11,11,0,0,0,.27-1.49,11.71,11.71,0,0,0,.07-1.57,7.53,7.53,0,0,0-.7-3.1,7.94,7.94,0,0,1,1.56,3,11.56,11.56,0,0,1,.38,1.67,11,11,0,0,1,.15,1.76Z"/><path class="cls-27" d="M52.16,201.56a7.26,7.26,0,0,0,.38-1.95,9.32,9.32,0,0,0-.07-2.11,10.86,10.86,0,0,0-1.5-4.07,11.26,11.26,0,0,1,2.35,3.86,10.83,10.83,0,0,1,.54,2.28,8.75,8.75,0,0,1,0,2.45Z"/></g></g></svg>