<svg xmlns="http://www.w3.org/2000/svg" xmlns:xlink="http://www.w3.org/1999/xlink" viewBox="0 0 142.59 211.57"><defs><style>.cls-1{fill:none;}.cls-2{isolation:isolate;}.cls-3{fill:url(#linear-gradient);}.cls-4{fill:#d0600e;}.cls-5{fill:url(#linear-gradient-2);}.cls-6{fill:url(#linear-gradient-3);}.cls-7{fill:url(#linear-gradient-4);}.cls-8{fill:url(#linear-gradient-5);}.cls-9{fill:url(#linear-gradient-6);}.cls-10{fill:#f6b300;}.cls-11{fill:#f6ab00;}.cls-12{clip-path:url(#clip-path);}.cls-13,.cls-14{mix-blend-mode:multiply;}.cls-13,.cls-25{opacity:0.2;}.cls-13{fill:url(#linear-gradient-7);}.cls-14{opacity:0.3;fill:url(#linear-gradient-8);}.cls-15{fill:url(#linear-gradient-9);}.cls-16{fill:url(#linear-gradient-10);}.cls-17{fill:url(#linear-gradient-11);}.cls-18{fill:#fff;}.cls-19{fill:#db6502;}.cls-20{fill:#231f20;}.cls-21{fill:url(#linear-gradient-12);}.cls-22{fill:#d25600;}.cls-23{fill:#df761d;}.cls-24{fill:#ec8b44;}.cls-26{fill:url(#linear-gradient-13);}.cls-27{fill:#e48c46;}.cls-28{fill:#e07b24;}.cls-29{fill:#e36f00;}.cls-30{fill:#e01900;}</style><linearGradient id="linear-gradient" x1="2.89" y1="142.75" x2="33.02" y2="142.75" gradientUnits="userSpaceOnUse"><stop offset="0" stop-color="#e58d48"/><stop offset="1" stop-color="#df751b"/></linearGradient><linearGradient id="linear-gradient-2" x1="11.42" y1="120.88" x2="142.59" y2="120.88" gradientUnits="userSpaceOnUse"><stop offset="0" stop-color="#e89d62"/><stop offset="1" stop-color="#ed8941"/></linearGradient><linearGradient id="linear-gradient-3" x1="39.43" y1="193.66" x2="64.54" y2="193.66" gradientUnits="userSpaceOnUse"><stop offset="0" stop-color="#ffd200"/><stop offset="1" stop-color="#f0a400"/></linearGradient><linearGradient id="linear-gradient-4" x1="67.62" y1="193.36" x2="92.74" y2="193.36" xlink:href="#linear-gradient-3"/><linearGradient id="linear-gradient-5" x1="34.51" y1="44.72" x2="48.59" y2="44.72" gradientTransform="translate(10.68 134.98) rotate(-3)" xlink:href="#linear-gradient"/><linearGradient id="linear-gradient-6" x1="75.95" y1="176.67" x2="88.37" y2="176.67" xlink:href="#linear-gradient"/><clipPath id="clip-path"><path id="SVGID" class="cls-1" d="M88.1,98.42s18.05,6.84,25.23-3.34c0,0-8.25-14.15,1.08-25s19.83-4.82,15.32,1.82c0,0,4.51-6.32,8.79-4.07s5.26,6,2.58,9.22a10.63,10.63,0,0,1-5.58,3.75S143.13,78,142,84s-13.82,6.43-15.22,8.57,8.36-4.18,10.83-1.29S127.06,96.58,126.3,98l.76.86c10.29,32.58-15.44,87.46-71.61,77.6S12.86,114,12.86,114,22.66,64.81,88.1,98.42Z"/></clipPath><linearGradient id="linear-gradient-7" x1="137.15" y1="532.13" x2="207.63" y2="532.13" gradientTransform="translate(5.12 -417.42) rotate(9.16)" xlink:href="#linear-gradient"/><linearGradient id="linear-gradient-8" x1="17.79" y1="57.49" x2="54.95" y2="112.37" gradientUnits="userSpaceOnUse"><stop offset="0" stop-color="#e2873d"/><stop offset="1" stop-color="#db6502"/></linearGradient><linearGradient id="linear-gradient-9" x1="32.63" y1="6.92" x2="47.92" y2="44.76" gradientUnits="userSpaceOnUse"><stop offset="0" stop-color="#ff7900"/><stop offset="0.07" stop-color="#fc6e00"/><stop offset="0.33" stop-color="#f24e00"/><stop offset="0.57" stop-color="#eb3700"/><stop offset="0.8" stop-color="#e62900"/><stop offset="1" stop-color="#e52400"/></linearGradient><linearGradient id="linear-gradient-10" x1="16.89" y1="53.5" x2="54.05" y2="108.38" xlink:href="#linear-gradient-8"/><linearGradient id="linear-gradient-11" x1="136.77" y1="529.76" x2="207.24" y2="529.76" gradientTransform="translate(5.12 -417.42) rotate(9.16)" xlink:href="#linear-gradient"/><linearGradient id="linear-gradient-12" y1="68.89" x2="27.73" y2="68.89" gradientUnits="userSpaceOnUse"><stop offset="0" stop-color="#ffed00"/><stop offset="1" stop-color="#ffb200"/></linearGradient><linearGradient id="linear-gradient-13" x1="-16.99" y1="-198.82" x2="10.73" y2="-198.82" gradientTransform="translate(38.9 274.26) rotate(-6.21)" gradientUnits="userSpaceOnUse"><stop offset="0" stop-color="#ffed00"/><stop offset="1" stop-color="#f80"/></linearGradient></defs><g class="cls-2"><g id="Layer_2" data-name="Layer 2"><g id="Layer_1-2" data-name="Layer 1"><path class="cls-3" d="M12.59,115.21s-14.16,11.06-8.27,31.1a34.36,34.36,0,0,0,6.31,11.92c8.9,11,22.37,14.58,22.39,10.29"/><path class="cls-4" d="M33,168.52c0,4.29-13.49.71-22.39-10.29,0,0,11.17,6.25,15.26,5S33,168.52,33,168.52Z"/><path class="cls-5" d="M88.1,98.42s18.05,6.84,25.23-3.34c0,0-8.25-14.15,1.08-25s19.83-4.82,15.32,1.82c0,0,4.51-6.32,8.79-4.07s5.26,6,2.58,9.22a10.63,10.63,0,0,1-5.58,3.75S143.13,78,142,84s-13.82,6.43-15.22,8.57,8.36-4.18,10.83-1.29S127.06,96.58,126.3,98l.76.86c10.29,32.58-15.44,87.46-71.61,77.6S12.86,114,12.86,114,22.66,64.81,88.1,98.42Z"/><path class="cls-6" d="M52,175.76,53,199s-13-.57-13.57,1.86,11.14,2.86,13.57,1.86c0,0-12.29,4.86-11.72,7.72s11.15.14,15.87-6.72c0,0,8.29-2.81,7.29-5.24s-7.86.81-7.86.81l1-22.51"/><path class="cls-7" d="M80.24,176.51l1,22.5s-13-.57-13.58,1.86,11.15,2.86,13.58,1.86c0,0-12.29,4.86-11.72,7.72s11.15.14,15.86-6.72c0,0,8.29-2.81,7.29-5.24s-7.86.81-7.86.81l1.13-24.16"/><path class="cls-8" d="M47.31,174.59S50.37,181,54,181s7.52-4.48,7.52-4.48S52,173.2,47.31,174.59Z"/><path class="cls-9" d="M76,177.16S80.26,179.37,83,179s5.36-4.63,5.36-4.63S80.25,173.85,76,177.16Z"/><path class="cls-10" d="M43,208a3.46,3.46,0,0,1,1.58-1,2.36,2.36,0,0,1,2,.23,3.3,3.3,0,0,1,1.2,1.55c.09.31.2.6.27.91s.09.62.11.93c-.27-.57-.5-1.12-.8-1.64a3.78,3.78,0,0,0-1.1-1.24C45.29,207.09,44.05,207.44,43,208Z"/><path class="cls-11" d="M48.83,204.58a2.66,2.66,0,0,1,1.59-.77,2.12,2.12,0,0,1,1.76.61,3.52,3.52,0,0,1,.87,1.59c.05.29.13.58.16.87s0,.58,0,.87c-.23-.54-.39-1.08-.62-1.58a4.35,4.35,0,0,0-.85-1.32,2,2,0,0,0-1.32-.58A3.9,3.9,0,0,0,48.83,204.58Z"/><path class="cls-11" d="M48.1,199a1.28,1.28,0,0,0-.68.82,5.3,5.3,0,0,0-.21,1.08c0,.37-.06.75-.09,1.14a10.22,10.22,0,0,1-.13,1.2,4.84,4.84,0,0,1-.37-2.41,2.91,2.91,0,0,1,.39-1.22A1.12,1.12,0,0,1,48.1,199Z"/><path class="cls-10" d="M71.16,208a3.36,3.36,0,0,1,1.58-1,2.33,2.33,0,0,1,2,.23,3.26,3.26,0,0,1,1.21,1.55c.09.31.2.6.27.91s.09.62.11.93c-.28-.57-.51-1.12-.8-1.64a4,4,0,0,0-1.1-1.24C73.49,207.09,72.24,207.44,71.16,208Z"/><path class="cls-11" d="M77,204.58a2.66,2.66,0,0,1,1.58-.77,2.11,2.11,0,0,1,1.76.61,3.34,3.34,0,0,1,.87,1.59,6.64,6.64,0,0,1,.16.87,8.42,8.42,0,0,1,0,.87c-.22-.54-.38-1.08-.61-1.58a4.37,4.37,0,0,0-.86-1.32,1.92,1.92,0,0,0-1.32-.58A3.86,3.86,0,0,0,77,204.58Z"/><path class="cls-10" d="M71.7,199.27a.72.72,0,0,0-.58.59,3.76,3.76,0,0,0-.13.9c0,.31,0,.64-.06,1a6.28,6.28,0,0,1-.12,1,4,4,0,0,1-.42-2,2.2,2.2,0,0,1,.31-1.06,1.06,1.06,0,0,1,.44-.4A.61.61,0,0,1,71.7,199.27Z"/><g class="cls-12"><path class="cls-13" d="M84.56,110.17s-21.76-4.77-27.95,16,15.24,34.64,31.11,34c3.51-.13,23.19-1.8,26.43-6.1,3.61-4.78-10.19-5.32-7.53-5.15,6.4.4,14.57-4.37,16.25-5.9,8.67-7.86-5.87-4-5.87-4s14.38-6.72,5.91-12.88c0,0,9.27-10.86,2.67-11-3.84-.07-7.67,2.52-12.31,3.87a16.89,16.89,0,0,1-11.59-.47C91,114.37,92.27,112.05,84.56,110.17Z"/><path class="cls-14" d="M17.48,90.67s3.43-13.58,3.86-23.16,5.3-28.72,21.16-28.44,21.15,8.29,23.86,24.44S71.65,90,80.23,93.24s10.57,7.15,8,10.58-7.43,4-11.58,1.14-7.43-7.43-9.72-6.29,0,9.29-2.85,12-9.72,3.43-13.3-3.15-6.09-3.14-6.47-.86-2.52,13.72-9,11.87-7.65-12.15-10.36-12S20.49,118.68,13.77,118s-8.86-3.57-7.86-8.86,5.1-5.71,8.48-11.43S17.48,90.67,17.48,90.67Z"/></g><path class="cls-11" d="M76.3,199a1.25,1.25,0,0,0-.68.82,5.3,5.3,0,0,0-.21,1.08c0,.37-.06.75-.09,1.14s0,.79-.13,1.2a5,5,0,0,1-.38-2.41,2.93,2.93,0,0,1,.4-1.22A1.12,1.12,0,0,1,76.3,199Z"/><path class="cls-4" d="M126.3,98c.76-1.39,13.73-3.75,11.26-6.65s-12.22,3.43-10.83,1.29S140.78,90,142,84s-6.43-3.22-6.43-3.22a10.63,10.63,0,0,0,5.58-3.75c2.68-3.22,1.71-7-2.58-9.22s-8.79,4.07-8.79,4.07c4.51-6.64-6-12.65-15.32-1.82,0,0,13-5.92,13.3,5.44,0,0,6.43-5.44,8.58-3.74s1.6,5.56-3.76,9.26l-.53.6s6.21,0,6,2.28-9.65,4.89-11.36,7.36-1,3.43,2.46,2.46,6.22,0,2.58.86-8,2.86-4.83,4Z"/><path class="cls-15" d="M27.8,47.26c-6.62,3.84-7.28-3-4.37-3.31s3.31-1.45,3.31-1.45c-6,1.19-8.87-1.06-10.2-7S20.25,25,22.77,27.67s3.31,3.44,6.48,3.18,2.92-1.72,2.92-1.72C21.58,29,21.05,18.4,25.15,15s9.53-1.06,11.59,2,3.37,1.32,3.37,1.32c-4.5-3.57-4.9-13.31,1.32-17s13.9,1.59,12.31,6.09-1.59,12.25-1.59,12.25,1.09,1.06,1.8.14.72-9.14,6-8.87,6.49,14.29-1.05,21.71c0,0,.26.66,1.58.13s3.71-3.18,4.37-4.77,4.5.27,3.31,4.9-10.46,6.75-10.46,6.75.4,1.59,1.46,1.19,3.71.14,4,2.52-4.76.53-4.76.53"/><path class="cls-16" d="M16.58,86.68S20,73.1,20.44,63.53s5.3-28.73,21.15-28.44,21.15,8.29,23.87,24.43S70.75,86,79.32,89.25s10.58,7.15,8,10.58-7.43,4-11.57,1.14S68.32,93.54,66,94.68s0,9.29-2.86,12-9.72,3.43-13.29-3.15-6.09-3.14-6.48-.85-2.51,13.72-9,11.86-7.65-12.15-10.37-12S19.58,114.69,12.86,114,4,110.4,5,105.12s5.1-5.72,8.48-11.44S16.58,86.68,16.58,86.68Z"/><path class="cls-17" d="M84.56,107.77s-21.76-4.77-27.95,16,15.24,34.63,31.11,34c3.51-.13,23.19-1.81,26.43-6.1,3.61-4.78-10.19-5.32-7.53-5.16,6.4.4,14.57-4.37,16.25-5.89,8.67-7.86-5.87-4-5.87-4s14.38-6.71,5.91-12.88c0,0,9.27-10.86,2.67-11-3.84-.07-7.67,2.51-12.31,3.87a17,17,0,0,1-11.59-.47C91,112,92.27,109.64,84.56,107.77Z"/><path class="cls-4" d="M117,136.66s14.38-6.71,5.91-12.88c0,0,9.27-10.86,2.67-11-3.84-.07-7.67,2.51-12.31,3.87,0,0,16.22-2.24,8.93,7.12,0,0,2.53,7.35-5.2,12.86"/><path class="cls-4" d="M87.72,157.81c3.51-.13,23.19-1.81,26.43-6.1,3.61-4.78-10.19-5.32-7.53-5.16,0,0,.75,7.23-19.35,11.28Z"/><circle class="cls-18" cx="38.86" cy="61.24" r="13.51"/><path class="cls-19" d="M38.86,74.9A13.66,13.66,0,1,1,52.51,61.24,13.68,13.68,0,0,1,38.86,74.9Zm0-27A13.36,13.36,0,1,0,52.21,61.24,13.38,13.38,0,0,0,38.86,47.88Z"/><circle class="cls-20" cx="34.38" cy="61.24" r="9.03"/><path class="cls-20" d="M20,68.53a9,9,0,0,1,2.29-15.76"/><path class="cls-21" d="M0,71c.43-1.72,22.3-5.43,22.3-5.43l5.43,6.71Z"/><path class="cls-19" d="M61.7,68.24s.59,5.36,2.8,6.58S63.94,67,61.7,68.24Z"/><path class="cls-19" d="M57.82,73.83s1.5,8.68,2.79,7.18S59.22,71.47,57.82,73.83Z"/><path class="cls-22" d="M65.75,78.54s1.08,6.54,3.22,6.65S66.18,76.08,65.75,78.54Z"/><path class="cls-22" d="M63.51,86.9s1.92,5.47,4.12,4.83S63.41,83.8,63.51,86.9Z"/><path class="cls-19" d="M48.6,77.29s-.42,5.86,1.61,6.61S50.1,75.07,48.6,77.29Z"/><path class="cls-19" d="M52.36,71.8s.1,3.11,1.17,3S52.91,70.21,52.36,71.8Z"/><path class="cls-19" d="M54.92,83.59s-.62,5.09,1.57,5.32S55.47,81.24,54.92,83.59Z"/><ellipse class="cls-23" cx="116.33" cy="74.46" rx="3.34" ry="1.48" transform="translate(0.53 149.73) rotate(-65.64)"/><ellipse class="cls-23" cx="132.28" cy="76.25" rx="1.54" ry="1.21" transform="translate(8.27 165.31) rotate(-65.64)"/><path class="cls-23" d="M127.17,75.76a37.54,37.54,0,0,0-5.34,6.42,23.16,23.16,0,0,0-2,3.64,32.73,32.73,0,0,0-1.39,4,12.32,12.32,0,0,1,.51-4.3,14.82,14.82,0,0,1,1.82-4,17,17,0,0,1,2.8-3.34A13.69,13.69,0,0,1,127.17,75.76Z"/><path class="cls-23" d="M132,81.66c-2.06,1.63-4.17,3.08-6.16,4.66A32.42,32.42,0,0,0,123,88.79a11.09,11.09,0,0,0-2.33,3,6.85,6.85,0,0,1,1.63-3.61,15.57,15.57,0,0,1,2.83-2.79,23,23,0,0,1,3.29-2.16A18.66,18.66,0,0,1,132,81.66Z"/><path class="cls-23" d="M124.92,93.44a3.39,3.39,0,0,1-1,.91l-.48.25a6.14,6.14,0,0,0-.61.34.91.91,0,0,1,0-.85,1.52,1.52,0,0,1,.55-.6,1.78,1.78,0,0,1,.74-.23A1.34,1.34,0,0,1,124.92,93.44Z"/><path class="cls-23" d="M114.41,91.78a7.1,7.1,0,0,0,1.92,4.34"/><path class="cls-23" d="M118.49,92.69a5.32,5.32,0,0,0,0,3.43"/><path class="cls-19" d="M41.59,78.12s-1.22,3.22,0,3.54S43.05,77,41.59,78.12Z"/><path class="cls-19" d="M45.28,86.72s-1.07,5.65.75,6S46.57,84.82,45.28,86.72Z"/><path class="cls-22" d="M53.12,94s1,6.78,2.92,5.82S54.43,91.46,53.12,94Z"/><path class="cls-19" d="M38.86,87.66S35.21,94.32,37.64,94,40.65,86.74,38.86,87.66Z"/><path class="cls-19" d="M29.1,75.46s-1.08,3.32,0,2.66S30.38,74.64,29.1,75.46Z"/><path class="cls-19" d="M32.55,80.22s-2.16,4.37-1,4.7S34.76,78.83,32.55,80.22Z"/><path class="cls-19" d="M21.27,86s-1.46,3.46-2,4.74.78,2.35,2-.65S22.66,85,21.27,86Z"/><path class="cls-22" d="M27.73,92.33s-4,4.76-2.38,5S30,92.19,27.73,92.33Z"/><path class="cls-22" d="M33,97.94s-2,6.54,0,6.54S35.87,96.55,33,97.94Z"/><path class="cls-22" d="M17.33,96.19s-4.4,4.34-2.88,4.92S18.93,96.74,17.33,96.19Z"/><path class="cls-19" d="M56,61.82a14.15,14.15,0,0,1,.55,4.4"/><path class="cls-19" d="M57.82,55.28s2.79,4.5,2.36,8"/><path class="cls-19" d="M61,52.24s2.78,5.85,2.56,9"/><path class="cls-19" d="M53.12,54.1s2.05,2.9,1.72,4.51"/><path class="cls-19" d="M57.25,50S58.94,52.6,59,53.68"/><path class="cls-24" d="M93.09,141.77s4.4,4.48,6.48,3.64S93.65,139.36,93.09,141.77Z"/><path class="cls-24" d="M80.85,153.73s3.74,1.84,5.27.29S79.28,151.23,80.85,153.73Z"/><path class="cls-24" d="M89.73,152s3,1.21,3.82-.28S90.32,150,89.73,152Z"/><path class="cls-24" d="M110,130.32s2.83,1.46,3.82.06S110.74,128.32,110,130.32Z"/><g class="cls-25"><path class="cls-18" d="M40.36,7.68a.57.57,0,0,1-.22,0,.6.6,0,0,1-.34-.78c1.71-4.44,6.52-4.42,6.61-4.45A.6.6,0,0,1,47,3a.59.59,0,0,1-.6.59h0A6,6,0,0,0,40.92,7.3.59.59,0,0,1,40.36,7.68Z"/></g><path class="cls-26" d="M22,80.63l5.7-8.39L0,74a27,27,0,0,0,11.3,4.08Z"/><path class="cls-4" d="M106.62,146.55s18-7.46,10.38-9.89c0,0,14.54-3.86,5.87,4-1.68,1.52-9.85,6.29-16.25,5.89Z"/><path class="cls-4" d="M123.09,124.12a32.88,32.88,0,0,1-6.7,2.21,24.15,24.15,0,0,1-3.49.45,15.66,15.66,0,0,1-3.49-.26,15.57,15.57,0,0,0,3.48.07,23.25,23.25,0,0,0,3.41-.63,31.64,31.64,0,0,0,6.44-2.51Z"/><path class="cls-4" d="M117,136.66a38.77,38.77,0,0,1-3.76,1.29c-1.26.38-2.55.68-3.85,1a34.82,34.82,0,0,1-3.93.59,14,14,0,0,1-4-.09,28.26,28.26,0,0,0,3.9-.48c1.29-.25,2.58-.48,3.86-.76l3.87-.78C114.4,137.13,115.69,136.87,117,136.66Z"/><path class="cls-4" d="M106.62,146.55a21.61,21.61,0,0,1-6.82,1.21,15.22,15.22,0,0,1-3.49-.31,7.88,7.88,0,0,1-3.19-1.39,12.29,12.29,0,0,0,3.29.81,23.83,23.83,0,0,0,3.38.14c1.13,0,2.26-.08,3.4-.16Z"/><path class="cls-4" d="M112.05,135.71s4.86-.12,6.29-2.33S114.34,134.54,112.05,135.71Z"/><path class="cls-4" d="M118.58,123.37s3.48-1.36,3.48-2.78S116.81,123.23,118.58,123.37Z"/><path class="cls-4" d="M112.05,142.24s4.36-1.42,4.58-2.79S112.2,141.09,112.05,142.24Z"/><path class="cls-4" d="M97.33,152.81s4.36-.93,5.5-2.57S99.05,152.6,97.33,152.81Z"/><path class="cls-4" d="M87.9,143c.66.41,1.28.87,1.92,1.3.3.23.62.44.94.66s.64.43,1,.61a7.24,7.24,0,0,1-2.07-1.06A12.72,12.72,0,0,1,87.9,143Z"/><path class="cls-10" d="M43.5,199.27a.73.73,0,0,0-.58.59,4.34,4.34,0,0,0-.13.9c0,.31,0,.64-.06,1a7.55,7.55,0,0,1-.11,1,4,4,0,0,1-.43-2,2.31,2.31,0,0,1,.31-1.06,1.13,1.13,0,0,1,.44-.4A.61.61,0,0,1,43.5,199.27Z"/><path class="cls-27" d="M18.48,118.79s-4.39,9.91,1.18,15.43"/><path class="cls-19" d="M93.12,133.3a18.08,18.08,0,0,0,3.37,1.57,18.55,18.55,0,0,0,3.59.92,18.88,18.88,0,0,0,3.68.26,26.11,26.11,0,0,0,3.72-.34c-.6.17-1.21.36-1.82.48a17,17,0,0,1-1.88.25,16.5,16.5,0,0,1-3.78-.16,16.33,16.33,0,0,1-3.64-1.05A12.47,12.47,0,0,1,93.12,133.3Z"/><path class="cls-27" d="M26.76,121.83s-2.29,10,2.54,14.83"/><path class="cls-27" d="M38.86,121.83s-1.62,8.27,4.54,12.35"/><path class="cls-27" d="M48.57,117s-.79,5.19,3.41,6.76"/><path class="cls-4" d="M18.71,161s-8.59-5.08-4.56-5.05S21.12,162.51,18.71,161Z"/><path class="cls-24" d="M11.58,147.79s.67,4.09,2.47,4.35S12.46,145,11.58,147.79Z"/><path class="cls-27" d="M22.24,135.71s-1.61,7,2.14,10.35"/><path class="cls-27" d="M36.06,134.79s.39,7.08,3.84,8.54"/><path class="cls-27" d="M47.47,128s1.46,6.43,5.1,8.66"/><path class="cls-27" d="M43.5,169.76s1.75,3.54,3.37,3.43"/><path class="cls-27" d="M52.57,169.33s.6,3.65-2.32,3.86"/><path class="cls-27" d="M58.68,171.26a3.51,3.51,0,0,1-.89,1.93A3.4,3.4,0,0,1,56,174.32a3.44,3.44,0,0,1,.89-1.92A3.52,3.52,0,0,1,58.68,171.26Z"/><path class="cls-27" d="M62.54,174.32s-1.18,1.64-3.86.82"/><path class="cls-27" d="M71.7,174.32s2.12,2,4,1.44"/><path class="cls-27" d="M77,171.48s.64,3,1.5,2.93"/><path class="cls-27" d="M83.48,170.28a2,2,0,0,1,.42,1.55,1.62,1.62,0,0,1-.89,1.36,7.25,7.25,0,0,1,0-1.47A3.55,3.55,0,0,1,83.48,170.28Z"/><path class="cls-27" d="M88.37,171.26a1.91,1.91,0,0,1-1.1,1.93"/><path class="cls-27" d="M15.24,138.68s-.11,5.37,3.16,7.12"/><path class="cls-28" d="M62.54,136.28A16.7,16.7,0,0,0,63.78,141a17.61,17.61,0,0,0,2.43,4.2,18.88,18.88,0,0,0,3.41,3.45,23.29,23.29,0,0,0,2,1.43c.68.45,1.41.81,2.12,1.25-.75-.33-1.51-.66-2.25-1A23.12,23.12,0,0,1,69.39,149l-1-.75-.91-.85a7.4,7.4,0,0,1-.87-.9c-.27-.32-.57-.61-.81-.95a16.54,16.54,0,0,1-2.39-4.36A13.52,13.52,0,0,1,62.54,136.28Z"/><path class="cls-28" d="M71.7,143.33A35.22,35.22,0,0,0,75,145.79a28.52,28.52,0,0,0,3.52,2,20.29,20.29,0,0,0,3.8,1.38,17.49,17.49,0,0,0,4,.48,13,13,0,0,1-4.12-.1,18.07,18.07,0,0,1-3.92-1.31,22.63,22.63,0,0,1-3.53-2.15A19.5,19.5,0,0,1,71.7,143.33Z"/><polygon class="cls-29" points="0.01 73.97 13.03 71.56 27.71 72.25 0.01 73.97"/><path class="cls-30" d="M61,22.5a9.49,9.49,0,0,1-3.6,8.34"/></g></g></g></svg>