<svg xmlns="http://www.w3.org/2000/svg" xmlns:xlink="http://www.w3.org/1999/xlink" viewBox="0 0 287.6 270.96"><defs><style>.cls-1{fill:none;}.cls-2{fill:url(#linear-gradient);}.cls-3{fill:url(#linear-gradient-2);}.cls-4{fill:url(#linear-gradient-3);}.cls-5{fill:url(#linear-gradient-4);}.cls-6{fill:url(#linear-gradient-5);}.cls-7{fill:#eb9330;}.cls-8{fill:#ed9838;}.cls-9{fill:#e99f49;}.cls-10{fill:#d67d0a;}.cls-11{fill:#ebb271;}.cls-12{fill:#e19633;}.cls-13{fill:#f1b77a;}.cls-14{fill:#f0bd7f;}.cls-15{fill:#f5d9be;}.cls-16{fill:#f5d8bb;}.cls-17{fill:#eb9431;}.cls-18{fill:url(#linear-gradient-6);}.cls-19{fill:#f0b270;}.cls-20{clip-path:url(#clip-path);}.cls-21{fill:url(#linear-gradient-7);}.cls-22{clip-path:url(#clip-path-2);}.cls-23{fill:url(#linear-gradient-8);}.cls-24{clip-path:url(#clip-path-3);}.cls-25{fill:url(#linear-gradient-9);}.cls-26{fill:url(#linear-gradient-10);}.cls-27{fill:url(#linear-gradient-11);}.cls-28{fill:#b85900;}.cls-29,.cls-34{fill:#fff;}.cls-30{fill:#ed9d43;}.cls-31{fill:#231f20;}.cls-32{fill:#4d2c11;}.cls-33{fill:url(#linear-gradient-12);}.cls-34{opacity:0.3;}.cls-35{fill:url(#linear-gradient-13);}.cls-36{fill:#f6e2c9;}.cls-37{fill:#f6aa5c;}.cls-38{fill:url(#linear-gradient-14);}.cls-39{opacity:0.2;}.cls-40{fill:#d96e00;}</style><linearGradient id="linear-gradient" x1="-2454.14" y1="24.4" x2="-2411.84" y2="24.4" gradientTransform="matrix(-1, 0, 0, 1, -2411.84, 0)" gradientUnits="userSpaceOnUse"><stop offset="0" stop-color="#c87c2d"/><stop offset="1" stop-color="#bd6300"/></linearGradient><linearGradient id="linear-gradient-2" x1="174.84" y1="-502.16" x2="209.56" y2="-502.16" gradientTransform="matrix(1, 0, 0, -1, 0, -412.37)" xlink:href="#linear-gradient"/><linearGradient id="linear-gradient-3" x1="47.07" y1="110.73" x2="47.53" y2="186.73" gradientUnits="userSpaceOnUse"><stop offset="0" stop-color="#f7e6d9"/><stop offset="1" stop-color="#f1c592"/></linearGradient><linearGradient id="linear-gradient-4" x1="141.14" y1="144.76" x2="141.14" y2="189.23" gradientUnits="userSpaceOnUse"><stop offset="0" stop-color="#e7ac60"/><stop offset="1" stop-color="#eeb475"/></linearGradient><linearGradient id="linear-gradient-5" x1="36.99" y1="11.96" x2="163.42" y2="194.58" gradientUnits="userSpaceOnUse"><stop offset="0" stop-color="#f7e6d9"/><stop offset="1" stop-color="#f0be85"/></linearGradient><linearGradient id="linear-gradient-6" x1="33.98" y1="7.31" x2="62.28" y2="86.84" gradientUnits="userSpaceOnUse"><stop offset="0" stop-color="#f6e3ca"/><stop offset="1" stop-color="#f2ca9c"/></linearGradient><clipPath id="clip-path" transform="translate(69.18 81.85)"><path id="SVGID" class="cls-1" d="M183.64,113.26C177.35,88.79,159.36,80.68,134,79.4c-22.08-1.12-30.88.07-36.38-3.49-3-1.93-8.5-3.18-12.06-3.31-2.12-.08-4.63-3.2-6.2-2.15,8.67-16.64,25.2-11.47,8.18-43L53,9.41S32.22,4,21.15,19.77,16,46.63,16,46.63,7,49.24,9,63.79c1.33,9.81,21.93,19.47,20.36,25.46,0,0-14.13,44.24,44.65,60.85l.57.15C78.66,168.9,83,177.82,84,178.89c0,0-9.58,4.25-4.68,10.22h17a4.61,4.61,0,0,0,4.6-4.32l2.61-30.19a124.64,124.64,0,0,0,49.34-8.47c4.37,19.87,9.33,31.61,10.36,32.76,0,0-9.58,4.25-4.69,10.22h16.93a4.62,4.62,0,0,0,4.61-4.37l4.11-65.31A30.43,30.43,0,0,0,183.64,113.26Z"/></clipPath><linearGradient id="linear-gradient-7" x1="89.01" y1="55.64" x2="189.75" y2="103.7" gradientUnits="userSpaceOnUse"><stop offset="0" stop-color="#f6aa5c"/><stop offset="0.16" stop-color="#ef9b3f"/><stop offset="0.33" stop-color="#e99029"/><stop offset="0.52" stop-color="#e58719"/><stop offset="0.72" stop-color="#e3830f"/><stop offset="1" stop-color="#e2810c"/></linearGradient><clipPath id="clip-path-2" transform="translate(69.18 81.85)"><path id="SVGID-2" data-name="SVGID" class="cls-1" d="M174.84,101.66s4.27-1.69,8.89-8.73,17.21-21.2,25.13-16.52c3.24,1.91-5.51,3.73-9.53,9.36-5.82,8.13-10,20.16-23,18.1"/></clipPath><linearGradient id="linear-gradient-8" x1="186.83" y1="63.66" x2="214.26" y2="80.57" xlink:href="#linear-gradient-5"/><clipPath id="clip-path-3" transform="translate(69.18 81.85)"><path id="SVGID-3" data-name="SVGID" class="cls-1" d="M66.93,8.34S38.15-2.08,23,13.18C7,29.25,13,42.57,13,42.57S3.83,56.81,9.59,66.11c11.23,18.14,22,22.09,22,22.09S75.3,98.66,86.05,66.56c8.72-26.07,6-23.1-.51-43.65C80.92,8.45,70.32,9,66.93,8.34Z"/></clipPath><linearGradient id="linear-gradient-9" x1="-31.11" y1="-68.69" x2="4.25" y2="-3.18" gradientUnits="userSpaceOnUse"><stop offset="0" stop-color="#f6aa5c"/><stop offset="1" stop-color="#e2810c"/></linearGradient><linearGradient id="linear-gradient-10" x1="62.43" y1="5.1" x2="84.51" y2="46.01" gradientUnits="userSpaceOnUse"><stop offset="0" stop-color="#f2993b"/><stop offset="1" stop-color="#e2810c"/></linearGradient><linearGradient id="linear-gradient-11" x1="19.21" y1="13.85" x2="40.68" y2="91.98" xlink:href="#linear-gradient-6"/><linearGradient id="linear-gradient-12" x1="28.35" y1="43.01" x2="30.42" y2="51.02" gradientUnits="userSpaceOnUse"><stop offset="0" stop-color="#652c12"/><stop offset="1" stop-color="#201100"/></linearGradient><linearGradient id="linear-gradient-13" x1="-164.11" y1="183.98" x2="-164.11" y2="193.67" gradientTransform="matrix(0.99, -0.11, 0.11, 0.99, 174, -140.75)" gradientUnits="userSpaceOnUse"><stop offset="0" stop-color="#ff8190"/><stop offset="1" stop-color="#ff4c72"/></linearGradient><linearGradient id="linear-gradient-14" x1="228.01" y1="-111.46" x2="271.66" y2="-111.46" gradientTransform="translate(-178.68 108.17) rotate(5.76)" xlink:href="#linear-gradient"/></defs><g id="Layer_2" data-name="Layer 2"><g id="Layer_1-2" data-name="Layer 1"><path class="cls-2" d="M42.21,17c.68-4-2.35-5.78-6.54-6.37A13.41,13.41,0,0,1,29.13,8C23.84,3.78,8.34,6.51,6.56,20.16,5,32.33-.09,34.68,0,38.7.14,45,37.07,47.24,42.21,17Z" transform="translate(69.18 81.85)"/><path class="cls-3" d="M174.84,101.66s4.27-1.69,8.89-8.73,17.21-21.2,25.13-16.52c3.24,1.91-5.51,3.73-9.53,9.36-5.82,8.13-10,20.16-23,18.1" transform="translate(69.18 81.85)"/><path class="cls-4" d="M29,111s14.55,65.78,16.47,67.91c0,0-9.58,4.25-4.69,10.22h17a4.62,4.62,0,0,0,4.61-4.32l.36-5.57,2.72-31.9Z" transform="translate(69.18 81.85)"/><path class="cls-5" d="M127,153.13s6.33,23.63,8.25,25.76c0,0-9.59,4.25-4.69,10.22h17a4.62,4.62,0,0,0,4.61-4.32l3.22-39.7-28.36,8" transform="translate(69.18 81.85)"/><path class="cls-6" d="M183.64,113.26C177.35,88.79,159.36,80.68,134,79.4c-22.08-1.12-30.88.07-36.38-3.49-3-1.93-8.5-3.18-12.06-3.31-2.12-.08-4.07-2.95-5.64-1.9C86,49.29,73.86,51,81.27,27.17L53,9.41S32.22,4,21.15,19.77,16,46.63,16,46.63s-4.86,1.66-2.88,16.2c1.33,9.82,17.77,20.43,16.2,26.42,0,0-14.13,44.24,44.65,60.85l.57.15C78.66,168.9,83,177.82,84,178.89c0,0-9.58,4.25-4.68,10.22h17a4.61,4.61,0,0,0,4.6-4.32l2.61-30.19a124.64,124.64,0,0,0,49.34-8.47c4.37,19.87,9.33,31.61,10.36,32.76,0,0-9.58,4.25-4.69,10.22h16.93a4.62,4.62,0,0,0,4.61-4.37l4.11-65.31A30.43,30.43,0,0,0,183.64,113.26Z" transform="translate(69.18 81.85)"/><path class="cls-7" d="M100,77.05s3.89.52,5-.82a3,3,0,0,1-2.37,1.57S100.16,77.74,100,77.05Z" transform="translate(69.18 81.85)"/><path class="cls-8" d="M95.53,74.84a11.59,11.59,0,0,1,5,1.52s-2.28-1.19-2.49,0Z" transform="translate(69.18 81.85)"/><path class="cls-9" d="M46.15,189.11a6.93,6.93,0,0,1-1.24-2.73,7.11,7.11,0,0,1,0-3.08,5.44,5.44,0,0,1,1.55-2.71,5.6,5.6,0,0,1,2.64-1.44,12.8,12.8,0,0,0-1.94,2,6.36,6.36,0,0,0-1.09,2.38A14.15,14.15,0,0,0,46.15,189.11Z" transform="translate(69.18 81.85)"/><path class="cls-9" d="M53.25,189.11A6.93,6.93,0,0,1,52,186.38a7.11,7.11,0,0,1,0-3.08,5.44,5.44,0,0,1,1.55-2.71,5.55,5.55,0,0,1,2.64-1.44,12.8,12.8,0,0,0-1.94,2,6.36,6.36,0,0,0-1.09,2.38A14,14,0,0,0,53.25,189.11Z" transform="translate(69.18 81.85)"/><path class="cls-9" d="M84.53,189.11a7.23,7.23,0,0,1-1.23-5.81,5.29,5.29,0,0,1,1.55-2.71,5.55,5.55,0,0,1,2.64-1.44,12.8,12.8,0,0,0-1.94,2,6.36,6.36,0,0,0-1.09,2.38A14.15,14.15,0,0,0,84.53,189.11Z" transform="translate(69.18 81.85)"/><path class="cls-9" d="M91.63,189.11a7.23,7.23,0,0,1-1.23-5.81A5.29,5.29,0,0,1,92,180.59a5.51,5.51,0,0,1,2.64-1.44,12.8,12.8,0,0,0-1.94,2,6.36,6.36,0,0,0-1.09,2.38A14.15,14.15,0,0,0,91.63,189.11Z" transform="translate(69.18 81.85)"/><path class="cls-10" d="M135.63,189.11a7.18,7.18,0,0,1-1.24-5.81,5.44,5.44,0,0,1,1.55-2.71,5.55,5.55,0,0,1,2.64-1.44,12.8,12.8,0,0,0-1.94,2,6.36,6.36,0,0,0-1.09,2.38A14,14,0,0,0,135.63,189.11Z" transform="translate(69.18 81.85)"/><path class="cls-10" d="M142.72,189.11a6.77,6.77,0,0,1-1.23-2.73,7,7,0,0,1,0-3.08,5.37,5.37,0,0,1,1.55-2.71,5.55,5.55,0,0,1,2.64-1.44,12.8,12.8,0,0,0-1.94,2,6.36,6.36,0,0,0-1.09,2.38A14.15,14.15,0,0,0,142.72,189.11Z" transform="translate(69.18 81.85)"/><path class="cls-9" d="M163.69,189.11a7.05,7.05,0,0,1-1.23-2.73,7,7,0,0,1,0-3.08,5.44,5.44,0,0,1,1.55-2.71,5.55,5.55,0,0,1,2.64-1.44,12.8,12.8,0,0,0-1.94,2,6.36,6.36,0,0,0-1.09,2.38A14.15,14.15,0,0,0,163.69,189.11Z" transform="translate(69.18 81.85)"/><path class="cls-9" d="M170.79,189.11a6.77,6.77,0,0,1-1.23-2.73,7,7,0,0,1,0-3.08,5.37,5.37,0,0,1,1.55-2.71,5.55,5.55,0,0,1,2.64-1.44,12.8,12.8,0,0,0-1.94,2,6.36,6.36,0,0,0-1.09,2.38A14.15,14.15,0,0,0,170.79,189.11Z" transform="translate(69.18 81.85)"/><path class="cls-11" d="M161.64,162.49c.47,1,.91,2.11,1.38,3.15a18,18,0,0,0,1.61,3c.15.19.35.43.5.47s.15,0,.22,0,.19-.07.28-.17a4.92,4.92,0,0,0,1-1.26,32.41,32.41,0,0,0,1.54-3.06A15,15,0,0,1,167,167.9a4.74,4.74,0,0,1-1,1.49,1.74,1.74,0,0,1-.46.27,1,1,0,0,1-.61,0,2,2,0,0,1-.77-.66,12.81,12.81,0,0,1-1.55-3.15A25.82,25.82,0,0,1,161.64,162.49Z" transform="translate(69.18 81.85)"/><path class="cls-12" d="M139.5,167.6c.52,1,1,2.08,1.5,3.12a18.8,18.8,0,0,0,1.6,2.91c.15.19.36.42.44.43s.08,0,.13,0,.15-.05.24-.14a5.11,5.11,0,0,0,1-1.21c.58-1,1.11-2,1.65-3a13.21,13.21,0,0,1-1,3.34,4.67,4.67,0,0,1-1.07,1.54,1.45,1.45,0,0,1-.5.3,1,1,0,0,1-.71,0,2.08,2.08,0,0,1-.82-.7,12.11,12.11,0,0,1-1.55-3.2A20.65,20.65,0,0,1,139.5,167.6Z" transform="translate(69.18 81.85)"/><path class="cls-11" d="M170.08,168.48c.8,1.26,1.43,2.56,2.2,3.7.37.55.86,1.12,1.28,1.1s1-.68,1.43-1.25a4,4,0,0,1-.34,1.09,1.4,1.4,0,0,1-2.3.47,4.55,4.55,0,0,1-.81-.9A9.24,9.24,0,0,1,170.08,168.48Z" transform="translate(69.18 81.85)"/><path class="cls-13" d="M90.23,170.45c.8,1.26,1.42,2.56,2.2,3.7.37.55.86,1.12,1.28,1.1s1-.68,1.43-1.25a4,4,0,0,1-.34,1.09,1.59,1.59,0,0,1-1,.85,1.54,1.54,0,0,1-1.32-.39,4.24,4.24,0,0,1-.81-.89A9.24,9.24,0,0,1,90.23,170.45Z" transform="translate(69.18 81.85)"/><path class="cls-13" d="M44.74,168.49c.8,1.25,1.43,2.56,2.2,3.7.37.55.86,1.11,1.28,1.1s1-.68,1.43-1.25a4,4,0,0,1-.34,1.09,1.39,1.39,0,0,1-2.3.46,4.16,4.16,0,0,1-.8-.89A9.14,9.14,0,0,1,44.74,168.49Z" transform="translate(69.18 81.85)"/><path class="cls-9" d="M163.74,177.16a7.51,7.51,0,0,0,3.3,1,23.64,23.64,0,0,0,3.47,0c1.16-.08,2.31-.24,3.47-.4l3.48-.57c-.55.21-1.12.38-1.68.57s-1.14.3-1.71.45a23.2,23.2,0,0,1-3.52.54,14.72,14.72,0,0,1-3.57-.15A6.07,6.07,0,0,1,163.74,177.16Z" transform="translate(69.18 81.85)"/><path class="cls-9" d="M84.28,177.16a7.51,7.51,0,0,0,3.3,1,23.64,23.64,0,0,0,3.47,0c1.16-.08,2.31-.24,3.47-.4l3.48-.57c-.55.21-1.12.38-1.68.57s-1.14.3-1.71.45a23,23,0,0,1-3.52.54,14.72,14.72,0,0,1-3.57-.15A6.07,6.07,0,0,1,84.28,177.16Z" transform="translate(69.18 81.85)"/><path class="cls-9" d="M46.16,177.16a7.51,7.51,0,0,0,3.3,1,23.64,23.64,0,0,0,3.47,0c1.16-.08,2.31-.24,3.47-.4l3.48-.57c-.55.21-1.12.38-1.68.57s-1.14.3-1.71.45a23.2,23.2,0,0,1-3.52.54,14.72,14.72,0,0,1-3.57-.15A6.07,6.07,0,0,1,46.16,177.16Z" transform="translate(69.18 81.85)"/><path class="cls-10" d="M135.91,177.16a7.54,7.54,0,0,0,3.3,1,23.64,23.64,0,0,0,3.47,0c1.16-.08,2.32-.24,3.47-.4l3.48-.57c-.55.21-1.12.38-1.68.57s-1.14.3-1.71.45a23,23,0,0,1-3.52.54,14.74,14.74,0,0,1-3.57-.15A6.07,6.07,0,0,1,135.91,177.16Z" transform="translate(69.18 81.85)"/><path class="cls-14" d="M74,150s-3.13-19.84-9.94-20.12" transform="translate(69.18 81.85)"/><path class="cls-14" d="M103.87,154.73l.65-11.45s-.43-5.25,4.4-6.81" transform="translate(69.18 81.85)"/><path class="cls-14" d="M152.62,145.6l-4.52-13.24s-2.89-3.25-6.24-2.82" transform="translate(69.18 81.85)"/><path class="cls-13" d="M32.36,93.56a14.74,14.74,0,0,0,4.76,1.85,18.68,18.68,0,0,0,5.06.33,23.81,23.81,0,0,0,5-.89c.83-.21,1.63-.53,2.45-.79l2.4-1c-.75.43-1.52.83-2.29,1.23s-1.59.69-2.42,1a21.67,21.67,0,0,1-5.12,1A17.54,17.54,0,0,1,37,95.85,11.92,11.92,0,0,1,32.36,93.56Z" transform="translate(69.18 81.85)"/><path class="cls-13" d="M132.31,135.86c.78.4,1.51.82,2.22,1.24s1.42.84,2.14,1.21a17.46,17.46,0,0,0,4.53,1.85,5,5,0,0,1-2.63.12,9,9,0,0,1-2.47-.92,11,11,0,0,1-2.12-1.51A8.88,8.88,0,0,1,132.31,135.86Z" transform="translate(69.18 81.85)"/><path class="cls-13" d="M48.58,121.75c1.47.88,2.84,1.8,4.28,2.58a14.42,14.42,0,0,0,4.6,1.72,5.53,5.53,0,0,1-2.59,0,9.47,9.47,0,0,1-2.44-.93A11.68,11.68,0,0,1,48.58,121.75Z" transform="translate(69.18 81.85)"/><path class="cls-13" d="M39.38,115.38c.36.62.73,1.19,1.1,1.75a11.62,11.62,0,0,0,1.2,1.55A5.66,5.66,0,0,0,45,120.56a3.62,3.62,0,0,1-2.16,0A4.87,4.87,0,0,1,41,119.29,6.38,6.38,0,0,1,39.38,115.38Z" transform="translate(69.18 81.85)"/><path class="cls-13" d="M119,131.67a13.49,13.49,0,0,0,1.1,5.74,6.14,6.14,0,0,0,1.74,2.16,13.54,13.54,0,0,0,2.55,1.56,6,6,0,0,1-3.08-.79,5.58,5.58,0,0,1-1.32-1,6.83,6.83,0,0,1-1-1.38,7,7,0,0,1-.7-3.19A7.1,7.1,0,0,1,119,131.67Z" transform="translate(69.18 81.85)"/><path class="cls-13" d="M33.85,111.89a13.49,13.49,0,0,0,1.1,5.74,6.14,6.14,0,0,0,1.74,2.16,13.54,13.54,0,0,0,2.55,1.56,6.07,6.07,0,0,1-3.08-.79,6.17,6.17,0,0,1-1.32-1A6.43,6.43,0,0,1,33.18,115,7.1,7.1,0,0,1,33.85,111.89Z" transform="translate(69.18 81.85)"/><path class="cls-13" d="M54.37,167.07c.44,1.74.78,3.45,1.32,5.07a8.77,8.77,0,0,0,1.08,2.24,2.87,2.87,0,0,0,2.08,1.23,6.52,6.52,0,0,1-.68.1,4.37,4.37,0,0,1-.7-.1,3.06,3.06,0,0,1-1.22-.77,6.41,6.41,0,0,1-1.41-2.41A12.06,12.06,0,0,1,54.37,167.07Z" transform="translate(69.18 81.85)"/><path class="cls-13" d="M54.24,111.89a19.11,19.11,0,0,0,.92,6.1,8.9,8.9,0,0,0,1.44,2.59,13.68,13.68,0,0,0,2.25,2.17,6.48,6.48,0,0,1-2.93-1.53A6.94,6.94,0,0,1,54,118.4a9,9,0,0,1-.5-3.31A8.29,8.29,0,0,1,54.24,111.89Z" transform="translate(69.18 81.85)"/><path class="cls-13" d="M83.67,168.49c.18,1.32.24,2.57.48,3.78a6.61,6.61,0,0,0,1.43,3.36A3.08,3.08,0,0,1,84,174.36a5.11,5.11,0,0,1-.73-1.93A7.06,7.06,0,0,1,83.67,168.49Z" transform="translate(69.18 81.85)"/><path class="cls-13" d="M112.72,141.13c1.09.65,2,1.31,2.93,1.87.46.3.95.53,1.44.79s1,.42,1.63.67A4.14,4.14,0,0,1,115,144a6.08,6.08,0,0,1-1.43-1.24A4.43,4.43,0,0,1,112.72,141.13Z" transform="translate(69.18 81.85)"/><path class="cls-15" d="M29.49,89.46s-4.32,6.24-2.94,9c0,0,.32-2,1.58-2.17Z" transform="translate(69.18 81.85)"/><path class="cls-15" d="M27.92,97.45a12.46,12.46,0,0,0-.34,6.81s-.27-2.7.71-2.49Z" transform="translate(69.18 81.85)"/><path class="cls-16" d="M28.42,107.94s.5,3.73-.66,4.45c0,0,1.46.34,1.33-1.81C29.09,110.58,29.37,107.89,28.42,107.94Z" transform="translate(69.18 81.85)"/><path class="cls-17" d="M104.75,78.19s2.65-.11,3.66-1.37c0,0-.41,1.32-1.45,1.55C107,78.37,105.09,79.39,104.75,78.19Z" transform="translate(69.18 81.85)"/><path class="cls-11" d="M172.85,162.07a31.52,31.52,0,0,0,1.45,4.37,6.44,6.44,0,0,0,2.83,3.4,3.73,3.73,0,0,1-2.07-1.15,6.76,6.76,0,0,1-1.31-2,10.62,10.62,0,0,1-.69-2.27A10.25,10.25,0,0,1,172.85,162.07Z" transform="translate(69.18 81.85)"/><path class="cls-12" d="M133.42,164l.47,2.23c.18.72.34,1.44.58,2.13a12.94,12.94,0,0,0,.85,2,9.17,9.17,0,0,0,1.35,1.76,4.38,4.38,0,0,1-1.92-1.36,6.73,6.73,0,0,1-1.13-2.11A8.62,8.62,0,0,1,133.42,164Z" transform="translate(69.18 81.85)"/><path class="cls-18" d="M66.75,8.7s-28.2-11.47-44,4.84-9.73,28.88-9.73,28.88-9.12,14.24-3.64,24c9.52,17,22,22.09,22,22.09S75.52,99.15,85.87,66.92c8.36-26.07,7-22.3-.51-43.65C80.31,9,70.14,9.35,66.75,8.7Z" transform="translate(69.18 81.85)"/><path class="cls-13" d="M86.22,58.19A12.46,12.46,0,0,1,81,60.78a14.39,14.39,0,0,1-2.91.42A11.46,11.46,0,0,1,75.17,61c1.93-.3,3.78-.58,5.61-1.05A46.84,46.84,0,0,0,86.22,58.19Z" transform="translate(69.18 81.85)"/><path class="cls-19" d="M75.82,69.64a11.07,11.07,0,0,1,.25,2.93,11.81,11.81,0,0,1-.48,2.94A9.54,9.54,0,0,1,74.3,78.2a7.69,7.69,0,0,1-2.13,2A12.42,12.42,0,0,0,73.91,78,13,13,0,0,0,75,75.34,20.87,20.87,0,0,0,75.82,69.64Z" transform="translate(69.18 81.85)"/><path class="cls-19" d="M68.69,78.23a3.32,3.32,0,0,1,1,2.33,3.1,3.1,0,0,1-1,2.34A11.75,11.75,0,0,0,69,81.72a5.61,5.61,0,0,0,.08-1.15A9.38,9.38,0,0,0,68.69,78.23Z" transform="translate(69.18 81.85)"/><path class="cls-13" d="M51.24,85A6.37,6.37,0,0,0,55,87.12a10.38,10.38,0,0,0,2.17.15l1.12-.08c.38,0,.76-.1,1.16-.11-.34.21-.7.36-1.06.54s-.75.25-1.14.34a6.15,6.15,0,0,1-2.42,0,5,5,0,0,1-2.22-1A3.86,3.86,0,0,1,51.24,85Z" transform="translate(69.18 81.85)"/><g class="cls-20"><path class="cls-21" d="M88.23,64s-1.4,52.85,97.87,46C262.58,104.71,143.86,25.06,88.23,64Z" transform="translate(69.18 81.85)"/></g><g class="cls-22"><path class="cls-23" d="M192.2,82s12,.34,14.34,8,11.88-5.22,11.88-7.57-4.75-17.67-4.75-17.67l-26-.86Z" transform="translate(69.18 81.85)"/></g><g class="cls-24"><path class="cls-25" d="M-67.34-2S-37.08,2.2-36.82-32.35c.1-13,11.32-31.76,13-25.8.7,2.51-5.12,24.9-5.88,30.22-2.82,19.89,22.54,38,47.63,25,15.4-8,23.33-57.64,24.38-63.52L-6.36-81.56s-29.45-1.42-31.7,2S-52.39-63.44-54.37-57.36s-14.81,32.3-14.81,32.81S-67.34-2-67.34-2Z" transform="translate(69.18 81.85)"/><path class="cls-26" d="M58.85-2S39.72,5.46,37.3,22.75,40.82,47.2,45,50.93C63.19,67,91.45,51.12,94,37.37c1.08-5.88,11.6,10,18.33-6.68s.42-3.5-1.54-12S86.52-.68,84.38-2.25,58.85-2,58.85-2Z" transform="translate(69.18 81.85)"/></g><path class="cls-27" d="M31.35,44S14.73,56.18,12.64,64.76c-.78,3.23-4.73-8.17-4.73-8.17s4.94,13.89,7.77,18.25S60.33,87,60.33,87L55.44,61.82C33.73,50.71,45.3,44.34,35.74,43.46Z" transform="translate(69.18 81.85)"/><path class="cls-28" d="M29.68,60.09a6.69,6.69,0,0,1-2-1.79,7,7,0,0,1-1.15-2.45,6.4,6.4,0,0,1-.08-2.72,5,5,0,0,1,1.09-2.42,14.36,14.36,0,0,0-.16,2.5,10.24,10.24,0,0,0,.31,2.36,12.15,12.15,0,0,0,.79,2.26C28.85,58.58,29.28,59.29,29.68,60.09Z" transform="translate(69.18 81.85)"/><ellipse class="cls-29" cx="94.28" cy="121.5" rx="9.57" ry="9.99"/><path class="cls-30" d="M25.1,49.79a10.15,10.15,0,0,1,0-20.29,10.15,10.15,0,0,1,0,20.29Zm0-20a9.65,9.65,0,0,0-9.42,9.85,9.64,9.64,0,0,0,9.42,9.84,9.85,9.85,0,0,0,0-19.69Z" transform="translate(69.18 81.85)"/><ellipse class="cls-31" cx="91.41" cy="121.5" rx="6.07" ry="6.34"/><ellipse class="cls-32" cx="94.65" cy="105.37" rx="2.83" ry="0.88"/><path class="cls-33" d="M21.27,48a4.22,4.22,0,0,1,1.61-3.75c1.51-1,4.23-1.17,6.63-1.17,2,0,4.81-.28,6.23.42,1.84.9,2,3,2,4.5,0,2.71-3.68,4.91-8.23,4.91S21.27,50.67,21.27,48Z" transform="translate(69.18 81.85)"/><circle class="cls-29" cx="121.06" cy="122.53" r="11.07"/><path class="cls-30" d="M51.88,51.91A11.23,11.23,0,1,1,63.11,40.68,11.24,11.24,0,0,1,51.88,51.91Zm0-22.15A10.93,10.93,0,1,0,62.81,40.68,10.93,10.93,0,0,0,51.88,29.76Z" transform="translate(69.18 81.85)"/><circle class="cls-31" cx="118.04" cy="122.34" r="7.01"/><ellipse class="cls-32" cx="119.77" cy="105.37" rx="3.18" ry="0.88"/><ellipse class="cls-34" cx="95.02" cy="127.76" rx="1.83" ry="0.87"/><path class="cls-35" d="M25.84,60.66s.95,9.26,5.62,9,4.34-8.84,4.34-8.84a8.64,8.64,0,0,1-5.86-.6A28.47,28.47,0,0,0,25.84,60.66Z" transform="translate(69.18 81.85)"/><path class="cls-28" d="M20.52,55.74a7,7,0,0,0,.94,2.92,3.9,3.9,0,0,0,2.21,1.81,6.12,6.12,0,0,0,2.92.08,15.27,15.27,0,0,0,2.92-.87l.19-.08.2.1a8.86,8.86,0,0,0,3.33,1,8.18,8.18,0,0,0,3.47-.41,11.85,11.85,0,0,0,5.5-4.53,13.2,13.2,0,0,1-2.15,3,9.35,9.35,0,0,1-3.11,2.14,8.24,8.24,0,0,1-3.77.61,9.48,9.48,0,0,1-3.72-1l.39,0a14.83,14.83,0,0,1-3.11.9,6.28,6.28,0,0,1-3.29-.27,4.43,4.43,0,0,1-2.38-2.26A6.55,6.55,0,0,1,20.52,55.74Z" transform="translate(69.18 81.85)"/><path class="cls-36" d="M46,4.9S41.12,3.68,41.08,0c0,0-1.89,3.53,0,5.18Z" transform="translate(69.18 81.85)"/><path class="cls-37" d="M53.89,5.59s-2.48-1.5-2.69-3.76a3.9,3.9,0,0,0,0,3.45Z" transform="translate(69.18 81.85)"/><path class="cls-12" d="M29.3,87.29a45.9,45.9,0,0,0,5,1c1.68.25,3.37.45,5.06.59s3.39.22,5.09.27,3.41,0,5.13,0c-.85.14-1.7.25-2.55.35s-1.72.15-2.58.17a40.25,40.25,0,0,1-5.15-.1,36.64,36.64,0,0,1-5.11-.77A23.2,23.2,0,0,1,29.3,87.29Z" transform="translate(69.18 81.85)"/><path class="cls-38" d="M60,14.43a7.89,7.89,0,0,1,7.78-8.1A14.27,14.27,0,0,0,75,4.27c6-3.86,22.09.78,22.53,15.3.38,13,6.48,19.34,2.52,20.93C91.33,44,61.6,45.47,60,14.43Z" transform="translate(69.18 81.85)"/><g class="cls-39"><path class="cls-29" d="M74.74,7.55a.33.33,0,0,1-.09-.11.59.59,0,0,1,.14-.83c.15-.1,3.67-2.52,9.11-.52a.6.6,0,1,1-.41,1.13c-4.83-1.77-7.88.28-8,.37A.6.6,0,0,1,74.74,7.55Z" transform="translate(69.18 81.85)"/></g><path class="cls-40" d="M164.76,94.73A12.68,12.68,0,0,1,170,98.35a11.51,11.51,0,0,1,1.79,2.68,9.87,9.87,0,0,1,.91,3.07,21.48,21.48,0,0,0-1.42-2.79,17.8,17.8,0,0,0-1.84-2.47,25.16,25.16,0,0,0-2.2-2.18A29.8,29.8,0,0,0,164.76,94.73Z" transform="translate(69.18 81.85)"/><path class="cls-40" d="M163.74,101.88a5.7,5.7,0,0,1,1.27,1.18,7.22,7.22,0,0,1,.94,1.47,6.69,6.69,0,0,1,.7,3.37c-.17-.55-.3-1.1-.5-1.62a13.77,13.77,0,0,0-.65-1.53A17.41,17.41,0,0,0,163.74,101.88Z" transform="translate(69.18 81.85)"/></g></g></svg>