<svg xmlns="http://www.w3.org/2000/svg" xmlns:xlink="http://www.w3.org/1999/xlink" viewBox="0 0 51.01 227.42"><defs><style>.cls-1{fill:#f39900;}.cls-2{fill:#ffd2a7;}.cls-3{fill:url(#linear-gradient);}.cls-4{fill:#d36300;}.cls-5{fill:#ea7200;}.cls-6{opacity:0.3;}.cls-7{fill:#fff;}.cls-8{fill:#c6c6c6;}.cls-9{fill:url(#linear-gradient-2);}.cls-10{fill:#a8a8a8;}.cls-11{fill:url(#linear-gradient-3);}.cls-12{fill:#ffc185;}.cls-13{fill:url(#linear-gradient-4);}.cls-14{fill:#323232;}.cls-15{opacity:0.2;}</style><linearGradient id="linear-gradient" x1="1.59" y1="125.13" x2="49.42" y2="125.13" gradientUnits="userSpaceOnUse"><stop offset="0" stop-color="#f39900"/><stop offset="0.19" stop-color="#ef8600"/><stop offset="0.48" stop-color="#eb6f00"/><stop offset="0.76" stop-color="#e86100"/><stop offset="1" stop-color="#e75c00"/></linearGradient><linearGradient id="linear-gradient-2" x1="25.51" y1="204.75" x2="25.51" y2="226.71" gradientUnits="userSpaceOnUse"><stop offset="0" stop-color="#f74200"/><stop offset="0.23" stop-color="#f13700"/><stop offset="0.64" stop-color="#ea2900"/><stop offset="1" stop-color="#e82400"/></linearGradient><linearGradient id="linear-gradient-3" x1="25.51" y1="34.67" x2="49.42" y2="34.67" gradientUnits="userSpaceOnUse"><stop offset="0" stop-color="#fba34b"/><stop offset="1" stop-color="#fbbc7d"/></linearGradient><linearGradient id="linear-gradient-4" x1="1.59" y1="34.67" x2="25.51" y2="34.67" gradientUnits="userSpaceOnUse"><stop offset="0" stop-color="#ffc185"/><stop offset="1" stop-color="#ffe1c5"/></linearGradient></defs><g id="Layer_2" data-name="Layer 2"><g id="Layer_1-2" data-name="Layer 1"><rect class="cls-1" x="1.59" y="61.62" width="47.82" height="127.02"/><polygon class="cls-2" points="17.4 61.62 25.11 69.34 32.81 61.62 17.4 61.62"/><polygon class="cls-2" points="34.01 61.62 41.71 69.34 49.42 61.62 34.01 61.62"/><rect class="cls-3" x="1.59" y="61.62" width="47.82" height="127.02"/><polygon class="cls-2" points="1.59 61.62 25.5 0 49.42 61.62 1.59 61.62"/><rect class="cls-4" x="33.21" y="61.62" width="16.21" height="127.02"/><rect class="cls-5" x="17" y="61.62" width="16.21" height="127.02"/><g class="cls-6"><path class="cls-7" d="M17,189.39a.74.74,0,0,1-.74-.75v-127a.75.75,0,0,1,1.49,0v127A.74.74,0,0,1,17,189.39Z"/></g><g class="cls-6"><path class="cls-7" d="M34,189.39a.74.74,0,0,1-.75-.75v-127a.75.75,0,0,1,1.49,0v127A.74.74,0,0,1,34,189.39Z"/></g><rect class="cls-8" x="1.59" y="188.64" width="47.82" height="15.4"/><path class="cls-9" d="M1.59,204H49.42a0,0,0,0,1,0,0v15.54a7.84,7.84,0,0,1-7.84,7.84H9.44a7.84,7.84,0,0,1-7.84-7.84V204a0,0,0,0,1,0,0Z"/><rect class="cls-10" y="192.09" width="51.01" height="3.19"/><rect class="cls-10" y="198.06" width="51.01" height="3.19"/><polygon class="cls-2" points="1.59 61.62 9.3 69.34 17 61.62 1.59 61.62"/><polygon class="cls-11" points="34.01 61.62 25.5 0 49.42 61.62 41.71 69.34 34.01 61.62"/><polygon class="cls-12" points="34.01 61.62 25.11 69.34 17.4 61.62 25.5 0 34.01 61.62"/><polygon class="cls-13" points="1.59 61.62 25.5 0 17.4 61.62 9.3 69.34 1.59 61.62"/><polygon class="cls-14" points="25.5 0 17 21.91 34.01 21.91 25.5 0"/><g class="cls-15"><path class="cls-7" d="M5,216.48a.76.76,0,0,1-.75-.75v-8.5a.75.75,0,0,1,1.5,0v8.5A.76.76,0,0,1,5,216.48Z"/></g></g></g></svg>