<svg xmlns="http://www.w3.org/2000/svg" xmlns:xlink="http://www.w3.org/1999/xlink" viewBox="0 0 168.96 164.44"><defs><style>.cls-1{fill:none;}.cls-2{isolation:isolate;}.cls-3{fill:#e9e9e9;}.cls-4{fill:url(#radial-gradient);}.cls-5{clip-path:url(#clip-path);}.cls-6{fill:#646464;}.cls-7{fill:#a8a8a8;}.cls-8{fill:#231f20;}.cls-9{mix-blend-mode:multiply;fill:url(#radial-gradient-2);}.cls-10,.cls-9{opacity:0.3;}.cls-11{fill:#fff;}.cls-12{opacity:0.2;}</style><radialGradient id="radial-gradient" cx="82.83" cy="83.55" fx="65.70956277306155" fy="55.69946025495412" r="80.89" gradientUnits="userSpaceOnUse"><stop offset="0" stop-color="#f3f3f3"/><stop offset="0.28" stop-color="#eee"/><stop offset="0.62" stop-color="#e0e0e0"/><stop offset="0.98" stop-color="#c8c8c8"/><stop offset="1" stop-color="#c6c6c6"/></radialGradient><clipPath id="clip-path" transform="translate(1.94 2.66)"><circle id="SVGID" class="cls-1" cx="80.89" cy="80.89" r="80.87"/></clipPath><radialGradient id="radial-gradient-2" cx="85.45" cy="94.77" r="71.83" gradientUnits="userSpaceOnUse"><stop offset="0" stop-color="#efefef" stop-opacity="0"/><stop offset="0.16" stop-color="#eaeaea" stop-opacity="0.04"/><stop offset="0.35" stop-color="#dcdcdc" stop-opacity="0.16"/><stop offset="0.56" stop-color="#c4c4c4" stop-opacity="0.36"/><stop offset="0.77" stop-color="#a3a3a3" stop-opacity="0.64"/><stop offset="1" stop-color="#797979"/><stop offset="1" stop-color="#787878"/></radialGradient></defs><g class="cls-2"><g id="Layer_2" data-name="Layer 2"><g id="Layer_1-2" data-name="Layer 1"><circle class="cls-3" cx="82.83" cy="83.55" r="80.87"/><circle class="cls-4" cx="82.83" cy="83.55" r="80.87"/><g class="cls-5"><path class="cls-6" d="M40.25,95.86l-.19-.72a164.33,164.33,0,0,1-5.57-40.31v-.74H36v.75a162.7,162.7,0,0,0,5.51,39.9l.2.72Z" transform="translate(1.94 2.66)"/><path class="cls-6" d="M99.12,41.39l-.67-.34c-14.71-7.42-33.68-9.71-33.87-9.73l-.74-.09L64,29.75l.74.09c.19,0,19.42,2.34,34.37,9.88l.67.34Z" transform="translate(1.94 2.66)"/><path class="cls-6" d="M81.76,113.33,81.18,112l.68-.29c10.5-4.46,29.33-29.87,29.52-30.13l.44-.6,1.2.89-.44.6c-.79,1.06-19.26,26-30.13,30.61Z" transform="translate(1.94 2.66)"/><path class="cls-6" d="M137.61,120.79l-1.31-.71.35-.66c3.37-6.22-.37-28.64-.41-28.86l-.12-.74,1.47-.24.12.73c.16.94,3.86,23.15.25,29.82Z" transform="translate(1.94 2.66)"/><path class="cls-6" d="M102.53,144.42a102.88,102.88,0,0,1-16.94-1.55l-.73-.13.27-1.47.73.14c.18,0,17.68,3.21,28.09.23l.72-.21.41,1.43-.72.21A44.72,44.72,0,0,1,102.53,144.42Z" transform="translate(1.94 2.66)"/><path class="cls-6" d="M165.56,87.39l-4.63-11.22A46.57,46.57,0,0,0,149.5,60.44l-.58-.48,1-1.14.57.47a47.45,47.45,0,0,1,11.86,16.3l4.63,11.23Z" transform="translate(1.94 2.66)"/><path class="cls-6" d="M20.65,118.94l-.59-.46C19.38,118,3.25,105.43,0,99.71l-.37-.65,1.3-.74.37.65c3.13,5.46,19.54,18.2,19.7,18.33l.59.46Z" transform="translate(1.94 2.66)"/><path class="cls-6" d="M52.23,158.47l-.46-.59c-1.88-2.42-5.4-10.4-5.55-10.74l-.3-.68,1.37-.6.3.68c0,.08,3.59,8.15,5.36,10.43l.45.59Z" transform="translate(1.94 2.66)"/><path class="cls-6" d="M-.47,78.87l-1.47-.27.14-.74c2-10.53,13-30.43,13.45-31.28l.36-.65,1.3.73-.36.65c-.11.2-11.36,20.53-13.29,30.83Z" transform="translate(1.94 2.66)"/><path class="cls-6" d="M129.11,32.15l-.15-.73c0-.16-3.22-15.9-5.37-22.48l-.23-.71,1.42-.46.23.71c2.17,6.66,5.38,22.49,5.41,22.65l.15.73Z" transform="translate(1.94 2.66)"/><path class="cls-6" d="M61.45,8.86,60.66,7.6l.63-.4A77.36,77.36,0,0,1,89.94-2.2l.74-.1.19,1.48-.74.1a75.93,75.93,0,0,0-28,9.18Z" transform="translate(1.94 2.66)"/><path class="cls-7" d="M41.14,96.94l-.2-.72C35.2,75.35,35.1,54.14,35.1,53.93v-.75h1.49v.74c0,.21.11,21.23,5.79,41.9l.2.72Z" transform="translate(1.94 2.66)"/><path class="cls-7" d="M100.88,41.38l-.67-.34C85.48,33.61,63.58,29.8,63.36,29.76l-.74-.12.25-1.47.74.12c.22,0,22.34,3.89,37.28,11.42l.66.34Z" transform="translate(1.94 2.66)"/><path class="cls-7" d="M78.81,114.15l-.58-1.37.69-.29C89.43,108,112.57,78.65,112.8,78.35l.46-.58,1.18.92-.46.58c-1,1.23-23.62,30-34.48,34.59Z" transform="translate(1.94 2.66)"/><path class="cls-7" d="M136.18,124.63l-1.31-.7.35-.66c3.38-6.24.12-34.08.08-34.36l-.09-.74L136.7,88l.08.74c.14,1.17,3.36,28.6-.24,35.25Z" transform="translate(1.94 2.66)"/><path class="cls-7" d="M103.29,143.32a133.4,133.4,0,0,1-18.71-1.51l-.74-.12.24-1.47.74.11c.2,0,20.15,3.19,30.58.2l.72-.2.41,1.43-.72.21A47.93,47.93,0,0,1,103.29,143.32Z" transform="translate(1.94 2.66)"/><path class="cls-7" d="M165.65,88.63,161,77.4a46.55,46.55,0,0,0-11.44-15.72L149,61.2l1-1.15.57.48a47.33,47.33,0,0,1,11.86,16.3L167,88.06Z" transform="translate(1.94 2.66)"/><path class="cls-7" d="M20.87,118.06l-.59-.45c-.68-.53-16.81-13-20.09-18.77l-.37-.65,1.3-.74.37.65c3.13,5.46,19.54,18.2,19.7,18.33l.59.46Z" transform="translate(1.94 2.66)"/><path class="cls-7" d="M51.2,158.16l-.45-.59c-1.88-2.43-5.4-10.4-5.55-10.74l-.3-.68,1.37-.6.3.68c0,.08,3.59,8.15,5.35,10.43l.46.59Z" transform="translate(1.94 2.66)"/><path class="cls-7" d="M-.35,77.47l-1.47-.27.14-.73c2-10.54,13-30.44,13.45-31.28l.36-.66,1.3.73-.36.65C13,46.11,1.71,66.44-.22,76.74Z" transform="translate(1.94 2.66)"/><path class="cls-7" d="M128.48,32.5l-.15-.73c0-.16-3.21-15.9-5.36-22.49l-.23-.7,1.41-.47.23.71c2.18,6.67,5.38,22.49,5.41,22.65l.15.73Z" transform="translate(1.94 2.66)"/><path class="cls-7" d="M60.71,8.5l-.8-1.26.63-.4A77.67,77.67,0,0,1,89.2-2.56l.74-.1.19,1.48-.74.1a75.93,75.93,0,0,0-28,9.18Z" transform="translate(1.94 2.66)"/></g><path class="cls-8" d="M56,3.94l5.67,3.89,3,22.75C50.89,38.21,35.24,54.84,35.24,54.84l-23.87-7,4.72-15.34,3.56-4.45,3.2-3.5L26,21.45l3.14-2.76,3.22-2.54L35.45,14l3.41-2.19,2.73-1.59,3-1.6,2.72-1.3,2.5-1.08,2.61-1L55,4.28Z" transform="translate(1.94 2.66)"/><path class="cls-8" d="M154.86,113.59l-18.06,5.68c-4.54,13.21-24.21,23.14-24.21,23.14l-4.65,14.7,1.31-.47,2.39-.94,3.19-1.38,3.31-1.62,2-1,2.55-1.47,2.5-1.58,2.86-2,2.1-1.56,2.38-1.9,3.08-2.68,2.84-2.75,2-2.11,1.45-1.62,2.45-3,2.69-3.62,2-2.95,2.14-3.54,1.32-2.42Z" transform="translate(1.94 2.66)"/><path class="cls-8" d="M82.16,112.36s.36,20.43,4.41,30.13c0,0-31.4,6.26-39.4,5.35,0,0-20.91-19.54-27.56-30.56L40.77,95S76.33,111.14,82.16,112.36Z" transform="translate(1.94 2.66)"/><path class="cls-8" d="M98.79,40.39S111.58,78.58,112,82c0,0,23.57,6.82,25,8.44,0,0,14.84-20.67,13.79-30.41,0,0-13.26-22.8-21.39-29.93Z" transform="translate(1.94 2.66)"/><path class="cls-9" d="M9.11,117.73A80.76,80.76,0,0,0,153,67.32c0-14.37-4.66-27.87-11.24-39.56,0,0,3.78,4.54,5.43,6.9,1.35,1.93,4.3,6.81,4.3,6.81a80.76,80.76,0,0,1-133.51,90" transform="translate(1.94 2.66)"/><g class="cls-10"><path class="cls-11" d="M105.86,45.1a2.24,2.24,0,0,1-.73-4.35l21.52-7.44a2.23,2.23,0,1,1,1.46,4.22L106.59,45A2,2,0,0,1,105.86,45.1Z" transform="translate(1.94 2.66)"/></g><g class="cls-12"><path class="cls-11" d="M66,116.3a2.31,2.31,0,0,1-.92-.2l-20.72-9.36a2.24,2.24,0,0,1,1.84-4.08L66.93,112A2.24,2.24,0,0,1,66,116.3Z" transform="translate(1.94 2.66)"/></g></g></g></g></svg>