<svg xmlns="http://www.w3.org/2000/svg" xmlns:xlink="http://www.w3.org/1999/xlink" viewBox="0 0 203.14 194.87"><defs><style>.cls-1{fill:none;}.cls-2{fill:url(#linear-gradient);}.cls-3{fill:#827e77;}.cls-4{fill:url(#linear-gradient-2);}.cls-5{fill:#a29d98;}.cls-6{fill:url(#linear-gradient-3);}.cls-7{fill:url(#linear-gradient-4);}.cls-8{fill:url(#linear-gradient-5);}.cls-9{fill:url(#linear-gradient-6);}.cls-10{clip-path:url(#clip-path);}.cls-11{fill:url(#linear-gradient-7);}.cls-12{fill:url(#linear-gradient-8);}.cls-13{fill:#2c1e14;}.cls-14{fill:url(#linear-gradient-9);}.cls-15{fill:#98928d;}.cls-16{fill:#a29c97;}.cls-17{fill:#1c1a10;}.cls-18{opacity:0.2;}.cls-19,.cls-37{fill:#fff;}.cls-20{fill:#d2cfcd;}.cls-21{fill:#b2ada9;}.cls-22{fill:#473a31;}.cls-23{fill:#3f3229;}.cls-24{fill:#453830;}.cls-25{fill:#c5c1be;}.cls-26{fill:#ccc8c1;}.cls-27{fill:#5a4e46;}.cls-28{fill:#c1bdb8;}.cls-29{fill:#c5bdb9;}.cls-30{fill:#231f20;}.cls-31{clip-path:url(#clip-path-2);}.cls-32{fill:url(#linear-gradient-10);}.cls-33{fill:url(#linear-gradient-11);}.cls-34{fill:#574b43;}.cls-35{fill:#5c5049;}.cls-36{fill:url(#linear-gradient-12);}.cls-37{opacity:0.5;}</style><linearGradient id="linear-gradient" x1="132.16" y1="153.47" x2="135.98" y2="192.52" gradientUnits="userSpaceOnUse"><stop offset="0" stop-color="#8a8380"/><stop offset="1" stop-color="#b8b3ab"/></linearGradient><linearGradient id="linear-gradient-2" x1="58.49" y1="196.8" x2="48.63" y2="121.05" gradientUnits="userSpaceOnUse"><stop offset="0" stop-color="#c0bdba"/><stop offset="1" stop-color="#edeae3"/></linearGradient><linearGradient id="linear-gradient-3" x1="163.18" y1="80.95" x2="202.2" y2="142.92" gradientUnits="userSpaceOnUse"><stop offset="0" stop-color="#564a42"/><stop offset="1" stop-color="#3c2e25"/></linearGradient><linearGradient id="linear-gradient-4" x1="160.37" y1="198.51" x2="41.28" y2="22.23" xlink:href="#linear-gradient-2"/><linearGradient id="linear-gradient-5" x1="63.73" y1="83.71" x2="34.27" y2="1.49" gradientUnits="userSpaceOnUse"><stop offset="0" stop-color="#c0bdb9"/><stop offset="1" stop-color="#f8f7ef"/></linearGradient><linearGradient id="linear-gradient-6" x1="27.17" y1="3.11" x2="27.65" y2="31.62" gradientUnits="userSpaceOnUse"><stop offset="0" stop-color="#665c55"/><stop offset="1" stop-color="#3c2e25"/></linearGradient><clipPath id="clip-path" transform="translate(0 5.2)"><path id="SVGID" class="cls-1" d="M88.13,70.58s12-28.94-2.79-53.81c0,0-6.86-15.65-9.86-16.72S64.33,15.7,64.33,15.7s-18.22-4.5-28.72.64c0,0-10.94-9.64-10.94-13.93,0,0,0-1.7-1.07-.43,0,0-9.86,10.29-7.5,24.65,0,0-3.22,17.15-5.58,21.87S3.45,71.22,34.11,86.66C34.11,86.66,80.22,85,88.13,70.58Z"/></clipPath><linearGradient id="linear-gradient-7" x1="64.14" y1="8.43" x2="80.3" y2="51.2" gradientUnits="userSpaceOnUse"><stop offset="0" stop-color="#5a4f47"/><stop offset="1" stop-color="#3c2e25"/></linearGradient><linearGradient id="linear-gradient-8" x1="82.83" y1="3.39" x2="75.05" y2="18.18" gradientUnits="userSpaceOnUse"><stop offset="0" stop-color="#ff6845"/><stop offset="1" stop-color="#ff8546"/></linearGradient><linearGradient id="linear-gradient-9" x1="31.31" y1="5.48" x2="25.52" y2="18.76" xlink:href="#linear-gradient-8"/><clipPath id="clip-path-2" transform="translate(0 5.2)"><path id="SVGID-2" data-name="SVGID" class="cls-1" d="M178.42,118.79a16.28,16.28,0,0,0-.06-3.06h0c-.05-.41-.11-.81-.19-1.19-2.79-13.08-12.44-29.8-34.09-31.09s-38.16,7.51-55.31-9c0,0,2.36-2.36-.64-3.86,0,0,12-28.94-2.79-53.81,0,0-6.86-15.65-9.86-16.72S64.33,15.7,64.33,15.7s-18.22-4.5-28.72.64c0,0-10.94-9.64-10.94-13.93,0,0,0-1.7-1.07-.43,0,0-9.86,10.29-7.5,24.65,0,0-3.22,17.15-5.58,21.87S3.45,71.22,34.11,86.66c0,0-9.65,36.23,6.21,48.88,8.39,6.68,18.33,13.25,32.27,17.48,3.92,13.35,7.56,20.55,11.22,26.14,0,0-7.5,4.94-3.21,10.51h20.58l-.38-32.11a172.63,172.63,0,0,0,20.34-.37,89.18,89.18,0,0,0,28.21-6.42c4,13.9,8,22.48,11.87,28.39,0,0-7.5,4.94-3.21,10.51h20.58Z"/></clipPath><linearGradient id="linear-gradient-10" x1="78.98" y1="86.28" x2="161.9" y2="86.28" gradientUnits="userSpaceOnUse"><stop offset="0" stop-color="#483b33"/><stop offset="1" stop-color="#3c2e25"/></linearGradient><linearGradient id="linear-gradient-11" x1="27.45" y1="92.68" x2="36.65" y2="92.68" xlink:href="#linear-gradient-10"/><linearGradient id="linear-gradient-12" x1="34.9" y1="49.79" x2="38.46" y2="54.45" gradientUnits="userSpaceOnUse"><stop offset="0" stop-color="#652c12"/><stop offset="1" stop-color="#201100"/></linearGradient></defs><g id="Layer_2" data-name="Layer 2"><g id="Layer_1-2" data-name="Layer 1"><path class="cls-2" d="M119.81,157.28a79.62,79.62,0,0,0,9.95,21.88s-7.51,4.94-3.22,10.51h20.58l-2.44-38.34" transform="translate(0 5.2)"/><path class="cls-3" d="M130.63,189.67a8.12,8.12,0,0,1-1-2.87,7.92,7.92,0,0,1,.08-3.14,5.62,5.62,0,0,1,1.63-2.76,4.86,4.86,0,0,1,2.86-1.18,8.79,8.79,0,0,0-2.18,1.83,6.51,6.51,0,0,0-1.15,2.4,12.57,12.57,0,0,0-.31,2.77C130.52,187.68,130.56,188.65,130.63,189.67Z" transform="translate(0 5.2)"/><path class="cls-3" d="M136.45,189.67a8.12,8.12,0,0,1-1-2.87,7.92,7.92,0,0,1,.08-3.14,5.56,5.56,0,0,1,1.64-2.76,4.84,4.84,0,0,1,2.86-1.18,8.66,8.66,0,0,0-2.19,1.83,6.33,6.33,0,0,0-1.14,2.4,11.48,11.48,0,0,0-.31,2.77C136.34,187.68,136.38,188.65,136.45,189.67Z" transform="translate(0 5.2)"/><path class="cls-4" d="M34.54,127.93S45.34,168,52.63,179.16c0,0-7.51,4.94-3.22,10.51H70l-.9-11.39-1.54-26.95" transform="translate(0 5.2)"/><path class="cls-5" d="M53.49,189.67a8.41,8.41,0,0,1-1-6,5.47,5.47,0,0,1,1.63-2.76A4.86,4.86,0,0,1,57,179.72a8.44,8.44,0,0,0-2.18,1.83A6.51,6.51,0,0,0,53.7,184a12.57,12.57,0,0,0-.31,2.77C53.38,187.68,53.43,188.65,53.49,189.67Z" transform="translate(0 5.2)"/><path class="cls-5" d="M59.32,189.67a8.35,8.35,0,0,1-1-6A5.54,5.54,0,0,1,60,180.9a4.86,4.86,0,0,1,2.86-1.18,8.61,8.61,0,0,0-2.18,1.83,6.51,6.51,0,0,0-1.15,2.4,12.57,12.57,0,0,0-.31,2.77C59.21,187.68,59.25,188.65,59.32,189.67Z" transform="translate(0 5.2)"/><path class="cls-6" d="M159.9,87.93s6.93-6.7,16.77-1.56C188,92.31,191.12,118.24,196.78,130c2,4.15,3.47,8.44,4.4,10.13,4.45,8.1.87,14.92-6.22,9.72a16.17,16.17,0,0,1-4.52-6.31,84.2,84.2,0,0,1-7.17-23c-.85-5.14-7.06-33.28-20.18-30.57" transform="translate(0 5.2)"/><path class="cls-7" d="M178.42,118.79a16.28,16.28,0,0,0-.06-3.06h0c-.05-.41-.11-.81-.19-1.19-2.79-13.08-12.44-29.8-34.09-31.09s-38.16,7.51-55.31-9c0,0,2.36-2.36-.64-3.86,0,0,12-28.94-2.79-53.81,0,0-6.86-15.65-9.86-16.72S64.33,15.7,64.33,15.7s-18.22-4.5-28.72.64c0,0-10.94-9.64-10.94-13.93,0,0,0-1.7-1.07-.43,0,0-9.86,10.29-7.5,24.65,0,0-3.22,17.15-5.58,21.87S3.45,71.22,34.11,86.66c0,0-9.65,36.23,6.21,48.88,8.39,6.68,18.33,13.25,32.27,17.48,3.92,13.35,7.56,20.55,11.22,26.14,0,0-7.5,4.94-3.21,10.51h20.58l-.38-32.11a172.63,172.63,0,0,0,20.34-.37,89.18,89.18,0,0,0,28.21-6.42c4,13.9,8,22.48,11.87,28.39,0,0-7.5,4.94-3.21,10.51h20.58Z" transform="translate(0 5.2)"/><path class="cls-8" d="M88.13,70.58s12-28.94-2.79-53.81c0,0-6.86-15.65-9.86-16.72S64.33,15.7,64.33,15.7s-18.22-4.5-28.72.64c0,0-10.94-9.64-10.94-13.93,0,0,0-1.7-1.07-.43,0,0-9.86,10.29-7.5,24.65,0,0-3.22,17.15-5.58,21.87S3.45,71.22,34.11,86.66C34.11,86.66,80.48,91.42,88.13,70.58Z" transform="translate(0 5.2)"/><path class="cls-9" d="M16.1,26.63C13.74,12.27,23.6,2,23.6,2c1.07-1.27,1.07.43,1.07.43,0,4.29,10.94,13.93,10.94,13.93l3-1.15s1.58-.44,1.59.64c0,2.65-1.81,8.78-4.09,12a16.58,16.58,0,0,1-21.21,4.89Z" transform="translate(0 5.2)"/><path class="cls-5" d="M84.68,189.67a8.48,8.48,0,0,1-1-6,5.56,5.56,0,0,1,1.64-2.76,4.84,4.84,0,0,1,2.86-1.18A8.66,8.66,0,0,0,86,181.55a6.49,6.49,0,0,0-1.14,2.4,12,12,0,0,0-.31,2.77C84.57,187.68,84.62,188.65,84.68,189.67Z" transform="translate(0 5.2)"/><path class="cls-5" d="M90.5,189.67a8.48,8.48,0,0,1-1-6,5.56,5.56,0,0,1,1.64-2.76A4.84,4.84,0,0,1,94,179.72a8.66,8.66,0,0,0-2.19,1.83,6.49,6.49,0,0,0-1.14,2.4,12.57,12.57,0,0,0-.31,2.77C90.39,187.68,90.44,188.65,90.5,189.67Z" transform="translate(0 5.2)"/><path class="cls-5" d="M162.09,189.67a8.48,8.48,0,0,1-1-6,5.56,5.56,0,0,1,1.64-2.76,4.84,4.84,0,0,1,2.86-1.18,8.66,8.66,0,0,0-2.19,1.83,6.49,6.49,0,0,0-1.14,2.4,12,12,0,0,0-.31,2.77C162,187.68,162,188.65,162.09,189.67Z" transform="translate(0 5.2)"/><path class="cls-5" d="M167.91,189.67a8.48,8.48,0,0,1-1-6,5.56,5.56,0,0,1,1.64-2.76,4.84,4.84,0,0,1,2.86-1.18,8.66,8.66,0,0,0-2.19,1.83,6.49,6.49,0,0,0-1.14,2.4,12.57,12.57,0,0,0-.31,2.77C167.8,187.68,167.85,188.65,167.91,189.67Z" transform="translate(0 5.2)"/><g class="cls-10"><path class="cls-11" d="M46,14S23.24,68.81,91.26,59.53c0,0,5.72-25.73-4-40.09S94.28,0,94.28,0L73.7-5.2,56.51,0Z" transform="translate(0 5.2)"/></g><path class="cls-12" d="M83.27,17.13c-2.22-.15-6.36,0-7.92,0a.71.71,0,0,1-.75-.61c-.39-2.81.25-10.25.63-14.11a.73.73,0,0,1,1.38-.27L84,16.05A.73.73,0,0,1,83.27,17.13Z" transform="translate(0 5.2)"/><path class="cls-13" d="M75.42,1.51l-.49,7.86c-.08,1.3-.14,2.61-.16,3.92A17.24,17.24,0,0,0,75,17.12l-.28-.2c1.9-.05,3.79-.06,5.68,0,.95,0,1.9.08,2.84.19.47.05.94.11,1.41.19a2.45,2.45,0,0,1,1.31.52,2.53,2.53,0,0,0-1.33-.39c-.46-.05-.93-.07-1.41-.08q-1.41,0-2.82,0c-1.89,0-3.78.07-5.66.15h-.22l-.06-.21a15.12,15.12,0,0,1-.27-4c0-1.32.13-2.64.23-3.95C74.66,6.71,75,4.1,75.42,1.51Z" transform="translate(0 5.2)"/><path class="cls-14" d="M34.07,17c-5.25-4.63-7.65-8.37-8.74-11a1.1,1.1,0,0,0-2.11.22c-.66,3.81-.62,9.37,3.38,14.06Z" transform="translate(0 5.2)"/><path class="cls-13" d="M24.52,1.69a24.47,24.47,0,0,0-1.15,4.76,21.37,21.37,0,0,0-.13,4.86A15.38,15.38,0,0,0,24.35,16a15.82,15.82,0,0,0,2.45,4.15l-.3-.07c3-1.29,6-2.55,9.11-3.73q-4.41,2.19-8.9,4.21l-.19.08-.12-.15a15.92,15.92,0,0,1-2.6-4.26,16.08,16.08,0,0,1-1.09-4.87,19.18,19.18,0,0,1,.31-5A19.67,19.67,0,0,1,24.52,1.69Z" transform="translate(0 5.2)"/><path class="cls-15" d="M52.83,81.13a20.22,20.22,0,0,0,2.49,3c.45.45.93.89,1.43,1.3s1,.8,1.56,1.22a8.38,8.38,0,0,1-3.42-2.1A8,8,0,0,1,53.64,83,5.94,5.94,0,0,1,52.83,81.13Z" transform="translate(0 5.2)"/><path class="cls-15" d="M83.39,68.88a7.65,7.65,0,0,1,1,5,8,8,0,0,1-.72,2.49,7,7,0,0,1-1.47,2.09,18.69,18.69,0,0,0,1.3-4.69,14.86,14.86,0,0,0,.11-2.41A19.19,19.19,0,0,0,83.39,68.88Z" transform="translate(0 5.2)"/><path class="cls-15" d="M64,80.66a15.42,15.42,0,0,0,3.17,2,24.44,24.44,0,0,0,3.52,1.27,7.72,7.72,0,0,1-3.78-.72,7.39,7.39,0,0,1-1.64-1A5.21,5.21,0,0,1,64,80.66Z" transform="translate(0 5.2)"/><path class="cls-16" d="M58.22,165a15.89,15.89,0,0,0,2.25,3,24.16,24.16,0,0,0,2.84,2.45,7.72,7.72,0,0,1-4.43-3.6A5.46,5.46,0,0,1,58.22,165Z" transform="translate(0 5.2)"/><path class="cls-15" d="M79.43,76.57a5.37,5.37,0,0,1-.67,3.15,4.36,4.36,0,0,1-2.44,2.09,12.65,12.65,0,0,0,1.08-1.13,9.86,9.86,0,0,0,.84-1.26A15.81,15.81,0,0,0,79.43,76.57Z" transform="translate(0 5.2)"/><path class="cls-15" d="M34.11,86.66c2.78.13,5.54.25,8.31.3l4.16.05h4.17a45.62,45.62,0,0,1-8.34.55c-1.39,0-2.79-.11-4.17-.26A35.81,35.81,0,0,1,34.11,86.66Z" transform="translate(0 5.2)"/><path class="cls-15" d="M88.77,74.44a24.12,24.12,0,0,1-3.44,4.31,27.82,27.82,0,0,1-4.27,3.53,22.06,22.06,0,0,1-5,2.5,17.47,17.47,0,0,1-5.43,1c.89-.27,1.79-.36,2.64-.71.43-.14.87-.25,1.29-.41l1.25-.52a30.53,30.53,0,0,0,4.72-2.6,42.42,42.42,0,0,0,4.29-3.29A52,52,0,0,0,88.77,74.44Z" transform="translate(0 5.2)"/><path class="cls-17" d="M59.38,58.12c3-.61,6.08-1.11,9.13-1.58s6.11-.85,9.17-1.26,6.13-.69,9.21-.92a65,65,0,0,1,9.26-.23c-1.55.07-3.07.2-4.6.39s-3.07.34-4.59.53l-9.18,1.13-9.18,1C65.53,57.55,62.46,57.88,59.38,58.12Z" transform="translate(0 5.2)"/><g class="cls-18"><path class="cls-19" d="M66.29,15.7a.59.59,0,0,1-.29-.07.61.61,0,0,1-.24-.82c.2-.37,4.9-9,7-11.54a.6.6,0,0,1,.85-.06.59.59,0,0,1,.06.84c-2,2.39-6.84,11.24-6.88,11.33A.6.6,0,0,1,66.29,15.7Z" transform="translate(0 5.2)"/></g><path class="cls-16" d="M49.52,165.55a17.59,17.59,0,0,0,1.27,2.31,3.25,3.25,0,0,0,1.71,1.45c.5.16,1.07-.58,1.43-1.33a25.7,25.7,0,0,0,1-2.43,7.87,7.87,0,0,1-.38,2.71,4.09,4.09,0,0,1-.67,1.29,1.66,1.66,0,0,1-1.57.64,3.37,3.37,0,0,1-2.16-2A7,7,0,0,1,49.52,165.55Z" transform="translate(0 5.2)"/><path class="cls-20" d="M16.72,74.39s-.5,2.82,1.57,4.06c0,0-.25-1.58.49-2Z" transform="translate(0 5.2)"/><path class="cls-20" d="M20.84,78.22s.33,2.17,1.78,2.91c0,0-.65-1.43,0-1.5Z" transform="translate(0 5.2)"/><path class="cls-20" d="M24.27,80.83a3.85,3.85,0,0,0,2.56,3.33s-1.75-1.45-1-2.26Z" transform="translate(0 5.2)"/><path class="cls-21" d="M90.93,61.12S92.31,63.26,92,64.6c0,0-.67-1.76-1.64-1.15Z" transform="translate(0 5.2)"/><path class="cls-21" d="M90.13,64.38l-.83,2.85s.45.59,0,2.3C89.3,69.53,91,65.77,90.13,64.38Z" transform="translate(0 5.2)"/><path class="cls-17" d="M59.38,60.55c3,.16,6,.45,9,.78s6,.77,9,1.21,5.94,1,8.88,1.7c1.47.34,2.94.72,4.39,1.16.71.25,1.44.45,2.13.77.35.15.71.28,1,.45l1,.61-1-.48c-.35-.14-.71-.24-1.07-.36-.7-.24-1.45-.38-2.17-.56-1.46-.35-2.93-.65-4.41-.91-3-.54-5.91-1.05-8.88-1.49S71.27,62.5,68.3,62,62.35,61.08,59.38,60.55Z" transform="translate(0 5.2)"/><path class="cls-22" d="M56.54,14.36s-3.09-.66-3.66-2c0,0-.09,1.2,1.47,1.78Z" transform="translate(0 5.2)"/><path class="cls-22" d="M60.53,14.94s-1.61-.88-1.83-1.84c0,0-.13,1.21.62,1.64Z" transform="translate(0 5.2)"/><path class="cls-23" d="M34,87.28s-1.85,1.33-1.79,2.94c0,0,.64-1.23,1.39-1.13Z" transform="translate(0 5.2)"/><path class="cls-23" d="M33.05,91.42s-1.46,1.35-1.36,2.5c0,0,.75-1.15,1.15-1Z" transform="translate(0 5.2)"/><path class="cls-23" d="M32.51,94.49S31.73,95.92,31,96a1.68,1.68,0,0,0,1.39-.61Z" transform="translate(0 5.2)"/><path class="cls-23" d="M32.15,96.83S31.66,98.1,31,98.2c0,0,.28.22,1.07-.39Z" transform="translate(0 5.2)"/><path class="cls-24" d="M91.22,76.63s2.82,1.21,4.61.42a15.87,15.87,0,0,1-3.1.77S90.9,77.27,91.22,76.63Z" transform="translate(0 5.2)"/><path class="cls-24" d="M95.83,79.9s4.14-.64,7.07.76c0,0-4.21-.31-3.54,1.08C99.36,81.74,96,80.68,95.83,79.9Z" transform="translate(0 5.2)"/><path class="cls-16" d="M80.39,165.55c.56,1.21,1,2.39,1.49,3.51a9.31,9.31,0,0,0,.86,1.59,4,4,0,0,0,1.33,1.26,2.54,2.54,0,0,1-1.86-.8,5.19,5.19,0,0,1-1.15-1.68A7.63,7.63,0,0,1,80.39,165.55Z" transform="translate(0 5.2)"/><path class="cls-16" d="M86.82,166.31c.44,1,.71,2,1,3a12.27,12.27,0,0,0,.53,1.4,2.83,2.83,0,0,0,.91,1.2,1.92,1.92,0,0,1-1.5-.81,4.78,4.78,0,0,1-.8-1.51A6.3,6.3,0,0,1,86.82,166.31Z" transform="translate(0 5.2)"/><path class="cls-16" d="M158.66,166.31c.44,1,.71,2,1,3a12.27,12.27,0,0,0,.53,1.4,2.83,2.83,0,0,0,.91,1.2,2,2,0,0,1-1.5-.81,4.89,4.89,0,0,1-.8-1.51A6.34,6.34,0,0,1,158.66,166.31Z" transform="translate(0 5.2)"/><path class="cls-16" d="M164.6,164.87a38.67,38.67,0,0,1,1.61,3.65c.23.61.49,1.2.75,1.79a9.1,9.1,0,0,0,.95,1.72,3.8,3.8,0,0,1-1.56-1.36,8.65,8.65,0,0,1-1-1.82A10.41,10.41,0,0,1,164.6,164.87Z" transform="translate(0 5.2)"/><path class="cls-16" d="M93.68,167.68a5.12,5.12,0,0,0,.93,1.68,2.09,2.09,0,0,0,1.39.74,2,2,0,0,0,1.32-.83,17.32,17.32,0,0,0,1.19-1.59,4.8,4.8,0,0,1-.61,2A2.33,2.33,0,0,1,96,171a2.41,2.41,0,0,1-2-1.23A3.11,3.11,0,0,1,93.68,167.68Z" transform="translate(0 5.2)"/><path class="cls-16" d="M171.39,164.12a5.34,5.34,0,0,0,.93,1.68,2,2,0,0,0,1.39.73,1.94,1.94,0,0,0,1.32-.82,16.82,16.82,0,0,0,1.18-1.59,4.68,4.68,0,0,1-.6,2,2.36,2.36,0,0,1-1.9,1.31,2.4,2.4,0,0,1-2-1.23A3.08,3.08,0,0,1,171.39,164.12Z" transform="translate(0 5.2)"/><path class="cls-25" d="M100.8,157.56l.38-24.7s-.49-3.86,6.08-3.14" transform="translate(0 5.2)"/><path class="cls-25" d="M72.59,153s-3-17.94-8.62-20.09" transform="translate(0 5.2)"/><path class="cls-26" d="M40.4,97.54c-.16,1.67-.39,3.28-.39,4.86a8.47,8.47,0,0,0,.24,2.32,4.53,4.53,0,0,0,1.13,2.06A3.3,3.3,0,0,1,39.59,105a6.16,6.16,0,0,1-.48-2.56A10.11,10.11,0,0,1,40.4,97.54Z" transform="translate(0 5.2)"/><path class="cls-26" d="M46,93.92c.07,1,.19,2,.34,3A14.3,14.3,0,0,0,47,99.8a8,8,0,0,0,1.36,2.5A7,7,0,0,0,50.75,104a4.91,4.91,0,0,1-2.89-1.19,6.58,6.58,0,0,1-1.71-2.71,9.75,9.75,0,0,1-.53-3.1A10.21,10.21,0,0,1,46,93.92Z" transform="translate(0 5.2)"/><path class="cls-26" d="M46,106.78c.43,1.48.77,2.9,1.28,4.26a9.35,9.35,0,0,0,2.26,3.67,4.3,4.3,0,0,1-1.93-1.31,6.89,6.89,0,0,1-1.18-2.05A8.92,8.92,0,0,1,46,106.78Z" transform="translate(0 5.2)"/><path class="cls-15" d="M34.11,81.81a20.27,20.27,0,0,0,1.09,2.24,6.05,6.05,0,0,0,.7,1,5,5,0,0,0,1,.76,2.21,2.21,0,0,1-1.27-.41,3.37,3.37,0,0,1-.92-1,4.4,4.4,0,0,1-.49-1.24A3.85,3.85,0,0,1,34.11,81.81Z" transform="translate(0 5.2)"/><path class="cls-27" d="M83.12,24.75a7.61,7.61,0,0,1,2.78,2.48,6.42,6.42,0,0,1,.84,1.7,3.45,3.45,0,0,1,.08,1.91,8.66,8.66,0,0,0-.73-1.63,15.22,15.22,0,0,0-.94-1.47C84.5,26.76,83.77,25.83,83.12,24.75Z" transform="translate(0 5.2)"/><path class="cls-28" d="M162.75,101a7.46,7.46,0,0,1,2.78,2.48,5.87,5.87,0,0,1,.84,1.7,3.37,3.37,0,0,1,.09,1.91,9.35,9.35,0,0,0-.73-1.63c-.29-.51-.61-1-.94-1.47C164.13,103,163.4,102,162.75,101Z" transform="translate(0 5.2)"/><path class="cls-27" d="M83.12,30.84A9.75,9.75,0,0,1,85,34.38a8.46,8.46,0,0,1,.34,2,4.44,4.44,0,0,1-.33,2,16.14,16.14,0,0,0-.37-1.91c-.15-.62-.32-1.23-.51-1.84C83.75,33.4,83.35,32.17,83.12,30.84Z" transform="translate(0 5.2)"/><path class="cls-28" d="M156,102.68a9.64,9.64,0,0,1,1.84,3.55,7.9,7.9,0,0,1,.34,2,4.23,4.23,0,0,1-.33,2,14.2,14.2,0,0,0-.36-1.92c-.16-.61-.33-1.23-.51-1.84C156.63,105.24,156.23,104,156,102.68Z" transform="translate(0 5.2)"/><path class="cls-28" d="M149.68,110.75a9.6,9.6,0,0,1,1.84,3.54,8.46,8.46,0,0,1,.34,2,4.19,4.19,0,0,1-.33,2,14.34,14.34,0,0,0-.36-1.91c-.16-.62-.33-1.23-.51-1.85A38.85,38.85,0,0,1,149.68,110.75Z" transform="translate(0 5.2)"/><path class="cls-28" d="M170.42,107a9.66,9.66,0,0,1,1.85,3.55,8.29,8.29,0,0,1,.34,2,4.44,4.44,0,0,1-.33,2,16.14,16.14,0,0,0-.37-1.91c-.15-.62-.32-1.23-.51-1.84C171.06,109.53,170.66,108.3,170.42,107Z" transform="translate(0 5.2)"/><path class="cls-27" d="M75.46,22.53c.69.94,1.21,1.89,1.78,2.8.28.45.57.89.89,1.31a5.9,5.9,0,0,0,1.14,1.15,2.65,2.65,0,0,1-1.63-.66,5.05,5.05,0,0,1-1.16-1.33A6.55,6.55,0,0,1,75.46,22.53Z" transform="translate(0 5.2)"/><path class="cls-28" d="M167.2,97.54c.69.94,1.2,1.89,1.78,2.79a12,12,0,0,0,.89,1.31A5.68,5.68,0,0,0,171,102.8a2.67,2.67,0,0,1-1.64-.66,5.24,5.24,0,0,1-1.16-1.33A6.54,6.54,0,0,1,167.2,97.54Z" transform="translate(0 5.2)"/><path class="cls-27" d="M89.84,37.54a11.26,11.26,0,0,1,.92,4.28,8.19,8.19,0,0,1-.92,4.29c.07-1.48.06-2.85,0-4.27S89.76,39,89.84,37.54Z" transform="translate(0 5.2)"/><path class="cls-17" d="M59.38,56.3c2.71-1.68,5.52-3.18,8.36-4.63s5.75-2.75,8.68-4,5.94-2.34,9-3.25a55.44,55.44,0,0,1,9.34-2.06,94.72,94.72,0,0,0-9.12,2.72q-4.5,1.56-8.87,3.43c-3,1.17-5.83,2.49-8.73,3.79S62.27,55,59.38,56.3Z" transform="translate(0 5.2)"/><ellipse class="cls-19" cx="26.97" cy="49.41" rx="9.71" ry="10.23"/><path class="cls-29" d="M27,54.59a10.14,10.14,0,0,1-9.86-10.38A10.14,10.14,0,0,1,27,33.83a10.14,10.14,0,0,1,9.85,10.38A10.14,10.14,0,0,1,27,54.59Zm0-20.47A9.85,9.85,0,0,0,17.4,44.21,9.85,9.85,0,0,0,27,54.3a9.85,9.85,0,0,0,9.56-10.09A9.85,9.85,0,0,0,27,34.12Z" transform="translate(0 5.2)"/><ellipse class="cls-30" cx="23.57" cy="49.26" rx="5.97" ry="6.29"/><g class="cls-31"><path class="cls-32" d="M92.73,70.65S86.82,81.8,80.36,84.16s10.92,17.06,29.13,17.72c17.38.63,25.12-8.37,37.48-9.21s16.91-.71,14.16-8.88S92.73,70.65,92.73,70.65Z" transform="translate(0 5.2)"/><path class="cls-33" d="M31.56,85.33s-1.51,2,2.39,2,3.55,2.42-.9,10.26S23.8,92.9,31.56,85.33Z" transform="translate(0 5.2)"/></g><rect class="cls-34" x="35.01" y="58.17" width="1.2" height="7.3"/><path class="cls-34" d="M26.76,61.55a6,6,0,0,0,2.39,1,4.47,4.47,0,0,0,2.55-.36,9.54,9.54,0,0,0,3.45-2.85.57.57,0,0,1,.61-.13.37.37,0,0,1,.2.13,8.94,8.94,0,0,0,2,1.81,10,10,0,0,0,2.76,1.3,10.62,10.62,0,0,0,3.36.41,15.79,15.79,0,0,0,3.43-.51,13.35,13.35,0,0,1-3.39.8,11.51,11.51,0,0,1-3.66-.28,10.43,10.43,0,0,1-3.11-1.33,9.56,9.56,0,0,1-2.22-1.94H36a10.21,10.21,0,0,1-1.63,1.66,7.93,7.93,0,0,1-2.27,1.32,5.39,5.39,0,0,1-3,.25A5,5,0,0,1,26.76,61.55Z" transform="translate(0 5.2)"/><path class="cls-17" d="M22.9,56.3c-1.84-.9-3.67-1.78-5.53-2.6s-3.72-1.62-5.62-2.33S7.93,50,6,49.49a42.31,42.31,0,0,0-6-1.1,23.48,23.48,0,0,1,6.14.43,39.39,39.39,0,0,1,5.93,1.71,50.48,50.48,0,0,1,5.6,2.54A42.5,42.5,0,0,1,22.9,56.3Z" transform="translate(0 5.2)"/><path class="cls-17" d="M22.9,58.12c-1.88.07-3.76,0-5.64,0s-3.75-.13-5.63-.23S7.89,57.64,6,57.45s-3.74-.38-5.59-.68c1.89-.08,3.77-.05,5.65,0s3.75.13,5.62.23,3.74.25,5.6.44S21,57.82,22.9,58.12Z" transform="translate(0 5.2)"/><path class="cls-17" d="M22.37,59.48c-1.79.77-3.61,1.45-5.43,2.13s-3.65,1.3-5.49,1.94-3.67,1.23-5.52,1.81l-2.77.88a24,24,0,0,0-2.73,1A29.59,29.59,0,0,1,5.69,64.7c1.81-.73,3.64-1.38,5.47-2s3.69-1.21,5.56-1.74S20.46,59.9,22.37,59.48Z" transform="translate(0 5.2)"/><circle class="cls-19" cx="53" cy="49.41" r="10.23"/><path class="cls-35" d="M53,54.59A10.38,10.38,0,1,1,63.38,44.21,10.4,10.4,0,0,1,53,54.59Zm0-20.47A10.09,10.09,0,1,0,63.09,44.21,10.1,10.1,0,0,0,53,34.12Z" transform="translate(0 5.2)"/><circle class="cls-30" cx="49.54" cy="49.41" r="6.62"/><path class="cls-36" d="M31.68,48.77h9.48a2,2,0,0,1,2.08,2c0,2.45-1.06,6.28-7.48,6.28-5.11,0-6.25-3.58-6.16-6.34A2,2,0,0,1,31.68,48.77Z" transform="translate(0 5.2)"/><ellipse class="cls-37" cx="33.44" cy="56.03" rx="2.29" ry="0.89"/></g></g></svg>