<svg xmlns="http://www.w3.org/2000/svg" xmlns:xlink="http://www.w3.org/1999/xlink" viewBox="0 0 140.28 217.23"><defs><style>.cls-1{fill:none;}.cls-2{fill:#00acb7;}.cls-3{fill:#056;}.cls-4{fill:#f3f3f3;}.cls-5{fill:url(#linear-gradient);}.cls-6{fill:#00a8a9;}.cls-7{fill:#6ed7d7;}.cls-8{clip-path:url(#clip-path);}.cls-9{fill:#323232;}.cls-10{fill:#c6c6c6;}.cls-11{fill:url(#linear-gradient-2);}.cls-12{fill:#005f64;}.cls-13{fill:#00a0a5;}.cls-14{opacity:0.5;}.cls-15{fill:#fff;}</style><linearGradient id="linear-gradient" x1="24.28" y1="57.73" x2="141.71" y2="175.16" gradientUnits="userSpaceOnUse"><stop offset="0" stop-color="#11b6bc"/><stop offset="0.19" stop-color="#16b8bd"/><stop offset="0.42" stop-color="#24bdc1"/><stop offset="0.66" stop-color="#3cc5c8"/><stop offset="0.92" stop-color="#5ed0d1"/><stop offset="1" stop-color="#6ad4d4"/></linearGradient><clipPath id="clip-path"><polygon id="SVGID" class="cls-1" points="26.21 66.25 139.3 23.41 113.09 7.25 0 50.09 26.21 66.25"/></clipPath><linearGradient id="linear-gradient-2" x1="26.01" y1="59.93" x2="-0.03" y2="201.8" gradientUnits="userSpaceOnUse"><stop offset="0" stop-color="#00767a"/><stop offset="0.31" stop-color="#007b7f"/><stop offset="0.68" stop-color="#00898c"/><stop offset="1" stop-color="#009c9d"/></linearGradient></defs><g id="Layer_2" data-name="Layer 2"><g id="Layer_1-2" data-name="Layer 1"><polygon class="cls-2" points="115.44 0.87 115.44 157.83 114.06 157.83 114.06 1.39 115.44 0.87"/><polygon class="cls-3" points="0 201.07 114.06 157.83 114.06 0 0 43.24 0 201.07"/><polygon class="cls-4" points="26.21 66.25 139.3 23.41 113.09 7.25 0 50.09 26.21 66.25"/><polygon class="cls-5" points="26.21 217.23 140.28 173.99 140.28 16.16 26.21 59.4 26.21 217.23"/><polygon class="cls-6" points="51.09 98.66 122.49 71.28 122.49 38.86 51.09 66.25 51.09 98.66"/><polygon class="cls-7" points="138.91 15.29 24.84 58.53 26.21 59.4 140.28 16.16 138.91 15.29"/><polygon class="cls-7" points="114.06 0 0 43.24 1.37 44.11 115.44 0.87 114.06 0"/><g class="cls-8"><rect class="cls-9" x="3.15" y="26.94" width="114.84" height="0.37" transform="translate(-5.68 23.24) rotate(-20.77)"/><rect class="cls-10" x="5.5" y="28.21" width="114.84" height="0.37" transform="translate(-5.98 24.15) rotate(-20.77)"/><rect class="cls-10" x="7.19" y="29.31" width="114.84" height="0.37" transform="translate(-6.26 24.82) rotate(-20.77)"/><rect class="cls-10" x="8.89" y="30.42" width="114.84" height="0.37" transform="translate(-6.54 25.5) rotate(-20.77)"/><rect class="cls-10" x="10.58" y="31.53" width="114.84" height="0.37" transform="translate(-6.83 26.17) rotate(-20.77)"/><rect class="cls-10" x="12.27" y="32.63" width="114.84" height="0.37" transform="translate(-7.11 26.84) rotate(-20.77)"/><rect class="cls-10" x="13.97" y="33.74" width="114.84" height="0.37" transform="translate(-7.39 27.51) rotate(-20.77)"/><rect class="cls-10" x="15.66" y="34.84" width="114.84" height="0.37" transform="translate(-7.67 28.18) rotate(-20.77)"/><rect class="cls-10" x="17.35" y="35.95" width="114.84" height="0.37" transform="translate(-7.96 28.86) rotate(-20.77)"/><rect class="cls-10" x="19.04" y="37.06" width="114.84" height="0.37" transform="translate(-8.24 29.53) rotate(-20.77)"/></g><polygon class="cls-7" points="26.21 59.4 0 43.24 1.72 42.59 28 58.72 26.21 59.4"/><polygon class="cls-11" points="26.21 59.4 0 43.24 0 201.07 26.21 217.23 26.21 59.4"/><polygon class="cls-12" points="26.21 59.4 0 43.24 0 56.1 26.21 72.26 26.21 59.4"/><rect class="cls-13" x="30.92" y="64.18" width="1.49" height="143.51"/><g class="cls-14"><rect class="cls-15" x="25.47" y="59.4" width="1.49" height="157.83"/></g></g></g></svg>