<?xml version="1.0" encoding="utf-8"?><svg id="paperFly2" image-rendering="auto" baseProfile="basic" version="1.1" x="0px" y="0px" width="488" height="488" xmlns="http://www.w3.org/2000/svg" xmlns:xlink="http://www.w3.org/1999/xlink"><defs><filter id="filter1" filterUnits="objectBoundingBox" width="100%" height="100%" x="0%" y="0%"><feColorMatrix type="matrix" in="SourceGraphic" result="colorTrans" values="1 0 0 0 0 0 1 0 0 0 0 0 1 0 0 0 0 0 0 0"/></filter><filter id="filter2" filterUnits="objectBoundingBox" width="100%" height="100%" x="0%" y="0%"><feColorMatrix type="matrix" in="SourceGraphic" result="colorTrans" values="1 0 0 0 0 0 1 0 0 0 0 0 1 0 0 0 0 0 .04 0"/></filter><filter id="filter3" filterUnits="objectBoundingBox" width="100%" height="100%" x="0%" y="0%"><feColorMatrix type="matrix" in="SourceGraphic" result="colorTrans" values="1 0 0 0 0 0 1 0 0 0 0 0 1 0 0 0 0 0 .08 0"/></filter><filter id="filter4" filterUnits="objectBoundingBox" width="100%" height="100%" x="0%" y="0%"><feColorMatrix type="matrix" in="SourceGraphic" result="colorTrans" values="1 0 0 0 0 0 1 0 0 0 0 0 1 0 0 0 0 0 .13 0"/></filter><filter id="filter5" filterUnits="objectBoundingBox" width="100%" height="100%" x="0%" y="0%"><feColorMatrix type="matrix" in="SourceGraphic" result="colorTrans" values="1 0 0 0 0 0 1 0 0 0 0 0 1 0 0 0 0 0 .16 0"/></filter><filter id="filter6" filterUnits="objectBoundingBox" width="100%" height="100%" x="0%" y="0%"><feColorMatrix type="matrix" in="SourceGraphic" result="colorTrans" values="1 0 0 0 0 0 1 0 0 0 0 0 1 0 0 0 0 0 .21 0"/></filter><g id="ho-188t2o22d50r1" overflow="visible" display="none"><use xlink:href="#ho-189" transform="matrix(.978 0 0 .978 -.05 0)"><animateTransform attributeName="transform" additive="replace" type="translate" dur="1.667s" keyTimes="0;.45999;.46;.52;1" values="-.098,0;-.098,0;-.06,0;-.04,0;-.04,0" keySplines=".1 .1 .9 .9;.1 .1 .9 .9;.5 0 .75 .5;.1 .1 .9 .9" calcMode="spline" fill="freeze"/><animateTransform attributeName="transform" additive="sum" type="scale" dur="1.667s" keyTimes="0;.45999;.46;.52;1" values=".978,.978;.978,.978;1.2,1.2;.8,.8;.8,.8" keySplines=".1 .1 .9 .9;.1 .1 .9 .9;.5 0 .75 .5;.1 .1 .9 .9" calcMode="spline" fill="freeze"/><animateTransform attributeName="transform" additive="sum" type="translate" dur="1.667s" keyTimes="0;.45999;.46;1" values=".1,0;.1,0;.05,0;.05,0" keySplines=".1 .1 .9 .9;.1 .1 .9 .9;.5 0 .75 .5" calcMode="spline" fill="freeze"/></use><animate attributeName="display" fill="freeze" repeatCount="1" dur="1.667s" keyTimes="0;.44;.54;1" values="none;inline;none;none"/></g><g id="ho-188o22d50r1" overflow="visible" display="none"><use xlink:href="#ho-189" transform="matrix(.8 0 0 .8 0 0)"><animateTransform attributeName="transform" additive="replace" type="translate" dur="1.667s" keyTimes="0;.44;.5;.56;1" values="-.04,0;-.04,0;-.06,0;-.04,0;-.04,0" keySplines=".5 0 .75 .5;.5 0 .75 .5;.5 0 .75 .5;.1 .1 .9 .9" calcMode="spline" fill="freeze"/><animateTransform attributeName="transform" additive="sum" type="scale" dur="1.667s" keyTimes="0;.44;.5;.56;1" values=".8,.8;.8,.8;1.2,1.2;.8,.8;.8,.8" keySplines=".5 0 .75 .5;.5 0 .75 .5;.5 0 .75 .5;.1 .1 .9 .9" calcMode="spline" fill="freeze"/><animateTransform attributeName="transform" additive="sum" type="translate" dur="1.667s" keyTimes="0;1" values=".05,0;.05,0" keySplines=".5 0 .75 .5" calcMode="spline" fill="freeze"/></use><animate attributeName="display" fill="freeze" repeatCount="1" dur="1.667s" keyTimes="0;.44;.58;1" values="none;inline;none;none"/></g><g id="ho-188f6o22r1" overflow="visible"><use xlink:href="#ho-189" transform="matrix(.8 0 0 .8 0 0)"/></g><g id="ho-188t4o22d50r1" overflow="visible" display="none"><use xlink:href="#ho-189" transform="matrix(1.156 0 0 1.156 0 0)"><animateTransform attributeName="transform" additive="replace" type="translate" dur="1.667s" keyTimes="0;.45999;.46;.47999;.48;1" values="-.058,0;-.058,0;-.051,0;-.051,0;-.04,0;-.04,0" calcMode="discrete" fill="freeze"/><animateTransform attributeName="transform" additive="sum" type="scale" dur="1.667s" keyTimes="0;.45999;.46;.47999;.48;1" values="1.155,1.155;1.155,1.155;1.022,1.022;1.022,1.022;.8,.8;.8,.8" calcMode="discrete" fill="freeze"/><animateTransform attributeName="transform" additive="sum" type="translate" dur="1.667s" keyTimes="0;1" values=".05,0;.05,0" calcMode="discrete" fill="freeze"/></use><animate attributeName="display" fill="freeze" repeatCount="1" dur="1.667s" keyTimes="0;.44;.5;1" values="none;inline;none;none"/></g><g id="ho-188t3o23d50r1" overflow="visible" display="none"><use xlink:href="#ho-189" transform="matrix(1.2 0 0 1.2 0 0)"><animateTransform attributeName="transform" additive="replace" type="translate" dur="1.667s" keyTimes="0;.46;.52;1" values="-.06,0;-.06,0;-.04,0;-.04,0" keySplines=".5 0 .75 .5;.5 0 .75 .5;.1 .1 .9 .9" calcMode="spline" fill="freeze"/><animateTransform attributeName="transform" additive="sum" type="scale" dur="1.667s" keyTimes="0;.46;.52;1" values="1.2,1.2;1.2,1.2;.8,.8;.8,.8" keySplines=".5 0 .75 .5;.5 0 .75 .5;.1 .1 .9 .9" calcMode="spline" fill="freeze"/><animateTransform attributeName="transform" additive="sum" type="translate" dur="1.667s" keyTimes="0;1" values=".05,0;.05,0" keySplines=".5 0 .75 .5" calcMode="spline" fill="freeze"/></use><animate attributeName="display" fill="freeze" repeatCount="1" dur="1.667s" keyTimes="0;.46;.54;1" values="none;inline;none;none"/></g><g id="ho-188t1o23d50r1" overflow="visible" display="none"><use xlink:href="#ho-189" transform="matrix(.844 0 0 .844 -.05 0)"><animateTransform attributeName="transform" additive="replace" type="translate" dur="1.667s" keyTimes="0;.47999;.48;.49999;.5;.56;1" values="-.084,0;-.084,0;-.098,0;-.098,0;-.06,0;-.04,0;-.04,0" keySplines=".1 .1 .9 .9;.1 .1 .9 .9;.1 .1 .9 .9;.1 .1 .9 .9;.5 0 .75 .5;.1 .1 .9 .9" calcMode="spline" fill="freeze"/><animateTransform attributeName="transform" additive="sum" type="scale" dur="1.667s" keyTimes="0;.47999;.48;.49999;.5;.56;1" values=".844,.844;.844,.844;.978,.978;.978,.978;1.2,1.2;.8,.8;.8,.8" keySplines=".1 .1 .9 .9;.1 .1 .9 .9;.1 .1 .9 .9;.1 .1 .9 .9;.5 0 .75 .5;.1 .1 .9 .9" calcMode="spline" fill="freeze"/><animateTransform attributeName="transform" additive="sum" type="translate" dur="1.667s" keyTimes="0;.49999;.5;1" values=".1,0;.1,0;.05,0;.05,0" keySplines=".1 .1 .9 .9;.1 .1 .9 .9;.5 0 .75 .5" calcMode="spline" fill="freeze"/></use><animate attributeName="display" fill="freeze" repeatCount="1" dur="1.667s" keyTimes="0;.46;.58;1" values="none;inline;none;none"/></g><g id="ho-188t5o23d50r1" overflow="visible" display="none"><use xlink:href="#ho-189" transform="matrix(1.022 0 0 1.022 0 0)"><animateTransform attributeName="transform" additive="replace" type="translate" dur="1.667s" keyTimes="0;.47999;.48;1" values="-.051,0;-.051,0;-.04,0;-.04,0" calcMode="discrete" fill="freeze"/><animateTransform attributeName="transform" additive="sum" type="scale" dur="1.667s" keyTimes="0;.47999;.48;1" values="1.022,1.022;1.022,1.022;.8,.8;.8,.8" calcMode="discrete" fill="freeze"/><animateTransform attributeName="transform" additive="sum" type="translate" dur="1.667s" keyTimes="0;1" values=".05,0;.05,0" calcMode="discrete" fill="freeze"/></use><animate attributeName="display" fill="freeze" repeatCount="1" dur="1.667s" keyTimes="0;.46;.5;1" values="none;inline;none;none"/></g><g id="ho-188t4o24d50r1" overflow="visible" display="none"><use xlink:href="#ho-189" transform="matrix(1.156 0 0 1.156 0 0)"><animateTransform attributeName="transform" additive="replace" type="translate" dur="1.667s" keyTimes="0;.49999;.5;.51999;.52;1" values="-.058,0;-.058,0;-.051,0;-.051,0;-.04,0;-.04,0" calcMode="discrete" fill="freeze"/><animateTransform attributeName="transform" additive="sum" type="scale" dur="1.667s" keyTimes="0;.49999;.5;.51999;.52;1" values="1.155,1.155;1.155,1.155;1.022,1.022;1.022,1.022;.8,.8;.8,.8" calcMode="discrete" fill="freeze"/><animateTransform attributeName="transform" additive="sum" type="translate" dur="1.667s" keyTimes="0;1" values=".05,0;.05,0" calcMode="discrete" fill="freeze"/></use><animate attributeName="display" fill="freeze" repeatCount="1" dur="1.667s" keyTimes="0;.48;.54;1" values="none;inline;none;none"/></g><g id="ho-188t2o24d50r1" overflow="visible" display="none"><use xlink:href="#ho-189" transform="matrix(.978 0 0 .978 -.05 0)"><animateTransform attributeName="transform" additive="replace" type="translate" dur="1.667s" keyTimes="0;.49999;.5;.56;1" values="-.098,0;-.098,0;-.06,0;-.04,0;-.04,0" keySplines=".1 .1 .9 .9;.1 .1 .9 .9;.5 0 .75 .5;.1 .1 .9 .9" calcMode="spline" fill="freeze"/><animateTransform attributeName="transform" additive="sum" type="scale" dur="1.667s" keyTimes="0;.49999;.5;.56;1" values=".978,.978;.978,.978;1.2,1.2;.8,.8;.8,.8" keySplines=".1 .1 .9 .9;.1 .1 .9 .9;.5 0 .75 .5;.1 .1 .9 .9" calcMode="spline" fill="freeze"/><animateTransform attributeName="transform" additive="sum" type="translate" dur="1.667s" keyTimes="0;.49999;.5;1" values=".1,0;.1,0;.05,0;.05,0" keySplines=".1 .1 .9 .9;.1 .1 .9 .9;.5 0 .75 .5" calcMode="spline" fill="freeze"/></use><animate attributeName="display" fill="freeze" repeatCount="1" dur="1.667s" keyTimes="0;.48;.58;1" values="none;inline;none;none"/></g><g id="ho-188t5o25d50r1" overflow="visible" display="none"><use xlink:href="#ho-189" transform="matrix(1.022 0 0 1.022 0 0)"><animateTransform attributeName="transform" additive="replace" type="translate" dur="1.667s" keyTimes="0;.51999;.52;1" values="-.051,0;-.051,0;-.04,0;-.04,0" calcMode="discrete" fill="freeze"/><animateTransform attributeName="transform" additive="sum" type="scale" dur="1.667s" keyTimes="0;.51999;.52;1" values="1.022,1.022;1.022,1.022;.8,.8;.8,.8" calcMode="discrete" fill="freeze"/><animateTransform attributeName="transform" additive="sum" type="translate" dur="1.667s" keyTimes="0;1" values=".05,0;.05,0" calcMode="discrete" fill="freeze"/></use><animate attributeName="display" fill="freeze" repeatCount="1" dur="1.667s" keyTimes="0;.5;.54;1" values="none;inline;none;none"/></g><g id="ho-188t3o25d50r1" overflow="visible" display="none"><use xlink:href="#ho-189" transform="matrix(1.2 0 0 1.2 0 0)"><animateTransform attributeName="transform" additive="replace" type="translate" dur="1.667s" keyTimes="0;.5;.56;1" values="-.06,0;-.06,0;-.04,0;-.04,0" keySplines=".5 0 .75 .5;.5 0 .75 .5;.1 .1 .9 .9" calcMode="spline" fill="freeze"/><animateTransform attributeName="transform" additive="sum" type="scale" dur="1.667s" keyTimes="0;.5;.56;1" values="1.2,1.2;1.2,1.2;.8,.8;.8,.8" keySplines=".5 0 .75 .5;.5 0 .75 .5;.1 .1 .9 .9" calcMode="spline" fill="freeze"/><animateTransform attributeName="transform" additive="sum" type="translate" dur="1.667s" keyTimes="0;1" values=".05,0;.05,0" keySplines=".5 0 .75 .5" calcMode="spline" fill="freeze"/></use><animate attributeName="display" fill="freeze" repeatCount="1" dur="1.667s" keyTimes="0;.5;.58;1" values="none;inline;none;none"/></g><g id="ho-188t4o26d50r1" overflow="visible" display="none"><use xlink:href="#ho-189" transform="matrix(1.156 0 0 1.156 0 0)"><animateTransform attributeName="transform" additive="replace" type="translate" dur="1.667s" keyTimes="0;.53999;.54;.55999;.56;1" values="-.058,0;-.058,0;-.051,0;-.051,0;-.04,0;-.04,0" calcMode="discrete" fill="freeze"/><animateTransform attributeName="transform" additive="sum" type="scale" dur="1.667s" keyTimes="0;.53999;.54;.55999;.56;1" values="1.155,1.155;1.155,1.155;1.022,1.022;1.022,1.022;.8,.8;.8,.8" calcMode="discrete" fill="freeze"/><animateTransform attributeName="transform" additive="sum" type="translate" dur="1.667s" keyTimes="0;1" values=".05,0;.05,0" calcMode="discrete" fill="freeze"/></use><animate attributeName="display" fill="freeze" repeatCount="1" dur="1.667s" keyTimes="0;.52;.58;1" values="none;inline;none;none"/></g><g id="ho-188t5o27d50r1" overflow="visible" display="none"><use xlink:href="#ho-189" transform="matrix(1.022 0 0 1.022 0 0)"><animateTransform attributeName="transform" additive="replace" type="translate" dur="1.667s" keyTimes="0;.55999;.56;1" values="-.051,0;-.051,0;-.04,0;-.04,0" calcMode="discrete" fill="freeze"/><animateTransform attributeName="transform" additive="sum" type="scale" dur="1.667s" keyTimes="0;.55999;.56;1" values="1.022,1.022;1.022,1.022;.8,.8;.8,.8" calcMode="discrete" fill="freeze"/><animateTransform attributeName="transform" additive="sum" type="translate" dur="1.667s" keyTimes="0;1" values=".05,0;.05,0" calcMode="discrete" fill="freeze"/></use><animate attributeName="display" fill="freeze" repeatCount="1" dur="1.667s" keyTimes="0;.54;.58;1" values="none;inline;none;none"/></g><g id="ho-189" overflow="visible"><path fill="#FFFF5C" stroke="none" d="M8.1 8.2Q13.15 3.15 26 0 13.1 -1.9 7.9 -7.25 3 -12.3 -.05 -26 -2.9 -12.3 -7.65 -7.45 -12.65 -2.3 -26.05 0 -12.45 3.15 -7.65 8 -2.85 12.8 -.05 26 2.95 13.3 8.1 8.2Z"/></g><radialGradient id="Gradient_1" gradientUnits="userSpaceOnUse" cx="0" cy="0" r="23.729" fx="0" fy="0" gradientTransform="matrix(-.258 .966 -2.963 -.793 2.45 -10.55)" spreadMethod="pad"><stop offset="0%" stop-color="#000"/><stop offset="100%" stop-color="#000" stop-opacity="0"/></radialGradient></defs><g id=".__EC.__9E.__A5.__EB.__A9.__B4-1r1" overflow="visible"><g id="paper-fly1r1" transform="translate(243 390)"><g><g id="symbol7" transform="matrix(.75 0 0 .75 -8.45 13.5)" opacity="0"><animateTransform attributeName="transform" additive="replace" type="translate" dur="1.667s" keyTimes="0;.46;1" values="-8.437,13.537;-8.475,13.575;-8.475,13.575" fill="freeze"/><animateTransform attributeName="transform" additive="sum" type="scale" dur="1.667s" keyTimes="0;.46;1" values=".75,.75;1.5,1.5;1.5,1.5" fill="freeze"/><animateTransform attributeName="transform" additive="sum" type="translate" dur="1.667s" keyTimes="0;1" values=".05,-.05;.05,-.05" fill="freeze"/><animate attributeName="opacity" dur="1.667s" keyTimes="0;.46;.58;1" values="0;.15;0;0" fill="freeze"/><path fill="url(#Gradient_1)" stroke="none" d="M-71 -47.4L-101.4 -13.8 50.95 47.4 101.35 -10.2 -71 -47.4Z"/></g><animate attributeName="display" fill="freeze" repeatCount="1" dur="1.667s" keyTimes="0;.6;1" values="inline;none;none"/></g><g id="symbol6" transform="matrix(.856 -.33 .133 .851 -7.85 -491.55)"><animateTransform attributeName="transform" additive="replace" type="translate" dur="1.667s" keyTimes="0;.46;1" values="-67.108,-476.389;-72.05,-104.5;-72.05,-104.5" fill="freeze"/><animateTransform attributeName="transform" additive="sum" type="rotate" dur="1.667s" keyTimes="0;.46;1" values="-8.878,0,0;0,0,0;0,0,0" fill="freeze"/><animateTransform attributeName="transform" additive="sum" type="skewY" dur="1.667s" keyTimes="0;.46;1" values="-12.194;0;0" fill="freeze"/><animateTransform attributeName="transform" additive="sum" type="scale" dur="1.667s" keyTimes="0;.46;1" values=".917,.862;1,1;1,1" fill="freeze"/><animateTransform attributeName="transform" additive="sum" type="scale" dur="1.667s" keyTimes="0;.46;1" values=".977,1;1,1;1,1" fill="freeze"/><animateTransform attributeName="transform" additive="sum" type="translate" dur="1.667s" keyTimes="0;.46;1" values="67.9,8.5;68,8;68,8" fill="freeze"/><path fill="#D67E00" stroke="none" d="M67.75 103.5L65.5 -85.75 -69 -103.5 -67 86.5 67.75 103.5Z"/></g><g id="symbol5" transform="matrix(.94 -.511 .133 .851 -8.7 -490.6)"><animateTransform attributeName="transform" additive="replace" type="translate" dur="1.667s" keyTimes="0;.46;1" values="-65.637,-460.12;-73.05,-86;-73.05,-86" fill="freeze"/><animateTransform attributeName="transform" additive="sum" type="rotate" dur="1.667s" keyTimes="0;.46;1" values="-8.878,0,0;0,0,0;0,0,0" fill="freeze"/><animateTransform attributeName="transform" additive="sum" type="skewY" dur="1.667s" keyTimes="0;.46;1" values="-19.643;0;0" fill="freeze"/><animateTransform attributeName="transform" additive="sum" type="scale" dur="1.667s" keyTimes="0;.46;1" values="1.07,.862;1,1;1,1" fill="freeze"/><animateTransform attributeName="transform" additive="sum" type="scale" dur="1.667s" keyTimes="0;.46;1" values=".942,1;1,1;1,1" fill="freeze"/><animateTransform attributeName="transform" additive="sum" type="translate" dur="1.667s" keyTimes="0;.46;1" values="60.5,.5;60.5,0;60.5,0" fill="freeze"/><path fill="#FFB400" stroke="none" d="M57 -76.25L-60.75 -113.25 -58.75 76.25 59.25 112.75 57 -76.25Z"/></g><g display="none"><g id="symbol4" transform="translate(-4.5 -70)" opacity="0"><animate attributeName="opacity" dur="1.667s" keyTimes="0;.46;.58;1" values="0;0;1;1" fill="freeze"/><image overflow="visible" xlink:href="./img/s_note.png" height="338" width="335" transform="translate(-167.5 -169)"/></g><animate attributeName="display" fill="freeze" repeatCount="1" dur="1.667s" keyTimes="0;.46;1" values="none;inline;inline"/></g><g display="none"><g id="ho-190f6o28r1" transform="matrix(.768 0 0 .768 51.4 -83.25)" opacity=".25"><animateTransform attributeName="transform" additive="replace" type="translate" dur="1.667s" keyTimes="0;.57999;.58;.59999;.6;.61999;.62;.63999;.64;.65999;.66;.67999;.68;.69999;.7;.71999;.72;.73999;.74;.75999;.76;.77999;.78;.98;1" values="-7.819,-93.989;-7.819,-93.989;-7.824,-94.002;-7.824,-94.002;-7.89,-93.975;-7.89,-93.975;-7.947,-94.027;-7.947,-94.027;-7.914,-93;-7.914,-93;-7.89,-93.97;-7.89,-93.97;-7.947,-94.023;-7.947,-94.023;-7.924,-94.035;-7.924,-94.035;-7.89,-94.038;-7.89,-94.038;-7.858,-94.009;-7.858,-94.009;-7.967,-94.021;-7.967,-94.021;-7.885,-93.976;-7.857,-93.953;-7.857,-93.953" fill="freeze"/><animateTransform attributeName="transform" additive="sum" type="scale" dur="1.667s" keyTimes="0;.57999;.58;.59999;.6;.61999;.62;.63999;.64;.65999;.66;.67999;.68;.69999;.7;.71999;.72;.73999;.74;.75999;.76;.77999;.78;.98;1" values=".768,.768;.768,.768;.776,.776;.776,.776;.784,.784;.784,.784;.792,.792;.792,.792;.8,.8;.8,.8;.808,.808;.808,.808;.816,.816;.816,.816;.824,.824;.824,.824;.832,.832;.832,.832;.84,.84;.84,.84;.848,.848;.848,.848;.856,.856;.936,.936;.936,.936" fill="freeze"/><animateTransform attributeName="transform" additive="sum" type="translate" dur="1.667s" keyTimes="0;.57999;.58;.59999;.6;.61999;.62;.63999;.64;.65999;.66;.67999;.68;.69999;.7;.71999;.72;.73999;.74;.75999;.76;.77999;.78;.98;1" values="77.05,14.05;77.05,14.05;77.1,14.05;77.1,14.05;77.1,14;77.1,14;77.15,14.05;77.15,14.05;77.15,14;77.15,14;77.1,13.95;77.1,13.95;77.15,14;77.15,14;77.1,14;77.1,14;77.1,14.05;77.1,14.05;77.1,14;77.1,14;77.15,14;77.15,14;77.15,14.05;77.15,14;77.15,14" fill="freeze"/><animate attributeName="opacity" dur="1.667s" keyTimes="0;.57999;.58;.59999;.6;.61999;.62;.63999;.64;.65999;.66;.67999;.68;.69999;.7;.71999;.72;.73999;.74;.75999;.76;.77999;.78;.98;1" values=".25;.25;.29;.29;.33;.33;.37;.37;.41;.41;.45;.45;.49;.49;.54;.54;.57;.57;.62;.62;.66;.66;.7;0;0" fill="freeze"/><use xlink:href="#ho-188f6o22r1" transform="translate(-290.8 106.5)"/><use xlink:href="#ho-188f6o22r1" transform="translate(161.35 111.1)"/><use xlink:href="#ho-188f6o22r1" transform="translate(161.35 -146)"/><use xlink:href="#ho-188f6o22r1" transform="translate(-286.15 -168.65)"/><use xlink:href="#ho-188f6o22r1" transform="matrix(1.5 0 0 1.5 -285.5 -17.1)"/><use xlink:href="#ho-188f6o22r1" transform="matrix(1.5 0 0 1.5 43.9 109.4)"/><use xlink:href="#ho-188f6o22r1" transform="matrix(1.2 0 0 1.2 -88.15 159.15)"/><use xlink:href="#ho-188f6o22r1" transform="matrix(1.3 0 0 1.3 -6.95 -102.1)"/><use xlink:href="#ho-188f6o22r1" transform="matrix(.7 0 0 .7 -196.25 91.95)"/><use xlink:href="#ho-188f6o22r1" transform="matrix(.7 0 0 .7 -66.15 -168.25)"/><use xlink:href="#ho-188f6o22r1" transform="matrix(.7 0 0 .7 68.85 1.75)"/><use xlink:href="#ho-188f6o22r1" transform="matrix(.7 0 0 .7 146.3 -9.5)"/><use xlink:href="#ho-188f6o22r1" transform="matrix(.5 0 0 .5 -172.5 -208.95)"/><use xlink:href="#ho-188f6o22r1" transform="matrix(1.3 0 0 1.3 60.7 -161.75)"/><use xlink:href="#ho-188f6o22r1" transform="matrix(.7 0 0 .7 -173.85 -68.9)"/></g><animate attributeName="display" fill="freeze" repeatCount="1" dur="1.667s" keyTimes="0;.56;1" values="none;inline;inline"/></g><g display="none"><g id="ho-190f5o27r1" transform="matrix(.76 0 0 .76 50.8 -83.4)" filter="url(#filter6)"><use xlink:href="#ho-188f6o22r1" transform="translate(-290.8 106.5)"/><use xlink:href="#ho-188t5o27d50r1" transform="translate(161.35 111.1)"/><use xlink:href="#ho-188f6o22r1" transform="translate(161.35 -146)"/><use xlink:href="#ho-188t5o27d50r1" transform="translate(-286.15 -168.65)"/><use xlink:href="#ho-188f6o22r1" transform="matrix(1.5 0 0 1.5 -285.5 -17.1)"/><use xlink:href="#ho-188f6o22r1" transform="matrix(1.5 0 0 1.5 43.9 109.4)"/><use xlink:href="#ho-188f6o22r1" transform="matrix(1.2 0 0 1.2 -88.15 159.15)"/><use xlink:href="#ho-188f6o22r1" transform="matrix(1.3 0 0 1.3 -6.95 -102.1)"/><use xlink:href="#ho-188t5o27d50r1" transform="matrix(.7 0 0 .7 -196.25 91.95)"/><use xlink:href="#ho-188f6o22r1" transform="matrix(.7 0 0 .7 -66.15 -168.25)"/><use xlink:href="#ho-188t5o27d50r1" transform="matrix(.7 0 0 .7 68.85 1.75)"/><use xlink:href="#ho-188t5o27d50r1" transform="matrix(.7 0 0 .7 146.3 -9.5)"/><use xlink:href="#ho-188t5o27d50r1" transform="matrix(.5 0 0 .5 -172.5 -208.95)"/><use xlink:href="#ho-188f6o22r1" transform="matrix(1.3 0 0 1.3 60.7 -161.75)"/><use xlink:href="#ho-188t5o27d50r1" transform="matrix(.7 0 0 .7 -173.85 -68.9)"/></g><animate attributeName="display" fill="freeze" repeatCount="1" dur="1.667s" keyTimes="0;.54;.56;1" values="none;inline;none;none"/></g><g display="none"><g id="ho-190f4o26r1" transform="matrix(.752 0 0 .752 50.15 -83.45)" filter="url(#filter5)"><use xlink:href="#ho-188f6o22r1" transform="translate(-290.8 106.5)"/><use xlink:href="#ho-188t4o26d50r1" transform="translate(161.35 111.1)"/><use xlink:href="#ho-188f6o22r1" transform="translate(161.35 -146)"/><use xlink:href="#ho-188t4o26d50r1" transform="translate(-286.15 -168.65)"/><use xlink:href="#ho-188f6o22r1" transform="matrix(1.5 0 0 1.5 -285.5 -17.1)"/><use xlink:href="#ho-188f6o22r1" transform="matrix(1.5 0 0 1.5 43.9 109.4)"/><use xlink:href="#ho-188f6o22r1" transform="matrix(1.2 0 0 1.2 -88.15 159.15)"/><use xlink:href="#ho-188f6o22r1" transform="matrix(1.3 0 0 1.3 -6.95 -102.1)"/><use xlink:href="#ho-188t4o26d50r1" transform="matrix(.7 0 0 .7 -196.25 91.95)"/><use xlink:href="#ho-188f6o22r1" transform="matrix(.7 0 0 .7 -66.15 -168.25)"/><use xlink:href="#ho-188t4o26d50r1" transform="matrix(.7 0 0 .7 68.85 1.75)"/><use xlink:href="#ho-188t4o26d50r1" transform="matrix(.7 0 0 .7 146.3 -9.5)"/><use xlink:href="#ho-188t4o26d50r1" transform="matrix(.5 0 0 .5 -172.5 -208.95)"/><use xlink:href="#ho-188f6o22r1" transform="matrix(1.3 0 0 1.3 60.7 -161.75)"/><use xlink:href="#ho-188t4o26d50r1" transform="matrix(.7 0 0 .7 -173.85 -68.9)"/></g><animate attributeName="display" fill="freeze" repeatCount="1" dur="1.667s" keyTimes="0;.52;.54;1" values="none;inline;none;none"/></g><g display="none"><g id="ho-190f3o25r1" transform="matrix(.744 0 0 .744 49.55 -83.55)" filter="url(#filter4)"><use xlink:href="#ho-188t5o25d50r1" transform="translate(-290.8 106.5)"/><use xlink:href="#ho-188t3o25d50r1" transform="translate(161.35 111.1)"/><use xlink:href="#ho-188t5o25d50r1" transform="translate(161.35 -146)"/><use xlink:href="#ho-188t3o25d50r1" transform="translate(-286.15 -168.65)"/><use xlink:href="#ho-188f6o22r1" transform="matrix(1.5 0 0 1.5 -285.5 -17.1)"/><use xlink:href="#ho-188f6o22r1" transform="matrix(1.5 0 0 1.5 43.9 109.4)"/><use xlink:href="#ho-188t5o25d50r1" transform="matrix(1.2 0 0 1.2 -88.15 159.15)"/><use xlink:href="#ho-188f6o22r1" transform="matrix(1.3 0 0 1.3 -6.95 -102.1)"/><use xlink:href="#ho-188t3o25d50r1" transform="matrix(.7 0 0 .7 -196.25 91.95)"/><use xlink:href="#ho-188t5o25d50r1" transform="matrix(.7 0 0 .7 -66.15 -168.25)"/><use xlink:href="#ho-188t3o25d50r1" transform="matrix(.7 0 0 .7 68.85 1.75)"/><use xlink:href="#ho-188t3o25d50r1" transform="matrix(.7 0 0 .7 146.3 -9.5)"/><use xlink:href="#ho-188t3o25d50r1" transform="matrix(.5 0 0 .5 -172.5 -208.95)"/><use xlink:href="#ho-188f6o22r1" transform="matrix(1.3 0 0 1.3 60.7 -161.75)"/><use xlink:href="#ho-188t3o25d50r1" transform="matrix(.7 0 0 .7 -173.85 -68.9)"/></g><animate attributeName="display" fill="freeze" repeatCount="1" dur="1.667s" keyTimes="0;.5;.52;1" values="none;inline;none;none"/></g><g display="none"><g id="ho-190f2o24r1" transform="matrix(.736 0 0 .736 48.95 -83.7)" filter="url(#filter3)"><use xlink:href="#ho-188t4o24d50r1" transform="translate(-290.8 106.5)"/><use xlink:href="#ho-188t2o24d50r1" transform="translate(161.35 111.1)"/><use xlink:href="#ho-188t4o24d50r1" transform="translate(161.35 -146)"/><use xlink:href="#ho-188t2o24d50r1" transform="translate(-286.15 -168.65)"/><use xlink:href="#ho-188f6o22r1" transform="matrix(1.5 0 0 1.5 -285.5 -17.1)"/><use xlink:href="#ho-188f6o22r1" transform="matrix(1.5 0 0 1.5 43.9 109.4)"/><use xlink:href="#ho-188t4o24d50r1" transform="matrix(1.2 0 0 1.2 -88.15 159.15)"/><use xlink:href="#ho-188f6o22r1" transform="matrix(1.3 0 0 1.3 -6.95 -102.1)"/><use xlink:href="#ho-188t2o24d50r1" transform="matrix(.7 0 0 .7 -196.25 91.95)"/><use xlink:href="#ho-188t4o24d50r1" transform="matrix(.7 0 0 .7 -66.15 -168.25)"/><use xlink:href="#ho-188t2o24d50r1" transform="matrix(.7 0 0 .7 68.85 1.75)"/><use xlink:href="#ho-188t2o24d50r1" transform="matrix(.7 0 0 .7 146.3 -9.5)"/><use xlink:href="#ho-188t2o24d50r1" transform="matrix(.5 0 0 .5 -172.5 -208.95)"/><use xlink:href="#ho-188f6o22r1" transform="matrix(1.3 0 0 1.3 60.7 -161.75)"/><use xlink:href="#ho-188t2o24d50r1" transform="matrix(.7 0 0 .7 -173.85 -68.9)"/></g><animate attributeName="display" fill="freeze" repeatCount="1" dur="1.667s" keyTimes="0;.48;.5;1" values="none;inline;none;none"/></g><g display="none"><g id="ho-190f1o23r1" transform="matrix(.728 0 0 .728 48.3 -83.8)" filter="url(#filter2)"><use xlink:href="#ho-188t3o23d50r1" transform="translate(-290.8 106.5)"/><use xlink:href="#ho-188t1o23d50r1" transform="translate(161.35 111.1)"/><use xlink:href="#ho-188t3o23d50r1" transform="translate(161.35 -146)"/><use xlink:href="#ho-188t1o23d50r1" transform="translate(-286.15 -168.65)"/><use xlink:href="#ho-188f6o22r1" transform="matrix(1.5 0 0 1.5 -285.5 -17.1)"/><use xlink:href="#ho-188f6o22r1" transform="matrix(1.5 0 0 1.5 43.9 109.4)"/><use xlink:href="#ho-188t3o23d50r1" transform="matrix(1.2 0 0 1.2 -88.15 159.15)"/><use xlink:href="#ho-188t5o23d50r1" transform="matrix(1.3 0 0 1.3 -6.95 -102.1)"/><use xlink:href="#ho-188t1o23d50r1" transform="matrix(.7 0 0 .7 -196.25 91.95)"/><use xlink:href="#ho-188t3o23d50r1" transform="matrix(.7 0 0 .7 -66.15 -168.25)"/><use xlink:href="#ho-188t1o23d50r1" transform="matrix(.7 0 0 .7 68.85 1.75)"/><use xlink:href="#ho-188t1o23d50r1" transform="matrix(.7 0 0 .7 146.3 -9.5)"/><use xlink:href="#ho-188t1o23d50r1" transform="matrix(.5 0 0 .5 -172.5 -208.95)"/><use xlink:href="#ho-188t5o23d50r1" transform="matrix(1.3 0 0 1.3 60.7 -161.75)"/><use xlink:href="#ho-188t1o23d50r1" transform="matrix(.7 0 0 .7 -173.85 -68.9)"/></g><animate attributeName="display" fill="freeze" repeatCount="1" dur="1.667s" keyTimes="0;.46;.48;1" values="none;inline;none;none"/></g><g display="none"><g id="ho-190f0o22r1" transform="matrix(.72 0 0 .72 47.75 -83.9)" filter="url(#filter1)"><use xlink:href="#ho-188t2o22d50r1" transform="translate(-290.8 106.5)"/><use xlink:href="#ho-188o22d50r1" transform="translate(161.35 111.1)"/><use xlink:href="#ho-188t2o22d50r1" transform="translate(161.35 -146)"/><use xlink:href="#ho-188o22d50r1" transform="translate(-286.15 -168.65)"/><use xlink:href="#ho-188f6o22r1" transform="matrix(1.5 0 0 1.5 -285.5 -17.1)"/><use xlink:href="#ho-188f6o22r1" transform="matrix(1.5 0 0 1.5 43.9 109.4)"/><use xlink:href="#ho-188t2o22d50r1" transform="matrix(1.2 0 0 1.2 -88.15 159.15)"/><use xlink:href="#ho-188t4o22d50r1" transform="matrix(1.3 0 0 1.3 -6.95 -102.1)"/><use xlink:href="#ho-188o22d50r1" transform="matrix(.7 0 0 .7 -196.25 91.95)"/><use xlink:href="#ho-188t2o22d50r1" transform="matrix(.7 0 0 .7 -66.15 -168.25)"/><use xlink:href="#ho-188o22d50r1" transform="matrix(.7 0 0 .7 68.85 1.75)"/><use xlink:href="#ho-188o22d50r1" transform="matrix(.7 0 0 .7 146.3 -9.5)"/><use xlink:href="#ho-188o22d50r1" transform="matrix(.5 0 0 .5 -172.5 -208.95)"/><use xlink:href="#ho-188t4o22d50r1" transform="matrix(1.3 0 0 1.3 60.7 -161.75)"/><use xlink:href="#ho-188o22d50r1" transform="matrix(.7 0 0 .7 -173.85 -68.9)"/></g><animate attributeName="display" fill="freeze" repeatCount="1" dur="1.667s" keyTimes="0;.44;.46;1" values="none;inline;none;none"/></g></g></g></svg>