<?xml version="1.0" encoding="utf-8"?><svg id="paperOpen" image-rendering="auto" baseProfile="basic" version="1.1" x="0px" y="0px" width="1280" height="800" xmlns="http://www.w3.org/2000/svg" xmlns:xlink="http://www.w3.org/1999/xlink"><g id=".__EC.__9E.__A5.__EB.__A9.__B4-1r1" overflow="visible"><g display="none" id="Layer30_0_FILL"><path fill="#FFF" stroke="none" d="M983.45 555.5L981.45 187.5 640.45 188.5 640.45 553.5 983.45 555.5Z"/><animate attributeName="display" fill="freeze" repeatCount="1" dur="2s" keyTimes="0;.233;.25;1" values="none;inline;none;none"/></g><g display="none" id="Layer29_0_FILL"><path fill="#FAEFDF" stroke="none" d="M966.05 545.55L964.05 188.75 635.85 188.55 636 542.65 966.05 545.55Z"/><animate attributeName="display" fill="freeze" repeatCount="1" dur="2s" keyTimes="0;.217;.233;1" values="none;inline;none;none"/></g><g display="none" id="Layer28_0_FILL"><path fill="#F5DFBF" stroke="none" d="M948.65 535.65L946.65 190 631.25 188.65 631.5 531.75 948.65 535.65Z"/><animate attributeName="display" fill="freeze" repeatCount="1" dur="2s" keyTimes="0;.2;.217;1" values="none;inline;none;none"/></g><g display="none" id="Layer27_0_FILL"><path fill="#F0CF9F" stroke="none" d="M931.25 525.7L929.25 191.25 626.65 188.7 627.05 520.9 931.25 525.7Z"/><animate attributeName="display" fill="freeze" repeatCount="1" dur="2s" keyTimes="0;.183;.2;1" values="none;inline;none;none"/></g><g display="none" id="Layer26_0_FILL"><path fill="#EBBF80" stroke="none" d="M913.85 515.75L911.85 192.5 622.1 188.75 622.6 510 913.85 515.75Z"/><animate attributeName="display" fill="freeze" repeatCount="1" dur="2s" keyTimes="0;.167;.183;1" values="none;inline;none;none"/></g><g display="none" id="Layer25_0_FILL"><path fill="#E5AE60" stroke="none" d="M896.4 505.8L894.4 193.75 617.5 188.8 618.1 499.15 896.4 505.8Z"/><animate attributeName="display" fill="freeze" repeatCount="1" dur="2s" keyTimes="0;.15;.167;1" values="none;inline;none;none"/></g><g display="none" id="Layer24_0_FILL"><path fill="#E09E40" stroke="none" d="M879 495.9L877 195 612.9 188.9 613.65 488.25 879 495.9Z"/><animate attributeName="display" fill="freeze" repeatCount="1" dur="2s" keyTimes="0;.133;.15;1" values="none;inline;none;none"/></g><g display="none" id="Layer23_0_FILL"><path fill="#DB8E20" stroke="none" d="M861.6 485.95L859.6 196.25 608.3 188.95 609.15 477.4 861.6 485.95Z"/><animate attributeName="display" fill="freeze" repeatCount="1" dur="2s" keyTimes="0;.117;.133;1" values="none;inline;none;none"/></g><g display="none" id="Layer22_0_FILL"><path fill="#D67E00" stroke="none" d="M844.2 476L842.2 197.5 603.7 189 604.7 466.5 844.2 476Z"/><animate attributeName="display" fill="freeze" repeatCount="1" dur="2s" keyTimes="0;.1;.117;1" values="none;inline;none;none"/></g><g display="none" id="Layer21_0_FILL"><path fill="#D67E00" stroke="none" d="M821 462.75L819 199.15 597.55 189.1 598.75 452 821 462.75Z"/><animate attributeName="display" fill="freeze" repeatCount="1" dur="2s" keyTimes="0;.083;.1;1" values="none;inline;none;none"/></g><g display="none" id="Layer20_0_FILL"><path fill="#D67E00" stroke="none" d="M797.8 449.5L795.8 200.85 591.45 189.15 592.8 437.5 797.8 449.5Z"/><animate attributeName="display" fill="freeze" repeatCount="1" dur="2s" keyTimes="0;.067;.083;1" values="none;inline;none;none"/></g><g display="none" id="Layer19_0_FILL"><path fill="#D67E00" stroke="none" d="M774.6 436.25L772.6 202.5 585.35 189.25 586.85 423 774.6 436.25Z"/><animate attributeName="display" fill="freeze" repeatCount="1" dur="2s" keyTimes="0;.05;.067;1" values="none;inline;none;none"/></g><g display="none" id="Layer18_0_FILL"><path fill="#D67E00" stroke="none" d="M751.35 423L749.35 204.15 579.2 189.35 580.85 408.5 751.35 423Z"/><animate attributeName="display" fill="freeze" repeatCount="1" dur="2s" keyTimes="0;.033;.05;1" values="none;inline;none;none"/></g><g display="none" id="Layer17_0_FILL"><path fill="#D67E00" stroke="none" d="M728.15 409.75L726.15 205.85 573.1 189.4 574.9 394 728.15 409.75Z"/><animate attributeName="display" fill="freeze" repeatCount="1" dur="2s" keyTimes="0;.017;.033;1" values="none;inline;none;none"/></g><g id="Layer16_0_FILL"><path fill="#D67E00" stroke="none" d="M704.95 396.5L702.95 207.5 566.95 189.5 568.95 379.5 704.95 396.5Z"/><animate attributeName="display" fill="freeze" repeatCount="1" dur="2s" keyTimes="0;.017;1" values="inline;none;none"/></g><g display="none" id="Layer15_0_FILL"><path fill="#FFF" stroke="none" d="M640.4 188.45L297.4 188.45 297.4 553.95 640.4 552.95 640.4 188.45Z"/><animate attributeName="display" fill="freeze" repeatCount="1" dur="2s" keyTimes="0;.233;.25;1" values="none;inline;none;none"/></g><g display="none" id="Layer14_0_FILL"><path fill="#FEF3D8" stroke="none" d="M319.45 189.45L319.95 540.95 636.4 542.45 635.9 188.45 319.45 189.45Z"/><animate attributeName="display" fill="freeze" repeatCount="1" dur="2s" keyTimes="0;.217;.233;1" values="none;inline;none;none"/></g><g display="none" id="Layer13_0_FILL"><path fill="#FDE6B0" stroke="none" d="M631.4 188.45L341.45 190.45 342.45 527.95 632.4 531.95 631.4 188.45Z"/><animate attributeName="display" fill="freeze" repeatCount="1" dur="2s" keyTimes="0;.2;.217;1" values="none;inline;none;none"/></g><g display="none" id="Layer12_0_FILL"><path fill="#FFD980" stroke="none" d="M627.4 188.45L351.45 192.45 350.45 502.95 627.4 520.95 627.4 188.45Z"/><animate attributeName="display" fill="freeze" repeatCount="1" dur="2s" keyTimes="0;.183;.2;1" values="none;inline;none;none"/></g><g display="none" id="Layer11_0_FILL"><path fill="#FFD980" stroke="none" d="M623.4 188.45L361.45 192.45 360.45 502.95 623.4 510.95 623.4 188.45Z"/><animate attributeName="display" fill="freeze" repeatCount="1" dur="2s" keyTimes="0;.167;.183;1" values="none;inline;none;none"/></g><g display="none" id="Layer10_0_FILL"><path fill="#FFD36A" stroke="none" d="M618.55 188.6L420.1 200.1 419.1 506.1 619.05 499.6 618.55 188.6Z"/><animate attributeName="display" fill="freeze" repeatCount="1" dur="2s" keyTimes="0;.15;.167;1" values="none;inline;none;none"/></g><g display="none" id="Layer9_0_FILL"><path fill="#FFCC54" stroke="none" d="M613.65 188.7L478.7 207.7 477.7 509.2 614.65 488.2 613.65 188.7Z"/><animate attributeName="display" fill="freeze" repeatCount="1" dur="2s" keyTimes="0;.133;.15;1" values="none;inline;none;none"/></g><g display="none" id="Layer8_0_FILL"><path fill="#FFC02A" stroke="none" d="M608.8 188.85L537.3 215.35 536.3 512.35 609.8 477.35 608.8 188.85Z"/><animate attributeName="display" fill="freeze" repeatCount="1" dur="2s" keyTimes="0;.117;.133;1" values="none;inline;none;none"/></g><g display="none" id="Layer7_0_FILL"><path fill="#FFB400" stroke="none" d="M603.9 188.95L595.9 222.95 594.9 515.45 604.9 466.45 603.9 188.95Z"/><animate attributeName="display" fill="freeze" repeatCount="1" dur="2s" keyTimes="0;.1;.117;1" values="none;inline;none;none"/></g><g display="none" id="Layer6_0_FILL"><path fill="#FFB400" stroke="none" d="M599.9 225.45L594.45 188.5 595.45 445.5 600.9 496.45 599.9 225.45Z"/><animate attributeName="display" fill="freeze" repeatCount="1" dur="2s" keyTimes="0;.083;.1;1" values="none;inline;none;none"/></g><g display="none" id="Layer5_0_FILL"><path fill="#FFB400" stroke="none" d="M617.3 225.45L588.95 188.9 590.15 432.3 618.3 480.45 617.3 225.45Z"/><animate attributeName="display" fill="freeze" repeatCount="1" dur="2s" keyTimes="0;.067;.083;1" values="none;inline;none;none"/></g><g display="none" id="Layer4_0_FILL"><path fill="#FFB400" stroke="none" d="M634.7 225.45L583.45 189.3 584.85 419.1 635.7 464.45 634.7 225.45Z"/><animate attributeName="display" fill="freeze" repeatCount="1" dur="2s" keyTimes="0;.05;.067;1" values="none;inline;none;none"/></g><g display="none" id="Layer3_0_FILL"><path fill="#FFB400" stroke="none" d="M653.15 448.5L652.15 225.5 577.95 189.7 579.55 405.9 653.15 448.5Z"/><animate attributeName="display" fill="freeze" repeatCount="1" dur="2s" keyTimes="0;.033;.05;1" values="none;inline;none;none"/></g><g display="none" id="Layer2_0_FILL"><path fill="#FFB400" stroke="none" d="M670.55 432.5L669.55 225.5 572.45 190.1 574.25 392.7 670.55 432.5Z"/><animate attributeName="display" fill="freeze" repeatCount="1" dur="2s" keyTimes="0;.017;.033;1" values="none;inline;none;none"/></g><g id="Layer1_0_FILL"><path fill="#FFB400" stroke="none" d="M687.95 416.5L686.95 225.5 566.95 190.5 568.95 379.5 687.95 416.5Z"/><animate attributeName="display" fill="freeze" repeatCount="1" dur="2s" keyTimes="0;.017;1" values="inline;none;none"/></g><g display="none"><g id=".__EC.__8B.__AC.__EB.__B3.__BC-1" transform="matrix(.976 0 0 .946 640.55 370.35)"><animateTransform attributeName="transform" additive="replace" type="translate" dur="2s" keyTimes="0;.25;.35;1" values="640.646,370.395;640.646,370.395;640.65,370.4;640.65,370.4" fill="freeze"/><animateTransform attributeName="transform" additive="sum" type="scale" dur="2s" keyTimes="0;.25;.35;1" values=".976,.946;.976,.946;1,1;1,1" fill="freeze"/><animateTransform attributeName="transform" additive="sum" type="translate" dur="2s" keyTimes="0;.25;.35;1" values="-.15,-.1;-.15,-.1;-.1,-.1;-.1,-.1" fill="freeze"/><path fill="#FFF" stroke="none" d="M345.3 -186.5Q338.85 -192.95 329.75 -192.95L-329.7 -192.95Q-338.8 -192.95 -345.25 -186.5 -351.7 -180.05 -351.7 -170.95L-351.7 171Q-351.7 180.1 -345.25 186.55 -338.8 193 -329.7 193L329.75 193Q338.85 193 345.3 186.55 351.75 180.1 351.75 171L351.75 -170.95Q351.75 -180.05 345.3 -186.5Z"/><path id="Layer31_0_1_STROKES" stroke="#00ABA5" stroke-width="1" stroke-linejoin="round" stroke-linecap="round" fill="none" d="M-329.7 -192.95L329.75 -192.95Q338.85 -192.95 345.3 -186.5 351.75 -180.05 351.75 -170.95L351.75 171Q351.75 180.1 345.3 186.55 338.85 193 329.75 193L-329.7 193Q-338.8 193 -345.25 186.55 -351.7 180.1 -351.7 171L-351.7 -170.95Q-351.7 -180.05 -345.25 -186.5 -338.8 -192.95 -329.7 -192.95Z"/></g><animate attributeName="display" fill="freeze" repeatCount="1" dur="2s" keyTimes="0;.25;1" values="none;inline;inline"/></g></g></svg>